
<svg xmlns="http://www.w3.org/2000/svg" version="1.1" xmlns:xlink="http://www.w3.org/1999/xlink" preserveAspectRatio="none" x="0px" y="0px" width="30px" height="30px" viewBox="0 0 30 30">
<defs>
<g id="___7_0_Layer0_0_FILL">
<path fill="#FFFFFF" fill-opacity="0.4980392156862745" stroke="none" d="
M 14.8 -4.5
Q 14.8 -8.75 10.6 -8.75
L -1.8 -8.75 -5.65 -12.5
Q -5.9 -12.75 -6.2 -12.75
L -10.5 -12.75
Q -14.75 -12.75 -14.75 -8.5
L -14.75 8.55
Q -14.75 12.8 -10.5 12.8
L 10.55 12.8
Q 14.8 12.8 14.8 8.55
L 14.8 -4.5
M 13.3 -4.5
L 13.3 -1.7 -13.25 -1.7 -13.25 -8.5
Q -13.25 -11.25 -10.5 -11.25
L -6.5 -11.25 -2.6 -7.45
Q -2.4 -7.25 -2.1 -7.25
L 10.55 -7.25
Q 13.3 -7.25 13.3 -4.5
M -10.5 11.3
Q -13.25 11.3 -13.25 8.55
L -13.25 -0.2 13.3 -0.2 13.3 8.55
Q 13.3 11.3 10.55 11.3
L -10.5 11.3 Z"/>
</g>
</defs>

<g transform="matrix( 1, 0, 0, 1, 15,15) ">
<g transform="matrix( 1, 0, 0, 1, 0,0) ">
<use xlink:href="#___7_0_Layer0_0_FILL"/>
</g>
</g>
</svg>
