
<svg xmlns="http://www.w3.org/2000/svg" version="1.1" xmlns:xlink="http://www.w3.org/1999/xlink" preserveAspectRatio="none" x="0px" y="0px" width="30px" height="30px" viewBox="0 0 30 30">
<defs>
<path id="___5_0_Layer0_0_1_STROKES" stroke="#FFFFFF" stroke-opacity="0.4980392156862745" stroke-width="1.5" stroke-linejoin="miter" stroke-linecap="round" stroke-miterlimit="3" fill="none" d="
M 8.3 -14
L 9 -14
Q 14 -14 14 -9
L 14 9
Q 14 14 9 14
L -7.1 14 -9 14
Q -14 14 -14 9
L -14 -9
Q -14 -14 -9 -14
L -7.1 -14 8.3 -14 8.3 -5.6 4.55 -7.55 1.2 -5.85 1.2 -13.65
M -7.1 -14
L -7.1 14"/>
</defs>

<g transform="matrix( 1, 0, 0, 1, 14.9,15) ">
<g transform="matrix( 1, 0, 0, 1, 0,0) ">
<use xlink:href="#___5_0_Layer0_0_1_STROKES"/>
</g>
</g>
</svg>
