
<svg xmlns="http://www.w3.org/2000/svg" version="1.1" xmlns:xlink="http://www.w3.org/1999/xlink" preserveAspectRatio="none" x="0px" y="0px" width="30px" height="30px" viewBox="0 0 30 30">
<defs>
<path id="___10_0_Layer0_0_1_STROKES" stroke="#FFFFFF" stroke-opacity="0.4980392156862745" stroke-width="1.5" stroke-linejoin="round" stroke-linecap="round" fill="none" d="
M 164.05 409.4
L 185.05 409.4
Q 188.55 409.4 188.55 412.9
L 188.55 433.9
Q 188.55 437.4 185.05 437.4
L 164.05 437.4
Q 160.55 437.4 160.55 433.9
L 160.55 412.9
Q 160.55 409.4 164.05 409.4 Z"/>

<path id="___10_0_Layer0_1_1_STROKES" stroke="#FFFFFF" stroke-opacity="0.4980392156862745" stroke-width="1.5" stroke-linejoin="round" stroke-linecap="butt" fill="none" d="
M -9.995114135742199 -6.050000000000011
L 10.004809570312489 -6.050000000000011"/>

<path id="___10_0_Layer0_2_1_STROKES" stroke="#FFFFFF" stroke-opacity="0.4980392156862745" stroke-width="1.5" stroke-linejoin="round" stroke-linecap="butt" fill="none" d="
M -9.995114135742199 0
L 10.004809570312489 0"/>

<path id="___10_0_Layer0_3_1_STROKES" stroke="#FFFFFF" stroke-opacity="0.4980392156862745" stroke-width="1.5" stroke-linejoin="round" stroke-linecap="butt" fill="none" d="
M -9.951879882812491 6
L 2.049804687500014 6"/>
</defs>

<g transform="matrix( 1, 0, 0, 1, 15,15) ">
<g transform="matrix( 1, 0, 0, 1, -174.55,-423.4) ">
<use xlink:href="#___10_0_Layer0_0_1_STROKES"/>
</g>

<g transform="matrix( 1.058197021484375, 0, 0, 1, -185.55,-424.1) ">
<use xlink:href="#___10_0_Layer0_1_1_STROKES" transform="matrix( 0.94500732421875, 0, 0, 1, 175.35,424.1) "/>
</g>

<g transform="matrix( 1.058197021484375, 0, 0, 1, -185.55,-418.05) ">
<use xlink:href="#___10_0_Layer0_2_1_STROKES" transform="matrix( 0.94500732421875, 0, 0, 1, 175.35,418.05) "/>
</g>

<g transform="matrix( 0.635009765625, 0, 0, 1, -115.3,-412.05) ">
<use xlink:href="#___10_0_Layer0_3_1_STROKES" transform="matrix( 1.5747833251953125, 0, 0, 1, 181.55,412.05) "/>
</g>
</g>
</svg>
