
<svg xmlns="http://www.w3.org/2000/svg" version="1.1" xmlns:xlink="http://www.w3.org/1999/xlink" preserveAspectRatio="none" x="0px" y="0px" width="30px" height="30px" viewBox="0 0 30 30">
<defs>
<g id="Layer0_0_FILL">
<path fill="#FFD400" stroke="none" d="
M 10.1 -7.3
Q 9.85 -7.3 9.7 -7.1
L -2.4 4.95
Q -2.6 5.1 -2.6 5.35
L -3.55 9.9
Q -3.55 9.95 -3.55 10.05 -3.55 10.15 -3.5 10.2 -3.5 10.25 -3.45 10.3
L -3.45 10.4 -3.25 10.4
Q -3.15 10.45 -3.05 10.4
L 2.05 9.8 2.1 9.8
Q 2.3 9.75 2.45 9.65
L 14.45 -2.3
Q 14.6 -2.5 14.6 -2.75 14.6 -3 14.45 -3.15
L 10.55 -7.1
Q 10.35 -7.3 10.1 -7.3
M 10.1 -5.85
L 13.15 -2.75 1.9 8.45 -1.15 5.35 10.1 -5.85
M -2.6 9.55
L -1.85 6.35 0.9 9.15 -2.6 9.55
M -3.45 -0.65
L -10.45 -0.65 -10.45 0.85 -3.45 0.85 -3.45 -0.65
M 8.8 -10.8
Q 8.85 -10.6 8.9 -10.35
L 10.4 -10.35
Q 10.4 -10.6 10.35 -10.8 9.65 -14.75 4.6 -14.75
L -9.25 -14.75
Q -10.25 -14.75 -11 -14.55 -15.05 -13.85 -15.05 -9.4
L -15.05 9.4
Q -15.05 13.85 -11 14.6 -10.25 14.75 -9.25 14.75
L 4.6 14.75
Q 10.5 14.75 10.45 9.4
L 10.45 7 8.95 7 8.95 9.4
Q 8.9 13.25 4.6 13.25
L -9.25 13.25
Q -10.05 13.25 -10.7 13.15 -13.55 12.55 -13.55 9.4
L -13.55 -9.4
Q -13.55 -12.55 -10.7 -13.1 -10.05 -13.25 -9.25 -13.25
L 4.6 -13.25
Q 8.05 -13.25 8.8 -10.8
M 4.6 -5.2
L 4.6 -6.7 -10.4 -6.7 -10.4 -5.2 4.6 -5.2 Z"/>
</g>
</defs>

<g transform="matrix( 1, 0, 0, 1, 15.4,14.85) ">
<g transform="matrix( 1, 0, 0, 1, -0.2,0.1) ">
<use xlink:href="#Layer0_0_FILL"/>
</g>
</g>
</svg>
