
<svg xmlns="http://www.w3.org/2000/svg" version="1.1" xmlns:xlink="http://www.w3.org/1999/xlink" preserveAspectRatio="none" x="0px" y="0px" width="30px" height="30px" viewBox="0 0 30 30">
<defs>
<g id="___4_0_Layer0_0_FILL">
<path fill="#FFD400" stroke="none" d="
M 14.4 -12.15
Q 15.05 -12.15 15.05 -12.95 15.05 -13.65 14.4 -13.65
L -14.35 -13.65
Q -15 -13.65 -15 -12.95 -15 -12.15 -14.35 -12.15
L -12.65 -12.15 -12.65 4.7
Q -12.65 6.5 -11.6 7.55 -10.6 8.8 -9.15 8.8
L -6.1 8.8 -8.65 12
Q -9.1 12.85 -8.55 13.25 -7.85 13.95 -7.4 13.2
L -4.1 9
Q -4 8.9 -3.95 8.8
L 4.25 8.8
Q 4.25 8.85 4.3 8.9
L 7.5 13.25
Q 8.05 13.95 8.65 13.35 9.35 12.8 8.8 12.1
L 6.4 8.8 9.35 8.8
Q 10.95 8.8 11.85 7.6 12.85 6.55 12.85 4.7
L 12.85 -12.15 14.4 -12.15
M -10.45 6.6
L -10.5 6.55
Q -11.15 5.85 -11.15 4.7
L -11.15 -12.15 11.35 -12.15 11.35 4.7
Q 11.35 5.85 10.75 6.55
L 10.7 6.6 10.7 6.65
Q 10.2 7.3 9.35 7.3
L -9.15 7.3
Q -9.9 7.3 -10.45 6.6
M 1.25 -0.7
Q 1.25 -1.5 0.7 -1.5
L -7.25 -1.5
Q -7.75 -1.5 -7.75 -0.7 -7.75 0 -7.25 0
L 0.7 0
Q 1.25 0 1.25 -0.7
M 7 -5.05
Q 7.6 -5.05 7.6 -5.75 7.6 -6.55 7 -6.55
L -7.1 -6.55
Q -7.75 -6.55 -7.75 -5.75 -7.75 -5.05 -7.1 -5.05
L 7 -5.05 Z"/>
</g>
</defs>

<g transform="matrix( 1, 0, 0, 1, 14.95,15.65) ">
<g transform="matrix( 1, 0, 0, 1, 0,0) ">
<use xlink:href="#___4_0_Layer0_0_FILL"/>
</g>
</g>
</svg>
