
<svg xmlns="http://www.w3.org/2000/svg" version="1.1" xmlns:xlink="http://www.w3.org/1999/xlink" preserveAspectRatio="none" x="0px" y="0px" width="30px" height="30px" viewBox="0 0 30 30">
<defs>
<path id="___________10_0_Layer0_0_1_STROKES" stroke="#FFD400" stroke-width="1.5" stroke-linejoin="round" stroke-linecap="round" fill="none" d="
M 14.25 -13.95
L 14.25 -5.2
Q 14.15 -2.05 10.95 -1.95
L 2.25 -1.95 2.25 -10.65
Q 2.35 -13.85 5.5 -13.95
L 14.25 -13.95 Z
M 14.2 14.2
L 5.45 14.2
Q 2.3 14.1 2.2 10.9
L 2.2 2.2 10.9 2.2
Q 14.1 2.3 14.2 5.45
L 14.2 14.2 Z
M -13.7 -14
L -4.95 -14
Q -1.8 -13.9 -1.7 -10.7
L -1.7 -2 -10.4 -2
Q -13.6 -2.1 -13.7 -5.25
L -13.7 -14 Z
M -13.75 14.15
L -13.75 5.4
Q -13.65 2.25 -10.45 2.15
L -1.75 2.15 -1.75 10.85
Q -1.85 14.05 -5 14.15
L -13.75 14.15 Z"/>
</defs>

<g transform="matrix( 1, 0, 0, 1, 14.75,14.9) ">
<g transform="matrix( 1, 0, 0, 1, 0,0) ">
<use xlink:href="#___________10_0_Layer0_0_1_STROKES"/>
</g>
</g>
</svg>
