<svg xmlns="http://www.w3.org/2000/svg" xmlns:xlink="http://www.w3.org/1999/xlink" preserveAspectRatio="xMidYMid" width="36" height="36" viewBox="0 0 36 36">
  <defs>
    <style>
      .cls-1 {
        stroke: #fff;
        stroke-linejoin: round;
        stroke-width: 2px;
        fill: none;
      }

      .cls-1, .cls-2 {
        fill-rule: evenodd;
      }

      .cls-2 {
        fill: #fff;
      }
    </style>
  </defs>
  <path d="M18.000,1.000 C27.389,1.000 35.000,8.611 35.000,18.000 C35.000,27.389 27.389,35.000 18.000,35.000 C8.611,35.000 1.000,27.389 1.000,18.000 C1.000,8.611 8.611,1.000 18.000,1.000 Z" class="cls-1"/>
  <path d="M24.773,14.348 L20.598,18.522 L24.763,22.687 C25.167,23.091 25.030,23.883 24.456,24.456 C23.883,25.030 23.091,25.167 22.687,24.763 L18.522,20.598 L14.336,24.785 C13.931,25.189 13.129,25.042 12.544,24.456 C11.958,23.871 11.811,23.069 12.215,22.664 L16.402,18.478 L12.250,14.326 C11.846,13.922 11.983,13.130 12.556,12.556 C13.130,11.983 13.922,11.846 14.326,12.250 L18.478,16.402 L22.652,12.228 C23.056,11.823 23.858,11.971 24.444,12.556 C25.029,13.142 25.177,13.944 24.773,14.348 Z" class="cls-2"/>
</svg>
