<svg xmlns="http://www.w3.org/2000/svg" xmlns:xlink="http://www.w3.org/1999/xlink" viewBox="0 0 1024 80"><defs><style>.cls-1{fill:#0d3170;}.cls-2{isolation:isolate;}.cls-3{fill:#001b4d;stroke:#231815;}.cls-3,.cls-5,.cls-7{stroke-miterlimit:10;}.cls-4{fill:url(#linear-gradient);}.cls-5{fill:#001f4c;stroke:#002582;}.cls-26,.cls-27,.cls-28,.cls-29,.cls-30,.cls-31,.cls-32,.cls-33,.cls-34,.cls-35,.cls-36,.cls-37,.cls-38,.cls-39,.cls-40,.cls-41,.cls-42,.cls-43,.cls-44,.cls-45,.cls-46,.cls-47,.cls-48,.cls-49,.cls-5,.cls-50,.cls-51,.cls-52,.cls-53,.cls-54,.cls-55,.cls-56,.cls-57,.cls-58,.cls-59{fill-rule:evenodd;}.cls-10,.cls-11,.cls-6,.cls-9{opacity:0.3;}.cls-7,.cls-71,.cls-75,.cls-79,.cls-81,.cls-82{fill:none;}.cls-7{stroke:#fff;mix-blend-mode:overlay;}.cls-8{fill:url(#linear-gradient-2);}.cls-9{fill:url(#linear-gradient-3);}.cls-10{fill:url(#linear-gradient-4);}.cls-11{fill:url(#linear-gradient-5);}.cls-12{clip-path:url(#clip-path);}.cls-13{fill:#ef6f20;}.cls-14{fill:#f5981b;}.cls-15{fill:#43a9de;}.cls-16{fill:#499ecc;}.cls-17{fill:#009b4f;}.cls-18{fill:#35904d;}.cls-19{fill:#7b828a;}.cls-20{fill:#80888f;}.cls-21{fill:#891c80;}.cls-22{fill:#85297b;}.cls-23{fill:#ea2f35;}.cls-24,.cls-35{fill:#fff;}.cls-25{fill:#071435;}.cls-26{fill:#c19785;}.cls-27{fill:#ad8071;}.cls-28{fill:#e2846e;}.cls-29{fill:#e9e9e9;}.cls-30{fill:#744f2f;}.cls-31{fill:#d6d3d7;}.cls-32{fill:#bbab9d;}.cls-33{fill:#2f3f5b;}.cls-34{fill:#efdfd5;}.cls-36{fill:#f98e75;}.cls-37{fill:#ecac99;}.cls-38{fill:#cdcdcd;}.cls-39{fill:#e08731;}.cls-40{fill:#275883;}.cls-41{fill:#004949;}.cls-42{fill:#e2e2e2;}.cls-43{fill:#835934;}.cls-44{fill:#e6dfe7;}.cls-45{fill:#cbb8a8;}.cls-46{fill:#e9dfdf;}.cls-47{fill:#351504;}.cls-48{fill:#1c1313;}.cls-49{fill:#432a2a;}.cls-50{fill:#4f2006;}.cls-51{fill:#3c1905;}.cls-52{fill:#f08f31;}.cls-53{fill:#006ac1;}.cls-54{fill:#2c7dff;}.cls-55{fill:#2d6fa0;}.cls-56{fill:#0c90a5;}.cls-57{fill:#065d66;}.cls-58{fill:#14405b;}.cls-59{fill:#ff0037;}.cls-60{opacity:0.32;}.cls-61,.cls-94{fill:#99f;}.cls-62{fill:#ccf;}.cls-63{fill:#39f;}.cls-64{fill:#336;}.cls-65{fill:url(#linear-gradient-6);}.cls-66{fill:#53822a;}.cls-67{fill:#15667c;}.cls-68{fill:#084e5e;}.cls-69{fill:#1d8299;}.cls-70{fill:#0e6eaf;}.cls-71{stroke:#bcb88e;}.cls-71,.cls-75,.cls-79,.cls-81,.cls-82{stroke-linecap:round;stroke-linejoin:round;}.cls-71,.cls-79,.cls-81,.cls-82{stroke-width:2px;}.cls-72{fill:#ffc;}.cls-73{fill:#cc9;}.cls-74,.cls-90{fill:#ff9;}.cls-75{stroke:#000;}.cls-76{fill:#3fe6ff;}.cls-77{fill:#f36;}.cls-78{fill:#f69;}.cls-79{stroke:#8080b7;}.cls-80{fill:#99c;}.cls-81{stroke:#7fadab;}.cls-82{stroke:#b78484;}.cls-83{fill:#b78484;}.cls-84{fill:#fcc;}.cls-85{fill:#c99;}.cls-86,.cls-93{fill:#f99;}.cls-87{fill:#cff;}.cls-88{fill:#9cc;}.cls-89,.cls-91{fill:#9ff;}.cls-90,.cls-91,.cls-92,.cls-93,.cls-94{font-size:10px;font-family:FZY4JW--GB1-0, FZY4JW -GB1-0;}.cls-92{fill:#061333;}</style><linearGradient id="linear-gradient" x1="54.33" y1="9.37" x2="54.33" y2="54.19" gradientUnits="userSpaceOnUse"><stop offset="0" stop-color="#071636"/><stop offset="1" stop-color="#073b93"/></linearGradient><linearGradient id="linear-gradient-2" x1="962.33" y1="14.75" x2="962.33" y2="54.75" xlink:href="#linear-gradient"/><linearGradient id="linear-gradient-3" x1="508.21" y1="53.8" x2="508.21" y2="4.2" gradientUnits="userSpaceOnUse"><stop offset="0" stop-color="#000019"/><stop offset="1" stop-color="#071639"/></linearGradient><linearGradient id="linear-gradient-4" x1="84.79" y1="19.71" x2="120.27" y2="19.71" xlink:href="#linear-gradient-3"/><linearGradient id="linear-gradient-5" x1="794.43" y1="26.37" x2="944.45" y2="26.37" xlink:href="#linear-gradient-3"/><clipPath id="clip-path"><path class="cls-1" d="M866.95,25.38c0-.33,0-.62-.07-.91a11.47,11.47,0,0,0-5.11-8.31h0l-.06,0a11.5,11.5,0,0,0-9.62-1.33c-.28.08-.57.19-.86.3A11.47,11.47,0,0,0,844,26.19c0,.31,0,.61.07.91a11.48,11.48,0,0,0,5.07,8.28l.05,0a11.5,11.5,0,0,0,9.67,1.37c.28-.08.56-.18.86-.3a11.47,11.47,0,0,0,7.27-11.11Z"/></clipPath><linearGradient id="linear-gradient-6" x1="676.98" y1="44.48" x2="676.98" y2="26.95" gradientUnits="userSpaceOnUse"><stop offset="0" stop-color="#fff" stop-opacity="0.2"/><stop offset="1" stop-color="#fff"/></linearGradient></defs><title>初化小故事-5</title><g class="cls-2"><g id="图层_1" data-name="图层 1"><rect class="cls-3" x="-26.6" y="-0.24" width="1072.32" height="80"/><rect class="cls-4" x="53.83" y="0.28" width="1" height="54.11"/><polygon class="cls-5" points="54.5 54.4 961 54.4 1024 80 0 80 54.5 54.4"/><g class="cls-6"><line class="cls-7" x1="17.67" y1="70.39" x2="997.67" y2="70.39"/><line class="cls-7" x1="33.67" y1="61.98" x2="978.67" y2="61.35"/><line class="cls-7" x1="122.33" y1="55.25" x2="90" y2="80"/><line class="cls-7" x1="157" y1="55.25" x2="128.67" y2="80"/><line class="cls-7" x1="227.67" y1="55.25" x2="196.33" y2="80"/><line class="cls-7" x1="293" y1="55.25" x2="269.67" y2="80"/><line class="cls-7" x1="84.67" y1="55.25" x2="47.33" y2="80"/><line class="cls-7" x1="193.67" y1="55.25" x2="162.67" y2="80"/><line class="cls-7" x1="261.67" y1="55.25" x2="234.33" y2="80"/><line class="cls-7" x1="326" y1="55.25" x2="306" y2="80"/><line class="cls-7" x1="360" y1="55.25" x2="348" y2="80"/><line class="cls-7" x1="431.33" y1="55.25" x2="426.33" y2="80"/><line class="cls-7" x1="505.33" y1="55.25" x2="504.33" y2="80"/><line class="cls-7" x1="576" y1="55.25" x2="578" y2="80"/><line class="cls-7" x1="646.67" y1="55.25" x2="652.67" y2="80"/><line class="cls-7" x1="718.33" y1="55.25" x2="730.33" y2="80"/><line class="cls-7" x1="792" y1="55.25" x2="810" y2="80"/><line class="cls-7" x1="933" y1="55.25" x2="985" y2="80"/><line class="cls-7" x1="866.67" y1="55.25" x2="896.67" y2="80"/><line class="cls-7" x1="397.67" y1="55.25" x2="389.67" y2="80"/><line class="cls-7" x1="469.33" y1="55.25" x2="464" y2="80"/><line class="cls-7" x1="542" y1="55.25" x2="543.67" y2="80"/><line class="cls-7" x1="612.67" y1="55.25" x2="616.67" y2="80"/><line class="cls-7" x1="682.33" y1="55.25" x2="689.67" y2="80"/><line class="cls-7" x1="753" y1="55.25" x2="768.67" y2="80"/><line class="cls-7" x1="853.67" y1="80" x2="827.67" y2="55.25"/><line class="cls-7" x1="899.33" y1="55.25" x2="946.33" y2="80"/></g><rect class="cls-8" x="961.83" y="6.63" width="1" height="48.3"/><rect class="cls-9" x="54.92" y="-0.31" width="906.58" height="56.12"/><circle class="cls-10" cx="102.53" cy="19.71" r="17.74"/><path class="cls-1" d="M102.53,39a19.33,19.33,0,1,1,19.33-19.33A19.35,19.35,0,0,1,102.53,39Zm0-35.48a16.15,16.15,0,1,0,16.15,16.15A16.17,16.17,0,0,0,102.53,3.57Z"/><path class="cls-1" d="M90,27.46c.33.54,1.29,0,1-.59A.57.57,0,1,0,90,27.46Z"/><path class="cls-1" d="M114.1,12.73c.33.54,1.29,0,1-.59A.57.57,0,1,0,114.1,12.73Z"/><path class="cls-1" d="M115.76,20.16c.33.54,1.29,0,1-.59A.57.57,0,1,0,115.76,20.16Z"/><path class="cls-1" d="M88.1,20.16c.33.54,1.29,0,1-.59A.57.57,0,1,0,88.1,20.16Z"/><path class="cls-1" d="M95.25,32.5c.55.32,1.11-.66.56-1A.57.57,0,1,0,95.25,32.5Z"/><path class="cls-1" d="M109.32,8c.55.32,1.11-.66.56-1A.57.57,0,1,0,109.32,8Z"/><path class="cls-1" d="M109.55,32.61c.56-.3,0-1.29-.54-1A.57.57,0,1,0,109.55,32.61Z"/><path class="cls-1" d="M96.12,7.77c.56-.3,0-1.29-.54-1A.57.57,0,1,0,96.12,7.77Z"/><path class="cls-1" d="M103.13,6.12c.56-.3,0-1.29-.54-1A.57.57,0,1,0,103.13,6.12Z"/><path class="cls-1" d="M103.13,33.77c.56-.3,0-1.29-.54-1A.57.57,0,1,0,103.13,33.77Z"/><path class="cls-1" d="M115.17,27.15c.32-.55-.64-1.12-1-.57A.57.57,0,1,0,115.17,27.15Z"/><path class="cls-1" d="M90.87,12.75c.32-.55-.64-1.12-1-.57A.57.57,0,1,0,90.87,12.75Z"/><polygon class="cls-1" points="109.51 29.27 100.83 20.85 101.14 11.11 102.34 11.11 102.85 20.6 110.34 28.49 109.51 29.27"/><path class="cls-1" d="M236.66,28.11h-92V24.68c0-.2.59.43,1,.43H236c.4,0,.7-.63.7-.43Z"/><rect class="cls-1" x="148.66" y="27.11" width="3" height="3" rx="0.72" ry="0.72"/><rect class="cls-1" x="227.66" y="27.11" width="3" height="3" rx="0.72" ry="0.72"/><rect class="cls-1" x="196.66" y="7.11" width="7" height="18"/><rect class="cls-1" x="203.66" y="9.11" width="6" height="16" rx="0.36" ry="0.36"/><rect class="cls-1" x="209.66" y="7.11" width="4" height="18" rx="0.36" ry="0.36"/><rect class="cls-1" x="215.74" y="8.28" width="3.76" height="15.89" rx="0.36" ry="0.36" transform="translate(3.16 56.56) rotate(-14.92)"/><rect class="cls-1" x="196.66" y="21.11" width="7" height="1"/><rect class="cls-1" x="203.66" y="11.11" width="1" height="5"/><rect class="cls-1" x="209.66" y="7.11" width="4" height="2"/><rect class="cls-1" x="209.66" y="9.11" width="4" height="2"/><rect class="cls-1" x="209.66" y="20.11" width="4" height="1"/><rect class="cls-1" x="209.66" y="22.11" width="4" height="1"/><rect class="cls-1" x="214.18" y="9.78" width="3.76" height="1.23" transform="translate(4.6 55.96) rotate(-14.92)"/><rect class="cls-1" x="217.31" y="21.51" width="3.76" height="1.23" transform="translate(1.69 57.16) rotate(-14.92)"/><polygon class="cls-1" points="212.59 9.08 212.2 9.06 211.96 9.37 211.86 8.99 211.49 8.86 211.82 8.64 211.82 8.25 212.13 8.5 212.51 8.38 212.37 8.75 212.59 9.08"/><polygon class="cls-1" points="212.59 21.86 212.2 21.84 211.96 22.16 211.86 21.78 211.49 21.64 211.82 21.43 211.82 21.04 212.13 21.28 212.51 21.17 212.37 21.54 212.59 21.86"/><rect class="cls-1" x="216.4" y="11.35" width="0.51" height="10.11" transform="translate(3.08 56.31) rotate(-14.91)"/><rect class="cls-1" x="216.51" y="11.24" width="0.36" height="4.48" transform="translate(3.82 56.19) rotate(-14.9)"/><rect class="cls-1" x="170.66" y="21.11" width="19" height="4" rx="0.36" ry="0.36"/><rect class="cls-1" x="173.66" y="20.11" width="18" height="4" rx="0.36" ry="0.36"/><rect class="cls-1" x="174.66" y="14.11" width="16" height="4" rx="0.36" ry="0.36"/><rect class="cls-1" x="175.66" y="11.11" width="16" height="4" rx="0.36" ry="0.36"/><rect class="cls-1" x="175.66" y="13.11" width="12" height="1"/><rect class="cls-1" x="175.66" y="13.11" width="12" height="1"/><polygon class="cls-1" points="178 17.02 177.54 16.3 177 17.02 177 15.11 178 15.11 178 17.02"/><rect class="cls-1" x="187.66" y="18.11" width="1" height="3"/><rect class="cls-1" x="173.66" y="18.11" width="2" height="3"/><rect class="cls-1" x="188.66" y="21.11" width="3" height="2"/><rect class="cls-1" x="174.66" y="22.11" width="13" height="3"/><path class="cls-1" d="M187.66,25.11h-13v-3h13Zm-13,0h13v-3h-13Z"/><path class="cls-1" d="M156.78,16.11s.07-11-5.94-10.79,4.35,10.79,4.69,10.79Z"/><path class="cls-1" d="M158.46,20.11s-.06-11,4.84-10.79-3.54,10.79-3.83,10.79Z"/><path class="cls-1" d="M157,16.93s-4.9-6.13-2.84-10,3.81,9.18,3.74,9.83S157,16.93,157,16.93Z"/><path class="cls-1" d="M158.32,17.56s4.64-6.32,2.43-10.11-3.43,9.33-3.33,10S158.32,17.56,158.32,17.56Z"/><path class="cls-1" d="M156.83,16.24c.28.59.91-.13.91-.13s2.6-7.4-.61-10.38"/><polygon class="cls-1" points="162.13 25.11 154.18 25.11 152.09 14.11 164.15 14.11 162.13 25.11"/><polygon class="cls-1" points="164.28 16.11 152.02 16.11 151.62 14.11 164.61 14.11 164.28 16.11"/><rect class="cls-11" x="794.43" y="3.27" width="150.02" height="46.2"/><circle class="cls-1" cx="935.83" cy="52.08" r="1.63"/><circle class="cls-1" cx="833.59" cy="52.08" r="1.63"/><rect class="cls-1" x="943.65" y="1.55" width="2.15" height="49.85"/><rect class="cls-1" x="794.61" y="48.76" width="149.61" height="0.41"/><rect class="cls-1" x="794.61" y="1.55" width="149.61" height="2.45"/><rect class="cls-1" x="793.03" y="1.55" width="2.35" height="49.85"/><rect class="cls-1" x="793.19" y="48.64" width="152.49" height="2.76"/><rect class="cls-1" x="852.31" y="40.48" width="6.92" height="4.08"/><polygon class="cls-1" points="849.63 39.87 847.18 38.64 861.61 11.73 863.99 13 849.63 39.87"/><path class="cls-1" d="M859.52,12.43A13.93,13.93,0,1,1,846,36l-1.13,1.89A16.09,16.09,0,1,0,860.58,10.5Z"/><path class="cls-1" d="M865.28,48c0-2.26-4.24-4.28-9.47-4.28s-9.46,2-9.46,4.28Z"/><path class="cls-1" d="M866.95,25.38c0-.33,0-.62-.07-.91a11.47,11.47,0,0,0-5.11-8.31h0l-.06,0a11.5,11.5,0,0,0-9.62-1.33c-.28.08-.57.19-.86.3A11.47,11.47,0,0,0,844,26.19c0,.31,0,.61.07.91a11.48,11.48,0,0,0,5.07,8.28l.05,0a11.5,11.5,0,0,0,9.67,1.37c.28-.08.56-.18.86-.3a11.47,11.47,0,0,0,7.27-11.11Z"/><path class="cls-1" d="M866.95,25.38c0-.33,0-.62-.07-.91a11.47,11.47,0,0,0-5.11-8.31h0l-.06,0a11.5,11.5,0,0,0-9.62-1.33c-.28.08-.57.19-.86.3A11.47,11.47,0,0,0,844,26.19c0,.31,0,.61.07.91a11.48,11.48,0,0,0,5.07,8.28l.05,0a11.5,11.5,0,0,0,9.67,1.37c.28-.08.56-.18.86-.3a11.47,11.47,0,0,0,7.27-11.11Z"/><g class="cls-12"><polygon class="cls-1" points="871.33 30.27 870.67 30.29 870.64 29.93 870.75 29.98 871 29.95 870.98 29.63 870.27 29.63 870.07 29.38 870.08 29.24 869.17 28.42 868.95 28.59 870.25 30.19 870.44 30.25 870.44 30.34 870.19 30.34 870.25 30.54 871.86 30.61 871.33 30.27"/><polygon class="cls-1" points="872.36 29.44 872.46 29.36 872.46 28.49 872.36 28.44 872.3 28.17 872.14 28.17 872.04 28.45 871.92 28.55 870.99 29.06 870.99 29.56 871.3 29.97 872.08 29.97 872.18 29.71 872.36 29.55 872.36 29.44"/><polygon class="cls-1" points="873.05 29.36 872.58 29.55 872.58 29.65 872.46 29.65 872.46 30.3 872.71 30.3 872.67 29.89 872.86 29.95 872.86 30.25 873.05 30.23 873.05 29.36"/><polygon class="cls-1" points="876.87 32.77 876.39 32.36 876.36 31.58 876.04 31.04 875.76 31.03 875.64 32.01 875.1 31.97 874.95 31.88 874.93 31.49 875.22 31.55 875.46 31.31 874.94 31 874.34 31 873.9 31.62 873.72 31.62 873.72 31.42 873.2 31.46 872.38 32.4 871.94 32.41 871.45 32.75 871.41 34.2 871.12 34.49 871.12 34.74 872.54 34.26 873.69 34.21 874.12 35.15 875.43 35.19 876.69 34.01 877 33.3 876.87 32.77"/><polygon class="cls-1" points="874.29 35.87 874.75 35.92 875.13 35.71 875.13 35.43 874.73 35.39 874.29 35.87"/><polygon class="cls-1" points="878.74 34.59 878.55 34.63 878.54 34.19 878.19 34.22 878.14 34.9 877.83 35.11 877.25 35.19 876.33 35.84 876.17 35.97 876.17 36.19 876.66 36.12 877.83 35.4 878.16 35.18 878.51 35.02 878.87 34.82 878.74 34.59"/><polygon class="cls-1" points="875.11 29.74 874.81 29.75 874.83 29.44 874.55 29.27 874.15 29.67 874.41 30.01 875 30.09 875.33 30.26 875.34 30.42 875.13 30.42 875.13 30.75 875.85 30.71 876.1 30.43 876.38 30.41 876.38 30.91 876.86 30.91 876.86 30.71 876.62 30.71 876.57 30.09 875.43 29.57 875.11 29.74"/><polygon class="cls-1" points="866.58 28.27 866.69 28.57 867.1 28.42 867.14 28 866.82 27.93 866.58 28.27"/><polygon class="cls-1" points="861.84 31.78 861.29 31.71 861.29 32.14 861.49 32.37 861.34 32.6 861.11 32.86 861.11 33.33 861.42 33.62 861.69 33.18 862.23 32.39 862.49 31.14 862.16 31.14 861.84 31.78"/><polygon class="cls-1" points="873.16 30.47 872.98 30.47 872.98 30.57 873.12 30.61 873.16 30.47"/><rect class="cls-1" x="872.14" y="30.61" width="0.21" height="0.12"/><polygon class="cls-1" points="872.66 30.73 872.79 30.73 872.79 30.63 872.89 30.61 872.89 30.51 872.68 30.51 872.59 30.61 872.46 30.73 872.46 30.83 872.66 30.81 872.66 30.73"/><polygon class="cls-1" points="873.21 30.82 873.42 30.82 873.42 30.71 873.57 30.73 873.55 30.54 873.31 30.58 873.28 30.7 873.01 30.73 873 30.73 873 30.91 873.21 30.91 873.21 30.82"/><path class="cls-1" d="M840.39,21.56l0-.28-.29,0a1.41,1.41,0,0,0,0,.32Z"/><polygon class="cls-1" points="854.89 21.29 854.91 21.46 854.65 21.52 854.62 21.89 854.93 21.89 855.34 21.85 855.55 21.59 855.33 21.5 855.2 21.36 855.02 21.06 854.93 20.63 854.58 20.7 854.48 20.86 854.48 21.02 854.65 21.14 854.89 21.29"/><polygon class="cls-1" points="854.59 21.43 854.61 21.2 854.41 21.11 854.12 21.18 853.9 21.52 853.9 21.74 854.15 21.74 854.59 21.43"/><path class="cls-1" d="M869.33,28.18l1.26,1.21.07-.21-1-1.46.11-.43.54.61.3,0,.4-.27-.06-.4-.66-.53,0-.48.19-.25.33.11,0,.23.19.29.17-.12-.09-.35.93-.33.41-.34-.06-.62-.81-.85v-.69h.36l1.12.85.32-.09-.21-.27-.6-.37,0-.54h.71l.06-.67-.27-.36.16-.17.35.35.11-.15-.44-.51L872,21.28l-.15-.29.32-.45.25.18.76.07,1-.64.16.2-.21.33V21l.88.72.28-.15-.11-.48-.62-.59.82-.05v-.24l.4-.08-.31-.21v-.16l.84.13.16-.13-1.13-.48-4.13-.21-.39-.19-.61-.09-.46,0-.42.42h-.18l-.55-.41H867l-.76-.45-1.52.1-1.16.52v.6l-.36.11-.08-.6-.13-.21-.4-.1-.09.36.12.29-1.42-.09-.68.32-.1-.3-.17,0-.12.33-.36.28-.87,0,0-.19.91,0,.19-.16L858.85,19l-1.33,0-.75.38-.28.5-.49.19-.21.22,0,.26.26,0,.15.38.44-.18.07.51h-.13l-.36-.05-.4.07-.39.55-.55.09-.08.47.23.05-.07.3-.55-.11-.5.11-.11.28.09.59.29.14h.49l.33,0,.1-.27.52-.68L856,23l.34-.31.06.24.84.56-.1.14-.37,0,.14.2.23.05.27-.11v-.33l.12-.06-.1-.11-.56-.31-.15-.41h.46l.15.15.4.34,0,.41.41.44.15-.6.29-.16.05.49.28.31h.84l.25.19v.44l-.31.28h-.85l-.52-.39-.55.05v.33h-.17l-.19-.13-.95-.24v-.61l-1.2.09-.37.2h-.48l-.23,0-.58.32V25l-1.18.85.1.37h.24l-.06.35-.17.06v.91l1,1.16h.44l0-.07h.8l.23-.21h.45l.25.25.68.07-.09.9.75,1.32-.39.76,0,.36.31.31v.86l.41.55v.71h1.21l.91-.93.28-.51.37-.08v-.43l.24-.28.51-.69-.11-1.06-.22-.39,1-1,1.1-1.57-.21-.1-1.14.24-.29-.15-1.2-2.26.08-.1,1.19,1.44,0,.45.28.28.56,0,1.17-.85.37-.24V26l-.39-.05s-1.37-.64-1.37-.67,0-.55,0-.55h.3l0,.38.63.36.72,0,1.57.26.37.23v.36l0,.49.8,1.33.26.06.26-.38.14-1.07.27-.58.43-.16.76.08,1,.85Zm-11-8.43-.53.32v.21l.3.14,0,.28-.42.63h-.73l0-.15.46-.23v-.87l.78-.54h.17Zm1.63,3.7-.69,0-.21,0V23l.15-.18.17-.05.37,0,.08-.13.15.07,0,.43.4.16,0,.2Zm2.65.34-.12.11-.28,0-.05-.08-.44,0,0-.14.23-.2v-.17l-.45-.32,0-.41.09-.21.36,0,.31.13v.21l-.44,0,0,.2.55.36v.27l.24.17Z"/><path class="cls-1" d="M848.61,22.58h-.31v.16h.07s0,0,0,.08l.19,0,.12-.07,0-.15h.15l.06-.12-.14,0h-.12Z"/><polygon class="cls-1" points="847.88 22.86 848.1 22.84 848.12 22.68 847.99 22.57 847.89 22.7 847.88 22.86"/><path class="cls-1" d="M850.8,29.71h-.94l-.75-.29,0-.53-.25-.44h-.67l-.39-.61-.34-.17,0,.18-.63,0-.23-.32-.66-.13-.54.63-.85-.15-.06-1-.62-.1.25-.47-.07-.27-.82.55-.52-.06-.18-.4.11-.42.28-.52.65-.33h1.26v.38l.45.21,0-.66.32-.33.66-.43,0-.31.66-.68.7-.39-.06-.05.48-.44.17,0,.08.1.18-.2,0,0-.2,0-.2-.07v-.19l.1-.09h.24l.1,0,.09.18.11,0h0l.33,0,0-.16.19,0V22l-.17.12h0l0,.19.59.18h.14v-.26l-.47-.21,0-.13.39-.13,0-.37-.41-.25,0-.63-.56.27h-.2l.05-.48-.76-.18-.32.24v.73l-.57.18-.23.47-.25,0v-.61l-.53-.07-.27-.17-.11-.39,1-.56.47-.14,0,.31h.26l0-.16.27,0v-.05l-.12,0,0-.17.33,0,.2-.21v0h0l.06-.06.7-.09.31.26-.81.43,1,.24.13-.35H850l.16-.3-.32-.08v-.38l-1-.44-.69.08-.39.2,0,.5-.41-.06-.06-.28.39-.36-.71,0-.2.06-.09.24.27,0-.05.27-.45,0-.07.18-.65,0a1.8,1.8,0,0,0,0-.37h.52l.39-.38-.21-.11-.28.28-.47,0-.28-.39h-.6l-.63.47h.58l.05.17-.15.14.64,0,.1.23-.72,0,0-.18-.45-.1-.24-.13h-1.07l-.33.32-.22,0-.25-.14-.74-.22h-1.35l-.78.53-.52.08-.24.19.37.05v.15h-.8l-.31.22.4.34h1.09l.15-.16h.92l.33.29,0,.45.28.26-.23.16.05.6-.83,1v.94l.44.21v.85l.43.73.35.05,0-.25-.41-.63-.08-.61h.24l.1.63.59.86-.15.28.37.57.93.23V27L843,27l0,.27.29.05.45.13.64.73.82.06.08.66-.56.39,0,.59-.08.37.81,1,.06.34.33.08s.66.47.66.47V34l.22.06-.15.84.37.5-.07.84.49.87.63.55h.64l.06-.21-.47-.39,0-.2.08-.24,0-.24h-.31l-.16-.2.26-.25,0-.19-.29-.08,0-.18.42-.06.64-.31.21-.39.67-.85-.15-.67.21-.36.61,0,.41-.33.14-1.28.46-.58.08-.37-.42-.13ZM846,23.14l-.15.15h-.34l.05-.24h.16l0-.08.25,0Zm.08-.42-.16.1-.2,0v-.35H846Zm.3-.25.16.1-.13.11-.13-.11Zm-.22.27h0l.41.12v.21h-.34l-.09-.13Zm-.27-.57.22.2-.22.05Zm-.93,0,.31-.13h.42v.13h.09v.22h-.64l-.24-.07Zm-.06.57.25-.27h.35l-.45.63-.19-.1Zm-.33-1.51.25.06-.09.34-.27.09-.17-.35Zm-1.27-1.61v0h.24l0-.08h.38v.17l-.11.15h-.53Zm.37.52.25,0s0,.23,0,.23l-.53,0-.1-.12Z"/></g><path class="cls-1" d="M885.69,35.1V26.23h-7V35.1s-9.64,13.05-6,13.05h18.9C895.33,48.15,885.69,35.1,885.69,35.1Z"/><path class="cls-1" d="M885.6,24.46h-6.79a.91.91,0,1,0,0,1.82h6.79a.91.91,0,1,0,0-1.82Z"/><path class="cls-1" d="M838.41,37.73V30.66h-5.56v7.07s-7.69,10.42-4.76,10.42h15.08C846.11,48.15,838.41,37.73,838.41,37.73Z"/><path class="cls-1" d="M838.34,29.24h-5.42a.73.73,0,1,0,0,1.45h5.42a.73.73,0,1,0,0-1.45Z"/><path class="cls-1" d="M824.44,35.1H813.31V46.22a1.93,1.93,0,0,0,1.93,1.93h7.26a1.93,1.93,0,0,0,1.93-1.93Z"/><path class="cls-1" d="M824.42,33.74h-11a.7.7,0,1,0,0,1.39h11a.7.7,0,1,0,0-1.39Z"/><path class="cls-1" d="M937.4,40.13V34.69h-4.28v5.45s-5.92,8-3.66,8h11.61C943.32,48.15,937.4,40.13,937.4,40.13Z"/><path class="cls-1" d="M937.34,33.6h-4.17a.56.56,0,1,0,0,1.12h4.17a.56.56,0,1,0,0-1.12Z"/><path class="cls-1" d="M897.14,27.88h-2.51v17.6a2.67,2.67,0,0,0,2.51,2.68,2.7,2.7,0,0,0,2.54-2.68V27.88Z"/><path class="cls-1" d="M899.91,26.77h-5.5a.6.6,0,0,0,0,1.17h5.5a.6.6,0,0,0,0-1.17Z"/><path class="cls-1" d="M807.47,27.88H805v17.6a2.67,2.67,0,0,0,2.51,2.68A2.7,2.7,0,0,0,810,45.47V27.88Z"/><path class="cls-1" d="M810.24,26.77h-5.5a.6.6,0,0,0,0,1.17h5.5a.6.6,0,0,0,0-1.17Z"/><path class="cls-1" d="M923.61,42.25v0H908.8s0,0,0,.05v3.55c0,1.29.74,2.33,1.65,2.33l11.5,0c.91,0,1.65-1,1.65-2.33Z"/><path class="cls-1" d="M927.05,46.93l-3.2-16.37h-1.53l3.26,16.66a.75.75,0,1,0,1.48-.29Z"/><path class="cls-1" d="M908.56,30.55l-3.2,16.37a.75.75,0,1,0,1.48.29l3.26-16.66Z"/><path class="cls-1" d="M916.25,30.55h-.79V47.07a.75.75,0,0,0,.75.75h0a.75.75,0,0,0,.71-.74V30.55Z"/><path class="cls-1" d="M908.56,30.55l-3.2,16.37a.75.75,0,1,0,1.48.29l3.26-16.66Z"/><path class="cls-1" d="M926.12,29.66H906.29a.89.89,0,0,0,0,1.78h19.83a.89.89,0,1,0,0-1.78Z"/><path class="cls-13" d="M733.24,31.34l-4.45-2.17a.41.41,0,0,0-.53.28L726.64,34a.41.41,0,0,0,.15.45l4.16,2.88a.39.39,0,0,0,.6-.17l1.88-5.3a.42.42,0,0,0-.19-.54"/><path class="cls-14" d="M738.74,13.39l2.75,1.27h0l.38.18,1.91-5.37a.3.3,0,0,0-.23-.41l-9.77-2.31a.43.43,0,0,0-.47.27l-1.15,3.23.94.28a.32.32,0,0,1,.26.42l-.72,2-.24.68-.63,1.78,5.23,1.8,1.3-3.65a.33.33,0,0,1,.45-.2"/><path class="cls-15" d="M746.29,16.9l-4.41-2.06h0l-.2-.09.19.08-1.16,3.28a.36.36,0,0,1-.46.22L737,17.24,735.66,21l.26.09h0l4.23,1.52a.37.37,0,0,1,.21.46l-.61,1.72,3.45.8a.43.43,0,0,0,.47-.27l2.81-7.9a.42.42,0,0,0-.19-.52"/><polygon class="cls-16" points="741.49 14.66 741.67 14.75 741.87 14.84 741.87 14.83 741.5 14.65 741.49 14.66"/><path class="cls-17" d="M741.67,14.75l-.18-.08h0l-2.75-1.27a.33.33,0,0,0-.45.2L737,17.24l3.24,1.09a.36.36,0,0,0,.46-.22l1.16-3.28Z"/><polygon class="cls-18" points="741.49 14.66 741.67 14.75 741.49 14.66 741.49 14.66"/><path class="cls-19" d="M734.87,23.23l.79-2.23h0l-2-.72a.38.38,0,0,0-.49.21l-2.78,7.82a.33.33,0,0,0,.23.42l7,1a.47.47,0,0,0,.47-.29l1.64-4.63-4.64-1.09a.38.38,0,0,1-.25-.47"/><polygon class="cls-20" points="735.92 21.09 735.92 21.09 735.66 21 735.66 21 735.92 21.09"/><path class="cls-21" d="M740.16,22.61l-4.23-1.52-.26-.1-.8,2.24a.37.37,0,0,0,.22.45l4.67,1.1.61-1.72a.37.37,0,0,0-.21-.46"/><polygon class="cls-22" points="735.92 21.09 735.92 21.09 735.66 21 735.92 21.09"/><path class="cls-23" d="M733.1,10.53l-.94-.28-4.8-1.44a.43.43,0,0,0-.5.25l-2.65,7.46a.43.43,0,0,0,.21.54l5.41,2.69a.29.29,0,0,0,.45-.13l1.51-4.24.61-1.71.24-.68.72-2a.32.32,0,0,0-.26-.42"/><ellipse class="cls-24" cx="305.44" cy="21.39" rx="13.03" ry="7.53"/><ellipse class="cls-24" cx="291.23" cy="27.59" rx="2" ry="1.25"/><ellipse class="cls-24" cx="288.92" cy="30.76" rx="1.12" ry="0.7"/><path d="M296.22,23.89l-1-2.75a1.07,1.07,0,0,1-.13-.28.66.66,0,0,1,0-.28c0-.29.21-.45.56-.47a.59.59,0,0,1,.56.47l.66,2.19.69-2.16a.57.57,0,0,1,.59-.5q.41,0,.56.5l.69,2.16.69-2.19a.55.55,0,0,1,1.1.09,1.28,1.28,0,0,1-.09.44l-1,2.78a.73.73,0,0,1-.69.53.61.61,0,0,1-.66-.5l-.59-1.85h0l-.59,1.85a.64.64,0,0,1-.66.5A.69.69,0,0,1,296.22,23.89Z"/><path d="M301.6,23.83V18.89a.6.6,0,0,1,.59-.63q.53,0,.56.63v1.6h0a1.35,1.35,0,0,1,1-.41,1.5,1.5,0,0,1,1.6,1.53v2.22c0,.4-.24.59-.59.59s-.54-.2-.56-.59v-2a.78.78,0,0,0-.75-.81.75.75,0,0,0-.75.81v2q0,.6-.56.59A.54.54,0,0,1,301.6,23.83Z"/><path d="M310,20.86v2.85q0,.72-.53.72a.51.51,0,0,1-.56-.44,1.44,1.44,0,0,1-1.09.47q-1.82-.1-1.91-2.16a2,2,0,0,1,1.91-2.22,1.37,1.37,0,0,1,1.09.53.57.57,0,0,1,.56-.5Q310,20.11,310,20.86ZM307,22.3c0,.75.34,1.14.91,1.16s.85-.43.91-1.16-.36-1.12-.91-1.16S307.08,21.57,307,22.3Z"/><path d="M310.89,23.83V21.17h-.25q-.44,0-.44-.5c0-.31.19-.48.44-.5h.25v-.69a.62.62,0,0,1,.59-.66.64.64,0,0,1,.56.66v.69h.34a.5.5,0,0,1,.53.5.47.47,0,0,1-.53.5H312v2.66q0,.6-.56.59A.54.54,0,0,1,310.89,23.83Z"/><path d="M313.83,22.24v-.78q0-.25.53-.41l.09,0q.66-.13.66-.69a.68.68,0,0,0-.66-.59,1,1,0,0,0-.75.44.94.94,0,0,1-.56.34q-.47,0-.47-.56.09-1.13,1.78-1.31,1.78.13,1.91,1.69A1.62,1.62,0,0,1,315,22v.28q0,.56-.56.56A.5.5,0,0,1,313.83,22.24Zm.56,2.22c-.4,0-.61-.21-.63-.56a.61.61,0,0,1,.63-.63.64.64,0,0,1,.63.63A.59.59,0,0,1,314.39,24.46Z"/><ellipse class="cls-25" cx="278.22" cy="58.5" rx="9.94" ry="4.84"/><path class="cls-26" d="M278,46.77a3,3,0,0,1-1.63.44q-.07,1.17-.05,2.28a.77.77,0,0,0,1.2.11Z"/><path class="cls-27" d="M278,46.77l.13-.73a1.46,1.46,0,0,0-1.66-.09q-.06.64-.09,1.26A3,3,0,0,0,278,46.77Z"/><path class="cls-26" d="M276,54.35a4.36,4.36,0,0,0,1.38,0c0-1.76,0-2.38.1-4.23v-.06l-.09,0q-.3,0-.38-.57a.92.92,0,0,0,.48.33h0l0-.42a1.16,1.16,0,0,0-1.21-.08,5.91,5.91,0,0,0-.53,1.94A15.8,15.8,0,0,0,276,54.35Z"/><path class="cls-28" d="M277.46,49.84a.92.92,0,0,1-.48-.33q.08.55.38.57l.09,0Z"/><path class="cls-29" d="M277.34,54.35a4.36,4.36,0,0,1-1.38,0v1.84a2.06,2.06,0,0,0,1.58-.07l-.14-1.22Q277.35,54.57,277.34,54.35Z"/><path class="cls-30" d="M275.4,56.92l3.63.64a8.15,8.15,0,0,0,1.86-.11l.41-.42a1.53,1.53,0,0,0-.53-.54,4.29,4.29,0,0,1-1.41-.06,1.89,1.89,0,0,1-.44-.17,1.24,1.24,0,0,0-.19.44.31.31,0,0,1-.32-.07,1.22,1.22,0,0,1,.2-.51l-.11-.06a1.55,1.55,0,0,0-.25.52.26.26,0,0,1-.3-.12,2.23,2.23,0,0,1,.33-.54l-.12-.09a2,2,0,0,0-.37.55q-.24,0-.26-.17a2.83,2.83,0,0,1,.43-.56l-.11-.12a1.53,1.53,0,0,0-.46.56q-.15,0-.18-.15a1.35,1.35,0,0,1,.5-.61,2,2,0,0,1-.16-.32.91.91,0,0,0-.58.67l0,.06q-.17.37-.41.4a.41.41,0,0,1-.36-.22,1.4,1.4,0,0,1-.15-.58.24.24,0,0,0-.13-.26A4,4,0,0,0,275.4,56.92Z"/><path class="cls-31" d="M278.16,55.83a2,2,0,0,0-.37.55q-.24,0-.26-.17a2.83,2.83,0,0,1,.43-.56A.4.4,0,0,1,278.16,55.83Zm-.77.26q-.15,0-.18-.15a1.35,1.35,0,0,1,.5-.61.22.22,0,0,1,.14.2A1.53,1.53,0,0,0,277.39,56.08Zm1.54.17a1.24,1.24,0,0,0-.19.44.31.31,0,0,1-.32-.07,1.22,1.22,0,0,1,.2-.51A.34.34,0,0,1,278.93,56.25Zm-.68.32a.26.26,0,0,1-.3-.12,2.23,2.23,0,0,1,.33-.54.21.21,0,0,1,.22.14A1.55,1.55,0,0,0,278.25,56.57Z"/><path class="cls-32" d="M275.4,56.92l-.12.69,3.79.15a10.34,10.34,0,0,0,1.91-.19l.39-.43-.06-.12-.41.42a8.15,8.15,0,0,1-1.86.11Z"/><path class="cls-33" d="M275.4,43.61l-.55,1.85a6.85,6.85,0,0,0,.68.48,6,6,0,0,0,1.26.57q.32.06.77.11a15.13,15.13,0,0,0,1.58,0l.39-2.38a7.44,7.44,0,0,0-3.46-.74q-.32,0-.65,0Z"/><path class="cls-34" d="M278.34,46.93a3,3,0,0,1-1.63.44q-.07,1.17-.05,2.28a.77.77,0,0,0,1.2.11Z"/><path class="cls-26" d="M278.34,46.93l.13-.73a1.46,1.46,0,0,0-1.66-.09q-.06.64-.09,1.26A3,3,0,0,0,278.34,46.93Z"/><path class="cls-34" d="M276.34,54.52a4.35,4.35,0,0,0,1.38,0c0-1.76,0-2.38.1-4.23v-.06l-.09,0q-.3,0-.38-.57a.92.92,0,0,0,.48.33h0l0-.42a1.16,1.16,0,0,0-1.21-.08,5.91,5.91,0,0,0-.53,1.94A15.8,15.8,0,0,0,276.34,54.52Z"/><path class="cls-35" d="M277.72,54.51a4.35,4.35,0,0,1-1.38,0v1.84a2.06,2.06,0,0,0,1.58-.07l-.14-1.22Q277.72,54.74,277.72,54.51Z"/><path class="cls-26" d="M277.84,50a.92.92,0,0,1-.48-.33q.08.55.38.57l.09,0Z"/><path class="cls-36" d="M277.76,38l.94-.35-.24-1.17a.64.64,0,0,0-.9.13Q277.65,37.26,277.76,38Z"/><path class="cls-37" d="M278.7,37.6l-.94.35q.13.8.29,1.59a1.41,1.41,0,0,0,1-.34Z"/><path class="cls-38" d="M276.89,37h0a5.49,5.49,0,0,0,2.28-.18l-.67-2.3a1.13,1.13,0,0,0-1.13-.82,1.1,1.1,0,0,0-.74,1Z"/><path class="cls-39" d="M276.89,37l.06.51a4.74,4.74,0,0,0,2.33-.24l-.11-.43a5.49,5.49,0,0,1-2.28.18Z"/><path class="cls-34" d="M278,39.49a24.27,24.27,0,0,0,1.7,3.49,1.24,1.24,0,0,0,1.12-.85A26.51,26.51,0,0,0,279,39.19.7.7,0,0,0,278,39.49Z"/><path class="cls-34" d="M280.86,45.1A.25.25,0,0,0,281,45a.2.2,0,0,0-.08-.22,1,1,0,0,1-.54-.48l0-.08h0q.34-.35.07-1.24V43q-.21-.64.32-.82h0a1.55,1.55,0,0,0-.3,0l-.14,0a.91.91,0,0,0-.58.63q.1.81.19,1.16a1.41,1.41,0,0,0,.48.84,1.89,1.89,0,0,0,.45.25Z"/><path class="cls-34" d="M280.44,43a1.15,1.15,0,0,0,1,.58h.2l.07.1.08.1.26.36q.22.28.48.1l0,0a.07.07,0,0,0,0-.09h0a.87.87,0,0,1-.24-.31L282,43h0a2.22,2.22,0,0,0-1.2-.88Q280.23,42.33,280.44,43Z"/><path class="cls-26" d="M281.73,43.63l-.07-.1h-.2a1.15,1.15,0,0,1-1-.58V43q.28.89-.07,1.24h0a2.53,2.53,0,0,1,1.09-.6l.11,0A.14.14,0,0,1,281.73,43.63Z"/><path class="cls-26" d="M281.59,43.64l-.11,0a2.53,2.53,0,0,0-1.09.6l0,.08a1,1,0,0,0,.54.48A.2.2,0,0,1,281,45a.25.25,0,0,1-.18.05h0a.59.59,0,0,0,.33,0,.59.59,0,0,0,.38,0h0a.35.35,0,0,0,.38,0l0,0q.21.1.29,0t-.09-.26h0a1.56,1.56,0,0,1-.56-.71l-.17-.45A.24.24,0,0,1,281.59,43.64Z"/><path class="cls-40" d="M278.41,46.51l.4,0h0l.61-.06.33-5q-.4,0-.78.06-.35,1.72-1.69,1.64l-.3,3.08a3.63,3.63,0,0,0,1.4.31Z"/><path class="cls-33" d="M275.83,41.47a.8.8,0,0,1,.35.23,5.14,5.14,0,0,0-.3,1.64.62.62,0,0,1-.44.36v.06l-.37,1.9a7,7,0,0,0,.72.41,5.88,5.88,0,0,0,1.31.45q.32,0,.77,0l.52,0v0a3.63,3.63,0,0,1-1.4-.31l.3-3.08q1.34.08,1.69-1.64.39,0,.78-.06l0-.65q-1.83,0-3.67.09L276,41Q275.93,41.24,275.83,41.47Z"/><path class="cls-40" d="M275.83,41.47a4.56,4.56,0,0,0-.38,1.59.1.1,0,0,1,0,0v.6a.62.62,0,0,0,.44-.36,5.14,5.14,0,0,1,.3-1.64A.8.8,0,0,0,275.83,41.47Z"/><path class="cls-34" d="M277.91,32.37a1,1,0,0,1-.39-.26l-.22-.26a.2.2,0,0,0-.34,0l-.21.78a1,1,0,0,0,1.06.32A4.15,4.15,0,0,1,277.91,32.37Z"/><path class="cls-26" d="M277.91,32.37l.08-.26a1.4,1.4,0,0,1,.54-.6q-.44-1-1.24-.84L277,31.84a.2.2,0,0,1,.34,0l.22.26A1,1,0,0,0,277.91,32.37Z"/><path class="cls-41" d="M278.64,33.77l-.33.71a4.5,4.5,0,0,0-1-.89,3.33,3.33,0,0,0-1.1-.49l.26-.71.2,0a4.16,4.16,0,0,1,1.11.42,4.94,4.94,0,0,1,.92.69Zm1,1.84v0l-.27,0-.25-1.12h.24Z"/><path class="cls-40" d="M279.63,35.63l-.27,0-.25-1.12-.48-.77-.33.71a4.5,4.5,0,0,0-1-.89,3.33,3.33,0,0,0-1.1-.49l-.17.23a4.93,4.93,0,0,0-.36.6,1.08,1.08,0,0,0-.13.54l.92,4.9-.45,1.38a6.14,6.14,0,0,0,1.61.36,22,22,0,0,0,2.24.12Z"/><polygon class="cls-41" points="279.36 34.54 278.75 33.56 278.64 33.77 279.11 34.54 279.36 34.54"/><path class="cls-34" d="M275.74,37.69q-.1.81-.17,1.61a1.41,1.41,0,0,0,1-.05l.14-1.63Z"/><path class="cls-26" d="M276.73,37.62l.1-1.19a.64.64,0,0,0-.9-.13q-.11.7-.2,1.39Z"/><path class="cls-42" d="M275.23,36.51h0a5.49,5.49,0,0,0,2.23.47V34.6a1.13,1.13,0,0,0-.85-1.11,1.1,1.1,0,0,0-1,.76Z"/><path class="cls-41" d="M275.23,36.51l-.08.5a4.74,4.74,0,0,0,2.3.42l0-.44a5.49,5.49,0,0,1-2.23-.47Z"/><path class="cls-34" d="M275.58,39.29a23.69,23.69,0,0,0,.64,3.83,1.26,1.26,0,0,0,1.32-.5,26.72,26.72,0,0,0-1-3.35A.71.71,0,0,0,275.58,39.29Z"/><path class="cls-34" d="M277.47,45.46a3.46,3.46,0,0,0,.21.4l.11.15.19.23q.17.07.2-.08a.48.48,0,0,0-.07-.34h0a1.75,1.75,0,0,1-.34-.91q0-.48,0-.51c0-.05,0-.09,0-.13a.53.53,0,0,1,.05-.28l.12.09a1.09,1.09,0,0,1,.1.21l0,.11q0,.1.15.47t.43.25a.1.1,0,0,0,0-.13,1,1,0,0,1-.14-.39l-.12-.85h0a2.41,2.41,0,0,0-.93-1.3.94.94,0,0,0-1.17.43,12.91,12.91,0,0,0-.2,1.65v0a4.88,4.88,0,0,0,1.15.19A4.93,4.93,0,0,0,277.47,45.46Z"/><path class="cls-28" d="M277.74,44.27a.53.53,0,0,1,.05-.28l.12.09a1.09,1.09,0,0,1,.1.21q-.15-.11-.27.11C277.74,44.36,277.74,44.31,277.74,44.27Zm-.3,1.59h0a.57.57,0,0,1-.36-.15.54.54,0,0,1-.3-.12l-.27-.3a2.28,2.28,0,0,0,1,.19,3.46,3.46,0,0,0,.21.4l.11.15A.34.34,0,0,1,277.43,45.86Z"/><path class="cls-26" d="M276.5,45.28a2.28,2.28,0,0,0,1,.19,4.93,4.93,0,0,1-.24-.74,4.88,4.88,0,0,1-1.15-.19A2.43,2.43,0,0,0,276.5,45.28Z"/><path class="cls-43" d="M275.78,57.09l3.63.64a8.15,8.15,0,0,0,1.86-.11l.41-.42a1.53,1.53,0,0,0-.53-.54,4.3,4.3,0,0,1-1.41-.06,1.89,1.89,0,0,1-.44-.17,1.24,1.24,0,0,0-.19.44.31.31,0,0,1-.32-.07,1.22,1.22,0,0,1,.2-.51l-.11-.06a1.55,1.55,0,0,0-.25.52.26.26,0,0,1-.3-.12,2.23,2.23,0,0,1,.33-.54l-.12-.09a2,2,0,0,0-.37.55q-.24,0-.26-.17a2.84,2.84,0,0,1,.43-.56l-.11-.12a1.53,1.53,0,0,0-.46.56q-.15,0-.18-.15a1.35,1.35,0,0,1,.5-.61,2.05,2.05,0,0,1-.16-.32.91.91,0,0,0-.58.67l0,.06q-.17.37-.41.4a.41.41,0,0,1-.36-.22,1.4,1.4,0,0,1-.15-.58.24.24,0,0,0-.13-.26A4,4,0,0,0,275.78,57.09Z"/><path class="cls-44" d="M278.23,55.69a1.53,1.53,0,0,0-.46.56q-.15,0-.18-.15a1.35,1.35,0,0,1,.5-.61A.22.22,0,0,1,278.23,55.69Zm-.06.85q-.24,0-.26-.17a2.84,2.84,0,0,1,.43-.56.4.4,0,0,1,.2.19A2,2,0,0,0,278.16,56.54Zm1.14-.12a1.24,1.24,0,0,0-.19.44.31.31,0,0,1-.32-.07,1.22,1.22,0,0,1,.2-.51A.34.34,0,0,1,279.31,56.42Zm-.68.32a.26.26,0,0,1-.3-.12,2.23,2.23,0,0,1,.33-.54.21.21,0,0,1,.22.14A1.55,1.55,0,0,0,278.63,56.74Z"/><path class="cls-45" d="M275.78,57.09l-.12.69,3.79.15a10.34,10.34,0,0,0,1.91-.19l.39-.43-.06-.12-.41.42a8.15,8.15,0,0,1-1.86.11Z"/><path class="cls-34" d="M274.94,21.89l.07-.05a16.59,16.59,0,0,1,4.19-2.15q.58-.19,1.17-.35a5.66,5.66,0,0,0,2.27,2.06V19.73l.26.42.5,2.48a3.44,3.44,0,0,0,.1,1.87,3.34,3.34,0,0,0,1.29,1.4l-1.17.59a.48.48,0,0,0,.45.3l-.31,1.42a11.21,11.21,0,0,1-1.33,3q-.94,1.52-1.83,1.4a4.19,4.19,0,0,1-1.07-.31l-.12-.05-.1-.05q-.58-.28-1.35-.72l-.26-.17a6.08,6.08,0,0,1-1.85-4.75q-.38-.66-.84-1.36Zm8.25-3.2-.82-2,.21-.07a11.48,11.48,0,0,1,1.22,4.3q0,.16-.09.33Z"/><path class="cls-26" d="M282.91,20.14l-.26-.42V21.4a5.66,5.66,0,0,1-2.27-2.06q-.59.16-1.17.35A16.59,16.59,0,0,0,275,21.84l-.07.05,0-.68a17.23,17.23,0,0,1,7.44-4.56l.82,2,.52,2.52,0,.14a11.16,11.16,0,0,0-.27,1.28Zm1.17,6.64a.48.48,0,0,1-.45-.3l1.17-.59A2.78,2.78,0,0,1,284.08,26.79Zm-8.23-.24a6.08,6.08,0,0,0,1.85,4.75,6.22,6.22,0,0,1-2.64-4.54L275,25.18Q275.46,25.88,275.85,26.54Z"/><path class="cls-35" d="M280.67,23.52a10.61,10.61,0,0,0,0,1.57,3.47,3.47,0,0,0,1.94.43,17.82,17.82,0,0,0,.13-3.73A3.06,3.06,0,0,0,280.67,23.52Z"/><path class="cls-46" d="M282.77,21.8q0-.28,0-.55a1.69,1.69,0,0,0-1.85,1,5.9,5.9,0,0,0-.21,1.33A3.06,3.06,0,0,1,282.77,21.8Z"/><path class="cls-47" d="M281.21,22.08a1.62,1.62,0,0,1,1.57-.63l.24-.4a2.17,2.17,0,0,0-2.11.82,2.64,2.64,0,0,0-.49,1.35l.24.3A2.78,2.78,0,0,1,281.21,22.08Z"/><path class="cls-48" d="M281.73,24.65q.15.55.39.55t.42-.54a4.39,4.39,0,0,0,.18-1.28,4.56,4.56,0,0,0-.14-1.3q-.16-.53-.4-.53t-.41.52a4.36,4.36,0,0,0-.19,1.3A4.21,4.21,0,0,0,281.73,24.65Z"/><path class="cls-49" d="M281.9,24.67a.27.27,0,0,0,.26.11q.13,0,.19-.23a1,1,0,0,0-.2-.81.3.3,0,0,0-.28-.11q-.13,0-.18.23a.87.87,0,0,0,.2.81Z"/><path class="cls-35" d="M282.29,22.7q.1.13.18.1t.12-.18a1,1,0,0,0-.17-.66q-.11-.12-.19-.1t-.11.18a.85.85,0,0,0,.17.66Z"/><path class="cls-50" d="M282.75,20.06l.06.08.68,1.47q-.41-.17-.8-.29L282.64,20Zm-2.34-.7a5.91,5.91,0,0,0,1.87,1.82,9.7,9.7,0,0,0-2.22-.37,2.76,2.76,0,0,0-.45,0,4.54,4.54,0,0,1,.59-1.38l.07-.1.19,0Z"/><path class="cls-51" d="M280.63,19.36a8.47,8.47,0,0,1,1.68.47l0,0,.3.14.05,1.31-.42-.14a5.91,5.91,0,0,1-1.87-1.82l.05,0A.47.47,0,0,1,280.63,19.36Zm2.18.78-.06-.08h0a6.37,6.37,0,0,1,.85.45l.26.16.14.12-.51.82h0Z"/><path class="cls-52" d="M270.76,28.57a2,2,0,0,0,1,.75,0,0,0,0,0,0,0,.06.06,0,0,0,.05,0l.14,0,.66-.09-1-.73q-.47-.31-.94-.58l.07.42.07.16A.05.05,0,0,1,270.76,28.57Z"/><path class="cls-53" d="M270.6,28.6q0,3.49-3.18,4.21a.05.05,0,0,1,0,0,.57.57,0,0,1,0,.14,8.19,8.19,0,0,0,3.6-1.75,6.13,6.13,0,0,0,.73-1.92,2,2,0,0,1-1-.75Z"/><path class="cls-54" d="M267.42,32.81q3.15-.72,3.18-4.21a4.62,4.62,0,0,0-2,1.17A9.85,9.85,0,0,0,267.42,32.81Z"/><path class="cls-53" d="M265.24,12.88l0,0A16.93,16.93,0,0,1,265,8.11q.12-1,.3-2.29h0a23.36,23.36,0,0,0,.73,8.3l-.77-1.22Zm-.8,4.12-.68-.93h0a7.33,7.33,0,0,1-.37-4.47h.05A16.68,16.68,0,0,0,264.44,17ZM264,21.94v0a8.79,8.79,0,0,0,6,3.37.05.05,0,0,0,0,0,21.24,21.24,0,0,1,4.07-5.15l-.45.24.54-1a3.71,3.71,0,0,1-.75-1.63,2.67,2.67,0,0,0,1.29,1.12l1.75-1.15a6.3,6.3,0,0,1-1.36-2.57,6.67,6.67,0,0,0,2.45,1.9l.09,0,.05,0a30.59,30.59,0,0,1,4.05-1.9,4,4,0,0,1,1-1.26,5,5,0,0,1,.42.3q.4.28.44.52a3,3,0,0,1,0,.33l-2.11,1.12,1-.23.66,1.68a10.23,10.23,0,0,0-3.67,1.56,17,17,0,0,0-4.05,2.62l-.26.21a16.93,16.93,0,0,1,.24,4.19c-.22,1.4.19,2.34,1.44,4.15a1.21,1.21,0,0,0-.09.17L274,30.12l-1.94-1-.54-.31-.93-.52-.63-.38-.16-.09a.61.61,0,0,0-.19-.12l-.59-.38-.07-.05a31.54,31.54,0,0,1-2.67-2l-.23-.21A10,10,0,0,1,263.88,22a3.41,3.41,0,0,0-.12-.37l0,0A2.59,2.59,0,0,0,264,21.94Zm1.35.44a12.7,12.7,0,0,1-1.85-2,15.7,15.7,0,0,1-.86-5.15h0A16.21,16.21,0,0,0,264,19.87l0,0a11.05,11.05,0,0,0,2.41,3.18l0,0-.94-.63ZM281.3,11.79h0l-.56-2,.07.07.3.31a6.05,6.05,0,0,1,.8,3Zm-5.78-4.54.07,0,0,0a12,12,0,0,1,1.61,4.11l-1.08-1.66a0,0,0,0,0,0,0Z"/><path class="cls-54" d="M265.29,5.82h0v0h0Zm-1.92,5.78a.05.05,0,0,0,0,0l0,0L266,14.15h0v0a23.36,23.36,0,0,1-.73-8.3,21.13,21.13,0,0,1,11.88,5.59,12,12,0,0,0-1.61-4.11,19.34,19.34,0,0,1,6.34,5.8,6.05,6.05,0,0,0-.8-3l-.3-.31.33.28,0,0a9.43,9.43,0,0,1,2.11,4.12,5,5,0,0,0-.42-.3,4,4,0,0,0-1,1.26,30.59,30.59,0,0,0-4.05,1.9l-.05,0-.09,0a6.67,6.67,0,0,1-2.45-1.9,6.3,6.3,0,0,0,1.36,2.57l-1.75,1.15a2.67,2.67,0,0,1-1.29-1.12,3.71,3.71,0,0,0,.75,1.63l-.54,1,.45-.24a21.24,21.24,0,0,0-4.07,5.15.05.05,0,0,1,0,0A8.79,8.79,0,0,1,264,22l2.38,1.12,0,0A11.05,11.05,0,0,1,264,19.88l0,0a16.21,16.21,0,0,1-1.29-4.68h0v0l0,0,.05.05L264.44,17a16.68,16.68,0,0,1-1-5.4Zm1.87,1.29v0l0,0Zm-1.49,8.68,0,0,0,0Zm13.77.63-.17,2.8-1.85-3.15a17,17,0,0,1,4.05-2.62Zm6.34-4.68-.65.16L282.56,16l-1,.23,2.11-1.12Q283.78,16.39,283.87,17.52Z"/><path class="cls-55" d="M265.29,5.8q8.39.94,10.78,3.93a0,0,0,0,1,0,0l1.08,1.66a21.13,21.13,0,0,0-11.88-5.59Zm-.05,7.09h0l.77,1.22v0h0l-2.57-2.55Zm-1.5,3.18h0l.68.93-1.69-1.76Zm2.66,7L264,22v0a2.59,2.59,0,0,1-.23-.35l1.66.86ZM275.57,7.3l0,0a12.45,12.45,0,0,1,5.7,4.49h0l.61,1.31A19.34,19.34,0,0,0,275.57,7.3Zm5.57,2.8a7.86,7.86,0,0,1,2.46,4.23h0l0,.45q0-.24-.44-.52a9.43,9.43,0,0,0-2.11-4.12Z"/><path class="cls-56" d="M269.14,27.52A18.2,18.2,0,0,1,280,18.1a4.71,4.71,0,0,1,.62-2.13,29.17,29.17,0,0,0-3.51,1.44,19.6,19.6,0,0,0-2,1.16q-.77.53-2.19,1.68l0,0A18.34,18.34,0,0,0,268.35,27,3.65,3.65,0,0,0,269.14,27.52Z"/><path class="cls-57" d="M269.14,27.52l.14.05.4.16A14.41,14.41,0,0,1,275.41,21a28,28,0,0,1,8.4-3.34,2.29,2.29,0,0,0,.05-.63,4.28,4.28,0,0,0-.5-2q-1.38.38-2.8.92A4.71,4.71,0,0,0,280,18.1,18.2,18.2,0,0,0,269.14,27.52Z"/><path class="cls-36" d="M275.83,25.27a3.11,3.11,0,0,1-.35-1.38,3.66,3.66,0,0,1,.1-.62,1.94,1.94,0,0,0,0-.59,1.33,1.33,0,0,0-1.26-.5,1.09,1.09,0,0,0-.7,1.3,1,1,0,0,1,1-.69,1,1,0,0,1,.77.41.9.9,0,0,0-1,.43,1.08,1.08,0,0,0,.23,1.18A1.53,1.53,0,0,0,275.83,25.27Z"/><path class="cls-34" d="M275.83,25.27a1.53,1.53,0,0,1-1.25-.46,1.08,1.08,0,0,1-.23-1.18.9.9,0,0,1,1-.43,1,1,0,0,0-.77-.41,1,1,0,0,0-1,.69,1.09,1.09,0,0,1,.7-1.3,1.33,1.33,0,0,1,1.26.5q0-.33,0-.65a1.18,1.18,0,0,0-1.83-.07,2.12,2.12,0,0,0-.44,1.94,2.18,2.18,0,0,0,.11.45q.9,2.23,2.61,2.13Q275.92,25.86,275.83,25.27Z"/><path class="cls-55" d="M287.34,18a5.24,5.24,0,0,0-.1-1A3.49,3.49,0,0,0,286,14.91a4.71,4.71,0,0,0-2.92-.76,5.41,5.41,0,0,0-1.11,1.69,12.3,12.3,0,0,1,1.24-1.31Q286.23,14.32,287.34,18Z"/><path class="cls-54" d="M280.55,17.67l0-.31A10.94,10.94,0,0,0,282,20.84l.4.36-.2-2,.06.08-.14-1.12a6.71,6.71,0,0,1,2.3,4.65,4.07,4.07,0,0,0,1.5-2.93,4.3,4.3,0,0,0-.45-1.94l-.08-.12,0,0h0l-.69-1.15Q287,18,287.2,19.47a7.49,7.49,0,0,0,.14-1.43q-1.11-3.73-4.16-3.51a12.3,12.3,0,0,0-1.24,1.31l-.93,0A3,3,0,0,0,280.55,17.67Z"/><path class="cls-58" d="M285.41,17.75l-.69-1.15Q287,18,287.2,19.47A3.8,3.8,0,0,0,285.41,17.75Zm-1,5.1a15.46,15.46,0,0,0-2.08-3.6l-.14-1.12a6.71,6.71,0,0,1,2.3,4.65Zm-3.77-5.5A10.94,10.94,0,0,0,282,20.84a4.58,4.58,0,0,1-1.39-2.4q-.06-.42-.08-.78Z"/><path class="cls-59" d="M283.45,29.25s-2-.84-2.53-1-.2,2.83,1.22,3.35C282.46,31.66,283.45,29.25,283.45,29.25Z"/><ellipse class="cls-25" cx="686.91" cy="59.58" rx="22.25" ry="6.75"/><g class="cls-60"><path class="cls-61" d="M698.12,61.33H675.93A4.3,4.3,0,0,1,671.7,57V26.1l-3.52-4.79,4.11-1.41h31.47l-1.41,2.91V57A4.3,4.3,0,0,1,698.12,61.33Z"/><path class="cls-62" d="M668.74,21.49l3.31,4.5V57a3.94,3.94,0,0,0,3.87,4h22.19A3.94,3.94,0,0,0,702,57V22.73l1.2-2.48H672.34Z"/></g><path class="cls-63" d="M671.7,39V57a4.3,4.3,0,0,0,4.23,4.34h22.19A4.3,4.3,0,0,0,702.34,57V39Z"/><ellipse class="cls-64" cx="687.02" cy="39.25" rx="15.32" ry="0.94"/><rect class="cls-65" x="676.04" y="26.69" width="1.88" height="17.79"/><path class="cls-63" d="M668.05,21.94s-5.38,3.65-3.32,4.58S668.05,21.94,668.05,21.94Z"/><path class="cls-63" d="M671.76,28.95s-2.43,6-.2,5.65S671.76,28.95,671.76,28.95Z"/><path class="cls-63" d="M665.31,20.11S658.37,27,657.6,23.7,665.31,20.11,665.31,20.11Z"/><ellipse class="cls-25" cx="982.62" cy="66.82" rx="13.08" ry="4.85"/><path class="cls-66" d="M979,54.3s-10-6.45-10.24-18.51c0,0,9.69,4.1,12.29,13.84,0,0-4.21-18.13.89-28.14,0,0,5.59,13.79,3.13,27.84,0,0,4.43-9.35,6.79-11.34A14.88,14.88,0,0,1,987.76,54Z"/><path class="cls-66" d="M981.1,51.39s-4.21-19.89.89-29.91c0,0,5.59,15.55,3.13,29.61Z"/><path class="cls-67" d="M974.5,55.39l1.82,10.19s.91,1.66,6.5,1.66,6.58-1.85,6.58-1.85l2.39-10.19Z"/><path class="cls-68" d="M974.67,56.27s5.19,3.76,16.05,3.48l.83-3.57S975.63,54.92,974.67,56.27Z"/><path class="cls-67" d="M993.89,53.82c-.3,3.27-1,2.61-10.71,2.55C973,56.32,972.35,57,972.11,54c-.23-2.82.34-2.42,11.07-2.36S994.12,51.37,993.89,53.82Z"/><path class="cls-69" d="M979.93,53.93c0,.62-1.56,1.12-3.48,1.12s-3.55,0-3.48-1.12,1.56-1.12,3.48-1.12S980,52.68,979.93,53.93Z"/><path class="cls-69" d="M982.29,65.76c-.14.45-1.36.54-2.78.19s-2.14-.53-2.37-1.46-1-3.68.45-3.32S982.57,64.85,982.29,65.76Z"/><path class="cls-63" d="M364.46,56.36c2.67-.5,5.56,0,12.24.5s10.19,2.57,9.79,3.83c-.89,2.83-5.92,4.8-8.46,4.17-4.67-1.17-6.17,1.2-8.9.33-5.79-1.83-11.35-.17-13.35-2.33-2.21-2.39-.89-5.17,1.78-5.33A53.42,53.42,0,0,0,364.46,56.36Z"/><path class="cls-63" d="M389.37,64.15a8.46,8.46,0,0,1,2.44.13c1.33.13,2,.68,2,1a1.6,1.6,0,0,1-1.69,1.11c-.93-.31-1.23.32-1.78.09-1.16-.49-2.27,0-2.67-.62s-.18-1.38.36-1.42A8.27,8.27,0,0,0,389.37,64.15Z"/><path class="cls-63" d="M423.08,61c.77-.19,1.6,0,3.51.19s2.92,1,2.81,1.47a2.3,2.3,0,0,1-2.43,1.6c-1.34-.45-1.77.46-2.55.13-1.66-.7-3.26-.06-3.83-.89s-.26-2,.51-2A11.89,11.89,0,0,0,423.08,61Z"/><path class="cls-63" d="M483.79,61c2.78-.19,5.79,0,12.73.19s10.6,1,10.19,1.47c-.93,1.09-6.16,1.84-8.8,1.6-4.86-.45-6.42.46-9.26.13-6-.7-11.81-.06-13.89-.89-2.3-.92-.93-2,1.85-2S483.79,61,483.79,61Z"/><path class="cls-63" d="M589.25,59.3c.91-.32,1.89,0,4.15.32s3.46,1.66,3.32,2.48c-.3,1.83-2,3.1-2.87,2.69-1.59-.75-2.09.78-3,.22-2-1.19-3.85-.11-4.53-1.51s-.3-3.34.6-3.45A10.68,10.68,0,0,0,589.25,59.3Z"/><path class="cls-63" d="M603.79,56.36c2.67-.5,5.56,0,12.24.5s10.19,2.57,9.79,3.83c-.89,2.83-5.92,4.8-8.46,4.17-4.67-1.17-6.17,1.2-8.9.33-5.79-1.83-11.35-.17-13.35-2.33-2.21-2.39-.89-5.17,1.78-5.33A53.42,53.42,0,0,0,603.79,56.36Z"/><path class="cls-63" d="M628.7,64.15a8.46,8.46,0,0,1,2.44.13c1.33.13,2,.68,2,1a1.6,1.6,0,0,1-1.69,1.11c-.93-.31-1.23.32-1.78.09-1.16-.49-2.27,0-2.67-.62s-.18-1.38.36-1.42A8.27,8.27,0,0,0,628.7,64.15Z"/><path class="cls-63" d="M548,60.18a8.46,8.46,0,0,1,2.44.13c1.33.13,2,.68,2,1a1.6,1.6,0,0,1-1.69,1.11c-.93-.31-1.23.32-1.78.09-1.16-.49-2.27,0-2.67-.62s-.18-1.38.36-1.42A8.27,8.27,0,0,0,548,60.18Z"/><path class="cls-63" d="M467,60.44a8.46,8.46,0,0,1,2.44.13c1.33.13,2,.68,2,1a1.6,1.6,0,0,1-1.69,1.11c-.93-.31-1.23.32-1.78.09-1.16-.49-2.27,0-2.67-.62s-.18-1.38.36-1.42A8.27,8.27,0,0,0,467,60.44Z"/><path class="cls-63" d="M653.51,57.22c1-.25,2.1,0,4.61.25s3.84,1.29,3.69,1.93a3,3,0,0,1-3.19,2.1c-1.76-.59-2.32.6-3.35.17-2.18-.92-4.27-.08-5-1.17s-.34-2.6.67-2.68A15.61,15.61,0,0,0,653.51,57.22Z"/><ellipse class="cls-70" cx="361.91" cy="59.46" rx="10.75" ry="3.88"/><ellipse class="cls-70" cx="381.16" cy="60.22" rx="2.5" ry="1.64"/><path class="cls-71" d="M349.66,53.61s-9.75-.25-10.75.5a17.51,17.51,0,0,0-2.25,2.25"/><path class="cls-71" d="M367.66,55.78c.75,0,2.5,1.33,4.25,1.58s8.5.25,8.5.25l1.25,1.5"/><path class="cls-71" d="M368.83,50.44c.75,0,2.5,1.33,4.25,1.58s8.5.25,8.5.25l1.25,1.5"/><polygon class="cls-72" points="350.41 57.35 365.94 59.52 372.44 46.15 356.16 43.87 350.41 57.35"/><polygon class="cls-73" points="356.16 43.87 354.75 36.47 369.51 38.53 372.44 46.15 356.16 43.87"/><polygon class="cls-74" points="350.41 57.35 349.33 49.48 354.75 36.47 356.16 43.87 350.41 57.35"/><line class="cls-75" x1="353.03" y1="55.87" x2="355.53" y2="52.87"/><line class="cls-75" x1="356.97" y1="53.39" x2="355.85" y2="56.89"/><line class="cls-75" x1="356.79" y1="49.26" x2="356.58" y2="44.94"/><line class="cls-75" x1="358.27" y1="49.53" x2="359.28" y2="45.95"/><path class="cls-76" d="M356.53,56.35a4.49,4.49,0,0,0,1.69.8,8.1,8.1,0,0,1,2.81.2,14.81,14.81,0,0,0,3.68.55,5.07,5.07,0,0,1,1.76.53l1.14-2.3a6.64,6.64,0,0,0-2.5-.6,8.53,8.53,0,0,1-2.32-.1,5.57,5.57,0,0,0-3-.87c-.65.16-2.15.24-2.59-.2Z"/><path class="cls-76" d="M359,48.81A12.6,12.6,0,0,0,361.71,50a8.1,8.1,0,0,1,2.81.2,14.81,14.81,0,0,0,3.68.55,5.07,5.07,0,0,1,1.76.53L371.1,49a6.64,6.64,0,0,0-2.5-.6,8.53,8.53,0,0,1-2.32-.1,5.57,5.57,0,0,0-3-.87c-.65.16-3.26-.14-3.71-.58Z"/><polygon class="cls-77" points="360.68 53.99 361.59 51.09 367.51 51.93 366.22 55.27 360.68 53.99"/><path class="cls-78" d="M364.27,51.46s-.06,2.92,2,3.81l1.29-3.34Z"/><path class="cls-71" d="M362.91,40.11s2.25,14-2.5,20.5c-.77,1.05-4.5,1.25-4.5,1.25"/><path class="cls-79" d="M596.41,40.11s-2.5,4.88-2,6.38S598,48.61,598,48.61l-.75,2"/><path class="cls-79" d="M604,40.36s-2.5,4.88-2,6.38,3.63,2.13,3.63,2.13l-.75,2"/><path class="cls-79" d="M608.33,33.78s5.83-2.17,11.17-10.67"/><path class="cls-79" d="M592.83,32.28c-6.83-4.33-8.17-10.17-8.17-10.17"/><polygon class="cls-62" points="591.66 23.97 591.66 39.64 605.81 44.23 605.81 27.79 591.66 23.97"/><polygon class="cls-80" points="605.81 27.79 612.94 25.37 612.94 40.28 605.81 44.23 605.81 27.79"/><polygon class="cls-61" points="591.66 23.97 599.31 21.8 612.94 25.37 605.81 27.79 591.66 23.97"/><line class="cls-75" x1="593.37" y1="26.67" x2="596.81" y2="28.42"/><path class="cls-75" d="M596,30.94a1.59,1.59,0,0,0-1.41-1.25,1.65,1.65,0,0,0-1.5.5"/><path class="cls-75" d="M603.33,32.36a1.59,1.59,0,0,0-1.41-1.25,1.65,1.65,0,0,0-1.5.5"/><line class="cls-75" x1="600.56" y1="29.17" x2="604.62" y2="29"/><path class="cls-77" d="M594.73,34.48l7.19,1.63s-.66,3.69-4.25,2.63A4.22,4.22,0,0,1,594.73,34.48Z"/><path class="cls-78" d="M595.41,37.07s3.25-.78,5,1.41a2.16,2.16,0,0,1-1,.38A4,4,0,0,1,595.41,37.07Z"/><ellipse class="cls-70" cx="603.66" cy="58.21" rx="9.31" ry="2.63"/><path class="cls-63" d="M521.12,56.36c2.67-.5,5.56,0,12.24.5s7.86,2.48,7.47,3.75c-.89,2.83-3.52,4.09-6.13,4.25-4,.25-6,.3-8.9.33-6.8.08-11.35-.17-13.35-2.33-2.21-2.39-.89-5.17,1.78-5.33A53.42,53.42,0,0,0,521.12,56.36Z"/><path class="cls-63" d="M440.37,56.36c2.67-.5,5.56,0,12.24.5s7.86,2.48,7.47,3.75c-.89,2.83-3.52,4.09-6.13,4.25-4,.25-6,.3-8.9.33-6.8.08-11.35-.17-13.35-2.33-2.21-2.39-.89-5.17,1.78-5.33A53.42,53.42,0,0,0,440.37,56.36Z"/><ellipse class="cls-70" cx="523.5" cy="58.92" rx="11.81" ry="3.33"/><ellipse class="cls-70" cx="446" cy="59.92" rx="11.81" ry="3.33"/><path class="cls-81" d="M442.16,47.61s-2,3-.83,5.83,9.08,5.92,9.08,5.92l-1.25,2"/><path class="cls-81" d="M446.66,48.61s-2.25,10.17-2.75,11,1.75,1.75,1.75,1.75"/><path class="cls-82" d="M514.33,38.28A68.41,68.41,0,0,1,510,44.44c-.67.67-4.67,2-4.67,2"/><path class="cls-83" d="M516.66,60.48a3.72,3.72,0,0,1-1.57-.36.76.76,0,1,1,.64-1.39,2.14,2.14,0,0,0,1.55.12c-.4-.71-1.1-2-2.17-4-2.08-4,3.71-7.84,4-8a.76.76,0,0,1,.84,1.28s-4.88,3.23-3.44,6c1.75,3.37,2.52,4.66,2.53,4.67a.76.76,0,0,1-.18,1A3.69,3.69,0,0,1,516.66,60.48Z"/><path class="cls-83" d="M530.44,60.83a.76.76,0,0,1-.32-1.46,3.08,3.08,0,0,0,.22-.78c-1.24,0-3.34-.14-4.41-1.32-1.42-1.57-1.05-7.33-1-8.47a.76.76,0,1,1,1.52.12c-.23,3-.08,6.61.57,7.33.82.9,3.27.86,4.07.77a.77.77,0,0,1,.85.8c-.11,1.83-.57,2.84-1.38,3Z"/><polygon class="cls-84" points="511.33 30.63 511.33 46.31 525.47 50.89 525.47 34.46 511.33 30.63"/><polygon class="cls-85" points="525.47 34.46 532.61 32.04 532.61 46.94 525.47 50.89 525.47 34.46"/><polygon class="cls-86" points="511.33 30.63 518.98 28.47 532.61 32.04 525.47 34.46 511.33 30.63"/><line class="cls-75" x1="513.16" y1="33.02" x2="516.48" y2="35.08"/><line class="cls-75" x1="516.16" y1="36.58" x2="512.54" y2="35.96"/><line class="cls-75" x1="520.23" y1="35.83" x2="524.48" y2="35.02"/><line class="cls-75" x1="520.16" y1="37.33" x2="523.85" y2="37.83"/><path class="cls-76" d="M524.79,38.21s1.42,3.2,2.29,2.53S526.75,38.91,524.79,38.21Z"/><path class="cls-76" d="M511.87,36.62s-1.42,3.2-2.29,2.53S509.91,37.33,511.87,36.62Z"/><path class="cls-75" d="M513.79,44.52s1-1.16,1.88-.09c.42.53.84.92,1.56.47.94-.59,1.52,0,1.66.53.22.94,1.49.7,1.91.38a1,1,0,0,1,1.59.84"/><path class="cls-82" d="M528.83,38.78s4.33,6.3,4.33,7.83a11.59,11.59,0,0,1-1,5.17"/><polygon class="cls-87" points="435.83 30.63 435.83 46.31 449.97 50.89 449.97 34.46 435.83 30.63"/><polygon class="cls-88" points="449.97 34.46 457.11 32.04 457.11 46.94 449.97 50.89 449.97 34.46"/><polygon class="cls-89" points="435.83 30.63 443.48 28.47 457.11 32.04 449.97 34.46 435.83 30.63"/><line class="cls-75" x1="437.66" y1="33.02" x2="440.98" y2="35.08"/><line class="cls-75" x1="440.66" y1="36.58" x2="437.04" y2="35.96"/><line class="cls-75" x1="444.73" y1="35.83" x2="448.98" y2="35.02"/><line class="cls-75" x1="444.66" y1="37.33" x2="448.35" y2="37.83"/><polygon class="cls-77" points="440.58 40.33 443.58 40.83 443.57 46.81 440.08 46 440.58 40.33"/><path class="cls-78" d="M443.59,43.54s-2.9.35-3.51,2.46l3.49.81Z"/><path class="cls-76" d="M449.29,38.21s1.42,3.2,2.29,2.53S451.25,38.91,449.29,38.21Z"/><path class="cls-76" d="M436.37,36.62s-1.42,3.2-2.29,2.53S434.41,37.33,436.37,36.62Z"/><path class="cls-81" d="M453.5,44.94s3.25-.35,3.42-3c.13-1.92-1.15-2.8-2.58-3.71l.08-1.67"/><path class="cls-81" d="M435,41.11s-3.46,1.1-3.12-1.25c.38-2.62,1.39-2.61,2.88-3.75a5.66,5.66,0,0,1,.13-1.5"/><text class="cls-90" transform="translate(332.66 30.11)">God,save me</text><text class="cls-91" transform="translate(431.16 15.61)">太痛了</text><path class="cls-35" d="M404.33,41.91c0,4.65-4.5,8.41-10.06,8.41a11.65,11.65,0,0,1-4.5-.89c-.61-.25-3.44,2.27-4,1.92-.68-.45,1-3.8.44-4.38a7.53,7.53,0,0,1-2-5.07c0-4.65,4.5-8.41,10.06-8.41S404.33,37.26,404.33,41.91Z"/><text class="cls-92" transform="translate(389.25 45.28)">镁</text><path class="cls-35" d="M481.08,31.27c0,4.65-4.5,8.41-10.06,8.41a11.65,11.65,0,0,1-4.5-.89c-.61-.25-3.44,2.27-4,1.92-.68-.45,1-3.8.44-4.38a7.53,7.53,0,0,1-2-5.07c0-4.65,4.5-8.41,10.06-8.41S481.08,26.63,481.08,31.27Z"/><text class="cls-92" transform="translate(466.16 34.98)">锌</text><path class="cls-35" d="M556.58,31.27c0,4.65-4.5,8.41-10.06,8.41a11.65,11.65,0,0,1-4.5-.89c-.61-.25-3.44,2.27-4,1.92-.68-.45,1-3.8.44-4.38a7.53,7.53,0,0,1-2-5.07c0-4.65,4.5-8.41,10.06-8.41S556.58,26.63,556.58,31.27Z"/><text class="cls-92" transform="translate(541.58 34.56)">铁</text><path class="cls-35" d="M640.33,31.27c0,4.65-4.5,8.41-10.06,8.41a11.65,11.65,0,0,1-4.5-.89c-.61-.25-3.44,2.27-4,1.92-.68-.45,1-3.8.44-4.38a7.53,7.53,0,0,1-2-5.07c0-4.65,4.5-8.41,10.06-8.41S640.33,26.63,640.33,31.27Z"/><text class="cls-92" transform="translate(625.16 34.64)">铜</text><text class="cls-93" transform="translate(495.16 15.61)">我也很难受</text><text class="cls-94" transform="translate(586.66 15.61)">我没事</text></g></g></svg>