<svg xmlns="http://www.w3.org/2000/svg" xmlns:xlink="http://www.w3.org/1999/xlink" viewBox="0 0 1024 80"><defs><style>.cls-1{fill:#0d3170;}.cls-2{isolation:isolate;}.cls-3{fill:#001b4d;stroke:#231815;}.cls-3,.cls-5,.cls-62,.cls-65,.cls-7{stroke-miterlimit:10;}.cls-4{fill:url(#linear-gradient);}.cls-5{fill:#001f4c;stroke:#002582;}.cls-24,.cls-29,.cls-30,.cls-31,.cls-32,.cls-33,.cls-34,.cls-35,.cls-36,.cls-37,.cls-38,.cls-39,.cls-40,.cls-41,.cls-42,.cls-43,.cls-44,.cls-45,.cls-46,.cls-47,.cls-48,.cls-49,.cls-5,.cls-50,.cls-51,.cls-52,.cls-53,.cls-54,.cls-57,.cls-58,.cls-59{fill-rule:evenodd;}.cls-10,.cls-11,.cls-6,.cls-9{opacity:0.3;}.cls-62,.cls-65,.cls-7{fill:none;}.cls-7{stroke:#fff;mix-blend-mode:overlay;}.cls-8{fill:url(#linear-gradient-2);}.cls-9{fill:url(#linear-gradient-3);}.cls-10{fill:url(#linear-gradient-4);}.cls-11{fill:url(#linear-gradient-5);}.cls-12{clip-path:url(#clip-path);}.cls-13{fill:#ef6f20;}.cls-14{fill:#f5981b;}.cls-15{fill:#43a9de;}.cls-16{fill:#499ecc;}.cls-17{fill:#009b4f;}.cls-18{fill:#35904d;}.cls-19{fill:#7b828a;}.cls-20{fill:#80888f;}.cls-21{fill:#891c80;}.cls-22{fill:#85297b;}.cls-23{fill:#ea2f35;}.cls-24,.cls-26{fill:#fff;}.cls-25{fill:#ffe131;}.cls-27{fill:#303030;}.cls-28{fill:#071435;}.cls-29{fill:#efdfd5;}.cls-30{fill:#c19785;}.cls-31{fill:#275883;}.cls-32{fill:#e6dfe7;}.cls-33{fill:#cbb8a8;}.cls-34{fill:#eeddcf;}.cls-35{fill:#645a52;}.cls-36{fill:#9a714d;}.cls-37{fill:#835934;}.cls-38{fill:#2f3f5b;}.cls-39{fill:#00676a;}.cls-40{fill:#004949;}.cls-41{fill:#f98e75;}.cls-42{fill:#67a2f9;}.cls-43{fill:#2c7dff;}.cls-44{fill:#2d6fa0;}.cls-45{fill:#006ac1;}.cls-46{fill:#005b99;}.cls-47{fill:#0c90a5;}.cls-48{fill:#065d66;}.cls-49{fill:#e9dfdf;}.cls-50{fill:#20272d;}.cls-51{fill:#3c1905;}.cls-52{fill:url(#linear-gradient-6);}.cls-53{fill:#194768;}.cls-54{fill:#ff0037;}.cls-55{fill:url(#linear-gradient-7);}.cls-56{fill:url(#linear-gradient-8);}.cls-57{fill:#e2e2e2;}.cls-58{fill:#eeded4;}.cls-59,.cls-60{fill:#c09684;}.cls-61,.cls-76{fill:#00bdff;}.cls-62{stroke:#20272d;}.cls-63{fill:#7cb342;}.cls-64{fill:#c0ca33;}.cls-65{stroke:#7cb342;stroke-width:2px;}.cls-66{fill:#7144b7;}.cls-67{fill:#9271d3;}.cls-68{fill:#aa91e8;}.cls-69{fill:#15667c;}.cls-70{fill:#084e5e;}.cls-71{fill:#1d8299;}.cls-72{font-size:12.35px;fill:#ffe812;}.cls-72,.cls-76,.cls-78{font-family:FZY4JW--GB1-0, FZY4JW -GB1-0;}.cls-73,.cls-74{font-size:9px;}.cls-73{letter-spacing:0em;}.cls-75{letter-spacing:0em;}.cls-76{font-size:8.11px;}.cls-77{font-size:5.91px;}.cls-78{font-size:12.88px;fill:#ff8b00;}.cls-79,.cls-81{font-size:9.39px;}.cls-80{letter-spacing:0em;}.cls-81{letter-spacing:0em;}</style><linearGradient id="linear-gradient" x1="53.33" y1="8.37" x2="53.33" y2="53.19" gradientUnits="userSpaceOnUse"><stop offset="0" stop-color="#071636"/><stop offset="1" stop-color="#073b93"/></linearGradient><linearGradient id="linear-gradient-2" x1="961.33" y1="14.75" x2="961.33" y2="54.75" xlink:href="#linear-gradient"/><linearGradient id="linear-gradient-3" x1="507.21" y1="54.8" x2="507.21" y2="5.2" gradientUnits="userSpaceOnUse"><stop offset="0" stop-color="#000019"/><stop offset="1" stop-color="#071639"/></linearGradient><linearGradient id="linear-gradient-4" x1="119.79" y1="21.71" x2="155.27" y2="21.71" xlink:href="#linear-gradient-3"/><linearGradient id="linear-gradient-5" x1="790.31" y1="28.37" x2="940.33" y2="28.37" xlink:href="#linear-gradient-3"/><clipPath id="clip-path"><path class="cls-1" d="M862.83,27.38c0-.33,0-.62-.07-.91a11.47,11.47,0,0,0-5.11-8.31h0l-.06,0A11.5,11.5,0,0,0,848,16.78c-.28.08-.57.19-.86.3a11.47,11.47,0,0,0-7.27,11.11c0,.31,0,.61.07.91A11.48,11.48,0,0,0,845,37.37l.05,0a11.5,11.5,0,0,0,9.67,1.37c.28-.08.56-.18.86-.3a11.47,11.47,0,0,0,7.27-11.11Z"/></clipPath><linearGradient id="linear-gradient-6" x1="440.16" y1="44.2" x2="441.9" y2="44.2" gradientUnits="userSpaceOnUse"><stop offset="0" stop-color="#efdfd5"/><stop offset="1"/></linearGradient><linearGradient id="linear-gradient-7" x1="443.92" y1="47.9" x2="448.46" y2="47.9" gradientUnits="userSpaceOnUse"><stop offset="0" stop-color="#efdfd5"/><stop offset="1" stop-color="#616161"/></linearGradient><linearGradient id="linear-gradient-8" x1="2653.46" y1="47.89" x2="2658.06" y2="47.89" gradientTransform="matrix(-1, 0, 0, 1, 3091.6, 0)" xlink:href="#linear-gradient-7"/></defs><title>初化小故事-2</title><g class="cls-2"><g id="图层_1" data-name="图层 1"><rect class="cls-3" x="-9.49" y="-0.49" width="1072.32" height="80"/><rect class="cls-4" x="52.83" y="-0.72" width="1" height="54.11"/><polygon class="cls-5" points="53.5 54.4 960 54.4 1023 80 -1 80 53.5 54.4"/><g class="cls-6"><line class="cls-7" x1="16.67" y1="70.39" x2="996.67" y2="70.39"/><line class="cls-7" x1="32.67" y1="61.98" x2="977.67" y2="61.35"/><line class="cls-7" x1="121.33" y1="55.25" x2="89" y2="80"/><line class="cls-7" x1="156" y1="55.25" x2="127.67" y2="80"/><line class="cls-7" x1="226.67" y1="55.25" x2="195.33" y2="80"/><line class="cls-7" x1="292" y1="55.25" x2="268.67" y2="80"/><line class="cls-7" x1="83.67" y1="55.25" x2="46.33" y2="80"/><line class="cls-7" x1="192.67" y1="55.25" x2="161.67" y2="80"/><line class="cls-7" x1="260.67" y1="55.25" x2="233.33" y2="80"/><line class="cls-7" x1="325" y1="55.25" x2="305" y2="80"/><line class="cls-7" x1="359" y1="55.25" x2="347" y2="80"/><line class="cls-7" x1="430.33" y1="55.25" x2="425.33" y2="80"/><line class="cls-7" x1="504.33" y1="55.25" x2="503.33" y2="80"/><line class="cls-7" x1="575" y1="55.25" x2="577" y2="80"/><line class="cls-7" x1="645.67" y1="55.25" x2="651.67" y2="80"/><line class="cls-7" x1="717.33" y1="55.25" x2="729.33" y2="80"/><line class="cls-7" x1="791" y1="55.25" x2="809" y2="80"/><line class="cls-7" x1="932" y1="55.25" x2="984" y2="80"/><line class="cls-7" x1="865.67" y1="55.25" x2="895.67" y2="80"/><line class="cls-7" x1="396.67" y1="55.25" x2="388.67" y2="80"/><line class="cls-7" x1="468.33" y1="55.25" x2="463" y2="80"/><line class="cls-7" x1="541" y1="55.25" x2="542.67" y2="80"/><line class="cls-7" x1="611.67" y1="55.25" x2="615.67" y2="80"/><line class="cls-7" x1="681.33" y1="55.25" x2="688.67" y2="80"/><line class="cls-7" x1="752" y1="55.25" x2="767.67" y2="80"/><line class="cls-7" x1="852.67" y1="80" x2="826.67" y2="55.25"/><line class="cls-7" x1="898.33" y1="55.25" x2="945.33" y2="80"/></g><rect class="cls-8" x="960.83" y="6.63" width="1" height="48.3"/><rect class="cls-9" x="53.92" y="0.69" width="906.58" height="56.12"/><circle class="cls-10" cx="137.53" cy="21.71" r="17.74"/><path class="cls-1" d="M137.53,41a19.33,19.33,0,1,1,19.33-19.33A19.35,19.35,0,0,1,137.53,41Zm0-35.48a16.15,16.15,0,1,0,16.15,16.15A16.17,16.17,0,0,0,137.53,5.57Z"/><path class="cls-1" d="M125,29.46c.33.54,1.29,0,1-.59A.57.57,0,1,0,125,29.46Z"/><path class="cls-1" d="M149.1,14.73c.33.54,1.29,0,1-.59A.57.57,0,1,0,149.1,14.73Z"/><path class="cls-1" d="M150.76,22.16c.33.54,1.29,0,1-.59A.57.57,0,1,0,150.76,22.16Z"/><path class="cls-1" d="M123.1,22.16c.33.54,1.29,0,1-.59A.57.57,0,1,0,123.1,22.16Z"/><path class="cls-1" d="M130.25,34.5c.55.32,1.11-.66.56-1A.57.57,0,1,0,130.25,34.5Z"/><path class="cls-1" d="M144.32,10c.55.32,1.11-.66.56-1A.57.57,0,1,0,144.32,10Z"/><path class="cls-1" d="M144.55,34.61c.56-.3,0-1.29-.54-1A.57.57,0,1,0,144.55,34.61Z"/><path class="cls-1" d="M131.12,9.77c.56-.3,0-1.29-.54-1A.57.57,0,1,0,131.12,9.77Z"/><path class="cls-1" d="M138.13,8.12c.56-.3,0-1.29-.54-1A.57.57,0,1,0,138.13,8.12Z"/><path class="cls-1" d="M138.13,35.77c.56-.3,0-1.29-.54-1A.57.57,0,1,0,138.13,35.77Z"/><path class="cls-1" d="M150.17,29.15c.32-.55-.64-1.12-1-.57A.57.57,0,1,0,150.17,29.15Z"/><path class="cls-1" d="M125.87,14.75c.32-.55-.64-1.12-1-.57A.57.57,0,1,0,125.87,14.75Z"/><polygon class="cls-1" points="144.51 31.27 135.83 22.85 136.14 13.11 137.34 13.11 137.85 22.6 145.34 30.49 144.51 31.27"/><path class="cls-1" d="M283.05,38.34c0,.2-.93-.23-1.33-.23H191.41c-.4,0-.36.43-.36.23V36.61c0-.2,0-1.5.36-1.5h90.31c.4,0,1.33,1.3,1.33,1.5Z"/><path class="cls-1" d="M283.05,38.52c0,.1-.93-.41-1.33-.41H191.41c-.4,0-.36.51-.36.41v-.87c0-.1,0,.45.36.45h90.31c.4,0,1.33-.55,1.33-.45Z"/><rect class="cls-1" x="194.05" y="38.11" width="3" height="3" rx="0.72" ry="0.72"/><rect class="cls-1" x="274.05" y="38.11" width="3" height="3" rx="0.72" ry="0.72"/><path class="cls-1" d="M204.05,35.89c0,.2-.05-.78-.33-.78h-4.3c-.28,0-2.37,1-2.37.78V16.16a10,10,0,0,1,2.37-2.05h4.3c.28,0,.33,1.85.33,2.05Z"/><path class="cls-1" d="M207.05,36c0,.16,1.06-.86.85-.86h-3.32c-.21,0-.53,1-.53.86V20.54c0-.16.32-.43.53-.43h3.32c.21,0-.85.27-.85.43Z"/><path class="cls-1" d="M212.05,35.94v-.83h-3.42c-.21,0-1.58,1-1.58.83V18.86c0-.17,1.36,1.25,1.58,1.25h3.42V35.94Z"/><path class="cls-1" d="M220.4,35a.3.3,0,0,1-.25.37l-3.19.91a.35.35,0,0,1-.45-.17l-4.24-14.83c0-.15.1-.3.3-.35l3.19-.91c.2-.06.36,0,.4.15Z"/><rect class="cls-1" x="206.05" y="25.11" width="1" height="8"/><rect class="cls-1" x="207.05" y="20.11" width="5" height="2"/><rect class="cls-1" x="214.29" y="22.9" width="0.72" height="5.64" transform="translate(1.46 61.57) rotate(-16.38)"/><rect class="cls-1" x="214.9" y="22.73" width="0.29" height="3.03" transform="matrix(0.96, -0.28, 0.28, 0.96, 1.89, 61.64)"/><rect class="cls-1" x="250.05" y="32.11" width="21" height="6" rx="0.36" ry="0.36"/><rect class="cls-1" x="249.05" y="27.11" width="23" height="4" rx="0.36" ry="0.36"/><rect class="cls-1" x="253.05" y="25.11" width="18" height="4" rx="0.36" ry="0.36"/><rect class="cls-1" x="255.05" y="22.11" width="18" height="1" rx="0.36" ry="0.36"/><rect class="cls-1" x="267.05" y="32.11" width="3" height="3"/><rect class="cls-1" x="250.05" y="32.11" width="4" height="3"/><rect class="cls-1" x="251.05" y="28.11" width="2" height="4"/><rect class="cls-1" x="264.05" y="24.11" width="5" height="1"/><rect class="cls-1" x="262.05" y="25.11" width="5" height="2"/><rect class="cls-1" x="269" y="23" width="1" height="2"/><rect class="cls-1" x="257" y="23" width="1" height="2"/><polygon class="cls-1" points="241.48 36.2 240.14 27.11 234.91 27.11 232.38 27.11 227.14 27.11 225.8 36.2 233.64 36.19 241.48 36.2"/><circle class="cls-1" cx="233.64" cy="28.2" r="6.04"/><path class="cls-1" d="M233.64,34.77a6.58,6.58,0,1,1,6.58-6.58A6.59,6.59,0,0,1,233.64,34.77Zm0-12.07a5.49,5.49,0,1,0,5.49,5.49A5.5,5.5,0,0,0,233.64,22.7Z"/><path class="cls-1" d="M233.05,23.23v.38C235.05,23.62,235.05,23.23,233.05,23.23Z"/><path class="cls-1" d="M233.05,32.84v.38C235.05,33.23,235.05,32.84,233.05,32.84Z"/><path class="cls-1" d="M229.38,30.83c.11.18.44,0,.33-.2A.19.19,0,1,0,229.38,30.83Z"/><path class="cls-1" d="M237.58,25.82c.11.18.44,0,.33-.2A.19.19,0,1,0,237.58,25.82Z"/><path class="cls-1" d="M231.17,32.55c.19.11.38-.22.19-.33A.19.19,0,1,0,231.17,32.55Z"/><path class="cls-1" d="M236,24.22c.19.11.38-.22.19-.33A.19.19,0,1,0,236,24.22Z"/><path class="cls-1" d="M236,32.58c.19-.1,0-.44-.18-.34A.19.19,0,1,0,236,32.58Z"/><path class="cls-1" d="M231.46,24.13c.19-.1,0-.44-.18-.34A.19.19,0,1,0,231.46,24.13Z"/><path class="cls-1" d="M237.94,30.73c.11-.19-.22-.38-.33-.2A.19.19,0,1,0,237.94,30.73Z"/><path class="cls-1" d="M229.68,25.83c.11-.19-.22-.38-.33-.2A.19.19,0,1,0,229.68,25.83Z"/><polygon class="cls-1" points="236.14 31.16 233.54 28.5 233.52 25.11 233.74 25.11 233.75 28.42 236.3 31.14 236.14 31.16"/><path class="cls-1" d="M233.05,27.83v.72C235.05,28.55,235.05,27.83,233.05,27.83Z"/><path class="cls-1" d="M399.05,39.11h-92V35.57c0-.2.2.54.6.54H398c.4,0,1.09-.74,1.09-.54Z"/><rect class="cls-1" x="311.05" y="38.11" width="3" height="3" rx="0.72" ry="0.72"/><rect class="cls-1" x="390.05" y="38.11" width="3" height="3" rx="0.72" ry="0.72"/><rect class="cls-1" x="359.05" y="18.11" width="7" height="18"/><rect class="cls-1" x="366.05" y="20.11" width="6" height="16" rx="0.36" ry="0.36"/><rect class="cls-1" x="372.05" y="18.11" width="4" height="18" rx="0.36" ry="0.36"/><rect class="cls-1" x="377.74" y="19.17" width="3.76" height="15.89" rx="0.36" ry="0.36" transform="translate(5.81 98.62) rotate(-14.92)"/><rect class="cls-1" x="359.05" y="32.11" width="7" height="1"/><rect class="cls-1" x="366.05" y="22.11" width="1" height="5"/><rect class="cls-1" x="372.05" y="18.11" width="4" height="2"/><rect class="cls-1" x="372.05" y="20.11" width="4" height="2"/><rect class="cls-1" x="372.05" y="31.11" width="4" height="1"/><rect class="cls-1" x="372.05" y="33.11" width="4" height="1"/><rect class="cls-1" x="376.18" y="20.67" width="3.76" height="1.23" transform="matrix(0.97, -0.26, 0.26, 0.97, 7.26, 98.03)"/><rect class="cls-1" x="379.31" y="32.4" width="3.76" height="1.23" transform="translate(4.35 99.23) rotate(-14.92)"/><polygon class="cls-1" points="374.59 19.97 374.2 19.95 373.96 20.26 373.86 19.88 373.49 19.75 373.82 19.53 373.82 19.14 374.13 19.39 374.51 19.27 374.37 19.64 374.59 19.97"/><polygon class="cls-1" points="374.59 32.75 374.2 32.73 373.96 33.05 373.86 32.67 373.49 32.53 373.82 32.32 373.82 31.93 374.13 32.17 374.51 32.06 374.37 32.43 374.59 32.75"/><rect class="cls-1" x="378.4" y="22.24" width="0.51" height="10.11" transform="translate(5.73 98.38) rotate(-14.91)"/><rect class="cls-1" x="378.51" y="22.13" width="0.36" height="4.48" transform="translate(6.47 98.22) rotate(-14.9)"/><rect class="cls-1" x="333.05" y="32.11" width="19" height="4" rx="0.36" ry="0.36"/><rect class="cls-1" x="336.05" y="31.11" width="18" height="4" rx="0.36" ry="0.36"/><rect class="cls-1" x="337.05" y="25.11" width="16" height="4" rx="0.36" ry="0.36"/><rect class="cls-1" x="338.05" y="22.11" width="16" height="4" rx="0.36" ry="0.36"/><rect class="cls-1" x="338.05" y="24.11" width="12" height="1"/><rect class="cls-1" x="338.05" y="24.11" width="12" height="1"/><polygon class="cls-1" points="340 27.91 339.54 27.19 339 27.91 339 26 340 26 340 27.91"/><rect class="cls-1" x="350.05" y="29.11" width="1" height="3"/><rect class="cls-1" x="336.05" y="29.11" width="2" height="3"/><rect class="cls-1" x="351.05" y="32.11" width="3" height="2"/><rect class="cls-1" x="337.05" y="33.11" width="13" height="3"/><path class="cls-1" d="M350.05,36.11h-13v-3h13Zm-13,0h13v-3h-13Z"/><path class="cls-1" d="M318.78,27.11s.07-11-5.94-10.79,4.35,10.79,4.69,10.79Z"/><path class="cls-1" d="M320.46,31.11s-.06-11,4.84-10.79-3.54,10.79-3.83,10.79Z"/><path class="cls-1" d="M319,27.82s-4.9-6.13-2.84-10S320,27,319.95,27.64,319,27.82,319,27.82Z"/><path class="cls-1" d="M320.32,28.45s4.64-6.32,2.43-10.11-3.43,9.33-3.33,10S320.32,28.45,320.32,28.45Z"/><path class="cls-1" d="M318.83,27.13c.28.59.91-.13.91-.13s2.6-7.4-.61-10.38"/><polygon class="cls-1" points="324.13 36.11 316.18 36.11 314.08 25.11 326.15 25.11 324.13 36.11"/><polygon class="cls-1" points="326.28 27.11 314.02 27.11 313.62 25.11 326.61 25.11 326.28 27.11"/><rect class="cls-11" x="790.31" y="5.27" width="150.02" height="46.2"/><circle class="cls-1" cx="931.71" cy="54.08" r="1.63"/><circle class="cls-1" cx="829.47" cy="54.08" r="1.63"/><rect class="cls-1" x="939.53" y="3.55" width="2.15" height="49.85"/><rect class="cls-1" x="790.49" y="50.76" width="149.61" height="0.41"/><rect class="cls-1" x="790.49" y="3.55" width="149.61" height="2.45"/><rect class="cls-1" x="788.91" y="3.55" width="2.35" height="49.85"/><rect class="cls-1" x="789.07" y="50.64" width="152.49" height="2.76"/><rect class="cls-1" x="848.19" y="42.48" width="6.92" height="4.08"/><polygon class="cls-1" points="845.51 41.87 843.06 40.64 857.49 13.73 859.87 15 845.51 41.87"/><path class="cls-1" d="M855.4,14.43A13.93,13.93,0,1,1,841.93,38l-1.13,1.89A16.09,16.09,0,1,0,856.46,12.5Z"/><path class="cls-1" d="M861.16,50c0-2.26-4.24-4.28-9.47-4.28s-9.46,2-9.46,4.28Z"/><path class="cls-1" d="M862.83,27.38c0-.33,0-.62-.07-.91a11.47,11.47,0,0,0-5.11-8.31h0l-.06,0A11.5,11.5,0,0,0,848,16.78c-.28.08-.57.19-.86.3a11.47,11.47,0,0,0-7.27,11.11c0,.31,0,.61.07.91A11.48,11.48,0,0,0,845,37.37l.05,0a11.5,11.5,0,0,0,9.67,1.37c.28-.08.56-.18.86-.3a11.47,11.47,0,0,0,7.27-11.11Z"/><path class="cls-1" d="M862.83,27.38c0-.33,0-.62-.07-.91a11.47,11.47,0,0,0-5.11-8.31h0l-.06,0A11.5,11.5,0,0,0,848,16.78c-.28.08-.57.19-.86.3a11.47,11.47,0,0,0-7.27,11.11c0,.31,0,.61.07.91A11.48,11.48,0,0,0,845,37.37l.05,0a11.5,11.5,0,0,0,9.67,1.37c.28-.08.56-.18.86-.3a11.47,11.47,0,0,0,7.27-11.11Z"/><g class="cls-12"><polygon class="cls-1" points="867.21 32.27 866.55 32.29 866.52 31.93 866.63 31.98 866.88 31.95 866.86 31.63 866.15 31.63 865.95 31.38 865.96 31.24 865.05 30.42 864.83 30.59 866.13 32.19 866.32 32.26 866.32 32.34 866.07 32.34 866.13 32.54 867.74 32.61 867.21 32.27"/><polygon class="cls-1" points="868.24 31.44 868.34 31.36 868.34 30.49 868.24 30.44 868.18 30.17 868.02 30.17 867.92 30.45 867.8 30.55 866.87 31.06 866.87 31.56 867.18 31.97 867.96 31.97 868.06 31.71 868.24 31.55 868.24 31.44"/><polygon class="cls-1" points="868.93 31.36 868.46 31.55 868.46 31.65 868.34 31.65 868.34 32.3 868.59 32.3 868.55 31.89 868.74 31.95 868.74 32.25 868.93 32.23 868.93 31.36"/><polygon class="cls-1" points="872.75 34.77 872.27 34.36 872.24 33.58 871.92 33.04 871.64 33.03 871.52 34.01 870.98 33.97 870.83 33.88 870.81 33.49 871.1 33.55 871.34 33.31 870.82 33 870.22 33 869.78 33.62 869.6 33.62 869.6 33.42 869.08 33.46 868.25 34.4 867.82 34.41 867.33 34.75 867.29 36.2 867 36.49 867 36.74 868.42 36.26 869.57 36.21 870 37.15 871.31 37.19 872.57 36.01 872.88 35.3 872.75 34.77"/><polygon class="cls-1" points="870.17 37.87 870.63 37.92 871.01 37.71 871.01 37.43 870.61 37.39 870.17 37.87"/><polygon class="cls-1" points="874.62 36.59 874.43 36.63 874.42 36.19 874.07 36.22 874.02 36.9 873.71 37.11 873.13 37.19 872.21 37.84 872.05 37.97 872.05 38.19 872.54 38.12 873.71 37.4 874.04 37.18 874.39 37.02 874.75 36.82 874.62 36.59"/><polygon class="cls-1" points="870.99 31.74 870.69 31.75 870.71 31.44 870.43 31.27 870.03 31.67 870.29 32.01 870.88 32.09 871.21 32.26 871.22 32.42 871.01 32.42 871.01 32.75 871.73 32.71 871.98 32.43 872.26 32.41 872.26 32.91 872.74 32.91 872.74 32.71 872.5 32.71 872.45 32.09 871.31 31.57 870.99 31.74"/><polygon class="cls-1" points="862.46 30.27 862.57 30.57 862.98 30.42 863.02 30 862.7 29.93 862.46 30.27"/><polygon class="cls-1" points="857.72 33.78 857.17 33.71 857.17 34.14 857.37 34.37 857.22 34.6 856.99 34.86 856.99 35.33 857.3 35.62 857.57 35.18 858.11 34.39 858.37 33.14 858.04 33.14 857.72 33.78"/><polygon class="cls-1" points="869.04 32.47 868.86 32.47 868.86 32.57 869 32.61 869.04 32.47"/><rect class="cls-1" x="868.02" y="32.61" width="0.21" height="0.12"/><polygon class="cls-1" points="868.54 32.73 868.67 32.73 868.67 32.63 868.77 32.61 868.77 32.51 868.56 32.51 868.47 32.61 868.34 32.73 868.34 32.83 868.54 32.81 868.54 32.73"/><polygon class="cls-1" points="869.09 32.82 869.3 32.82 869.3 32.71 869.45 32.73 869.43 32.54 869.19 32.58 869.16 32.7 868.89 32.73 868.88 32.73 868.88 32.91 869.09 32.91 869.09 32.82"/><path class="cls-1" d="M836.27,23.56l0-.28-.29,0a1.41,1.41,0,0,0,0,.32Z"/><polygon class="cls-1" points="850.77 23.29 850.79 23.46 850.53 23.52 850.5 23.89 850.81 23.89 851.22 23.85 851.43 23.59 851.21 23.5 851.09 23.36 850.9 23.06 850.81 22.63 850.46 22.7 850.36 22.86 850.36 23.02 850.53 23.14 850.77 23.29"/><polygon class="cls-1" points="850.47 23.43 850.49 23.2 850.29 23.11 850 23.18 849.78 23.52 849.78 23.74 850.03 23.74 850.47 23.43"/><path class="cls-1" d="M865.21,30.18l1.26,1.21.07-.21-1-1.46.11-.43.54.61.3,0,.4-.27-.06-.4-.66-.53,0-.48.19-.25.33.11,0,.23.19.29.17-.12-.09-.35.93-.33.41-.34-.06-.62-.81-.85v-.69h.36l1.12.85.32-.09-.21-.27-.6-.37,0-.54h.71l.06-.67-.27-.36.16-.17.35.35.11-.15-.44-.51-1.11-.13-.15-.29.32-.45.25.18.76.07,1-.64.16.2-.21.33V23l.88.72.28-.15-.11-.48-.62-.59.82-.05v-.24l.4-.08-.31-.21v-.16l.84.13.16-.13-1.13-.48-4.13-.21-.39-.19-.61-.09-.46,0-.42.42H865l-.55-.41h-1.64l-.76-.45-1.52.1-1.16.52v.6l-.36.11L859,21l-.13-.21-.4-.1-.09.36.12.29-1.42-.09-.68.32-.1-.3-.17,0-.12.33-.36.28-.87,0,0-.19.91,0,.19-.16L854.73,21l-1.33,0-.75.38-.28.5-.49.19-.21.22,0,.26.26,0,.15.38.44-.18.07.51h-.13l-.36-.05-.4.07-.39.55-.55.09-.08.47.23.05-.07.3-.55-.11-.5.11-.11.28.09.59.29.14h.49l.33,0,.1-.27.52-.68.34.07.34-.31.06.24.84.56-.1.14-.37,0,.14.2.23.05.27-.11v-.33l.12-.06-.1-.11-.56-.31-.15-.41h.46l.15.15.4.34,0,.41.41.44.15-.6.29-.16.05.49.28.31h.84l.25.19v.44l-.31.28h-.85l-.52-.39-.55.05v.33h-.17l-.19-.13-.95-.24v-.61l-1.2.09-.37.2h-.48l-.23,0-.58.32V27l-1.18.85.1.37h.24l-.06.35-.17.06v.91l1,1.16h.44l0-.07h.8l.23-.21h.45l.25.25.68.07-.09.9L853,33l-.39.76,0,.36.31.31v.86l.41.55v.71h1.21l.91-.93.28-.51.37-.08v-.43l.24-.28.51-.69-.11-1.06-.22-.39,1-1,1.1-1.57-.21-.1-1.14.24-.29-.15-1.2-2.26.08-.1,1.19,1.44,0,.45.28.28.56,0,1.17-.85.37-.24V28l-.39-.05s-1.37-.64-1.37-.67,0-.55,0-.55h.3l0,.38.63.36.72,0,1.57.26.37.23v.36l0,.49.8,1.33.26.06.26-.38.14-1.07.27-.58.43-.16.76.08,1,.85Zm-11-8.43-.53.32v.21l.3.14,0,.28-.42.63h-.73l0-.15.46-.23v-.87l.78-.54h.17Zm1.63,3.7-.69,0-.21,0V25l.15-.18.17-.05.37,0,.08-.13.15.07,0,.43.4.16,0,.2Zm2.65.34-.12.11-.28,0L858,25.8l-.44,0,0-.14.23-.2v-.17l-.45-.32,0-.41.09-.21.36,0,.31.13v.21l-.44,0,0,.2.55.36v.27l.24.17Z"/><path class="cls-1" d="M844.49,24.58h-.31v.16h.07s0,0,0,.08l.19,0,.12-.07,0-.15h.15l.06-.12-.14,0h-.12Z"/><polygon class="cls-1" points="843.76 24.86 843.98 24.84 844 24.68 843.87 24.57 843.77 24.7 843.76 24.86"/><path class="cls-1" d="M846.68,31.71h-.94l-.75-.29,0-.53-.25-.44H844l-.39-.61-.34-.17,0,.18-.63,0-.23-.32-.66-.13-.54.63-.85-.15-.06-1-.62-.1.25-.47-.07-.27-.82.55-.52-.06-.18-.4.11-.42.28-.52.65-.33h1.26v.38l.45.21,0-.66.32-.33.66-.43,0-.31.66-.68.7-.39-.06-.05.48-.44.17,0,.08.1.18-.2,0,0-.2,0-.2-.07v-.19l.1-.09h.24l.1,0,.09.18.11,0h0l.33,0,0-.16.19,0V24l-.17.12h0l0,.19.59.18h.14v-.26l-.47-.21,0-.13.39-.13,0-.37-.41-.25,0-.63-.56.27h-.2l.05-.48-.76-.18-.32.24v.73l-.57.18-.23.47-.25,0v-.61l-.53-.07-.27-.17-.11-.39,1-.56.47-.14,0,.31h.26l0-.16.27,0v-.05l-.12,0,0-.17.33,0,.2-.21v0h0l.06-.06.7-.09.31.26-.81.43,1,.24.13-.35h.45l.16-.3-.32-.08v-.38l-1-.44-.69.08-.39.2,0,.5-.41-.06-.06-.28.39-.36-.71,0-.2.06-.09.24.27,0-.05.27-.45,0-.07.18-.65,0a1.8,1.8,0,0,0,0-.37H842l.39-.38-.21-.11-.28.28-.47,0-.28-.39h-.6l-.63.47h.58l.05.17-.15.14.64,0,.1.23-.72,0,0-.18-.45-.1-.24-.13h-1.07l-.33.32-.22,0-.25-.14-.74-.22h-1.35l-.78.53-.52.08-.24.19.37.05v.15h-.8l-.31.22.4.34H835l.15-.16H836l.33.29,0,.45.28.26-.23.16.05.6-.83,1v.94l.44.21v.85l.43.73.35.05,0-.25-.41-.63-.08-.61h.24l.1.63.59.86-.15.28.37.57.93.23V29l.37.05,0,.27.29.05.45.13.64.73.82.06.08.66-.56.39,0,.59-.08.37.81,1,.06.34.33.08s.66.47.66.47V36l.22.06-.15.84.37.5-.07.84.49.87.63.55h.64l.06-.21-.47-.39,0-.2.08-.24,0-.24h-.31l-.16-.2.26-.25,0-.19-.29-.08,0-.18.42-.06.64-.31.21-.39.67-.85-.15-.67.21-.36.61,0,.41-.33.14-1.28.46-.58.08-.37-.42-.13Zm-4.83-6.56-.15.15h-.34l.05-.24h.16l0-.08.25,0Zm.08-.42-.16.1-.2,0v-.35h.36Zm.3-.25.16.1-.13.11-.13-.11Zm-.22.27h0l.41.12v.21h-.34l-.09-.13Zm-.27-.57.22.2-.22.05Zm-.93,0,.31-.13h.42v.13h.09v.22H841l-.24-.07Zm-.06.57.25-.27h.35l-.45.63-.19-.1Zm-.33-1.51.25.06-.09.34-.27.09-.17-.35Zm-1.27-1.61v0h.24l0-.08h.38v.17l-.11.15h-.53Zm.37.52.25,0s0,.23,0,.23l-.53,0-.1-.12Z"/></g><path class="cls-1" d="M881.57,37.1V28.23h-7V37.1s-9.64,13.05-6,13.05h18.9C891.21,50.15,881.57,37.1,881.57,37.1Z"/><path class="cls-1" d="M881.48,26.46h-6.79a.91.91,0,1,0,0,1.82h6.79a.91.91,0,1,0,0-1.82Z"/><path class="cls-1" d="M834.29,39.73V32.66h-5.56v7.07S821,50.15,824,50.15h15.08C842,50.15,834.29,39.73,834.29,39.73Z"/><path class="cls-1" d="M834.22,31.24H828.8a.73.73,0,1,0,0,1.45h5.42a.73.73,0,1,0,0-1.45Z"/><path class="cls-1" d="M820.32,37.1H809.19V48.22a1.93,1.93,0,0,0,1.93,1.93h7.26a1.93,1.93,0,0,0,1.93-1.93Z"/><path class="cls-1" d="M820.3,35.74h-11a.7.7,0,1,0,0,1.39h11a.7.7,0,1,0,0-1.39Z"/><path class="cls-1" d="M933.28,42.13V36.69H929v5.45s-5.92,8-3.66,8h11.61C939.2,50.15,933.28,42.13,933.28,42.13Z"/><path class="cls-1" d="M933.22,35.6h-4.17a.56.56,0,1,0,0,1.12h4.17a.56.56,0,1,0,0-1.12Z"/><path class="cls-1" d="M893,29.88h-2.51v17.6A2.67,2.67,0,0,0,893,50.15a2.7,2.7,0,0,0,2.54-2.68V29.88Z"/><path class="cls-1" d="M895.79,28.77h-5.5a.6.6,0,0,0,0,1.17h5.5a.6.6,0,0,0,0-1.17Z"/><path class="cls-1" d="M803.35,29.88h-2.51v17.6a2.67,2.67,0,0,0,2.51,2.68,2.7,2.7,0,0,0,2.54-2.68V29.88Z"/><path class="cls-1" d="M806.12,28.77h-5.5a.6.6,0,0,0,0,1.17h5.5a.6.6,0,0,0,0-1.17Z"/><path class="cls-1" d="M919.49,44.25v0h-14.8s0,0,0,.05v3.55c0,1.29.74,2.33,1.65,2.33l11.5,0c.91,0,1.65-1,1.65-2.33Z"/><path class="cls-1" d="M922.93,48.93l-3.2-16.37H918.2l3.26,16.66a.75.75,0,1,0,1.48-.29Z"/><path class="cls-1" d="M904.44,32.55l-3.2,16.37a.75.75,0,1,0,1.48.29L906,32.55Z"/><path class="cls-1" d="M912.13,32.55h-.79V49.07a.75.75,0,0,0,.75.75h0a.75.75,0,0,0,.71-.74V32.55Z"/><path class="cls-1" d="M904.44,32.55l-3.2,16.37a.75.75,0,1,0,1.48.29L906,32.55Z"/><path class="cls-1" d="M922,31.66H902.17a.89.89,0,0,0,0,1.78H922a.89.89,0,1,0,0-1.78Z"/><path class="cls-1" d="M751.15,33.06V48h15v-15Zm6,11.05a.63.63,0,0,1-.76-.47L755.71,41a.63.63,0,0,1,1.22-.29l.63,2.65A.63.63,0,0,1,757.1,44.11Zm2.16-4.45a.63.63,0,1,1-1.26,0V36.93a.63.63,0,1,1,1.26,0ZM761.44,41l-.63,2.65a.63.63,0,1,1-1.22-.29l.63-2.65a.63.63,0,1,1,1.22.29Z"/><path class="cls-13" d="M675.37,30.69l-4.45-2.17a.41.41,0,0,0-.53.28l-1.62,4.56a.41.41,0,0,0,.15.45l4.16,2.88a.39.39,0,0,0,.6-.17l1.88-5.3a.42.42,0,0,0-.19-.54"/><path class="cls-14" d="M680.87,12.74,683.62,14h0l.38.18,1.91-5.37a.3.3,0,0,0-.23-.41L675.91,6.1a.43.43,0,0,0-.47.27L674.3,9.6l.94.28a.32.32,0,0,1,.26.42l-.72,2-.24.68-.63,1.78,5.23,1.8,1.3-3.65a.33.33,0,0,1,.45-.2"/><path class="cls-15" d="M688.42,16.25,684,14.18h0l-.2-.09.19.08-1.16,3.28a.36.36,0,0,1-.46.22l-3.24-1.09-1.33,3.76.26.09h0L682.29,22a.37.37,0,0,1,.21.46l-.61,1.72,3.45.8a.43.43,0,0,0,.47-.27l2.81-7.9a.42.42,0,0,0-.19-.52"/><polygon class="cls-16" points="683.63 14.02 683.81 14.1 684 14.19 684.01 14.18 683.63 14.01 683.63 14.02"/><path class="cls-17" d="M683.81,14.1l-.18-.08h0l-2.75-1.27a.33.33,0,0,0-.45.2l-1.3,3.65,3.24,1.09a.36.36,0,0,0,.46-.22L684,14.18Z"/><polygon class="cls-18" points="683.63 14.02 683.81 14.1 683.63 14.02 683.63 14.02"/><path class="cls-19" d="M677,22.58l.79-2.23h0l-2-.72a.38.38,0,0,0-.49.21l-2.78,7.82a.33.33,0,0,0,.23.42l7,1a.47.47,0,0,0,.47-.29l1.64-4.63-4.64-1.09a.38.38,0,0,1-.25-.47"/><polygon class="cls-20" points="678.05 20.44 678.05 20.44 677.79 20.35 677.79 20.35 678.05 20.44"/><path class="cls-21" d="M682.29,22l-4.23-1.52-.26-.1-.8,2.24a.37.37,0,0,0,.22.45l4.67,1.1.61-1.72a.37.37,0,0,0-.21-.46"/><polygon class="cls-22" points="678.05 20.44 678.05 20.44 677.79 20.35 678.05 20.44"/><path class="cls-23" d="M675.23,9.88l-.94-.28-4.8-1.44a.43.43,0,0,0-.5.25l-2.65,7.46a.43.43,0,0,0,.21.54L672,19.09a.29.29,0,0,0,.45-.13l1.51-4.24.61-1.71.24-.68.72-2a.32.32,0,0,0-.26-.42"/><path class="cls-24" d="M510.57,24.78c0,7-11.49,12.65-25.67,12.65a48.27,48.27,0,0,1-11.48-1.33c-1.55-.38-8.78,3.41-10.13,2.88-1.74-.68,2.46-5.71,1.12-6.58-3.25-2.12-5.18-4.76-5.18-7.62,0-7,11.49-12.65,25.67-12.65S510.57,17.8,510.57,24.78Z"/><path d="M470.35,23.1h2.78q.91.58,0,1.16h-2.7a8.27,8.27,0,0,0,.42,1.91l.25-.5a3.79,3.79,0,0,1,.5-.87.48.48,0,0,1,.66,0,.64.64,0,0,1,.17.75,8.41,8.41,0,0,1-1,1.82q.58,1.16,1,1.12.08,0,.12-.83a1.85,1.85,0,0,1,0-.37q0-.5.46-.5c.36.05.55.24.58.54a7.83,7.83,0,0,1-.13,1.45q-.37,1.49-1.41,1.08a3.74,3.74,0,0,1-1.54-1.53,15.66,15.66,0,0,1-1.74,1.2.68.68,0,0,1-.83-.29.53.53,0,0,1,.33-.71A7.19,7.19,0,0,0,470,27.2a9.32,9.32,0,0,1-.71-2.94h-1.83v1.12l1-.25q1,.08.5,1a6,6,0,0,1-1.49.54v2q0,1.2-1.08,1.2a3.68,3.68,0,0,1-1.74-.37.47.47,0,0,1-.12-.71.63.63,0,0,1,.75-.25,2,2,0,0,0,.83.17c.14,0,.22-.11.25-.33V26.91a11.38,11.38,0,0,1-1.62.42A.56.56,0,0,1,464,27a.66.66,0,0,1,.41-.79l.33,0a16.22,16.22,0,0,0,1.62-.46V24.26H464.5q-.5,0-.5-.58a.55.55,0,0,1,.54-.58h1.78V22a5.83,5.83,0,0,1-1.24.12.52.52,0,0,1-.62-.5A.57.57,0,0,1,465,21a14.67,14.67,0,0,0,3-.54.64.64,0,0,1,.75.33q.16.58-.29.75a4.36,4.36,0,0,1-1,.25V23.1h1.7a10.12,10.12,0,0,1-.08-1.24,8.22,8.22,0,0,1,0-1.16q0-.41.5-.5t.62.42Q470.27,21.94,470.35,23.1Zm2.16-.46A14.36,14.36,0,0,1,471,21.48a.51.51,0,0,1-.17-.75.55.55,0,0,1,.75-.21,17.07,17.07,0,0,1,1.49,1.2.63.63,0,0,1,.08.75C472.94,22.72,472.73,22.78,472.51,22.64Z"/><path d="M481,21.48h1.58a3.18,3.18,0,0,1-.66-.46.44.44,0,0,1-.12-.62.56.56,0,0,1,.71-.17c.33.22.61.42.83.58s.18.53,0,.66h.62c.33,0,.51.24.54.62s-.25.58-.58.58h-2.78a13.2,13.2,0,0,0,.58,3.07,19.66,19.66,0,0,0,.83-1.83.55.55,0,0,1,.71-.37.6.6,0,0,1,.33.79,12.52,12.52,0,0,1-1.33,2.78q.62,1.2.87,1.16.21.21.25-1.24,0-.5.5-.5a.53.53,0,0,1,.54.54q-.08,2.61-.87,2.82-1,.21-2.12-1.74a10.72,10.72,0,0,1-1.95,1.45.75.75,0,0,1-1-.17c-.14-.3,0-.57.37-.79a10.28,10.28,0,0,0,2-1.66,13.71,13.71,0,0,1-1-4.31h-3c-.08,0-.12.07-.12.12v.91h1.87q1-.13,1,1,0,1.41-.12,2.24a2.86,2.86,0,0,1-.33,1.12q-.42.58-1.91.33a.55.55,0,0,1-.54-.58.53.53,0,0,1,.54-.54l.29,0c.44,0,.68-.05.71-.25s.11-.94.17-1.82q0-.37-.41-.37h-1.24a13,13,0,0,1-.75,4.44.76.76,0,0,1-.87.46q-.5-.21-.29-.83a11.86,11.86,0,0,0,.75-4.48V22.52q-.13-1.12,1-1h3.28v-.83c0-.33.19-.53.58-.58s.59.21.62.54Z"/><path d="M486,21h2.7q.45,0,.5.62c0,.39-.19.58-.5.58h-.75v4.15a1.4,1.4,0,0,0,.37-.17.59.59,0,0,1,.83.33.69.69,0,0,1-.37.87l-1,.5-1.45.66q-.62.25-.91-.21a.67.67,0,0,1,.29-.91l.25-.08q.25-.12.79-.46V22.22H486c-.33,0-.5-.19-.5-.58S485.66,21,486,21Zm5.06.83V20.73q0-.46.58-.5c.39,0,.59.19.62.5v1.12h1.53a.84.84,0,0,1,1,1q0,2.2-.08,3.07A18.18,18.18,0,0,1,494.5,28a1.74,1.74,0,0,1-1.58,1.62,4.8,4.8,0,0,1-1.49-.12c-.5-.19-.73-.44-.71-.75a.7.7,0,0,1,.87-.54q1.66.58,1.66-.41a24.12,24.12,0,0,0,.29-4.52.28.28,0,0,0-.21-.25h-1.12q-.33,4.85-3.61,6.76a.84.84,0,0,1-1-.12.6.6,0,0,1,.25-.87A6.44,6.44,0,0,0,491,23.05h-1.2c-.36,0-.55-.19-.58-.58a.58.58,0,0,1,.58-.62Z"/><path d="M499.1,21.69v.37h.66V20.69c0-.28.19-.43.58-.46s.55.18.58.46v1.37h.21q.87.62,0,1.24h-.21v1.41c.36-.25.64-.22.83.08a2.77,2.77,0,0,0,0-.41,1,1,0,0,1,0-.42c0-.33.19-.53.58-.58s.59.15.62.62a31.14,31.14,0,0,1,.25,3.32q0,.71-.54.71t-.62-.42q-.08-1-.21-2.24a.3.3,0,0,1-.17.29,5.15,5.15,0,0,1-.71.5v2.45q0,1.2-1,1.16-1.78.08-1.58-.79c0-.3.29-.44.79-.42h.46a.18.18,0,0,0,.21-.21v-1.7c-.39.14-.61.08-.66-.17v1.33q0,.79-.66.71h-1.62q-.71,0-.66-.62V21.64c0-.39.19-.58.66-.58h1.66Q499.14,21,499.1,21.69Zm-1.16,5.48V22.43a.11.11,0,0,0-.13-.12h-.41a.11.11,0,0,0-.13.12v4.73a.11.11,0,0,0,.13.12h.41A.11.11,0,0,0,497.94,27.16Zm1.82-3.86h-.66v2.57c-.08-.11.14-.3.66-.58Zm3.57,5.14.71-4.52c.08-.52.35-.72.79-.58s.5.29.42.79l-.71,4.31h.71q.37,0,.37.58t-.37.62h-3.73q-1-.62,0-1.2Zm-1.2-6.85H503l-.21-.79q-.12-.46.46-.62a.65.65,0,0,1,.75.42l.25,1h.87c.25,0,.39.25.41.66s-.17.62-.41.62h-3q-.5,0-.5-.62C501.63,21.85,501.8,21.63,502.13,21.6Z"/><path class="cls-25" d="M548.28,6.6c3.28,12.37,16.18,9.55,20.24,7.05-.77,5.39-4.77,14,12.25,5-13.22,9.25-2.16,12.9,1,14.68-9.56,2.47-9.6,14.17-2.47,19.28-7.93-2.15-12.35,2.74-7.93,12.07-7.12-8.38-14.2-8.82-13.92,2.73-2.09-13.22-14.84-12.6-18.19-6.3.52-7.22-4.84-8.67-12.62-4.28,5.56-6.76,5.13-16.24-2.59-15,3.85-1.88,13.08-13.1,0-16.49,13.75,2.85,14.64-6,11.58-13.21C539.15,18.08,549.11,15.55,548.28,6.6Z"/><polygon class="cls-26" points="551.59 49.5 550.04 70.41 549.08 70.3 551.39 49.51 551.59 49.5"/><polygon class="cls-26" points="550.82 49.42 546.93 72.01 545.74 71.75 550.65 49.4 550.82 49.42"/><polygon class="cls-26" points="550.23 49.34 544.1 70.29 543.01 69.79 550.11 49.23 550.23 49.34"/><polygon class="cls-26" points="568.52 39.41 587.16 39.77 587.11 40.63 568.54 39.58 568.52 39.41"/><polygon class="cls-26" points="568.48 40.09 588.73 42.45 588.55 43.53 568.47 40.24 568.48 40.09"/><polygon class="cls-26" points="568.44 40.62 587.34 45.06 586.95 46.04 568.35 40.73 568.44 40.62"/><path class="cls-26" d="M537.94,49.08a9.37,9.37,0,0,1-1,.33c-1.28,3.65,1.28,4.75,3.25,3.61h0a6.35,6.35,0,0,1-.38-2.82c2.65,7.16,9.18,7.19,11.93,1.11-.4,3-1.69,4.75-3.28,5.53,4.9,4.63,12.15,1.67,10.12-6A10.47,10.47,0,0,1,559.72,55c6.85,3.34,13.65-2.11,11.74-9.69a7.28,7.28,0,0,1-2.7-.35,4,4,0,0,1-4.08,1c3.3-.06,5.25-2.93,2.58-4.74,2.19.7,2.54,2.22,1.81,3.38,6.62.68,8.09-6.28,1-9.26a10.51,10.51,0,0,1,2.18.55l0,0c3.43-3.24.45-7.66-4.67-5.3a6.71,6.71,0,0,1,2.53-1.35c1-2.27.15-3.83-2.2-4a9.26,9.26,0,0,1-.59,4.08c1.66-10-10-15.89-16.28-6.25a14.6,14.6,0,0,1,2-3.42c-2.21-1.93-4.62-1.36-4.86,1.34a6.88,6.88,0,0,1,.47,1.1c-2.54-3.67-7.27-4-7.46.21a8,8,0,0,1,1.17.87c-4.84-2.15-11.53.84-8.25,7.91a6.4,6.4,0,0,1,3.62-.8c-4.09.63-6.77,6.44-1.83,8.74a4.85,4.85,0,0,1,3.78-1.22,7.53,7.53,0,0,0-1.09.32c-4.26,1.63-3.64,6.39,2,6.75-3.38.64-5.25-.91-5.62-2.72h0C530.07,44.17,531.8,49.85,537.94,49.08Z"/><path class="cls-27" d="M536.5,49.52c-2.33,3.08,1,6.64,3.9,4,1.39,3,5,4.63,7.75,3.5,3.2,5.18,11,4.39,11.54-1.24,6.68,4.25,16.89-1.31,12.5-10.54,4.49-.91,5.65-7,.37-9.25,4.46-2.47,2.06-7.63-2-6.92,1.45-2,.36-4.8-2.64-4.34-.85-6.82-9.19-11.76-14.6-5.45-1.37-2.44-5.64-2.75-5.4,1.06-2.41-3.56-7.72-2.87-7.06,1.62-5.78-3-12.37,3.87-7.37,9.48-2.89,2.28-2.92,6.91,2.11,7.92a3.43,3.43,0,0,0-.64,2.39C528.75,43,530.28,50.84,536.5,49.52ZM535,42h0c.37,1.81,2.24,3.36,5.62,2.72-5.6-.36-6.21-5.12-2-6.75a7.53,7.53,0,0,1,1.09-.32A4.85,4.85,0,0,0,536,38.86c-4.94-2.3-2.26-8.11,1.83-8.74a6.4,6.4,0,0,0-3.62.8c-3.28-7.07,3.41-10.06,8.25-7.91a8,8,0,0,0-1.17-.87c.19-4.2,4.92-3.87,7.46-.21a6.88,6.88,0,0,0-.47-1.1c.24-2.7,2.65-3.27,4.86-1.34a14.6,14.6,0,0,0-2,3.42c6.3-9.64,17.94-3.75,16.28,6.25a9.26,9.26,0,0,0,.59-4.08c2.36.22,3.17,1.78,2.2,4a6.71,6.71,0,0,0-2.53,1.35c5.12-2.36,8.1,2.06,4.67,5.3l0,0a10.51,10.51,0,0,0-2.18-.55c7.1,3,5.64,9.94-1,9.26.73-1.16.38-2.68-1.81-3.38,2.67,1.81.71,4.68-2.58,4.74a4,4,0,0,0,4.08-1,7.28,7.28,0,0,0,2.7.35c1.91,7.58-4.89,13-11.74,9.69a10.47,10.47,0,0,0-1.12-4.18c2,7.7-5.22,10.66-10.12,6,1.59-.78,2.88-2.53,3.28-5.53-2.74,6.08-9.28,6.05-11.93-1.11a6.35,6.35,0,0,0,.38,2.82h0c-2,1.14-4.53,0-3.25-3.61a9.37,9.37,0,0,0,1-.33C531.8,49.85,530.07,44.17,535,42Z"/><polygon class="cls-26" points="555.83 25.14 558.09 5.11 559.03 5.3 556.02 25.14 555.83 25.14"/><polygon class="cls-26" points="556.58 25.28 561.19 3.83 562.36 4.19 556.75 25.32 556.58 25.28"/><polygon class="cls-26" points="557.16 25.41 563.91 5.73 564.96 6.3 557.27 25.52 557.16 25.41"/><polygon class="cls-26" points="541.13 35.87 520.61 33.55 520.76 32.61 541.13 35.68 541.13 35.87"/><polygon class="cls-26" points="541.24 35.12 519.16 30.44 519.46 29.27 541.27 34.95 541.24 35.12"/><polygon class="cls-26" points="541.35 34.54 520.95 27.71 521.49 26.66 541.45 34.43 541.35 34.54"/><path class="cls-27" d="M556.48,30a3.09,3.09,0,0,0-1.69-3.14c1.78-2,4.06-1.22,5,1.31.38-3-3.76-5.15-5.36-1.47-1.25-.4-2.72.13-3.44,2.25C553.13,26.29,555.44,27.12,556.48,30Z"/><path class="cls-27" d="M562.24,31.83c4.26-1.45,5.26,3.41,2.54,5C566.45,34.25,565.7,31.91,562.24,31.83Z"/><ellipse class="cls-27" cx="553.53" cy="23.42" rx="0.8" ry="0.76"/><ellipse class="cls-27" cx="565.76" cy="14.57" rx="0.8" ry="0.76"/><ellipse class="cls-26" cx="553.45" cy="8.16" rx="0.8" ry="0.76"/><ellipse class="cls-26" cx="543.01" cy="62.51" rx="0.8" ry="0.76"/><ellipse class="cls-27" cx="553.45" cy="55.63" rx="0.8" ry="0.76"/><ellipse class="cls-26" cx="525.87" cy="37.01" rx="0.8" ry="0.76"/><ellipse class="cls-27" cx="568.52" cy="32.96" rx="0.8" ry="0.76"/><path class="cls-27" d="M542.43,44.7,540,45.76a2.47,2.47,0,0,1-.76.25.28.28,0,0,1-.29-.16l-3.11-7q-.23-.52,2.91-1.92a6.69,6.69,0,0,1,2.65-.76,1.86,1.86,0,0,1,1.3.52,2.63,2.63,0,0,1,.45.71,2.49,2.49,0,0,1,.28,1.4,1.08,1.08,0,0,1-.41.76,1.65,1.65,0,0,1,1.07.12,2.24,2.24,0,0,1,.93,1.18,2.1,2.1,0,0,1,.05,1.9,3.7,3.7,0,0,1-1.51,1.36Q543.11,44.4,542.43,44.7ZM540.33,40q.56-.25.23-1a.94.94,0,0,0-.39-.48.47.47,0,0,0-.41,0l-.35.15.65,1.47Zm1.11,3.24.27-.12q.56-.25.23-1a.94.94,0,0,0-.39-.48.46.46,0,0,0-.41,0l-.35.15Z"/><path class="cls-27" d="M548.55,42.64a6.8,6.8,0,0,1-1.71,0,3.47,3.47,0,0,1-1.37-.5q-1.31-.79-1.63-3.44a5.32,5.32,0,0,1,.09-2,3.21,3.21,0,0,1,.74-1.42A4.48,4.48,0,0,1,547.5,34a7.08,7.08,0,0,1,1.65,0,3.77,3.77,0,0,1,1.38.44q1.35.75,1.66,3.28a4.47,4.47,0,0,1-.72,3.48A4.26,4.26,0,0,1,548.55,42.64Zm-.64-2a.53.53,0,0,0,.78-.09,1.74,1.74,0,0,0,.15-.76,10.06,10.06,0,0,0-.1-1.58,9.75,9.75,0,0,0-.28-1.54,1.65,1.65,0,0,0-.32-.68.55.55,0,0,0-.78.09,1.64,1.64,0,0,0-.15.74,9.68,9.68,0,0,0,.09,1.56,10.06,10.06,0,0,0,.28,1.55A1.73,1.73,0,0,0,547.91,40.66Z"/><path class="cls-27" d="M555.74,42a6.8,6.8,0,0,1-1.67-.37,3.47,3.47,0,0,1-1.23-.8q-1.09-1.06-.81-3.72a5.32,5.32,0,0,1,.54-1.91,3.22,3.22,0,0,1,1-1.22,4.48,4.48,0,0,1,3-.63,7.09,7.09,0,0,1,1.61.34,3.78,3.78,0,0,1,1.24.75q1.15,1,.87,3.57a4.48,4.48,0,0,1-1.49,3.23A4.26,4.26,0,0,1,555.74,42Zm-.17-2.07a.53.53,0,0,0,.78.08,1.74,1.74,0,0,0,.32-.71,10,10,0,0,0,.26-1.56,9.66,9.66,0,0,0,.07-1.56,1.65,1.65,0,0,0-.16-.74.55.55,0,0,0-.78-.08,1.64,1.64,0,0,0-.31.68,9.72,9.72,0,0,0-.26,1.54,10,10,0,0,0-.08,1.58A1.73,1.73,0,0,0,555.57,39.88Z"/><path class="cls-27" d="M560.38,43.06l-.81-.3a2.33,2.33,0,0,1-.69-.35.28.28,0,0,1-.1-.32l2.61-7q.1-.26.84-.15a7.29,7.29,0,0,1,1.52.39,2.44,2.44,0,0,1,1,.62.82.82,0,0,1,.23.57l-.33,3.23.1,0,1.76-2.55q.19-.27.93-.26a4.59,4.59,0,0,1,1.52.3,4.25,4.25,0,0,1,1.11.55q.33.26.26.45l-2.66,7.17q-.05.15-.72,0a12.18,12.18,0,0,1-1.58-.49q-.92-.34-.8-.66.33-.88,1.35-3.07l-.1,0-1.66,2.7a.38.38,0,0,1-.36.14,2.66,2.66,0,0,1-.75-.19,1.56,1.56,0,0,1-.56-.28.38.38,0,0,1,0-.31l.48-3.14-.1,0q-.65,2.37-1,3.21Q561.79,43.54,560.38,43.06Z"/><ellipse class="cls-28" cx="441.36" cy="64.76" rx="10.92" ry="5.04"/><path class="cls-29" d="M443.51,64.5q0,1.18,0,2.41a1.31,1.31,0,0,1-1,0q-.15-1-.25-2A5.64,5.64,0,0,1,443.51,64.5Z"/><path class="cls-30" d="M443.51,64.5a5.64,5.64,0,0,0-1.26.37q-.07-.66-.11-1.32a1.48,1.48,0,0,1,1.31-.14Q443.49,63.95,443.51,64.5Z"/><path class="cls-29" d="M438.86,64.44a6,6,0,0,1,1.26.39q-.1,1-.26,2.08a1.31,1.31,0,0,1-1,0Q438.8,65.65,438.86,64.44Z"/><path class="cls-30" d="M440.12,64.83a6,6,0,0,0-1.26-.39q0-.52.06-1a1.48,1.48,0,0,1,1.31.14Q440.18,64.19,440.12,64.83Z"/><path class="cls-31" d="M438.5,61.79a2.27,2.27,0,0,1,2.55.34l-.13,2a4.6,4.6,0,0,1-1.78.12,2.07,2.07,0,0,1-1-.6l-.06-.07Z"/><path class="cls-31" d="M441.49,64.09l-.13-2a2.4,2.4,0,0,1,2.51-.34l.47,1.74a1.75,1.75,0,0,1-.38.36,2.34,2.34,0,0,1-.71.32A4.57,4.57,0,0,1,441.49,64.09Z"/><path class="cls-29" d="M438.87,67.07q.07-.5.62-.36Q438.72,66.1,438.87,67.07ZM437,64a3.8,3.8,0,0,1,1.12-.62q.85,1.44,1.56,2.81c.3.63,0,.06.2.68a1.28,1.28,0,0,1-.89.47C438.11,65.85,437.83,65.54,437,64Z"/><path class="cls-24" d="M438.13,63.41A3.8,3.8,0,0,0,437,64l-1-1.56a1.45,1.45,0,0,1,1.23-.69Z"/><path class="cls-30" d="M438.87,67.07q-.16-1,.62-.36Q438.95,66.57,438.87,67.07Z"/><path class="cls-32" d="M435.59,62.8a2.1,2.1,0,0,0,.68-.56.17.17,0,0,1,.15.12,1.8,1.8,0,0,1-.68.54A.26.26,0,0,1,435.59,62.8Zm-.26-.13a2,2,0,0,0,.66-.58.17.17,0,0,1,.2.09,2,2,0,0,1-.68.57A.45.45,0,0,1,435.33,62.67Zm.49.27a1.76,1.76,0,0,0,.67-.52q.08,0,.12.13A1.34,1.34,0,0,1,436,63,.26.26,0,0,1,435.82,62.95Zm.82-.34a.15.15,0,0,1,.09.14.72.72,0,0,1-.59.44.22.22,0,0,1-.14-.12A.91.91,0,0,0,436.64,62.61Z"/><path class="cls-33" d="M437.35,61.46l-1.44-.21,0-.2a7.83,7.83,0,0,0,1.31-.16Z"/><path class="cls-34" d="M433.63,62.33l-.19.23,0-.18a.84.84,0,0,1,.15-.2A.73.73,0,0,0,433.63,62.33Zm2.23-1.27,0,.2h0a6,6,0,0,0-1.4.53l.11-.27a7.34,7.34,0,0,1,1.18-.45Z"/><path class="cls-35" d="M433.63,62.33a.73.73,0,0,1-.08-.15,2.69,2.69,0,0,1,.39-.32q.32-.19.65-.35l-.11.27-.12.41a1.12,1.12,0,0,1-.55.35Z"/><path class="cls-36" d="M433.44,62.56l.19-.23.17.21a1.12,1.12,0,0,0,.55-.35l.12-.41a6,6,0,0,1,1.4-.53h0a.93.93,0,0,1,0,.73,1.57,1.57,0,0,1-1,.73q-.51.06-1.1.2A.82.82,0,0,1,433.44,62.56Z"/><path class="cls-37" d="M435.91,61.26l1.44.21v0l.41.95q-.08.09-.17,0a.77.77,0,0,0-.31-.3q-.15-.09-.25.11a.88.88,0,0,0,.1.52.92.92,0,0,1-.45.67.59.59,0,0,1-.48,0,2.27,2.27,0,0,0-1-.7l-.3,0a1.57,1.57,0,0,0,1-.73.93.93,0,0,0,0-.73Zm-.09,1.69A.26.26,0,0,0,436,63a1.34,1.34,0,0,0,.65-.48q0-.14-.12-.13A1.76,1.76,0,0,1,435.82,62.95Zm-.49-.27a.45.45,0,0,0,.18.08,2,2,0,0,0,.68-.57.17.17,0,0,0-.2-.09A2,2,0,0,1,435.33,62.67Zm.26.13a.26.26,0,0,0,.15.09,1.8,1.8,0,0,0,.68-.54.17.17,0,0,0-.15-.12A2.1,2.1,0,0,1,435.59,62.8Zm1-.19a.91.91,0,0,1-.64.46.22.22,0,0,0,.14.12.72.72,0,0,0,.59-.44A.15.15,0,0,0,436.64,62.61Z"/><path class="cls-29" d="M442.92,66.71q.55-.13.62.36Q443.7,66.1,442.92,66.71Zm.5.66a1.28,1.28,0,0,1-.89-.47c.21-.63-.11-.06.2-.68q.7-1.36,1.56-2.81a3.8,3.8,0,0,1,1.12.62C444.58,65.54,444.31,65.85,443.42,67.37Z"/><path class="cls-24" d="M444.28,63.41a3.8,3.8,0,0,1,1.12.62l1-1.56a1.45,1.45,0,0,0-1.23-.69Z"/><path class="cls-30" d="M443.54,67.07q.16-1-.62-.36Q443.47,66.57,443.54,67.07Z"/><path class="cls-32" d="M446.67,62.89a1.8,1.8,0,0,1-.68-.54.17.17,0,0,1,.15-.12,2.1,2.1,0,0,0,.68.56A.26.26,0,0,1,446.67,62.89Zm.24-.14a2,2,0,0,1-.68-.57.17.17,0,0,1,.2-.09,2,2,0,0,0,.66.58A.45.45,0,0,1,446.91,62.76Zm-.45.28a1.34,1.34,0,0,1-.65-.48q0-.14.12-.13a1.76,1.76,0,0,0,.67.52A.26.26,0,0,1,446.46,63Zm0,0a.22.22,0,0,1-.14.12.72.72,0,0,1-.59-.44.15.15,0,0,1,.09-.14A.91.91,0,0,0,446.41,63.07Z"/><path class="cls-33" d="M445.06,61.46l1.44-.21,0-.2a7.83,7.83,0,0,1-1.31-.16Z"/><path class="cls-34" d="M448.86,62.18a.84.84,0,0,1,.15.2l0,.18-.19-.23A.73.73,0,0,0,448.86,62.18Zm-2.22-1.12a7.34,7.34,0,0,1,1.18.45l.11.27a6,6,0,0,0-1.4-.53h0l0-.2Z"/><path class="cls-35" d="M448.78,62.33a.73.73,0,0,0,.08-.15,2.69,2.69,0,0,0-.39-.32q-.32-.19-.65-.35l.11.27.12.41a1.12,1.12,0,0,0,.55.35Z"/><path class="cls-36" d="M449,62.56l-.19-.23-.17.21a1.12,1.12,0,0,1-.55-.35l-.12-.41a6,6,0,0,0-1.4-.53h0a.93.93,0,0,0,0,.73,1.57,1.57,0,0,0,1,.73q.51.06,1.1.2A.82.82,0,0,0,449,62.56Z"/><path class="cls-37" d="M446.51,61.26a.93.93,0,0,0,0,.73,1.57,1.57,0,0,0,1,.73l-.3,0a2.27,2.27,0,0,0-1,.7.59.59,0,0,1-.48,0,.92.92,0,0,1-.45-.67.88.88,0,0,0,.1-.52q-.1-.2-.25-.11a.77.77,0,0,0-.31.3q-.09.09-.17,0l.41-.95v0l1.44-.21Zm-.59,1.17q-.08,0-.12.13a1.34,1.34,0,0,0,.65.48.26.26,0,0,0,.13-.09A1.76,1.76,0,0,1,445.92,62.43Zm.51-.33a.17.17,0,0,0-.2.09,2,2,0,0,0,.68.57.45.45,0,0,0,.18-.08A2,2,0,0,1,446.43,62.1Zm-.29.14a.17.17,0,0,0-.15.12,1.8,1.8,0,0,0,.68.54.26.26,0,0,0,.15-.09A2.1,2.1,0,0,1,446.14,62.24Zm-.46.51a.72.72,0,0,0,.59.44.22.22,0,0,0,.14-.12.91.91,0,0,1-.64-.46A.15.15,0,0,0,445.68,62.75Z"/><path class="cls-31" d="M443.64,60.77l.24,1-2.17.35a2,2,0,0,0,.73-.37,3.65,3.65,0,0,1-1.25.22,3.54,3.54,0,0,1-1.3-.23,2.25,2.25,0,0,0,.78.38l-2.16-.35.22-1a1.34,1.34,0,0,0,1-1.2,11,11,0,0,0,3,0A1.33,1.33,0,0,0,443.64,60.77Z"/><path class="cls-38" d="M443.64,60.77a1.33,1.33,0,0,1-1-1.19,11,11,0,0,1-3,0,1.34,1.34,0,0,1-1,1.2l.38-1.62.57-.09h.08a13.84,13.84,0,0,1,2.84,0h.08l.57.09Zm-3,1.37a2.25,2.25,0,0,1-.78-.38,3.54,3.54,0,0,0,1.3.23,3.65,3.65,0,0,0,1.25-.22,2,2,0,0,1-.73.37l-.11,0h-.1l-.14,0H441l-.14,0h-.1Z"/><path class="cls-30" d="M440.56,53.25l-.17-.17h0l-.17-.4.51-.05a2.66,2.66,0,0,0,0-.49v-.08a1.7,1.7,0,0,0,.3.12l.15,0,.13,0,.26-.11v.08a3.15,3.15,0,0,0,0,.48l.5,0-.17.41h0l-.75.77Z"/><path class="cls-39" d="M442.08,52.67l.17-.39.29.46v0l.05,1.13-.56-.64-.15-.16h0Zm-1.78.54.27,0,.58.61L441,54h.28l0,1.09H441L441,54h0l-.73-.77-.5.71-.09-1.14v0l.3-.49.19.4.17.4h0Z"/><path class="cls-40" d="M440,52.27v0a4.27,4.27,0,0,1,.72-.12,2.66,2.66,0,0,1,0,.49l-.51.05Zm.27.94.1-.13.17.17Zm2-.93-.17.39-.5,0a3.15,3.15,0,0,1,0-.48,4.16,4.16,0,0,1,.66.12Zm-1.1,1.58.75-.77.15.16-.74.72H441Z"/><path class="cls-31" d="M439.72,52.76v0l.09,1.14.5-.71L441,54h0l0,1.07h.37l0-1.09.74-.72.56.64-.05-1.13v0a8.16,8.16,0,0,1,1.18.33L443,58l.28,1.34a11.79,11.79,0,0,1-4.22,0l.23-1.4-.71-4.85A9,9,0,0,1,439.72,52.76Z"/><path class="cls-41" d="M441.59,52.07l-.26.11-.13,0-.15,0a1.7,1.7,0,0,1-.3-.12,3,3,0,0,0-.06-.38,1.16,1.16,0,0,1,.93,0A3.75,3.75,0,0,0,441.59,52.07Z"/><path class="cls-42" d="M447.16,19.57A18.77,18.77,0,0,0,443,20.8a20.53,20.53,0,0,0-7.7,5.52l.32-1.38a4.65,4.65,0,0,1,.83-1.06A15.55,15.55,0,0,1,443,20.42,26.26,26.26,0,0,1,447.16,19.57Zm4,4.63a10.28,10.28,0,0,0-4,2.79l.7-1.4a6.07,6.07,0,0,1,3.2-1.38Zm1.95,4.3a14.67,14.67,0,0,1-2.88,2.35l.83-1.19a.16.16,0,0,0,0,.06Zm-23.64,5.61a31.81,31.81,0,0,0,0,3.28v.13a2.58,2.58,0,0,0-.08-.34q-.08-.4-.11-.59-.08-.51-.13-1.12a17.93,17.93,0,0,1,1.63-9.74,31.66,31.66,0,0,0-1,4.4A37.82,37.82,0,0,0,429.48,34.11Zm6.88-11.89a12.35,12.35,0,0,0-4.91,7l-.13-.76a9.3,9.3,0,0,1,.49-1.71,7.54,7.54,0,0,1,.61-1.27,8.21,8.21,0,0,1,4-3.26Z"/><path class="cls-43" d="M452.11,34.6h0l1.27-.44,0,.08q-.74,2.81-2.07,3.7h0A113.78,113.78,0,0,1,431,37.56a6.59,6.59,0,0,1-1.5-3.45,37.82,37.82,0,0,1,.34-4,31.66,31.66,0,0,1,1-4.4l0-.11.49,2.81.13.76a12.35,12.35,0,0,1,4.91-7l-.7,2.73-.32,1.38A20.53,20.53,0,0,1,443,20.8a18.77,18.77,0,0,1,4.11-1.23,62.26,62.26,0,0,0,0,7.43,10.28,10.28,0,0,1,4-2.79,20,20,0,0,1-.59,5.54q-.15.57-.34,1.1a14.67,14.67,0,0,0,2.88-2.35,22.5,22.5,0,0,1-.21,4.17,7.43,7.43,0,0,1-2.05,2.2Z"/><path class="cls-44" d="M447.2,27a62.26,62.26,0,0,1,0-7.43q.06,1,.15,1.8,0,.25.06.53.23,2,.53,3.7Zm4-2.79a13.83,13.83,0,0,1-.11,5.46l-.83,1.19q.19-.53.34-1.1A20,20,0,0,0,451.18,24.2Zm.93,10.39-1.25.28a7.43,7.43,0,0,0,2.05-2.2,22.5,22.5,0,0,0,.21-4.17,11.37,11.37,0,0,1,.28,1.25,10.49,10.49,0,0,1,0,3.11,9.45,9.45,0,0,1-.51.87,5.87,5.87,0,0,1-.68.74Zm-22.62,2.92v-.13a31.81,31.81,0,0,1,0-3.28,6.59,6.59,0,0,0,1.5,3.45,113.78,113.78,0,0,0,20.32.38h0q1.33-.89,2.07-3.7l-.8,3.6q-.23.51-.49,1a16.17,16.17,0,0,1-2.69,3.75,17.54,17.54,0,0,1-8.34,3.07,21.33,21.33,0,0,1-8.42-2.92,10.89,10.89,0,0,1-2.33-3.11A9.68,9.68,0,0,1,429.48,37.52Z"/><path class="cls-42" d="M449.44,34.45l-.55-.4,1-.63Zm-2-1.29a14.34,14.34,0,0,0-1.78-.8,4.05,4.05,0,0,0,2.12-2.54A9.58,9.58,0,0,1,447.47,33.16Zm-2.07-.93L442.22,32l-2.1-1.19.66-1.4a5.52,5.52,0,0,1,2.07,1.35l1.21-.34A3.14,3.14,0,0,1,445.4,32.23Zm-9.69.19-1,.39a3.76,3.76,0,0,1,0-2A2.71,2.71,0,0,0,435.71,32.42Zm-2.5,1.42-1.19.8a11.82,11.82,0,0,1,.11-4.13A7.54,7.54,0,0,0,433.21,33.83Z"/><path class="cls-29" d="M449.3,40.47q.06-.37.11-.75a1.5,1.5,0,0,1,2.24.14,2.39,2.39,0,0,1,.26,2.34q-.07.23-.18.48-1.39,2.51-3.46,2.17.21-.68.39-1.37a2,2,0,0,0,1.6-.36,1.26,1.26,0,0,0,.45-1.38,1.14,1.14,0,0,0-1.22-.64,1.35,1.35,0,0,1,1-.38,1.22,1.22,0,0,1,1.06.94,1.23,1.23,0,0,0-.67-1.6A1.64,1.64,0,0,0,449.3,40.47Z"/><path class="cls-30" d="M448.66,43.48q.24-.89.42-1.78l0-.2q.1-.52.18-1a1.64,1.64,0,0,1,1.6-.41,1.23,1.23,0,0,1,.67,1.6,1.22,1.22,0,0,0-1.06-.94,1.35,1.35,0,0,0-1,.38,1.14,1.14,0,0,1,1.22.64,1.26,1.26,0,0,1-.45,1.38A2,2,0,0,1,448.66,43.48Z"/><path class="cls-29" d="M432.46,40.47q-.06-.37-.11-.75a1.5,1.5,0,0,0-2.24.14,2.39,2.39,0,0,0-.26,2.34,5.09,5.09,0,0,0,.18.48q1.39,2.51,3.46,2.17-.21-.68-.39-1.37a2,2,0,0,1-1.6-.36,1.26,1.26,0,0,1-.45-1.38,1.14,1.14,0,0,1,1.22-.64,1.34,1.34,0,0,0-1-.38,1.22,1.22,0,0,0-1.06.94,1.23,1.23,0,0,1,.67-1.6A1.64,1.64,0,0,1,432.46,40.47Z"/><path class="cls-30" d="M433.1,43.48q-.24-.89-.42-1.78l0-.2q-.1-.52-.18-1a1.64,1.64,0,0,0-1.6-.41,1.23,1.23,0,0,0-.67,1.6,1.22,1.22,0,0,1,1.06-.94,1.34,1.34,0,0,1,1,.38,1.14,1.14,0,0,0-1.22.64,1.26,1.26,0,0,0,.45,1.38A2,2,0,0,0,433.1,43.48Z"/><path class="cls-29" d="M432.26,37.88a23.65,23.65,0,0,1,3.47-1.78,2.11,2.11,0,0,0,.89,1l1.31-2a5.73,5.73,0,0,0,3.56,5.25l1.44-3.89.55,1.44a4.1,4.1,0,0,0,1.74-2.2,21.21,21.21,0,0,1,4.32,2.14,24.38,24.38,0,0,1-1.61,9,12.21,12.21,0,0,1-6.29,4.8,1.5,1.5,0,0,1-1,0,13.32,13.32,0,0,1-6.6-4.85A29.66,29.66,0,0,1,432.26,37.88Z"/><path class="cls-30" d="M449.53,37.86a21.21,21.21,0,0,0-4.32-2.14,4.1,4.1,0,0,1-1.74,2.2l-.55-1.44-1.44,3.89a5.73,5.73,0,0,1-3.56-5.25l-1.31,2a2.11,2.11,0,0,1-.89-1,23.65,23.65,0,0,0-3.47,1.78q-.06-1-.08-2.14a17.93,17.93,0,0,1,8.89-2.24,18.54,18.54,0,0,1,8.49,2.43Q449.55,36.92,449.53,37.86Z"/><path class="cls-45" d="M431.37,39.13a4.45,4.45,0,0,1,1-1.27l.74-.49a20.94,20.94,0,0,0-.28,5.44Z"/><path class="cls-46" d="M433.1,37.37l-.74.49a4.45,4.45,0,0,0-1,1.27l-.38-1a7.49,7.49,0,0,1,2.24-1.63Z"/><path class="cls-45" d="M450.58,39l-1.52,3.85a21.11,21.11,0,0,0-.28-5.46q.34.19.8.49A3.81,3.81,0,0,1,450.58,39Z"/><path class="cls-46" d="M450.58,39a3.81,3.81,0,0,0-1-1.12q-.46-.3-.8-.49-.06-.38-.13-.8a7.48,7.48,0,0,1,2.24,1.63Z"/><path class="cls-47" d="M429.78,38.72a2.2,2.2,0,0,1-.32-1.33,13.88,13.88,0,0,1,6.73-5.52,5.89,5.89,0,0,0-.55,2.75A25.29,25.29,0,0,0,429.78,38.72ZM445,31.87a15.57,15.57,0,0,1,7.66,5.67,3.46,3.46,0,0,1-.47,1.27,25.36,25.36,0,0,0-6.69-4.61A10.15,10.15,0,0,0,445,31.87Z"/><path class="cls-48" d="M429.78,38.72a25.29,25.29,0,0,1,5.86-4.11,5.89,5.89,0,0,1,.55-2.75,13.9,13.9,0,0,1,5-.87,19.21,19.21,0,0,1,3.83.87,10.15,10.15,0,0,1,.51,2.33,25.36,25.36,0,0,1,6.69,4.61l-.25.34a20.88,20.88,0,0,0-6.45-3.75,16.12,16.12,0,0,0-4.36-.91,15.58,15.58,0,0,0-5.27,1,18.53,18.53,0,0,0-5.78,3.6A2.37,2.37,0,0,1,429.78,38.72Z"/><path class="cls-49" d="M438.16,40.34q-1.69-2.65-3.75-.12a8.61,8.61,0,0,1,.21-1.29,2,2,0,0,1,1.8-1.08A2.22,2.22,0,0,1,438,39.08Q438.1,39.71,438.16,40.34Z"/><path class="cls-49" d="M443.62,40.36a12.39,12.39,0,0,1,.19-1.28,2.22,2.22,0,0,1,1.55-1.23,2,2,0,0,1,1.8,1.08,8.87,8.87,0,0,1,.23,1.54Q445.66,37.51,443.62,40.36Z"/><path class="cls-50" d="M438.08,36.36a5.32,5.32,0,0,0,.72,1.75,15.91,15.91,0,0,0-5.28-1h-.77a6.43,6.43,0,0,1,.85-2,13.84,13.84,0,0,1,2.07.33l0,.16a2.72,2.72,0,0,0,1,1.44l.71-1.08Q437.71,36.19,438.08,36.36Z"/><path class="cls-51" d="M435.66,35.52a12.1,12.1,0,0,1,1.66.52l-.71,1.08a2.72,2.72,0,0,1-1-1.44Zm3.13,2.59a5.32,5.32,0,0,1-.72-1.75,11.38,11.38,0,0,1,1.33.75,3,3,0,0,1-.15,1.16Z"/><path class="cls-52" d="M441.9,44.35a1,1,0,0,1-.34.23,1.13,1.13,0,0,1-.52.11,1,1,0,0,1-.5-.11,1,1,0,0,1-.36-.28,1,1,0,0,1,.87-.59A1,1,0,0,1,441.9,44.35Z"/><path class="cls-50" d="M442.39,37.9l.4-1.06.21-.13.47,1.21a4,4,0,0,0,1.71-2.14l.08,0a13.36,13.36,0,0,1,2.9-.55,6.43,6.43,0,0,1,.85,2,5.12,5.12,0,0,0-.66,0,15.88,15.88,0,0,0-5.86,1.12A3.8,3.8,0,0,1,442.39,37.9Z"/><path class="cls-51" d="M442.8,36.84l-.4,1.06a3.6,3.6,0,0,1,0-.78A4.68,4.68,0,0,1,442.8,36.84Zm.21-.13a11.91,11.91,0,0,1,2.18-.93,4,4,0,0,1-1.71,2.14Z"/><path class="cls-43" d="M443.43,37.43l-.23-2.24-.07.13,0-1.1a9.5,9.5,0,0,0-2,5.71q-2.5-1.57-2.75-3.2a4.5,4.5,0,0,1,.21-2.62l-.21.12.68-1.7a5.87,5.87,0,0,0-2.45,4,8.1,8.1,0,0,1-.53-1.67q-.32-4.37,4.68-5.14a5,5,0,0,1,2,1.82,2.59,2.59,0,0,1,1.4-.63,4.7,4.7,0,0,1,1,2.16L445,32.8A11.41,11.41,0,0,1,443.43,37.43Z"/><path class="cls-42" d="M436.07,34.85a4.13,4.13,0,0,1,1-4,6.68,6.68,0,0,1,3.75-1.48,7.19,7.19,0,0,1,1.9,1.82,3.06,3.06,0,0,1,1.38-.28,2.59,2.59,0,0,0-1.4.63,5,5,0,0,0-2-1.82Q435.75,30.48,436.07,34.85Z"/><path class="cls-53" d="M443.43,37.43A11.41,11.41,0,0,0,445,32.8l.11.25a5.31,5.31,0,0,1,.08,1,5.56,5.56,0,0,1-1.71,3.66Zm-5.06-3.21a4.39,4.39,0,0,0-1.78,2.3,5.87,5.87,0,0,1,2.45-4Zm4.75,1.09a16.21,16.21,0,0,0-1.87,4.7l-.13-.08a9.5,9.5,0,0,1,2-5.71Z"/><path class="cls-54" d="M438.57,47h5a2.52,2.52,0,0,1-2.48,2.34A2.65,2.65,0,0,1,438.57,47Z"/><path class="cls-55" d="M448.46,45.34a3.66,3.66,0,0,0-3.83,1.82c-1.11,2.21-.58,3.36-.58,3.36a11.06,11.06,0,0,0,3.87-3.67A7.76,7.76,0,0,0,448.46,45.34Z"/><path class="cls-56" d="M433.54,45.38s2.72-.53,3.88,1.78.61,3.3.61,3.3a11.88,11.88,0,0,1-4-3.65A7.55,7.55,0,0,1,433.54,45.38Z"/><path class="cls-29" d="M445.82,53.24l1.91-1.15a.55.55,0,0,0-.47-.63l-1.53,1Z"/><path class="cls-30" d="M445.82,53.24l-.09-.79-.55.35a.56.56,0,0,0,.31.64Z"/><path class="cls-29" d="M447.26,51.47a10.78,10.78,0,0,1,2.48-1.64.88.88,0,0,1,.79.71,11.4,11.4,0,0,1-2.8,1.55A.55.55,0,0,1,447.26,51.47Z"/><path class="cls-57" d="M445,52.06l-1.32,1c-.33.29-.31,1.37-.44,2l2.28-1C445.73,53.88,445.57,52.07,445,52.06Z"/><path class="cls-58" d="M450,50.37a1.21,1.21,0,0,1,.08-1.3,2,2,0,0,1,.29-.36,1.94,1.94,0,0,1,1.13-.57.78.78,0,0,1,.22.09h0a.57.57,0,0,1,.35,0q.46.38.34.69l0,0q.27.12.12.46h0v0h0q.14.19-.07.39a.51.51,0,0,1,0,.33,1,1,0,0,1-.31.22l-.09.07-.13.08a2.51,2.51,0,0,1-.67.28,1.38,1.38,0,0,1-1.08-.2A1.77,1.77,0,0,1,450,50.37Zm2.32-.35a1,1,0,0,1-.47.25l-.08,0a.21.21,0,0,1-.06-.13.21.21,0,0,0,.06.13l.08,0a1,1,0,0,0,.47-.25l.17-.16Zm-.62,0,.09,0a1.82,1.82,0,0,0,.7-.51,1.82,1.82,0,0,1-.7.51l-.09,0q-.18-.1-.11-.35l-.05,0h.06a1.71,1.71,0,0,0,.46-.36,1.19,1.19,0,0,0,.26-.32.2.2,0,0,1-.2.14.6.6,0,0,1-.32-.11l-.23-.16-.11.1a1.05,1.05,0,0,1,0,.39.55.55,0,0,1,.35-.33.6.6,0,0,0,.32.11.2.2,0,0,0,.2-.14,1.19,1.19,0,0,1-.26.32,1.71,1.71,0,0,1-.46.36h-.08q-.08-.05-.08-.25a2.46,2.46,0,0,1-.2.51l-.09.12a.94.94,0,0,1-.52.35.94.94,0,0,0,.52-.35l.55.13A.48.48,0,0,1,451.68,50Zm.05.29a.19.19,0,0,0,.13.23.19.19,0,0,1-.13-.23v0Zm.46-1.58q.16.16.12.23s0-.12-.12-.23a5.08,5.08,0,0,0-.47-.41A5.08,5.08,0,0,1,452.18,48.69Z"/><path class="cls-59" d="M451.21,49.84a2.46,2.46,0,0,0,.2-.51q0,.19.08.25h0l.05,0q-.08.25.11.35a.48.48,0,0,0,0,.12l-.55-.13Zm.22-.56a1.05,1.05,0,0,0,0-.39l.11-.1.23.16A.55.55,0,0,0,451.43,49.28Z"/><path class="cls-60" d="M451.84,50.54a.23.23,0,0,1-.16-.28v0a.26.26,0,0,1-.06-.13.49.49,0,0,1,0-.1.29.29,0,0,1-.11-.36l0,0a.19.19,0,0,1-.07-.09,2.87,2.87,0,0,1-.15.34l-.09.13a1,1,0,0,1-.54.36,0,0,0,1,1,0-.08.91.91,0,0,0,.5-.33l.08-.11a2.42,2.42,0,0,0,.2-.5l0,0a0,0,0,0,1,0,0,1,1,0,0,0,0-.37,0,0,0,0,1,0,0l.11-.1a0,0,0,0,1,.05,0l.23.16h0a.56.56,0,0,0,.29.1.16.16,0,0,0,.16-.11h0s0,0-.11-.18a5,5,0,0,0-.47-.41,0,0,0,0,1,.05-.07,5.14,5.14,0,0,1,.48.41c.08.08.17.19.13.27s-.06.12-.27.34a1.8,1.8,0,0,1-.46.36h0c-.06.19,0,.26.08.3l.07,0a1.82,1.82,0,0,0,.67-.49,0,0,0,0,1,.06.06,1.84,1.84,0,0,1-.72.52h-.06a.36.36,0,0,0,0,.05.17.17,0,0,0,0,.1h0l0,0a1,1,0,0,0,.44-.24l.16-.16a0,0,0,0,1,.06.06l-.17.17a1.08,1.08,0,0,1-.49.26h0l0,0a.14.14,0,0,0,.11.17,0,0,0,0,1,0,.06l0,0Zm.26-1.44a.64.64,0,0,1-.32-.11.51.51,0,0,0-.3.3v0c0,.11,0,.18.06.21h0a1.7,1.7,0,0,0,.44-.34l.1-.11Zm-.55-.26-.07.06a1,1,0,0,1,0,.18.55.55,0,0,1,.19-.15Z"/><path class="cls-39" d="M445,52.06l.25-.17s.87,1.29.54,2l-.26.13A2.7,2.7,0,0,0,445,52.06Z"/><path class="cls-29" d="M436.48,53.24l-1.91-1.15a.55.55,0,0,1,.47-.63l1.53,1Z"/><path class="cls-30" d="M436.48,53.24l.09-.79.55.35a.56.56,0,0,1-.31.64Z"/><path class="cls-29" d="M435,51.47a10.78,10.78,0,0,0-2.48-1.64.88.88,0,0,0-.79.71,11.4,11.4,0,0,0,2.8,1.55A.55.55,0,0,0,435,51.47Z"/><path class="cls-57" d="M437.25,52.06l1.32,1c.33.29.31,1.37.44,2l-2.28-1C436.57,53.88,436.73,52.07,437.25,52.06Z"/><path class="cls-58" d="M432.16,50.62a1.38,1.38,0,0,1-1.08.2,2.51,2.51,0,0,1-.67-.28l-.13-.08-.09-.07a1,1,0,0,1-.31-.22.51.51,0,0,1,0-.33q-.21-.2-.07-.39h0v0h0q-.15-.34.12-.46l0,0q-.12-.3.34-.69a.57.57,0,0,1,.35,0h0a.78.78,0,0,1,.22-.09,1.94,1.94,0,0,1,1.13.57,2,2,0,0,1,.29.36,1.21,1.21,0,0,1,.08,1.3A1.77,1.77,0,0,1,432.16,50.62Zm-2.32-.77L430,50a1,1,0,0,0,.47.25l.08,0a.21.21,0,0,0,.06-.13.21.21,0,0,1-.06.13l-.08,0A1,1,0,0,1,430,50Zm.78.24.55-.13a.94.94,0,0,0,.52.35.94.94,0,0,1-.52-.35l-.09-.12a2.46,2.46,0,0,1-.2-.51q0,.19-.08.25h-.08a1.71,1.71,0,0,1-.46-.36,1.19,1.19,0,0,1-.26-.32.2.2,0,0,0,.2.14.6.6,0,0,0,.32-.11.55.55,0,0,1,.35.33,1.05,1.05,0,0,1,0-.39l-.11-.1-.23.16a.6.6,0,0,1-.32.11.2.2,0,0,1-.2-.14,1.19,1.19,0,0,0,.26.32,1.71,1.71,0,0,0,.46.36h.06l-.05,0q.08.25-.11.35l-.09,0a1.82,1.82,0,0,1-.7-.51,1.82,1.82,0,0,0,.7.51l.09,0A.48.48,0,0,1,430.62,50.09Zm-.06.13v0a.19.19,0,0,1-.13.23.19.19,0,0,0,.13-.23Zm0-1.94a5.08,5.08,0,0,0-.47.41q-.16.16-.12.23s0-.12.12-.23A5.08,5.08,0,0,1,430.59,48.28Z"/><path class="cls-59" d="M431.17,50l-.55.13a.48.48,0,0,0,0-.12q.18-.1.11-.35l.05,0h0q.08-.05.08-.25a2.46,2.46,0,0,0,.2.51Zm-.65-1,.23-.16.11.1a1.05,1.05,0,0,0,0,.39A.55.55,0,0,0,430.52,48.95Z"/><path class="cls-60" d="M430.43,50.54l0,0a0,0,0,0,1,0-.06.14.14,0,0,0,.11-.17l0,0h0A1.08,1.08,0,0,1,430,50l-.17-.17a0,0,0,0,1,.06-.06L430,50a1,1,0,0,0,.44.24l0,0h0a.17.17,0,0,0,0-.1.36.36,0,0,0,0-.05h-.06a1.84,1.84,0,0,1-.72-.52,0,0,0,0,1,.06-.06,1.82,1.82,0,0,0,.67.49l.07,0c.07,0,.14-.11.08-.3h0a1.8,1.8,0,0,1-.46-.36c-.21-.22-.26-.3-.27-.34s.05-.2.13-.27a5.14,5.14,0,0,1,.48-.41,0,0,0,0,1,.05.07,5,5,0,0,0-.47.41c-.13.13-.11.17-.11.18h0a.16.16,0,0,0,.16.11.56.56,0,0,0,.29-.1h0l.23-.16a0,0,0,0,1,.05,0l.11.1a0,0,0,0,1,0,0,1,1,0,0,0,0,.37,0,0,0,0,1,0,0l0,0a2.42,2.42,0,0,0,.2.5l.08.11a.91.91,0,0,0,.5.33,0,0,0,1,1,0,.08,1,1,0,0,1-.54-.36l-.09-.13a2.87,2.87,0,0,1-.15-.34.19.19,0,0,1-.07.09l0,0a.29.29,0,0,1-.11.36.49.49,0,0,1,0,.1.26.26,0,0,1-.06.13v0a.23.23,0,0,1-.16.28Zm-.24-1.44.1.11a1.7,1.7,0,0,0,.44.34h0s.06-.1.06-.21v0a.51.51,0,0,0-.3-.3.64.64,0,0,1-.32.11Zm.43-.16a.55.55,0,0,1,.19.15,1,1,0,0,1,0-.18l-.07-.06Z"/><path class="cls-39" d="M437.25,52.06l-.25-.17s-.87,1.29-.54,2l.26.13A2.7,2.7,0,0,1,437.25,52.06Z"/><path class="cls-61" d="M435.18,40.94a10.48,10.48,0,0,0-.37,2.81,25.67,25.67,0,0,1,.31,2.69,13.63,13.63,0,0,1-.31,1.5l1.42,1.33a21.48,21.48,0,0,0,.33-2.52c0-1.53-.33-2.31-.28-3.12a24.54,24.54,0,0,1,.41-2.69Z"/><line class="cls-62" x1="438.06" y1="40.51" x2="433.68" y2="40.44"/><path class="cls-61" d="M446.31,40.94a24.39,24.39,0,0,1,.22,2.81,25.67,25.67,0,0,0-.31,2.69c0,.45.28,2.22.28,2.22l-1.31,1.16s-.39-2.21-.41-3.06c0-1.53.33-2.31.28-3.12a24.54,24.54,0,0,0-.41-2.69Z"/><line class="cls-62" x1="447.9" y1="40.51" x2="443.52" y2="40.44"/><path class="cls-63" d="M86,42.79a5.82,5.82,0,0,1,1.41,3.65A5.82,5.82,0,0,1,83.79,45a5.82,5.82,0,0,1-1.41-3.65A5.82,5.82,0,0,1,86,42.79Z"/><path class="cls-64" d="M86.14,43.68a3.78,3.78,0,0,1,.92,2.37,3.15,3.15,0,0,1-3.29-3.29A3.78,3.78,0,0,1,86.14,43.68Z"/><line class="cls-65" x1="87.44" y1="24.92" x2="87.44" y2="50.21"/><path class="cls-66" d="M98.3,22.76a9.83,9.83,0,0,0-3.31-2,9.83,9.83,0,0,0,1.86-3.41,9.83,9.83,0,0,0-3.88-.1,9.83,9.83,0,0,0-.1-3.88,9.83,9.83,0,0,0-3.41,1.86,9.83,9.83,0,0,0-2-3.31,9.83,9.83,0,0,0-2,3.31A9.83,9.83,0,0,0,82,13.36a9.83,9.83,0,0,0-.1,3.88,9.83,9.83,0,0,0-3.88.1,9.83,9.83,0,0,0,1.86,3.41,9.83,9.83,0,0,0-3.31,2,9.83,9.83,0,0,0,3.31,2A9.83,9.83,0,0,0,78,28.19a9.83,9.83,0,0,0,3.88.1,9.83,9.83,0,0,0,.1,3.88,9.83,9.83,0,0,0,3.41-1.86,9.83,9.83,0,0,0,2,3.31,9.83,9.83,0,0,0,2-3.31,9.83,9.83,0,0,0,3.41,1.86,9.83,9.83,0,0,0,.1-3.88,9.83,9.83,0,0,0,3.88-.1A9.83,9.83,0,0,0,95,24.79,9.83,9.83,0,0,0,98.3,22.76Z"/><path class="cls-67" d="M95.08,22.76a6.92,6.92,0,0,0-2.33-1.42,6.92,6.92,0,0,0,1.31-2.4,6.92,6.92,0,0,0-2.73-.07,6.92,6.92,0,0,0-.07-2.73,6.92,6.92,0,0,0-2.4,1.31,6.92,6.92,0,0,0-1.42-2.33A6.92,6.92,0,0,0,86,17.45a6.92,6.92,0,0,0-2.4-1.31,6.92,6.92,0,0,0-.07,2.73,6.92,6.92,0,0,0-2.73.07,6.92,6.92,0,0,0,1.31,2.4,6.92,6.92,0,0,0-2.33,1.42,6.92,6.92,0,0,0,2.33,1.42,6.92,6.92,0,0,0-1.31,2.4,6.92,6.92,0,0,0,2.73.07,6.92,6.92,0,0,0,.07,2.73A6.92,6.92,0,0,0,86,28.08a6.92,6.92,0,0,0,1.42,2.33,6.92,6.92,0,0,0,1.42-2.33,6.92,6.92,0,0,0,2.4,1.31,6.92,6.92,0,0,0,.07-2.73,6.92,6.92,0,0,0,2.73-.07,6.92,6.92,0,0,0-1.31-2.4A6.92,6.92,0,0,0,95.08,22.76Z"/><path class="cls-68" d="M92.19,22.76a4.3,4.3,0,0,0-1.45-.89,4.3,4.3,0,0,0,.81-1.49,4.3,4.3,0,0,0-1.7,0,4.3,4.3,0,0,0,0-1.7,4.3,4.3,0,0,0-1.49.81A4.3,4.3,0,0,0,87.44,18a4.3,4.3,0,0,0-.89,1.45,4.3,4.3,0,0,0-1.49-.81,4.3,4.3,0,0,0,0,1.7,4.3,4.3,0,0,0-1.7,0,4.3,4.3,0,0,0,.81,1.49,4.3,4.3,0,0,0-1.45.89,4.3,4.3,0,0,0,1.45.89,4.3,4.3,0,0,0-.81,1.49,4.3,4.3,0,0,0,1.7,0,4.3,4.3,0,0,0,0,1.7,4.3,4.3,0,0,0,1.49-.81,4.3,4.3,0,0,0,.89,1.45,4.3,4.3,0,0,0,.89-1.45,4.3,4.3,0,0,0,1.49.81,4.3,4.3,0,0,0,0-1.7,4.3,4.3,0,0,0,1.7,0,4.3,4.3,0,0,0-.81-1.49A4.3,4.3,0,0,0,92.19,22.76Z"/><path class="cls-63" d="M91.68,39.58a6.76,6.76,0,0,1-4.25,1.64A6.76,6.76,0,0,1,89.08,37a6.76,6.76,0,0,1,4.25-1.64A6.76,6.76,0,0,1,91.68,39.58Z"/><path class="cls-64" d="M90.5,39.89A4.54,4.54,0,0,1,87.65,41a4.54,4.54,0,0,1,1.1-2.85A4.54,4.54,0,0,1,91.6,37,4.54,4.54,0,0,1,90.5,39.89Z"/><circle class="cls-67" cx="87.44" cy="22.76" r="2.16"/><circle class="cls-66" cx="87.44" cy="22.76" r="1.27"/><ellipse class="cls-28" cx="87.36" cy="61.64" rx="13.37" ry="4.96"/><path class="cls-69" d="M79.06,49.95l1.86,10.42s.93,1.7,6.64,1.7c5.56,0,6.73-1.89,6.73-1.89l2.44-10.42Z"/><path class="cls-70" d="M79.23,50.86s5.31,3.84,16.4,3.55l.85-3.65S80.22,49.47,79.23,50.86Z"/><path class="cls-69" d="M98.88,48.35c-.31,3.34-1,2.66-10.95,2.61-10.38-.06-11.06.64-11.31-2.41-.23-2.88.35-2.47,11.31-2.41S99.11,45.84,98.88,48.35Z"/><path class="cls-71" d="M84.61,48.46c0,.63-1.59,1.14-3.56,1.14s-3.63,0-3.56-1.14,1.59-1.14,3.56-1.14S84.68,47.18,84.61,48.46Z"/><path class="cls-71" d="M87,60.55c-.14.46-1.39.55-2.84.19s-2.19-.54-2.42-1.5-1-3.76.46-3.4S87.31,59.62,87,60.55Z"/><text class="cls-72" transform="translate(593.72 57.2) rotate(15.05)">C<tspan class="cls-73" x="10.04" y="0">3</tspan><tspan x="15.03" y="0">H</tspan><tspan class="cls-74" x="23.46" y="0">5</tspan><tspan class="cls-75" x="28.45" y="0">N</tspan><tspan class="cls-74" x="37.59" y="0">3</tspan><tspan x="42.58" y="0">O</tspan><tspan class="cls-74" x="53.31" y="0">9</tspan></text><text class="cls-76" transform="translate(607.28 45.08) rotate(-2.62)">C<tspan class="cls-77" x="6.59" y="0">3</tspan><tspan x="9.86" y="0">H</tspan><tspan class="cls-77" x="15.4" y="0">5</tspan><tspan x="18.67" y="0">N</tspan><tspan class="cls-77" x="24.67" y="0">3</tspan><tspan x="27.94" y="0">O</tspan><tspan class="cls-77" x="34.99" y="0">9</tspan></text><text class="cls-78" transform="translate(591.29 31.28) rotate(-17.9)">C<tspan class="cls-79" x="10.47" y="0">3</tspan><tspan x="15.67" y="0">H</tspan><tspan class="cls-79" x="24.47" y="0">5</tspan><tspan class="cls-80" x="29.67" y="0">N</tspan><tspan class="cls-79" x="39.2" y="0">3</tspan><tspan x="44.4" y="0">O</tspan><tspan class="cls-81" x="55.59" y="0">9</tspan></text></g></g></svg>