<svg xmlns="http://www.w3.org/2000/svg" xmlns:xlink="http://www.w3.org/1999/xlink" viewBox="0 0 1024 80"><defs><style>.cls-1{fill:#0d3170;}.cls-2{isolation:isolate;}.cls-3{fill:#001b4d;stroke:#231815;}.cls-3,.cls-5,.cls-7,.cls-86{stroke-miterlimit:10;}.cls-4{fill:url(#linear-gradient);}.cls-5{fill:#001f4c;stroke:#002582;}.cls-100,.cls-105,.cls-24,.cls-26,.cls-27,.cls-28,.cls-29,.cls-30,.cls-31,.cls-32,.cls-33,.cls-34,.cls-35,.cls-36,.cls-37,.cls-38,.cls-39,.cls-40,.cls-41,.cls-42,.cls-43,.cls-44,.cls-45,.cls-46,.cls-47,.cls-48,.cls-49,.cls-5,.cls-50,.cls-51,.cls-52,.cls-53,.cls-54,.cls-55,.cls-56,.cls-58,.cls-59,.cls-60,.cls-61,.cls-62,.cls-63,.cls-64,.cls-65,.cls-66,.cls-67,.cls-68,.cls-69,.cls-70,.cls-71,.cls-72,.cls-73,.cls-74,.cls-75,.cls-76,.cls-77,.cls-78,.cls-79,.cls-80,.cls-81,.cls-82,.cls-83,.cls-93,.cls-97{fill-rule:evenodd;}.cls-10,.cls-11,.cls-6,.cls-9{opacity:0.3;}.cls-27,.cls-7,.cls-86{fill:none;}.cls-7{stroke:#fff;mix-blend-mode:overlay;}.cls-8{fill:url(#linear-gradient-2);}.cls-9{fill:url(#linear-gradient-3);}.cls-10{fill:url(#linear-gradient-4);}.cls-11{fill:url(#linear-gradient-5);}.cls-12{clip-path:url(#clip-path);}.cls-13{fill:#ef6f20;}.cls-14{fill:#f5981b;}.cls-15{fill:#43a9de;}.cls-16{fill:#499ecc;}.cls-17{fill:#009b4f;}.cls-18{fill:#35904d;}.cls-19{fill:#7b828a;}.cls-20{fill:#80888f;}.cls-21{fill:#891c80;}.cls-22{fill:#85297b;}.cls-23{fill:#ea2f35;}.cls-24,.cls-57{fill:#fff;}.cls-25{fill:#071435;}.cls-26{fill:#03938f;}.cls-27{stroke:#fdac8a;stroke-linecap:round;stroke-linejoin:round;stroke-width:0.2px;}.cls-28{fill:#d3355e;}.cls-29{fill:#a02545;}.cls-30{fill:#00b7a1;}.cls-31{fill:#37b7ab;}.cls-32{fill:#07988d;}.cls-33{fill:#028477;}.cls-34{fill:#efdfd5;}.cls-35{fill:#c19785;}.cls-36{fill:#e9dfdf;}.cls-37{fill:#231054;}.cls-38{fill:#1f1931;}.cls-39,.cls-98{fill:#fdac8a;}.cls-40{fill:#b66f5d;}.cls-41{fill:#4f365f;}.cls-42{fill:#006b5e;}.cls-43{fill:#e7e7e7;}.cls-44{fill:#d3524b;}.cls-45{fill:#932727;}.cls-46{fill:#3e3c68;}.cls-47{fill:#303056;}.cls-48{fill:#e7d9bf;}.cls-49{fill:#cdc1a9;}.cls-50{fill:#ae9f84;}.cls-51{fill:#c2b295;}.cls-52{fill:#e8385a;}.cls-53{fill:#e22742;}.cls-54{fill:#bb4942;}.cls-55{fill:#f5f5f5;}.cls-56{fill:#ffb26d;}.cls-58{fill:#e2e2e2;}.cls-59{fill:#00676a;}.cls-60,.cls-94{fill:#275883;}.cls-61{fill:#e6dfe7;}.cls-62{fill:#cbb8a8;}.cls-63{fill:#eeddcf;}.cls-64{fill:#645a52;}.cls-65{fill:#9a714d;}.cls-66{fill:#835934;}.cls-67{fill:#2f3f5b;}.cls-68{fill:#004949;}.cls-69{fill:#f98e75;}.cls-70{fill:#67a2f9;}.cls-71{fill:#2c7dff;}.cls-72{fill:#2d6fa0;}.cls-73{fill:#006ac1;}.cls-74{fill:#005b99;}.cls-75{fill:#0c90a5;}.cls-76{fill:#065d66;}.cls-77{fill:#1c1313;}.cls-78{fill:#432a2a;}.cls-79{fill:#351504;}.cls-80{fill:#20272d;}.cls-81{fill:#3c1905;}.cls-82{fill:#194768;}.cls-83{fill:#ff0037;}.cls-84{fill:#7cb342;}.cls-85{fill:#c0ca33;}.cls-86{stroke:#7cb342;stroke-width:2px;}.cls-87{fill:#7144b7;}.cls-88{fill:#9271d3;}.cls-89{fill:#aa91e8;}.cls-90{fill:#15667c;}.cls-91{fill:#084e5e;}.cls-92{fill:#1d8299;}.cls-93{fill:#1f3f7f;}.cls-95{fill:#9cf;}.cls-96{fill:#54baed;}.cls-97{fill:#7c5949;}.cls-99{fill:#d6805b;}.cls-100,.cls-104{fill:#b92838;}.cls-101{fill:#f7b4a3;}.cls-102{fill:#ffd6cc;}.cls-103{fill:#cc303e;}.cls-105,.cls-112{fill:#96c722;}.cls-106{fill:#3c5e00;}.cls-107{fill:#afce5b;}.cls-108{fill:#ccef8f;}.cls-109{fill:#436600;}.cls-110{fill:#567d05;}.cls-111{fill:#6b9900;}.cls-113{fill:#568209;}</style><linearGradient id="linear-gradient" x1="54.89" y1="9.37" x2="54.89" y2="54.19" gradientUnits="userSpaceOnUse"><stop offset="0" stop-color="#071636"/><stop offset="1" stop-color="#073b93"/></linearGradient><linearGradient id="linear-gradient-2" x1="962.89" y1="14.75" x2="962.89" y2="54.75" xlink:href="#linear-gradient"/><linearGradient id="linear-gradient-3" x1="508.76" y1="53.8" x2="508.76" y2="4.2" gradientUnits="userSpaceOnUse"><stop offset="0" stop-color="#000019"/><stop offset="1" stop-color="#071639"/></linearGradient><linearGradient id="linear-gradient-4" x1="135.35" y1="19.71" x2="170.83" y2="19.71" xlink:href="#linear-gradient-3"/><linearGradient id="linear-gradient-5" x1="794.98" y1="26.37" x2="945" y2="26.37" xlink:href="#linear-gradient-3"/><clipPath id="clip-path"><path class="cls-1" d="M867.5,25.38c0-.33,0-.62-.07-.91a11.47,11.47,0,0,0-5.11-8.31h0l-.06,0a11.5,11.5,0,0,0-9.62-1.33c-.28.08-.57.19-.86.3a11.47,11.47,0,0,0-7.27,11.11c0,.31,0,.61.07.91a11.48,11.48,0,0,0,5.07,8.28l.05,0a11.5,11.5,0,0,0,9.67,1.37c.28-.08.56-.18.86-.3a11.47,11.47,0,0,0,7.27-11.11Z"/></clipPath></defs><title>初化小故事-4</title><g class="cls-2"><g id="图层_1" data-name="图层 1"><rect class="cls-3" x="-23.61" width="1072.32" height="80"/><rect class="cls-4" x="54.39" y="0.28" width="1" height="54.11"/><polygon class="cls-5" points="55.05 54.4 961.55 54.4 1024.56 80 0.56 80 55.05 54.4"/><g class="cls-6"><line class="cls-7" x1="18.22" y1="70.39" x2="998.22" y2="70.39"/><line class="cls-7" x1="34.22" y1="61.98" x2="979.22" y2="61.35"/><line class="cls-7" x1="122.89" y1="55.25" x2="90.55" y2="80"/><line class="cls-7" x1="157.55" y1="55.25" x2="129.22" y2="80"/><line class="cls-7" x1="228.22" y1="55.25" x2="196.89" y2="80"/><line class="cls-7" x1="293.55" y1="55.25" x2="270.22" y2="80"/><line class="cls-7" x1="85.22" y1="55.25" x2="47.89" y2="80"/><line class="cls-7" x1="194.22" y1="55.25" x2="163.22" y2="80"/><line class="cls-7" x1="262.22" y1="55.25" x2="234.89" y2="80"/><line class="cls-7" x1="326.55" y1="55.25" x2="306.55" y2="80"/><line class="cls-7" x1="360.55" y1="55.25" x2="348.55" y2="80"/><line class="cls-7" x1="431.89" y1="55.25" x2="426.89" y2="80"/><line class="cls-7" x1="505.89" y1="55.25" x2="504.89" y2="80"/><line class="cls-7" x1="576.55" y1="55.25" x2="578.55" y2="80"/><line class="cls-7" x1="647.22" y1="55.25" x2="653.22" y2="80"/><line class="cls-7" x1="718.89" y1="55.25" x2="730.89" y2="80"/><line class="cls-7" x1="792.55" y1="55.25" x2="810.55" y2="80"/><line class="cls-7" x1="933.55" y1="55.25" x2="985.55" y2="80"/><line class="cls-7" x1="867.22" y1="55.25" x2="897.22" y2="80"/><line class="cls-7" x1="398.22" y1="55.25" x2="390.22" y2="80"/><line class="cls-7" x1="469.89" y1="55.25" x2="464.55" y2="80"/><line class="cls-7" x1="542.55" y1="55.25" x2="544.22" y2="80"/><line class="cls-7" x1="613.22" y1="55.25" x2="617.22" y2="80"/><line class="cls-7" x1="682.89" y1="55.25" x2="690.22" y2="80"/><line class="cls-7" x1="753.55" y1="55.25" x2="769.22" y2="80"/><line class="cls-7" x1="854.22" y1="80" x2="828.22" y2="55.25"/><line class="cls-7" x1="899.89" y1="55.25" x2="946.89" y2="80"/></g><rect class="cls-8" x="962.39" y="6.63" width="1" height="48.3"/><rect class="cls-9" x="55.47" y="-0.31" width="906.58" height="56.12"/><circle class="cls-10" cx="153.09" cy="19.71" r="17.74"/><path class="cls-1" d="M153.09,39a19.33,19.33,0,1,1,19.33-19.33A19.35,19.35,0,0,1,153.09,39Zm0-35.48a16.15,16.15,0,1,0,16.15,16.15A16.17,16.17,0,0,0,153.09,3.57Z"/><path class="cls-1" d="M140.56,27.46c.33.54,1.29,0,1-.59A.57.57,0,1,0,140.56,27.46Z"/><path class="cls-1" d="M164.66,12.73c.33.54,1.29,0,1-.59A.57.57,0,1,0,164.66,12.73Z"/><path class="cls-1" d="M166.31,20.16c.33.54,1.29,0,1-.59A.57.57,0,1,0,166.31,20.16Z"/><path class="cls-1" d="M138.65,20.16c.33.54,1.29,0,1-.59A.57.57,0,1,0,138.65,20.16Z"/><path class="cls-1" d="M145.81,32.5c.55.32,1.11-.66.56-1A.57.57,0,1,0,145.81,32.5Z"/><path class="cls-1" d="M159.87,8c.55.32,1.11-.66.56-1A.57.57,0,1,0,159.87,8Z"/><path class="cls-1" d="M160.1,32.61c.56-.3,0-1.29-.54-1A.57.57,0,1,0,160.1,32.61Z"/><path class="cls-1" d="M146.67,7.77c.56-.3,0-1.29-.54-1A.57.57,0,1,0,146.67,7.77Z"/><path class="cls-1" d="M153.69,6.12c.56-.3,0-1.29-.54-1A.57.57,0,1,0,153.69,6.12Z"/><path class="cls-1" d="M153.69,33.77c.56-.3,0-1.29-.54-1A.57.57,0,1,0,153.69,33.77Z"/><path class="cls-1" d="M165.72,27.15c.32-.55-.64-1.12-1-.57A.57.57,0,1,0,165.72,27.15Z"/><path class="cls-1" d="M141.43,12.75c.32-.55-.64-1.12-1-.57A.57.57,0,1,0,141.43,12.75Z"/><polygon class="cls-1" points="160.06 29.27 151.39 20.85 151.69 11.11 152.9 11.11 153.4 20.6 160.9 28.49 160.06 29.27"/><path class="cls-1" d="M287.66,28.11h-92V24.68c0-.2.15.43.55.43h90.31c.4,0,1.14-.63,1.14-.43Z"/><rect class="cls-1" x="199.66" y="27.11" width="3" height="3" rx="0.72" ry="0.72"/><rect class="cls-1" x="278.66" y="27.11" width="3" height="3" rx="0.72" ry="0.72"/><rect class="cls-1" x="247.66" y="7.11" width="7" height="18"/><rect class="cls-1" x="254.66" y="9.11" width="6" height="16" rx="0.36" ry="0.36"/><rect class="cls-1" x="260.66" y="7.11" width="4" height="18" rx="0.36" ry="0.36"/><rect class="cls-1" x="266.29" y="8.28" width="3.76" height="15.89" rx="0.36" ry="0.36" transform="translate(4.86 69.57) rotate(-14.92)"/><rect class="cls-1" x="247.66" y="21.11" width="7" height="1"/><rect class="cls-1" x="254.66" y="11.11" width="1" height="5"/><rect class="cls-1" x="260.66" y="7.11" width="4" height="2"/><rect class="cls-1" x="260.66" y="9.11" width="4" height="2"/><rect class="cls-1" x="260.66" y="20.11" width="4" height="1"/><rect class="cls-1" x="260.66" y="22.11" width="4" height="1"/><rect class="cls-1" x="264.74" y="9.78" width="3.76" height="1.23" transform="translate(6.31 68.98) rotate(-14.92)"/><rect class="cls-1" x="267.86" y="21.51" width="3.76" height="1.23" transform="translate(3.39 70.18) rotate(-14.92)"/><polygon class="cls-1" points="263.15 9.08 262.75 9.06 262.51 9.37 262.41 8.99 262.04 8.86 262.37 8.64 262.38 8.25 262.69 8.5 263.06 8.38 262.92 8.75 263.15 9.08"/><polygon class="cls-1" points="263.15 21.86 262.75 21.84 262.51 22.16 262.41 21.78 262.04 21.64 262.37 21.43 262.38 21.04 262.69 21.28 263.06 21.17 262.92 21.54 263.15 21.86"/><rect class="cls-1" x="266.95" y="11.35" width="0.51" height="10.11" transform="translate(4.78 69.33) rotate(-14.91)"/><rect class="cls-1" x="267.07" y="11.24" width="0.36" height="4.48" transform="translate(5.52 69.19) rotate(-14.9)"/><rect class="cls-1" x="221.66" y="21.11" width="19" height="4" rx="0.36" ry="0.36"/><rect class="cls-1" x="224.66" y="20.11" width="18" height="4" rx="0.36" ry="0.36"/><rect class="cls-1" x="225.66" y="14.11" width="16" height="4" rx="0.36" ry="0.36"/><rect class="cls-1" x="226.66" y="11.11" width="16" height="4" rx="0.36" ry="0.36"/><rect class="cls-1" x="226.66" y="13.11" width="12" height="1"/><rect class="cls-1" x="226.66" y="13.11" width="12" height="1"/><polygon class="cls-1" points="228.56 17.02 228.09 16.3 227.56 17.02 227.56 15.11 228.56 15.11 228.56 17.02"/><rect class="cls-1" x="238.66" y="18.11" width="1" height="3"/><rect class="cls-1" x="224.66" y="18.11" width="2" height="3"/><rect class="cls-1" x="239.66" y="21.11" width="3" height="2"/><rect class="cls-1" x="225.66" y="22.11" width="13" height="3"/><path class="cls-1" d="M238.66,25.11h-13v-3h13Zm-13,0h13v-3h-13Z"/><path class="cls-1" d="M207.33,16.11s.07-11-5.94-10.79,4.35,10.79,4.69,10.79Z"/><path class="cls-1" d="M209,20.11s-.06-11,4.84-10.79S210.31,20.11,210,20.11Z"/><path class="cls-1" d="M207.6,16.93s-4.9-6.13-2.84-10,3.81,9.18,3.74,9.83S207.6,16.93,207.6,16.93Z"/><path class="cls-1" d="M208.87,17.56s4.64-6.32,2.43-10.11-3.43,9.33-3.33,10S208.87,17.56,208.87,17.56Z"/><path class="cls-1" d="M207.38,16.24c.28.59.91-.13.91-.13s2.6-7.4-.61-10.38"/><polygon class="cls-1" points="212.68 25.11 204.73 25.11 202.64 14.11 214.71 14.11 212.68 25.11"/><polygon class="cls-1" points="214.84 16.11 202.57 16.11 202.18 14.11 215.16 14.11 214.84 16.11"/><rect class="cls-11" x="794.98" y="3.27" width="150.02" height="46.2"/><circle class="cls-1" cx="936.38" cy="52.08" r="1.63"/><circle class="cls-1" cx="834.15" cy="52.08" r="1.63"/><rect class="cls-1" x="944.21" y="1.55" width="2.15" height="49.85"/><rect class="cls-1" x="795.17" y="48.76" width="149.61" height="0.41"/><rect class="cls-1" x="795.17" y="1.55" width="149.61" height="2.45"/><rect class="cls-1" x="793.58" y="1.55" width="2.35" height="49.85"/><rect class="cls-1" x="793.75" y="48.64" width="152.49" height="2.76"/><rect class="cls-1" x="852.87" y="40.48" width="6.92" height="4.08"/><polygon class="cls-1" points="850.18 39.87 847.73 38.64 862.16 11.73 864.55 13 850.18 39.87"/><path class="cls-1" d="M860.07,12.43A13.93,13.93,0,1,1,846.6,36l-1.13,1.89A16.09,16.09,0,1,0,861.13,10.5Z"/><path class="cls-1" d="M865.83,48c0-2.26-4.24-4.28-9.47-4.28s-9.46,2-9.46,4.28Z"/><path class="cls-1" d="M867.5,25.38c0-.33,0-.62-.07-.91a11.47,11.47,0,0,0-5.11-8.31h0l-.06,0a11.5,11.5,0,0,0-9.62-1.33c-.28.08-.57.19-.86.3a11.47,11.47,0,0,0-7.27,11.11c0,.31,0,.61.07.91a11.48,11.48,0,0,0,5.07,8.28l.05,0a11.5,11.5,0,0,0,9.67,1.37c.28-.08.56-.18.86-.3a11.47,11.47,0,0,0,7.27-11.11Z"/><path class="cls-1" d="M867.5,25.38c0-.33,0-.62-.07-.91a11.47,11.47,0,0,0-5.11-8.31h0l-.06,0a11.5,11.5,0,0,0-9.62-1.33c-.28.08-.57.19-.86.3a11.47,11.47,0,0,0-7.27,11.11c0,.31,0,.61.07.91a11.48,11.48,0,0,0,5.07,8.28l.05,0a11.5,11.5,0,0,0,9.67,1.37c.28-.08.56-.18.86-.3a11.47,11.47,0,0,0,7.27-11.11Z"/><g class="cls-12"><polygon class="cls-1" points="871.88 30.27 871.22 30.29 871.2 29.93 871.3 29.98 871.56 29.95 871.53 29.63 870.82 29.63 870.63 29.38 870.64 29.24 869.72 28.42 869.5 28.59 870.81 30.19 870.99 30.25 870.99 30.34 870.74 30.34 870.81 30.54 872.41 30.61 871.88 30.27"/><polygon class="cls-1" points="872.91 29.44 873.02 29.36 873.02 28.49 872.91 28.44 872.86 28.17 872.7 28.17 872.59 28.45 872.47 28.55 871.54 29.06 871.54 29.56 871.85 29.97 872.63 29.97 872.73 29.71 872.91 29.55 872.91 29.44"/><polygon class="cls-1" points="873.6 29.36 873.13 29.55 873.13 29.65 873.02 29.65 873.02 30.3 873.26 30.3 873.22 29.89 873.41 29.95 873.41 30.25 873.61 30.23 873.6 29.36"/><polygon class="cls-1" points="877.43 32.77 876.95 32.36 876.91 31.58 876.6 31.04 876.31 31.03 876.2 32.01 875.65 31.97 875.5 31.88 875.48 31.49 875.77 31.55 876.01 31.31 875.5 31 874.89 31 874.46 31.62 874.28 31.62 874.28 31.42 873.75 31.46 872.93 32.4 872.49 32.41 872 32.75 871.97 34.2 871.67 34.49 871.67 34.74 873.1 34.26 874.25 34.21 874.67 35.15 875.98 35.19 877.24 34.01 877.55 33.3 877.43 32.77"/><polygon class="cls-1" points="874.85 35.87 875.31 35.92 875.68 35.71 875.69 35.43 875.28 35.39 874.85 35.87"/><polygon class="cls-1" points="879.29 34.59 879.1 34.63 879.1 34.19 878.74 34.22 878.7 34.9 878.38 35.11 877.81 35.19 876.88 35.84 876.73 35.97 876.73 36.19 877.21 36.12 878.38 35.4 878.72 35.18 879.07 35.02 879.42 34.82 879.29 34.59"/><polygon class="cls-1" points="875.66 29.74 875.36 29.75 875.39 29.44 875.1 29.27 874.7 29.67 874.97 30.01 875.56 30.09 875.88 30.26 875.89 30.42 875.68 30.42 875.69 30.75 876.4 30.71 876.66 30.43 876.93 30.41 876.93 30.91 877.41 30.91 877.41 30.71 877.17 30.71 877.13 30.09 875.98 29.57 875.66 29.74"/><polygon class="cls-1" points="867.14 28.27 867.25 28.57 867.65 28.42 867.7 28 867.37 27.93 867.14 28.27"/><polygon class="cls-1" points="862.4 31.78 861.85 31.71 861.85 32.14 862.04 32.37 861.89 32.6 861.67 32.86 861.67 33.33 861.97 33.62 862.25 33.18 862.79 32.39 863.04 31.14 862.72 31.14 862.4 31.78"/><polygon class="cls-1" points="873.71 30.47 873.53 30.47 873.53 30.57 873.68 30.61 873.71 30.47"/><rect class="cls-1" x="872.7" y="30.61" width="0.21" height="0.12"/><polygon class="cls-1" points="873.22 30.73 873.35 30.73 873.35 30.63 873.45 30.61 873.45 30.51 873.23 30.51 873.15 30.61 873.02 30.73 873.02 30.83 873.22 30.81 873.22 30.73"/><polygon class="cls-1" points="873.76 30.82 873.97 30.82 873.97 30.71 874.13 30.73 874.1 30.54 873.86 30.58 873.84 30.7 873.57 30.73 873.55 30.73 873.55 30.91 873.76 30.91 873.76 30.82"/><path class="cls-1" d="M840.94,21.56l0-.28-.29,0a1.41,1.41,0,0,0,0,.32Z"/><polygon class="cls-1" points="855.44 21.29 855.47 21.46 855.21 21.52 855.17 21.89 855.48 21.89 855.89 21.85 856.11 21.59 855.88 21.5 855.76 21.36 855.57 21.06 855.48 20.63 855.13 20.7 855.04 20.86 855.04 21.02 855.2 21.14 855.44 21.29"/><polygon class="cls-1" points="855.14 21.43 855.16 21.2 854.96 21.11 854.67 21.18 854.46 21.52 854.46 21.74 854.71 21.74 855.14 21.43"/><path class="cls-1" d="M869.89,28.18l1.26,1.21.07-.21-1-1.46.11-.43.54.61.3,0,.4-.27-.06-.4-.66-.53,0-.48L871,26l.33.11,0,.23.19.29.17-.12-.09-.35.93-.33.41-.34-.06-.62L872,24v-.69h.36l1.12.85.32-.09-.21-.27-.6-.37,0-.54h.71l.06-.67-.27-.36.16-.17.35.35.11-.15-.44-.51-1.11-.13-.15-.29.32-.45.25.18.76.07,1-.64.16.2-.21.33V21l.88.72.28-.15-.11-.48-.62-.59.82-.05v-.24l.4-.08-.31-.21v-.16l.84.13.16-.13-1.13-.48-4.13-.21-.39-.19-.61-.09-.46,0-.42.42h-.18l-.55-.41h-1.64l-.76-.45-1.52.1-1.16.52v.6l-.36.11-.08-.6-.13-.21-.4-.1-.09.36.12.29-1.42-.09-.68.32-.1-.3-.17,0-.12.33-.36.28-.87,0,0-.19.91,0,.19-.16L859.4,19l-1.33,0-.75.38L857,20l-.49.19-.21.22,0,.26.26,0,.15.38.44-.18.07.51h-.13l-.36-.05-.4.07L856,22l-.55.09-.08.47.23.05-.07.3-.55-.11-.5.11-.11.28.09.59.29.14h.49l.33,0,.1-.27.52-.68.34.07.34-.31.06.24.84.56-.1.14-.37,0,.14.2.23.05.27-.11v-.33l.12-.06-.1-.11-.56-.31-.15-.41h.46l.15.15.4.34,0,.41.41.44.15-.6.29-.16.05.49.28.31h.84l.25.19v.44l-.31.28h-.85l-.52-.39-.55.05v.33h-.17l-.19-.13-.95-.24v-.61l-1.2.09-.37.2H855l-.23,0-.58.32V25l-1.18.85.1.37h.24l-.06.35-.17.06v.91l1,1.16h.44l0-.07h.8l.23-.21h.45l.25.25.68.07-.09.9L857.7,31l-.39.76,0,.36.31.31v.86l.41.55v.71h1.21l.91-.93.28-.51.37-.08v-.43l.24-.28.51-.69-.11-1.06-.22-.39,1-1,1.1-1.57-.21-.1-1.14.24-.29-.15-1.2-2.26.08-.1,1.19,1.44,0,.45.28.28.56,0,1.17-.85.37-.24V26l-.39-.05s-1.37-.64-1.37-.67,0-.55,0-.55h.3l0,.38.63.36.72,0,1.57.26L866,26v.36l0,.49.8,1.33.26.06.26-.38.14-1.07.27-.58.43-.16.76.08,1,.85Zm-11-8.43-.53.32v.21l.3.14,0,.28-.42.63h-.73l0-.15.46-.23v-.87l.78-.54h.17Zm1.63,3.7-.69,0-.21,0V23l.15-.18.17-.05.37,0,.08-.13.15.07,0,.43.4.16,0,.2Zm2.65.34-.12.11-.28,0-.05-.08-.44,0,0-.14.23-.2v-.17l-.45-.32,0-.41.09-.21.36,0,.31.13v.21l-.44,0,0,.2.55.36v.27l.24.17Z"/><path class="cls-1" d="M849.17,22.58h-.31v.16h.07s0,0,0,.08l.19,0,.12-.07,0-.15h.15l.06-.12-.14,0h-.12Z"/><polygon class="cls-1" points="848.43 22.86 848.65 22.84 848.67 22.68 848.54 22.57 848.44 22.7 848.43 22.86"/><path class="cls-1" d="M851.35,29.71h-.94l-.75-.29,0-.53-.25-.44h-.67l-.39-.61-.34-.17,0,.18-.63,0-.23-.32-.66-.13-.54.63L845,27.9l-.06-1-.62-.1.25-.47-.07-.27-.82.55-.52-.06-.18-.4.11-.42.28-.52.65-.33h1.26v.38l.45.21,0-.66.32-.33.66-.43,0-.31.66-.68.7-.39-.06-.05.48-.44.17,0,.08.1.18-.2,0,0-.2,0-.2-.07v-.19l.1-.09H849l.1,0,.09.18.11,0h0l.33,0,0-.16.19,0V22l-.17.12h0l0,.19.59.18h.14v-.26L850,22l0-.13.39-.13,0-.37-.41-.25,0-.63-.56.27h-.2l.05-.48-.76-.18-.32.24v.73l-.57.18-.23.47-.25,0v-.61l-.53-.07-.27-.17-.11-.39,1-.56.47-.14,0,.31h.26l0-.16.27,0v-.05l-.12,0,0-.17.33,0,.2-.21v0h0l.06-.06.7-.09.31.26-.81.43,1,.24.13-.35h.45l.16-.3-.32-.08v-.38l-1-.44-.69.08-.39.2,0,.5-.41-.06-.06-.28.39-.36-.71,0-.2.06-.09.24.27,0-.05.27-.45,0-.07.18-.65,0a1.8,1.8,0,0,0,0-.37h.52l.39-.38-.21-.11-.28.28-.47,0-.28-.39h-.6l-.63.47h.58l.05.17-.15.14.64,0,.1.23-.72,0,0-.18-.45-.1-.24-.13h-1.07l-.33.32-.22,0-.25-.14-.74-.22h-1.35l-.78.53-.52.08-.24.19.37.05v.15h-.8l-.31.22.4.34h1.09l.15-.16h.92l.33.29,0,.45.28.26-.23.16.05.6-.83,1v.94l.44.21v.85l.43.73.35.05,0-.25-.41-.63-.08-.61h.24l.1.63L842,26l-.15.28.37.57.93.23V27l.37.05,0,.27.29.05.45.13.64.73.82.06.08.66-.56.39,0,.59-.08.37.81,1,.06.34.33.08s.66.47.66.47V34l.22.06-.15.84.37.5-.07.84.49.87.63.55h.64l.06-.21-.47-.39,0-.2.08-.24,0-.24h-.31l-.16-.2.26-.25,0-.19-.29-.08,0-.18.42-.06.64-.31.21-.39.67-.85-.15-.67.21-.36.61,0,.41-.33.14-1.28.46-.58.08-.37-.42-.13Zm-4.83-6.56-.15.15H846l.05-.24h.16l0-.08.25,0Zm.08-.42-.16.1-.2,0v-.35h.36Zm.3-.25.16.1-.13.11-.13-.11Zm-.22.27h0l.41.12v.21h-.34l-.09-.13Zm-.27-.57.22.2-.22.05Zm-.93,0,.31-.13h.42v.13h.09v.22h-.64l-.24-.07Zm-.06.57.25-.27H846l-.45.63-.19-.1Zm-.33-1.51.25.06-.09.34-.27.09-.17-.35Zm-1.27-1.61v0h.24l0-.08h.38v.17l-.11.15h-.53Zm.37.52.25,0s0,.23,0,.23l-.53,0-.1-.12Z"/></g><path class="cls-1" d="M886.25,35.1V26.23h-7V35.1s-9.64,13.05-6,13.05h18.9C895.89,48.15,886.25,35.1,886.25,35.1Z"/><path class="cls-1" d="M886.16,24.46h-6.79a.91.91,0,1,0,0,1.82h6.79a.91.91,0,1,0,0-1.82Z"/><path class="cls-1" d="M839,37.73V30.66H833.4v7.07s-7.69,10.42-4.76,10.42h15.08C846.66,48.15,839,37.73,839,37.73Z"/><path class="cls-1" d="M838.9,29.24h-5.42a.73.73,0,1,0,0,1.45h5.42a.73.73,0,1,0,0-1.45Z"/><path class="cls-1" d="M825,35.1H813.87V46.22a1.93,1.93,0,0,0,1.93,1.93h7.26A1.93,1.93,0,0,0,825,46.22Z"/><path class="cls-1" d="M825,33.74h-11a.7.7,0,1,0,0,1.39h11a.7.7,0,1,0,0-1.39Z"/><path class="cls-1" d="M938,40.13V34.69h-4.28v5.45s-5.92,8-3.66,8h11.61C943.88,48.15,938,40.13,938,40.13Z"/><path class="cls-1" d="M937.9,33.6h-4.17a.56.56,0,1,0,0,1.12h4.17a.56.56,0,1,0,0-1.12Z"/><path class="cls-1" d="M897.7,27.88h-2.51v17.6a2.67,2.67,0,0,0,2.51,2.68,2.7,2.7,0,0,0,2.54-2.68V27.88Z"/><path class="cls-1" d="M900.46,26.77H895a.6.6,0,0,0,0,1.17h5.5a.6.6,0,0,0,0-1.17Z"/><path class="cls-1" d="M808,27.88h-2.51v17.6A2.67,2.67,0,0,0,808,48.15a2.7,2.7,0,0,0,2.54-2.68V27.88Z"/><path class="cls-1" d="M810.8,26.77h-5.5a.6.6,0,0,0,0,1.17h5.5a.6.6,0,0,0,0-1.17Z"/><path class="cls-1" d="M924.16,42.25v0h-14.8s0,0,0,.05v3.55c0,1.29.74,2.33,1.65,2.33l11.5,0c.91,0,1.65-1,1.65-2.33Z"/><path class="cls-1" d="M927.61,46.93l-3.2-16.37h-1.53l3.26,16.66a.75.75,0,1,0,1.48-.29Z"/><path class="cls-1" d="M909.11,30.55l-3.2,16.37a.75.75,0,1,0,1.48.29l3.26-16.66Z"/><path class="cls-1" d="M916.8,30.55H916V47.07a.75.75,0,0,0,.75.75h0a.75.75,0,0,0,.71-.74V30.55Z"/><path class="cls-1" d="M909.11,30.55l-3.2,16.37a.75.75,0,1,0,1.48.29l3.26-16.66Z"/><path class="cls-1" d="M926.67,29.66H906.85a.89.89,0,0,0,0,1.78h19.83a.89.89,0,1,0,0-1.78Z"/><path class="cls-1" d="M763.84,35.05V50h15v-15Zm6,11.05a.63.63,0,0,1-.76-.47L768.4,43a.63.63,0,0,1,1.22-.29l.63,2.65A.63.63,0,0,1,769.79,46.1Zm2.16-4.45a.63.63,0,1,1-1.26,0V38.93a.63.63,0,1,1,1.26,0ZM774.13,43l-.63,2.65a.63.63,0,1,1-1.22-.29l.63-2.65a.63.63,0,1,1,1.22.29Z"/><path class="cls-13" d="M459.25,31.34l-4.45-2.17a.41.41,0,0,0-.53.28L452.64,34a.41.41,0,0,0,.15.45L457,37.35a.39.39,0,0,0,.6-.17l1.88-5.3a.42.42,0,0,0-.19-.54"/><path class="cls-14" d="M464.75,13.39l2.75,1.27h0l.38.18,1.91-5.37a.3.3,0,0,0-.23-.41l-9.77-2.31a.43.43,0,0,0-.47.27l-1.15,3.23.94.28a.32.32,0,0,1,.26.42l-.72,2-.24.68-.63,1.78,5.23,1.8,1.3-3.65a.33.33,0,0,1,.45-.2"/><path class="cls-15" d="M472.29,16.9l-4.41-2.06h0l-.2-.09.19.08-1.16,3.28a.36.36,0,0,1-.46.22L463,17.24,461.67,21l.26.09h0l4.23,1.52a.37.37,0,0,1,.21.46l-.61,1.72,3.45.8a.43.43,0,0,0,.47-.27l2.81-7.9a.42.42,0,0,0-.19-.52"/><polygon class="cls-16" points="467.5 14.66 467.68 14.75 467.88 14.84 467.88 14.83 467.5 14.65 467.5 14.66"/><path class="cls-17" d="M467.68,14.75l-.18-.08h0l-2.75-1.27a.33.33,0,0,0-.45.2L463,17.24l3.24,1.09a.36.36,0,0,0,.46-.22l1.16-3.28Z"/><polygon class="cls-18" points="467.5 14.66 467.68 14.75 467.5 14.66 467.5 14.66"/><path class="cls-19" d="M460.88,23.23l.79-2.23h0l-2-.72a.38.38,0,0,0-.49.21l-2.78,7.82a.33.33,0,0,0,.23.42l7,1a.47.47,0,0,0,.47-.29l1.64-4.63-4.64-1.09a.38.38,0,0,1-.25-.47"/><polygon class="cls-20" points="461.93 21.09 461.93 21.09 461.67 21 461.67 21 461.93 21.09"/><path class="cls-21" d="M466.16,22.61l-4.23-1.52-.26-.1-.8,2.24a.37.37,0,0,0,.22.45l4.67,1.1.61-1.72a.37.37,0,0,0-.21-.46"/><polygon class="cls-22" points="461.93 21.09 461.93 21.09 461.67 21 461.93 21.09"/><path class="cls-23" d="M459.11,10.53l-.94-.28-4.8-1.44a.43.43,0,0,0-.5.25l-2.65,7.46a.43.43,0,0,0,.21.54l5.41,2.69a.29.29,0,0,0,.45-.13l1.51-4.24.61-1.71.24-.68.72-2a.32.32,0,0,0-.26-.42"/><path class="cls-24" d="M340.55,30c0,6.56,14.51,11.88,32.42,11.88a81.1,81.1,0,0,0,14.5-1.25c2-.36,11.09,3.2,12.79,2.71,2.2-.63-3.11-5.36-1.42-6.18,4.11-2,6.54-4.47,6.54-7.16,0-6.56-14.51-11.88-32.42-11.88S340.55,23.46,340.55,30Z"/><path d="M351.07,32.21V30.5a.51.51,0,0,1,.58-.61h5c.39,0,.57.16.55.55v1.78h.39a.37.37,0,0,1,.36.39c0,.28-.14.43-.36.45h-6.83q-.36,0-.39-.45a.39.39,0,0,1,.39-.39Zm.87-5.54V26q.45-.61.91,0v.68h.94q.36,0,.39.45t-.39.42h-.94v.87l.94-.16a.44.44,0,0,1,.49.32q.06.39-.26.48a22.89,22.89,0,0,1-3.14.55.38.38,0,0,1-.49-.29.51.51,0,0,1,.32-.58l.42,0a3.72,3.72,0,0,0,.81-.16v-1h-1.1q-.32,0-.36-.42t.36-.45Zm.91,5.54V30.72h-.65q-.26,0-.23.19v1.3Zm.84,0h.87V30.72h-.87Zm.84-2.78V26q.45-.68.91,0v3.43a.39.39,0,0,1-.45.39C354.68,29.82,354.53,29.69,354.53,29.43Zm.87,2.78h.87v-1.3a.22.22,0,0,0-.16-.19h-.71Zm1.84-3.14-1.49-1.46a.39.39,0,0,1-.07-.58.45.45,0,0,1,.61-.13,13.79,13.79,0,0,1,1.59,1.59.46.46,0,0,1-.13.58A.35.35,0,0,1,357.25,29.07Z"/><path d="M359.13,26.1h6.7c.26,0,.4.19.42.52s-.16.49-.42.49h-.42v5q.06,1.1-1.23,1.1a7.39,7.39,0,0,1-1.71-.19.51.51,0,0,1-.29-.65.56.56,0,0,1,.61-.32,1.13,1.13,0,0,0,.29.06,3.61,3.61,0,0,0,1,.1c.19,0,.29-.09.29-.32V27.1h-5.34c-.24,0-.36-.17-.36-.52S358.87,26.12,359.13,26.1Zm.91,1.68h3.24q.55,0,.58.68v2.33c0,.47-.19.69-.65.65H360q-.68.06-.61-.61V28.39Q359.39,27.81,360,27.78Zm2.75.87h-2.36c-.11,0-.15.06-.13.13v1.65c0,.11,0,.15.13.13h2.36c.09,0,.13,0,.13-.13V28.78C362.91,28.72,362.87,28.67,362.78,28.65Z"/><path d="M367.44,31.69v-5.4a.45.45,0,0,1,.45-.48q.48,0,.52.45v4.37c0,.15,0,.25,0,.29s.12,0,.23-.06a12.36,12.36,0,0,0,1.62-1.07.59.59,0,0,1,.78,0,.5.5,0,0,1-.1.74A9.19,9.19,0,0,1,368.71,32Q367.41,32.57,367.44,31.69Zm1.42.58q2.59-.36,3.33-1.78a10.09,10.09,0,0,0,.65-4.18.43.43,0,0,1,.45-.49.45.45,0,0,1,.52.45,16,16,0,0,1-.65,4.53q.74.87,1.23,1.39a.45.45,0,0,1,0,.68q-.42.32-.71,0-.45-.49-1-1.17A6.74,6.74,0,0,1,369,33.22q-.55,0-.65-.39C368.36,32.55,368.52,32.36,368.87,32.28Zm1.78-3.72-.71-.74a6.64,6.64,0,0,1-.71-.84.42.42,0,0,1,0-.65.61.61,0,0,1,.74.06q.52.52,1.36,1.46s0,.06.06.06a.58.58,0,0,1-.06.78Q371,28.94,370.65,28.56Z"/><path d="M378.51,27.07h-2.39q-.39,0-.42-.48t.42-.49h5.76a.46.46,0,0,1,.45.49q0,.48-.45.48h-2.39v1.84h3q.36,0,.39.49t-.39.49h-3V33q0,.36-.49.39t-.49-.39V29.88H375.6q-.39,0-.42-.49t.42-.49h2.91Z"/><path d="M385.79,27v.42c0-.06.09-.13.26-.19l.19-.1q1-.74,1.68-1.33a.65.65,0,0,1,.68-.07A23.44,23.44,0,0,0,391,27.23q.26.2.1.61t-.49.26a.09.09,0,0,0-.06,0q0,.42-.42.42h-1.26v.58h1.78q.32,0,.32.45t-.32.42h-1.78v.45h1.46a.43.43,0,0,1,.42.45v1.72c0,.41-.17.6-.58.58H386.8a.59.59,0,0,1-.65-.65V31q0-.52.55-.55h1.2v-.45h-1.68c-.24,0-.38,0-.42-.16v2.33q.06.65-.68.61h-.81q-.71.06-.61-.68V27q-.07-.87.55-.84h1Q385.83,26.1,385.79,27Zm-1.26,4.89H385V27h-.42Zm3.37-3.43h-1.13c-.28,0-.41-.14-.39-.36-.26.19-.45.17-.58-.06v1.2a.6.6,0,0,1,.42-.16h1.68Zm-.68,3.85h2.43c.13,0,.19,0,.19-.16v-.71a.21.21,0,0,0-.16-.16h-2.46a.21.21,0,0,0-.16.16v.71C387.06,32.28,387.11,32.33,387.22,32.31Zm0-4.69h2.59a8,8,0,0,1-1.23-.81.26.26,0,0,0-.39,0Q387.74,27.23,387.22,27.62Z"/><path d="M394.11,29.91v.94a.46.46,0,0,1-.45.49.43.43,0,0,1-.45-.49V29.53a1.38,1.38,0,0,1,.55-.94,1.36,1.36,0,0,0,.68-1v0q-.07-1-.94-1.07a1,1,0,0,0-.94,1,1.32,1.32,0,0,0,.29.68.34.34,0,0,0,.13.16.54.54,0,0,1,0,.68.47.47,0,0,1-.65,0,1.66,1.66,0,0,1-.71-1.52,1.88,1.88,0,0,1,1.88-1.94,1.84,1.84,0,0,1,1.94,2,2.05,2.05,0,0,1-.81,1.55Q394,29.59,394.11,29.91Zm-.52,1.91a.64.64,0,0,1,.68.61.65.65,0,0,1-.68.65.61.61,0,0,1-.65-.65A.6.6,0,0,1,393.59,31.82Z"/><ellipse class="cls-25" cx="427.58" cy="65.8" rx="10.25" ry="3.31"/><path class="cls-26" d="M408.68,43.32A4,4,0,0,1,410.23,40,16.1,16.1,0,0,0,413,36a11.82,11.82,0,0,0,1.3-7v-.42a13.39,13.39,0,0,1,2.64-.65q0,.6.1,1.29.1,1.13.09,2.13-.06,8.85-3.47,13.16Q411,46.75,408.68,43.32Zm.76,9.32a7,7,0,0,1-2.46-3,5.22,5.22,0,0,0,2.5-1.82A8.2,8.2,0,0,1,413,49.23a3.49,3.49,0,0,1,.62.93,5.69,5.69,0,0,1,.1,3.85,9.85,9.85,0,0,1-2.61-.6,11.24,11.24,0,0,1-1.54-.72Z"/><path class="cls-27" d="M414.64,41.86a1.63,1.63,0,0,1,.82,0l.05.1m-1-.55a1.26,1.26,0,0,1,1,.24M414.35,41a2.28,2.28,0,0,1,1,.24"/><path class="cls-28" d="M410.4,46a7.33,7.33,0,0,0,4.51,3.15A8.93,8.93,0,0,1,410.19,47l-.23-.21.25-.91Z"/><path class="cls-29" d="M414.92,49.18A7.33,7.33,0,0,1,410.4,46a12.51,12.51,0,0,0,2.67,1.68,13,13,0,0,0,3.91.79l-.36.8h-.22A10.61,10.61,0,0,1,414.92,49.18Z"/><path class="cls-30" d="M433,16a16.91,16.91,0,0,0-8.76-2.09q-4.11.27-8.09,4.06l.19-.36a10.3,10.3,0,0,1,9.13-4.57,10.85,10.85,0,0,1,6.62,2.14l.1.08A7.86,7.86,0,0,1,433,16Z"/><path class="cls-31" d="M431.84,14.6a14.07,14.07,0,0,0-6.18-1.79,11.67,11.67,0,0,0-3.53.68A10.51,10.51,0,0,0,417,16.88a10.86,10.86,0,0,1,2.82-2.81,15.7,15.7,0,0,1,5.67-1.62,13.9,13.9,0,0,1,3.67.8l.19.06q.89.33,1.82.77Z"/><path class="cls-32" d="M417.77,29.44a28.9,28.9,0,0,1,.11-7.36,6,6,0,0,1,1.27-6,10.8,10.8,0,0,1,12.59,0,6,6,0,0,1,1.29,6,28.9,28.9,0,0,1,.11,7.36,60.3,60.3,0,0,1-7.68.58A60,60,0,0,1,417.77,29.44Z"/><path class="cls-26" d="M433.14,29.44a28.9,28.9,0,0,0-.11-7.36,6,6,0,0,0-1.29-6,10.8,10.8,0,0,0-12.59,0,6,6,0,0,0-1.27,6,28.9,28.9,0,0,0-.11,7.36q-1.71-.24-3.48-.6a38.33,38.33,0,0,1,1-8,11.27,11.27,0,0,1,1.32-3.38q.17-.28.36-.56a10.51,10.51,0,0,1,5.17-3.39,11.67,11.67,0,0,1,3.53-.68,14.07,14.07,0,0,1,6.18,1.79,10.7,10.7,0,0,1,3.79,6.21,39,39,0,0,1,1,8Q434.85,29.2,433.14,29.44Z"/><path class="cls-33" d="M417,48.5a13,13,0,0,1-3.91-.79A12.51,12.51,0,0,1,410.4,46l-.2-.18a4.69,4.69,0,0,1-1.56-2.58l0,.06q2.29,3.43,5,1.2,3.41-4.3,3.47-13.16,0-1-.09-2.13-.06-.68-.1-1.29a8.52,8.52,0,0,1,6.09,1.22,46.92,46.92,0,0,1,.06,10.22q-.23,5.5-3.44,8.38A4.46,4.46,0,0,1,417,48.5Zm-7.5-.63h0l.12-.13a5.43,5.43,0,0,0,.64-.77,8.93,8.93,0,0,0,4.72,2.21,10.61,10.61,0,0,0,1.49.12,6.88,6.88,0,0,0,.87,4.44,13.09,13.09,0,0,1-1.65.27,10.72,10.72,0,0,1-2,0,5.69,5.69,0,0,0-.1-3.85,3.49,3.49,0,0,0-.62-.93A8.2,8.2,0,0,0,409.48,47.87Z"/><path class="cls-30" d="M408.64,43.26a4.18,4.18,0,0,1,.09-1.77,4.42,4.42,0,0,1,1-1.68A15.47,15.47,0,0,0,414.33,29a11.82,11.82,0,0,1-1.3,7,16.1,16.1,0,0,1-2.79,4,4,4,0,0,0-1.55,3.32Zm.8,9.38a8.13,8.13,0,0,1-3.2-3.19,6.62,6.62,0,0,0,3.19-1.59h0a5.22,5.22,0,0,1-2.5,1.82A7,7,0,0,0,409.44,52.64Z"/><path class="cls-33" d="M440.51,46a12.51,12.51,0,0,1-2.67,1.68,13,13,0,0,1-3.91.79,4.46,4.46,0,0,1-2.69-.74q-3.21-2.88-3.44-8.38a46.89,46.89,0,0,1,.06-10.22,8.52,8.52,0,0,1,6.09-1.22q0,.6-.1,1.29-.1,1.13-.09,2.13.06,8.85,3.47,13.16,2.72,2.24,5-1.2l0-.06a4.69,4.69,0,0,1-1.56,2.58Zm-6,3.28a10.61,10.61,0,0,0,1.49-.12A8.93,8.93,0,0,0,440.72,47a5.43,5.43,0,0,0,.64.77l.12.13h0A8.2,8.2,0,0,0,438,49.23a3.49,3.49,0,0,0-.62.93,5.69,5.69,0,0,0-.1,3.85,10.72,10.72,0,0,1-2,0,13.1,13.1,0,0,1-1.65-.27A6.88,6.88,0,0,0,434.51,49.3Z"/><path class="cls-26" d="M436.58,29a11.82,11.82,0,0,0,1.3,7,16.1,16.1,0,0,0,2.79,4,4,4,0,0,1,1.55,3.32q-2.29,3.43-5,1.2-3.41-4.3-3.47-13.16,0-1,.09-2.13.06-.68.1-1.29a13.39,13.39,0,0,1,2.64.65Zm4.85,18.86a5.22,5.22,0,0,0,2.5,1.82,7,7,0,0,1-2.46,3l-.09,0a11.26,11.26,0,0,1-1.54.72,9.85,9.85,0,0,1-2.61.6,5.69,5.69,0,0,1,.1-3.85,3.49,3.49,0,0,1,.62-.93A8.2,8.2,0,0,1,441.43,47.87Z"/><path class="cls-30" d="M442.27,43.26l0,.06A4,4,0,0,0,440.68,40a16.1,16.1,0,0,1-2.79-4,11.82,11.82,0,0,1-1.3-7,15.47,15.47,0,0,0,4.55,10.81,4.42,4.42,0,0,1,1,1.68A4.19,4.19,0,0,1,442.27,43.26Zm-.8,9.38a7,7,0,0,0,2.46-3,5.22,5.22,0,0,1-2.5-1.82h0a6.62,6.62,0,0,0,3.19,1.59A8.13,8.13,0,0,1,441.47,52.64Z"/><path class="cls-28" d="M440.72,47A8.93,8.93,0,0,1,436,49.18,7.33,7.33,0,0,0,440.51,46l.2-.18.25.91Z"/><path class="cls-29" d="M433.93,48.5a13,13,0,0,0,3.91-.79A12.51,12.51,0,0,0,440.51,46,7.33,7.33,0,0,1,436,49.18a10.61,10.61,0,0,1-1.49.12h-.22Z"/><path class="cls-34" d="M433.45,27.9A15.57,15.57,0,0,1,433.1,32a1,1,0,0,0,.85.45,3.43,3.43,0,0,0,2.22-2.39,3.3,3.3,0,0,0-.21-2.26Q434.81,26.41,433.45,27.9Zm1.26-.25a1.06,1.06,0,0,1,1,.63.89.89,0,0,1,0,.82q-.27-.81-.9-.71a1.41,1.41,0,0,0-1,.84,1.25,1.25,0,0,1,1.09-.15q.5.27.38,1.07a1.71,1.71,0,0,1-1.84,1l.19-2.64A1.53,1.53,0,0,1,434.7,27.65Z"/><path class="cls-35" d="M434.7,27.65a1.53,1.53,0,0,0-1.11.9l-.19,2.64a1.71,1.71,0,0,0,1.84-1q.12-.8-.38-1.07a1.25,1.25,0,0,0-1.09.15,1.41,1.41,0,0,1,1-.84q.63-.09.9.71a.89.89,0,0,0,0-.82A1.06,1.06,0,0,0,434.7,27.65Z"/><path class="cls-35" d="M431,36.63q2.18-3.12,1.28-11.29a105.9,105.9,0,0,0-13.8,0q-.84,8.76,2,11.58a5.86,5.86,0,0,1-.52-.5,6.86,6.86,0,0,1-.54-.57l-.34-.4-.42-.63a3.6,3.6,0,0,1-.25-.52q-.13-.31-.23-.65t-.1-.46l-.17-.67q-.08-.42-.13-.77l0-.61q0-.31-.06-.61t-.06-.65l0-.69q0-.4,0-.77t0-.78v-.42l0-.44V25.49q0-.42,0-.82V23.6l.54-.08.5-.13.75-.13.75-.13q.75-.13,1.51-.21l.52,0,1-.06,1,0,1,0,.5,0,.5,0,1,0,1,0,1,.06.52,0q.75.08,1.51.21l.75.13.75.13.5.13.54.08v1.07q0,.4,0,.82v1.32l0,.44v.42q0,.38,0,.78t0,.77q0,.34,0,.69t-.06.65q0,.29-.06.61l0,.61q0,.36-.13.77l-.17.67q0,.23-.1.46t-.23.65a3.62,3.62,0,0,1-.25.52l-.42.63-.34.4a6.86,6.86,0,0,1-.54.57Z"/><path class="cls-34" d="M431,36.63l-.38.31a2.48,2.48,0,0,1-.42.34q-.31.25-.65.48a4.34,4.34,0,0,1-.69.44l-.5.27-.5.23-.57.25-.57.21-.59.21-.59.19-.59-.19-.59-.21-.57-.21-.57-.25-.5-.23-.5-.27a4.34,4.34,0,0,1-.69-.44q-.34-.23-.65-.48a3.48,3.48,0,0,1-.34-.25l-.08-.08h0q-2.83-2.83-2-11.58a105.9,105.9,0,0,1,13.8,0Q433.18,33.51,431,36.63Z"/><path class="cls-24" d="M422.8,28.08a11.62,11.62,0,0,1-.08,2.88,3.62,3.62,0,0,1-1.65.36,4.44,4.44,0,0,1-1.82-.4,18.59,18.59,0,0,1-.06-2.74Q421,26.09,422.8,28.08Z"/><path class="cls-36" d="M422.8,28.08q-1.79-2-3.61.09a2.58,2.58,0,0,1,.3-1.15,2.14,2.14,0,0,1,1.63-.88,1.52,1.52,0,0,1,1.39.82A4.09,4.09,0,0,1,422.8,28.08Z"/><path class="cls-37" d="M420.92,26a2.08,2.08,0,0,1,2.11,1.4l-.29.13A1.73,1.73,0,0,0,421,26.33a1.93,1.93,0,0,0-1.82,1.3l-.38-.09A2.29,2.29,0,0,1,420.92,26Z"/><path class="cls-38" d="M421.86,27.37a2.84,2.84,0,0,1,.4,1.55,3.06,3.06,0,0,1-.36,1.53q-.36.65-.86.65t-.86-.65a2.92,2.92,0,0,1-.38-1.53,3.26,3.26,0,0,1,.34-1.55q.36-.65.86-.65T421.86,27.37Z"/><path class="cls-24" d="M420.82,27.94a.34.34,0,0,1-.27.1.33.33,0,0,1-.21-.25.45.45,0,0,1,0-.36.84.84,0,0,1,.21-.36.33.33,0,0,1,.29-.06q.13,0,.19.21a.65.65,0,0,1,0,.4A.79.79,0,0,1,420.82,27.94Z"/><path class="cls-24" d="M427.85,28.08a11.63,11.63,0,0,0,.08,2.88,3.62,3.62,0,0,0,1.65.36,4.44,4.44,0,0,0,1.82-.4,18.58,18.58,0,0,0,.06-2.74Q429.64,26.09,427.85,28.08Z"/><path class="cls-36" d="M431.46,28.17a2.58,2.58,0,0,0-.3-1.15,2.14,2.14,0,0,0-1.63-.88,1.52,1.52,0,0,0-1.39.82,4.09,4.09,0,0,0-.29,1.12Q429.64,26.09,431.46,28.17Z"/><path class="cls-37" d="M429.7,26a2.08,2.08,0,0,0-2.11,1.4l.29.13a1.73,1.73,0,0,1,1.71-1.24,1.94,1.94,0,0,1,1.82,1.3l.38-.09A2.29,2.29,0,0,0,429.7,26Z"/><path class="cls-38" d="M429.66,26.73q.5,0,.86.65a2.84,2.84,0,0,1,.4,1.55,3.06,3.06,0,0,1-.36,1.53q-.36.65-.86.65t-.86-.65a2.92,2.92,0,0,1-.38-1.53,3.26,3.26,0,0,1,.34-1.55Q429.15,26.73,429.66,26.73Z"/><path class="cls-24" d="M429.47,27.94a.34.34,0,0,1-.27.1.33.33,0,0,1-.21-.25.45.45,0,0,1,0-.36.83.83,0,0,1,.21-.36.33.33,0,0,1,.29-.06c.08,0,.15.08.19.21a.64.64,0,0,1,0,.4A.79.79,0,0,1,429.47,27.94Z"/><path class="cls-39" d="M425.38,32.51a1,1,0,0,1-.61-.36l.61-.71.59.69A.75.75,0,0,1,425.38,32.51Z"/><path class="cls-40" d="M423.94,34.75a2.1,2.1,0,0,0,3,0l.21.13a2.29,2.29,0,0,1-3.52,0Z"/><path class="cls-26" d="M423.54,24.74l.25.67a11.4,11.4,0,0,0-5.84.57l.1-.19a7.07,7.07,0,0,1,3.27-1.2A6.54,6.54,0,0,1,423.54,24.74Z"/><path class="cls-26" d="M427,24.74l-.25.67a11.4,11.4,0,0,1,5.84.57l-.1-.19a7.07,7.07,0,0,0-3.27-1.2A6.52,6.52,0,0,0,427,24.74Z"/><path class="cls-41" d="M421.26,30.68a.52.52,0,0,1-.27-.31.86.86,0,0,1,0-.46,1,1,0,0,1,.23-.42.4.4,0,0,1,.38-.08.34.34,0,0,1,.25.27.69.69,0,0,1,0,.5.61.61,0,0,1-.25.38A.37.37,0,0,1,421.26,30.68Z"/><path class="cls-41" d="M429.89,30.68a.52.52,0,0,1-.27-.31.86.86,0,0,1,0-.46,1,1,0,0,1,.23-.42.4.4,0,0,1,.38-.08.34.34,0,0,1,.25.27.69.69,0,0,1,0,.5.61.61,0,0,1-.25.38A.37.37,0,0,1,429.89,30.68Z"/><path class="cls-26" d="M419.6,24.44a4.79,4.79,0,0,1-.88-2.18q-.1,1.17-.17,2.3Q417.42,42.1,422,49.2q-6.79-5.72-6.07-23.71l0-.15a8.72,8.72,0,0,1,.27-7.33q4-3.79,8.09-4.06A16.91,16.91,0,0,1,433,16a11.59,11.59,0,0,1,1.91,2.62,9.6,9.6,0,0,1,.13,6.83q1.19,15.81-5.47,23.59a52.36,52.36,0,0,0,2.7-24.36q-.13-1.15-.29-2.32a6.26,6.26,0,0,1-.67,2.18q-1-.15-1.95-.23l-1-5.24a23.07,23.07,0,0,1-1.09,5.09A44.47,44.47,0,0,0,419.6,24.44Z"/><path class="cls-42" d="M431.29,24.57a6.26,6.26,0,0,0,.67-2.18q.17,1.17.29,2.32Zm-4-.38a23.07,23.07,0,0,0,1.09-5.09l1,5.24Q428.32,24.23,427.29,24.19Zm-8.73.38q.06-1.13.17-2.3a4.79,4.79,0,0,0,.88,2.18Q419.08,24.48,418.55,24.57Z"/><path class="cls-34" d="M420.91,42.56l.28.94a14.37,14.37,0,0,1-1.67,1.16.78.78,0,0,1-.44-.74Q420,43.33,420.91,42.56Z"/><path class="cls-35" d="M421.19,43.51l-.28-.94.44-.37q.53.34.5.76Q421.52,43.24,421.19,43.51Z"/><path class="cls-43" d="M422,43.22a4.65,4.65,0,0,1-.81-1.79l2.53-.88a2.05,2.05,0,0,1-.34,1.51Z"/><path class="cls-44" d="M421.17,41.43a4.65,4.65,0,0,0,.81,1.79l-.26.22a3.11,3.11,0,0,1-.86-1.9Z"/><path class="cls-34" d="M419.47,44.7a31.62,31.62,0,0,1-3-1.65,1,1,0,0,1,.46-1A19,19,0,0,1,420.05,44C420.07,44.36,419.76,44.53,419.47,44.7Z"/><path class="cls-35" d="M414.34,41.18a.68.68,0,0,1,.44-.49,2.17,2.17,0,0,1,.81.14,1,1,0,0,0-.11.17,1.46,1.46,0,0,0-.1.22.86.86,0,0,0-.06.28A3.25,3.25,0,0,0,414.34,41.18Z"/><path class="cls-34" d="M413.49,41.78a1.46,1.46,0,0,1,.85-.6,3.25,3.25,0,0,1,1,.32.86.86,0,0,1,.06-.28,1.46,1.46,0,0,1,.1-.22,1,1,0,0,1,.11-.17,10.81,10.81,0,0,1,1.32,1.25,2.62,2.62,0,0,1,0,.31.52.52,0,0,1,0,.11.75.75,0,0,1-.44.54,3.77,3.77,0,0,1-1.14,0,2.12,2.12,0,0,1-.89-.47.58.58,0,0,0-.2-.1q-.26,0-.32-.09t.21-.28a.62.62,0,0,1,.43,0l.24.12.06,0q.3.15.37.07t0-.27a1.72,1.72,0,0,0-.38-.25l-.41-.16a1,1,0,0,0-.64.38.39.39,0,0,1-.3.09q-.14,0-.1-.14Z"/><path class="cls-35" d="M414.81,41.8a1.72,1.72,0,0,1,.38.25q.11.19,0,.27s-.17,0-.37-.07a.32.32,0,0,0,.25,0Q415.11,42,414.81,41.8Zm0-1.11a.68.68,0,0,0-.44.49,1.46,1.46,0,0,0-.85.6.57.57,0,0,1,.23-.49h0l0-.1q0-.12.5-.36l.22-.06h0a.38.38,0,0,1,.22-.06Z"/><path class="cls-34" d="M427.76,44.6a14.37,14.37,0,0,0,.56,2,.78.78,0,0,0,.81-.3q-.31-1-.55-2.22Z"/><path class="cls-35" d="M428.57,44.05q-.06-.28-.11-.57a.85.85,0,0,0-.86.27q.07.44.16.86Z"/><path class="cls-43" d="M427.32,43.89a4.65,4.65,0,0,0,1.76-.87l-1.39-2.29A2.05,2.05,0,0,0,427,42.1Z"/><path class="cls-44" d="M429.09,43a4.65,4.65,0,0,1-1.76.87l.06.34a3.11,3.11,0,0,0,1.88-.92Z"/><path class="cls-45" d="M425.56,51.58a10.25,10.25,0,0,1-3.82-1,28.85,28.85,0,0,1,7.47,0A10.06,10.06,0,0,1,425.56,51.58Z"/><path class="cls-34" d="M424.75,51.91q.07,2.33-.07,4.44-.5.72-1.15,0-.2-2.38-.53-5A4.49,4.49,0,0,1,424.75,51.91Z"/><path class="cls-39" d="M423,51.31l-.16-1.15a9.46,9.46,0,0,1,1.85.22q0,.78.06,1.53A4.49,4.49,0,0,0,423,51.31Z"/><path class="cls-34" d="M424,57.07a.42.42,0,0,0,.33-.48q-.4.49-.75.06Q423.61,57.05,424,57.07Zm-.53,1.52q0-1.13,0-2.24a.72.72,0,0,1,1.14,0,9.89,9.89,0,0,1,.44,2.2A2.68,2.68,0,0,1,423.5,58.59Z"/><path class="cls-46" d="M423.5,59.59q0-.5,0-1a2.68,2.68,0,0,0,1.62,0q0,.3,0,.6v.41A4.21,4.21,0,0,1,423.5,59.59Z"/><path class="cls-47" d="M425.14,59.55q-.07,2.45-.37,5h0a1.05,1.05,0,0,1-1.05,0l0,0q-.15-2.44-.16-4.88A4.21,4.21,0,0,0,425.14,59.55Z"/><path class="cls-39" d="M424,57.07q-.43,0-.42-.42.35.43.75-.06A.42.42,0,0,1,424,57.07Z"/><path class="cls-48" d="M424.13,66.25a13.2,13.2,0,0,1-3.34-.12,2.18,2.18,0,0,1,.89-1.18l.09-.05a2.05,2.05,0,0,1,1.8.23,1.73,1.73,0,0,1,.55,1.12Z"/><path class="cls-49" d="M423.28,64.33a1.21,1.21,0,0,0,0-.23.51.51,0,0,1,.53-.2.72.72,0,0,1,.56.29q.07.31.19.34t.12-.39.09-.13a7.1,7.1,0,0,1,.32,1.31,2.61,2.61,0,0,1-1,.92,1.73,1.73,0,0,0-.55-1.12,2.05,2.05,0,0,0-1.8-.23,2.42,2.42,0,0,1,1.25-.21s0,0,0,0a1.67,1.67,0,0,1,1.14.16.39.39,0,0,0,.13-.44A.92.92,0,0,0,423.28,64.33Z"/><path class="cls-50" d="M423,64.68a.72.72,0,0,0,.23-.35.92.92,0,0,1,1,.07.39.39,0,0,1-.13.44A1.67,1.67,0,0,0,423,64.68Zm1.08,1.57h0a2.61,2.61,0,0,0,1-.92,5.91,5.91,0,0,1,.06.89,5.34,5.34,0,0,0-1.07.3A1.86,1.86,0,0,0,424.13,66.25Z"/><path class="cls-51" d="M420.79,66.12a13.2,13.2,0,0,0,3.34.12,1.86,1.86,0,0,1,0,.25h0a13.64,13.64,0,0,1-3.26-.08Z"/><path class="cls-34" d="M426.12,51.91q-.07,2.33.07,4.44c.43.39.72.48,1.15,0q.2-2.38.53-5A4.49,4.49,0,0,0,426.12,51.91Z"/><path class="cls-39" d="M426.12,51.91a4.49,4.49,0,0,1,1.76-.6l.16-1.15a9.46,9.46,0,0,0-1.85.22Q426.15,51.16,426.12,51.91Z"/><path class="cls-52" d="M423,47.09a8.25,8.25,0,0,0,3.78.39l.6,3.66a14.1,14.1,0,0,1-1.84.23,10,10,0,0,1-3.85-.74Z"/><path class="cls-53" d="M427.41,51.13l-.6-3.66a8.25,8.25,0,0,1-3.78-.39l.11-.29a15.62,15.62,0,0,1,4.6,0l1.47,3.79A9.05,9.05,0,0,1,427.41,51.13Z"/><path class="cls-34" d="M425.9,39.52a3.68,3.68,0,0,0,0,.81.7.7,0,0,0,0,.1l.3,0-.76,1.88-.75-1.87.31,0,0-.1a3.1,3.1,0,0,0,0-.82,1.71,1.71,0,0,0,.48.19A1.36,1.36,0,0,0,425.9,39.52Z"/><path class="cls-44" d="M425.44,43l-1.15-2.55.36-.05,0,.09.75,1.87Z"/><path class="cls-54" d="M425.43,42.33l.76-1.88,0-.07.35,0L425.44,43Z"/><path class="cls-55" d="M425.44,43a6.17,6.17,0,0,0,2.26-2.26L427.23,45l.57,2a6.85,6.85,0,0,1-4.73,0l.57-2-.53-4.24A5.67,5.67,0,0,0,425.44,43Z"/><path class="cls-35" d="M425,39.52q0-.14-.06-.27a1,1,0,0,1,1,0q0,.14,0,.24a1.36,1.36,0,0,1-.44.19A1.71,1.71,0,0,1,425,39.52Z"/><path class="cls-56" d="M427.7,40.72A6.17,6.17,0,0,1,425.44,43a5.67,5.67,0,0,1-2.33-2.26,8,8,0,0,1,1.18-.29L425.44,43l1.13-2.55A7.36,7.36,0,0,1,427.7,40.72Z"/><path class="cls-34" d="M428.34,46.56a35.16,35.16,0,0,0,3.31,1.54,1,1,0,0,0,.5-.95,19,19,0,0,0-3.45-1.37A.77.77,0,0,0,428.34,46.56Z"/><path class="cls-34" d="M434.42,49.69a1.46,1.46,0,0,0,0-1,3.25,3.25,0,0,0-.84-.59.85.85,0,0,0,.19-.22,1.45,1.45,0,0,0,.11-.21,1,1,0,0,0,.07-.19,10.8,10.8,0,0,0-1.79-.31l-.25.17-.08.07a.75.75,0,0,0-.17.67,3.77,3.77,0,0,0,.7.89,2.12,2.12,0,0,0,.91.43.58.58,0,0,1,.2.1q.16.2.26.2t.1-.33a.62.62,0,0,0-.28-.32l-.24-.13-.06,0q-.3-.16-.28-.26t.24-.13a1.72,1.72,0,0,1,.43.15l.37.23a1,1,0,0,1,.08.74.39.39,0,0,0,.11.29q.1.1.18,0Z"/><path class="cls-35" d="M434.4,48.66a.68.68,0,0,0,.13-.64,2.17,2.17,0,0,0-.59-.56,1,1,0,0,1-.07.19,1.45,1.45,0,0,1-.11.21.85.85,0,0,1-.19.22A3.25,3.25,0,0,1,434.4,48.66Z"/><path class="cls-35" d="M433.62,48.65a1.72,1.72,0,0,0-.43-.15q-.22,0-.24.13t.28.26a.33.33,0,0,1-.12-.22Q433.26,48.53,433.62,48.65Zm.91-.63a.68.68,0,0,1-.13.64,1.46,1.46,0,0,1,0,1,.57.57,0,0,0,.26-.48h0l.06-.1a1.18,1.18,0,0,0,0-.62l-.09-.21h0a.38.38,0,0,0-.08-.21Z"/><path class="cls-34" d="M428.87,56.49a3.35,3.35,0,0,1-1.13,1.17Q427,57,426.2,56.35a1,1,0,0,1,.85-.79A10.2,10.2,0,0,1,428.87,56.49Zm-2.56-.12a.47.47,0,0,0,.6.05.49.49,0,0,0-.09-.72.6.6,0,0,1,0,.56A.59.59,0,0,1,426.32,56.37Z"/><path class="cls-46" d="M429.72,57.11a2.59,2.59,0,0,1-1.24,1.22l-.74-.67a3.35,3.35,0,0,0,1.13-1.17q.41.27.81.58Z"/><path class="cls-47" d="M428.48,58.33a2.59,2.59,0,0,0,1.24-1.22l.1.09a29.24,29.24,0,0,1,3.33,4,1.16,1.16,0,0,1-1.12.69q-1.75-1.87-3.46-3.45Z"/><path class="cls-39" d="M426.32,56.37a.59.59,0,0,0,.47-.1.6.6,0,0,0,0-.56.49.49,0,0,1,.09.72A.47.47,0,0,1,426.32,56.37Z"/><path class="cls-48" d="M434,62.42h0a14.18,14.18,0,0,1-2.86,2.38,1.78,1.78,0,0,1-.15-1.5,2.71,2.71,0,0,1,.4-.63,2.59,2.59,0,0,1,.43-.35,2.16,2.16,0,0,1,1.09-.38h0A2.19,2.19,0,0,1,434,62.42Z"/><path class="cls-50" d="M431.64,62.31a.53.53,0,0,0,0-.19.84.84,0,0,0-.07-.29h0a1.29,1.29,0,0,1,.36-.33,1.06,1.06,0,0,1,.54-.15.33.33,0,0,1,.12.45A1.37,1.37,0,0,0,431.64,62.31Zm2.37.12h0a2.47,2.47,0,0,0-.15-1.24,3.1,3.1,0,0,1,.55.5,4.23,4.23,0,0,0-.19.94Z"/><path class="cls-49" d="M433.85,61.18a2.47,2.47,0,0,1,.15,1.24,2.19,2.19,0,0,0-1-.46h0a2.16,2.16,0,0,0-1.09.38,2.59,2.59,0,0,0-.43.35,1.43,1.43,0,0,0,.24-.38,1.37,1.37,0,0,1,1-.54.33.33,0,0,0-.12-.45,1.06,1.06,0,0,0-.54.15,1.29,1.29,0,0,0-.36.33h0l-.21-.31a1.38,1.38,0,0,1,.31-.33,1.16,1.16,0,0,1,.74-.23q.45.3.54.24t-.23-.45q-.09-.15,0-.22a4.57,4.57,0,0,1,1,.57Z"/><path class="cls-51" d="M431.16,64.82A14.18,14.18,0,0,0,434,62.43l.19.19a12.48,12.48,0,0,1-2.83,2.46l0,0-.19-.27Z"/><path class="cls-57" d="M577.81,42.82a.51.51,0,0,1-.27-.08l-25.9-16.79a.5.5,0,1,1,.54-.84l25.9,16.79a.5.5,0,0,1-.27.92Z"/><ellipse class="cls-25" cx="588.44" cy="65.41" rx="7.72" ry="2.91"/><path class="cls-34" d="M591.44,47.73l.77,2.08a.54.54,0,0,1-.75.19l-.58-1.71Z"/><path class="cls-35" d="M591.44,47.73l-.56.56-.21-.61a.55.55,0,0,1,.64-.3Z"/><path class="cls-34" d="M591.46,50a10.69,10.69,0,0,0,.9,2.81.87.87,0,0,0,1.05-.06,11.31,11.31,0,0,0-1.2-2.93A.55.55,0,0,0,591.46,50Z"/><path class="cls-34" d="M592.85,55.66a2.44,2.44,0,0,0,.4-.66,3.66,3.66,0,0,0,0-.89q.58,0,.7-.23l-.63-1.41a.8.8,0,0,0-.94.33,2.63,2.63,0,0,0-.29,1.05,3.2,3.2,0,0,0,.21.91l0,.32q.1.1.26,0a.42.42,0,0,0,.07-.34,1.34,1.34,0,0,1-.06-.52v0q0-.2.14-.18l.08.34a4.49,4.49,0,0,1,.09.52,1.32,1.32,0,0,1-.23.52q-.05.26.14.29Z"/><path class="cls-35" d="M593.92,53.88q-.12.18-.7.23a3.66,3.66,0,0,1,0,.89,1.2,1.2,0,0,0,.59-.22A5.37,5.37,0,0,0,593.92,53.88Z"/><path class="cls-35" d="M592.6,54.23v0q0-.2.14-.18l.08.34Q592.7,54.09,592.6,54.23Zm1.24.55a2.58,2.58,0,0,1-.4.55q-.05.12-.13.13-.08.16-.21.11a.18.18,0,0,1-.24.09,2.44,2.44,0,0,0,.4-.66A1.2,1.2,0,0,0,593.84,54.78Z"/><path class="cls-58" d="M592,47.68l-1.24-2a2.33,2.33,0,0,0-.68,1.34l.35,1.55A4.09,4.09,0,0,0,592,47.68Z"/><path class="cls-59" d="M592,47.68a4.09,4.09,0,0,1-1.57.93l.09.4a3.3,3.3,0,0,0,1.68-1Z"/><path class="cls-34" d="M590.56,57.05q0,1.17,0,2.39a1.3,1.3,0,0,1-1,0q-.15-1-.25-2A5.59,5.59,0,0,1,590.56,57.05Z"/><path class="cls-35" d="M590.56,57.05a5.59,5.59,0,0,0-1.25.37q-.07-.66-.11-1.31a1.46,1.46,0,0,1,1.29-.14Q590.53,56.51,590.56,57.05Z"/><path class="cls-34" d="M585.94,57a6,6,0,0,1,1.25.38q-.1,1-.25,2.06a1.3,1.3,0,0,1-1,0Q585.89,58.19,585.94,57Z"/><path class="cls-35" d="M587.19,57.38a6,6,0,0,0-1.25-.38q0-.52.06-1a1.47,1.47,0,0,1,1.29.14Q587.25,56.74,587.19,57.38Z"/><path class="cls-60" d="M585.58,54.37a2.26,2.26,0,0,1,2.53.34L588,56.65a4.56,4.56,0,0,1-1.76.12,2,2,0,0,1-1-.6l-.06-.07Z"/><path class="cls-60" d="M588.55,56.65l-.13-1.94a2.38,2.38,0,0,1,2.49-.34l.47,1.73a1.73,1.73,0,0,1-.37.35,2.32,2.32,0,0,1-.7.32A4.53,4.53,0,0,1,588.55,56.65Z"/><path class="cls-34" d="M590.58,59.09q-.28.41-.71.05Q590.3,60,590.58,59.09Zm.34,3.52a3.77,3.77,0,0,1-1.27.06q-.13-1.66-.17-3.18c0-.69,0,0,.12-.7a1.27,1.27,0,0,1,1,0C590.74,60.51,590.84,60.91,590.92,62.61Z"/><path class="cls-24" d="M589.65,62.67a3.77,3.77,0,0,0,1.27-.06l.19,1.81a1.44,1.44,0,0,1-1.39.08Z"/><path class="cls-35" d="M590.58,59.09q-.28.93-.71.05Q590.3,59.5,590.58,59.09Z"/><path class="cls-61" d="M591.65,64.32a2.08,2.08,0,0,0-.85.2.17.17,0,0,1-.09-.17,1.78,1.78,0,0,1,.84-.18A.26.26,0,0,1,591.65,64.32Zm.18.23a2,2,0,0,0-.84.23q-.15,0-.14-.17a2,2,0,0,1,.85-.21A.44.44,0,0,1,591.83,64.55Zm-.32-.46a1.74,1.74,0,0,0-.82.17q-.08,0,0-.17a1.33,1.33,0,0,1,.79-.14A.26.26,0,0,1,591.51,64.09Zm-.88-.05a.15.15,0,0,1,0-.16.72.72,0,0,1,.72-.14.22.22,0,0,1,.07.16A.9.9,0,0,0,590.63,64Z"/><path class="cls-62" d="M589.5,64.75l1.19.81,0,.2a7.76,7.76,0,0,0-1.24-.42Z"/><path class="cls-63" d="M593.2,65.59l.27-.12,0,.18a.83.83,0,0,1-.22.11A.72.72,0,0,0,593.2,65.59Zm-2.55.17,0-.2h0l0,0a5.91,5.91,0,0,0,1.48.13l-.22.19a7.28,7.28,0,0,1-1.24-.11Z"/><path class="cls-64" d="M593.2,65.59a.72.72,0,0,1,0,.17,2.67,2.67,0,0,1-.49.11q-.37,0-.73,0l.22-.19.29-.31a1.11,1.11,0,0,1,.65-.07A2.26,2.26,0,0,1,593.2,65.59Z"/><path class="cls-65" d="M593.47,65.47l-.27.12a2.26,2.26,0,0,0-.06-.26,1.11,1.11,0,0,0-.65.07l-.29.31a5.91,5.91,0,0,1-1.48-.13l0,0a.92.92,0,0,1,.34-.64,1.56,1.56,0,0,1,1.17-.24q.48.16,1.07.3A.81.81,0,0,1,593.47,65.47Z"/><path class="cls-66" d="M590.69,65.56l-1.19-.81v0l0-1q.11,0,.15.08a.76.76,0,0,0,.15.4q.1.15.27,0a.88.88,0,0,0,.14-.51.91.91,0,0,1,.69-.4.58.58,0,0,1,.4.25,2.25,2.25,0,0,0,.58,1l.28.1a1.56,1.56,0,0,0-1.17.24.92.92,0,0,0-.34.64Zm.82-1.47a.26.26,0,0,0-.08-.14,1.33,1.33,0,0,0-.79.14q0,.14,0,.17A1.74,1.74,0,0,1,591.51,64.09Zm.32.46a.44.44,0,0,0-.12-.15,2,2,0,0,0-.85.21q0,.12.14.17A2,2,0,0,1,591.83,64.55Zm-.18-.23a.26.26,0,0,0-.1-.15,1.78,1.78,0,0,0-.84.18.17.17,0,0,0,.09.17A2.08,2.08,0,0,1,591.65,64.32Zm-1-.29a.9.9,0,0,1,.77-.14.22.22,0,0,0-.07-.16.72.72,0,0,0-.72.14A.15.15,0,0,0,590.63,64Z"/><path class="cls-34" d="M586.64,59.14q-.43.36-.71-.05Q586.21,60,586.64,59.14Zm-.74-.37a1.27,1.27,0,0,1,1,0c.08.65.12,0,.12.7q0,1.52-.17,3.18a3.77,3.77,0,0,1-1.27-.06C585.66,60.91,585.77,60.51,585.9,58.77Z"/><path class="cls-24" d="M586.86,62.67a3.77,3.77,0,0,1-1.27-.06l-.19,1.81a1.44,1.44,0,0,0,1.39.08Z"/><path class="cls-35" d="M585.93,59.09q.28.93.71.05Q586.21,59.5,585.93,59.09Z"/><path class="cls-61" d="M584.95,64.17a1.78,1.78,0,0,1,.84.18.17.17,0,0,1-.09.17,2.08,2.08,0,0,0-.85-.2A.26.26,0,0,1,584.95,64.17Zm-.15.23a2,2,0,0,1,.85.21q0,.12-.14.17a2,2,0,0,0-.84-.23A.44.44,0,0,1,584.79,64.4Zm.28-.45a1.33,1.33,0,0,1,.79.14q0,.14,0,.17a1.74,1.74,0,0,0-.82-.17A.26.26,0,0,1,585.07,64Zm0-.05a.22.22,0,0,1,.07-.16.72.72,0,0,1,.72.14.15.15,0,0,1,0,.16A.9.9,0,0,0,585.1,63.9Z"/><path class="cls-62" d="M587,64.75l-1.19.81,0,.2a7.76,7.76,0,0,1,1.24-.42Z"/><path class="cls-63" d="M583.3,65.76a.83.83,0,0,1-.22-.11l0-.18.27.12A.72.72,0,0,0,583.3,65.76Zm2.47,0a7.28,7.28,0,0,1-1.24.11l-.22-.19a5.91,5.91,0,0,0,1.48-.13l0,0h0l0,.2Z"/><path class="cls-64" d="M583.31,65.59a.72.72,0,0,0,0,.17,2.67,2.67,0,0,0,.49.11q.37,0,.73,0l-.22-.19L584,65.4a1.11,1.11,0,0,0-.65-.07A2.28,2.28,0,0,0,583.31,65.59Z"/><path class="cls-65" d="M583,65.47l.27.12a2.28,2.28,0,0,1,.06-.26,1.11,1.11,0,0,1,.65.07l.29.31a5.91,5.91,0,0,0,1.48-.13l0,0a.92.92,0,0,0-.34-.64,1.56,1.56,0,0,0-1.17-.24q-.48.16-1.07.3A.81.81,0,0,0,583,65.47Z"/><path class="cls-66" d="M585.8,65.56a.92.92,0,0,0-.34-.64,1.56,1.56,0,0,0-1.17-.24l.28-.1a2.25,2.25,0,0,0,.58-1,.58.58,0,0,1,.4-.25.91.91,0,0,1,.69.4.88.88,0,0,0,.14.51q.18.14.27,0a.76.76,0,0,0,.15-.4q0-.12.15-.08l0,1v0l-1.19.81Zm0-1.3q.08,0,0-.17a1.33,1.33,0,0,0-.79-.14.26.26,0,0,0-.08.14A1.74,1.74,0,0,1,585.82,64.26Zm-.31.52q.15,0,.14-.17a2,2,0,0,0-.85-.21.44.44,0,0,0-.12.15A2,2,0,0,1,585.51,64.78Zm.2-.25a.17.17,0,0,0,.09-.17,1.78,1.78,0,0,0-.84-.18.26.26,0,0,0-.1.15A2.08,2.08,0,0,1,585.7,64.53Zm.19-.65a.72.72,0,0,0-.72-.14.22.22,0,0,0-.07.16.9.9,0,0,1,.77.14A.15.15,0,0,0,585.89,63.87Z"/><path class="cls-60" d="M590.68,53.35l.24,1-2.15.35a2,2,0,0,0,.72-.37,3.62,3.62,0,0,1-1.24.21,3.51,3.51,0,0,1-1.29-.23,2.23,2.23,0,0,0,.77.38l-2.14-.35.22-1a1.33,1.33,0,0,0,1-1.19,10.91,10.91,0,0,0,2.95,0A1.32,1.32,0,0,0,590.68,53.35Z"/><path class="cls-67" d="M590.68,53.35a1.32,1.32,0,0,1-1-1.18,10.91,10.91,0,0,1-2.95,0,1.33,1.33,0,0,1-1,1.19l.38-1.61.57-.09h.08a13.72,13.72,0,0,1,2.82,0h.08l.56.09Zm-2.95,1.36a2.23,2.23,0,0,1-.77-.38,3.51,3.51,0,0,0,1.29.23,3.62,3.62,0,0,0,1.24-.21,2,2,0,0,1-.72.37l-.11,0h-.1l-.14,0h-.34l-.14,0h-.1Z"/><path class="cls-35" d="M587.63,45.89l-.17-.17h0l-.17-.4.51-.05a2.64,2.64,0,0,0,0-.49v-.08a1.69,1.69,0,0,0,.3.12l.15,0,.13,0,.26-.1v.08a3.13,3.13,0,0,0,0,.48l.5,0-.17.4h0l-.74.77Z"/><path class="cls-59" d="M589.14,45.32l.17-.39.29.46v0l.05,1.12-.55-.63-.15-.16h0Zm-1.77.54.26,0,.58.6-.12.12h.28l0,1.09H588l0-1.06h0l-.72-.76-.5.7-.09-1.13v0l.3-.48.19.4.17.4h0Z"/><path class="cls-68" d="M587.1,44.92v0a4.23,4.23,0,0,1,.72-.12,2.64,2.64,0,0,1,0,.49l-.51.05Zm.27.93.1-.13.17.17Zm1.94-.92-.17.39-.5,0a3.13,3.13,0,0,1,0-.48,4.12,4.12,0,0,1,.65.12Zm-1.09,1.57.74-.77.15.16-.74.72h-.28Z"/><path class="cls-60" d="M586.8,45.4v0l.09,1.13.5-.7.72.76h0l0,1.06h.37l0-1.09.74-.72.55.63-.05-1.12v0a8.09,8.09,0,0,1,1.17.33L590,50.59l.28,1.33a11.7,11.7,0,0,1-4.18,0l.23-1.39-.7-4.81A8.93,8.93,0,0,1,586.8,45.4Z"/><path class="cls-69" d="M588.65,44.72l-.26.1-.13,0-.15,0a1.69,1.69,0,0,1-.3-.12,3,3,0,0,0-.06-.38,1.15,1.15,0,0,1,.93,0A3.72,3.72,0,0,0,588.65,44.72Z"/><path class="cls-70" d="M594.17,12.48a18.62,18.62,0,0,0-4.07,1.22,20.36,20.36,0,0,0-7.64,5.48l.31-1.36a4.62,4.62,0,0,1,.82-1,15.43,15.43,0,0,1,6.51-3.44A26.05,26.05,0,0,1,594.17,12.48Zm4,4.6a10.19,10.19,0,0,0-3.95,2.77l.69-1.39a6,6,0,0,1,3.17-1.36Zm1.93,4.26a14.55,14.55,0,0,1-2.86,2.33l.82-1.18a.16.16,0,0,0,0,.06Zm-23.45,5.56a31.55,31.55,0,0,0,0,3.25v.13a2.56,2.56,0,0,0-.08-.34q-.08-.4-.1-.59-.08-.5-.13-1.11a17.79,17.79,0,0,1,1.62-9.66A31.4,31.4,0,0,0,577,23,37.52,37.52,0,0,0,576.64,26.91Zm6.82-11.8A12.25,12.25,0,0,0,578.59,22l-.13-.76a9.22,9.22,0,0,1,.48-1.7,7.48,7.48,0,0,1,.61-1.26,8.14,8.14,0,0,1,3.93-3.23Z"/><path class="cls-71" d="M599.08,27.39h0l1.26-.44,0,.08q-.73,2.79-2.06,3.67h0a112.87,112.87,0,0,1-20.15-.38,6.53,6.53,0,0,1-1.49-3.42A37.52,37.52,0,0,1,577,23a31.4,31.4,0,0,1,1-4.37l0-.1.48,2.79.13.76a12.25,12.25,0,0,1,4.87-6.93l-.69,2.71-.31,1.36a20.36,20.36,0,0,1,7.64-5.48,18.62,18.62,0,0,1,4.07-1.22,61.76,61.76,0,0,0,0,7.37,10.19,10.19,0,0,1,3.95-2.77,19.87,19.87,0,0,1-.59,5.5q-.15.57-.34,1.09a14.55,14.55,0,0,0,2.86-2.33,22.32,22.32,0,0,1-.21,4.14,7.37,7.37,0,0,1-2,2.18Z"/><path class="cls-72" d="M594.21,19.85a61.76,61.76,0,0,1,0-7.37q.06.94.15,1.78,0,.25.06.52.23,2,.52,3.67Zm3.95-2.77a13.72,13.72,0,0,1-.1,5.42l-.82,1.18q.19-.52.34-1.09A19.87,19.87,0,0,0,598.16,17.08Zm.92,10.31-1.24.27a7.37,7.37,0,0,0,2-2.18,22.32,22.32,0,0,0,.21-4.14,11.27,11.27,0,0,1,.27,1.24,10.41,10.41,0,0,1,0,3.09,9.37,9.37,0,0,1-.5.86,5.83,5.83,0,0,1-.67.73Zm-22.44,2.9v-.13a31.55,31.55,0,0,1,0-3.25,6.53,6.53,0,0,0,1.49,3.42,112.87,112.87,0,0,0,20.15.38h0q1.32-.88,2.06-3.67l-.8,3.57q-.23.5-.48,1a16,16,0,0,1-2.67,3.72,17.4,17.4,0,0,1-8.27,3,21.16,21.16,0,0,1-8.36-2.9,10.8,10.8,0,0,1-2.31-3.09A9.6,9.6,0,0,1,576.64,30.29Z"/><path class="cls-70" d="M596.44,27.24l-.55-.4,1-.63Zm-2-1.28a14.22,14.22,0,0,0-1.76-.8,4,4,0,0,0,2.1-2.52A9.51,9.51,0,0,1,594.48,26ZM592.43,25l-3.15-.21-2.08-1.18.65-1.39a5.47,5.47,0,0,1,2.06,1.34l1.2-.34A3.11,3.11,0,0,1,592.43,25Zm-9.62.19-.94.39a3.73,3.73,0,0,1,0-2A2.69,2.69,0,0,0,582.81,25.23Zm-2.48,1.41-1.18.8a11.73,11.73,0,0,1,.1-4.09A7.48,7.48,0,0,0,580.33,26.63Z"/><path class="cls-34" d="M596.29,33.22q.06-.37.11-.74a1.49,1.49,0,0,1,2.23.14,2.37,2.37,0,0,1,.26,2.32q-.07.23-.18.47-1.38,2.49-3.44,2.15.21-.68.39-1.36a2,2,0,0,0,1.59-.36,1.25,1.25,0,0,0,.45-1.37,1.13,1.13,0,0,0-1.21-.64,1.33,1.33,0,0,1,1-.38,1.21,1.21,0,0,1,1.05.93,1.22,1.22,0,0,0-.66-1.59A1.62,1.62,0,0,0,596.29,33.22Z"/><path class="cls-35" d="M595.66,36.21q.24-.88.42-1.76l0-.2q.1-.51.18-1a1.62,1.62,0,0,1,1.59-.41,1.22,1.22,0,0,1,.66,1.59,1.21,1.21,0,0,0-1.05-.93,1.33,1.33,0,0,0-1,.38,1.13,1.13,0,0,1,1.21.64,1.25,1.25,0,0,1-.45,1.37A2,2,0,0,1,595.66,36.21Z"/><path class="cls-34" d="M579.6,33.22q-.06-.37-.11-.74a1.49,1.49,0,0,0-2.23.14,2.37,2.37,0,0,0-.26,2.32,5.05,5.05,0,0,0,.18.47q1.38,2.49,3.44,2.15-.21-.68-.39-1.36a2,2,0,0,1-1.59-.36,1.25,1.25,0,0,1-.45-1.37,1.13,1.13,0,0,1,1.21-.64,1.33,1.33,0,0,0-1-.38,1.21,1.21,0,0,0-1.05.93,1.22,1.22,0,0,1,.66-1.59A1.62,1.62,0,0,1,579.6,33.22Z"/><path class="cls-35" d="M580.23,36.21q-.24-.88-.42-1.76l0-.2q-.1-.51-.18-1a1.62,1.62,0,0,0-1.59-.41,1.22,1.22,0,0,0-.66,1.59,1.21,1.21,0,0,1,1.05-.93,1.33,1.33,0,0,1,1,.38,1.13,1.13,0,0,0-1.21.64,1.25,1.25,0,0,0,.45,1.37A2,2,0,0,0,580.23,36.21Z"/><path class="cls-34" d="M579.39,30.64a23.46,23.46,0,0,1,3.44-1.76,2.1,2.1,0,0,0,.88,1l1.3-2a5.68,5.68,0,0,0,3.53,5.21L590,29.26l.55,1.43a4.07,4.07,0,0,0,1.72-2.18,21,21,0,0,1,4.28,2.12,24.19,24.19,0,0,1-1.6,8.92,12.11,12.11,0,0,1-6.24,4.77,1.48,1.48,0,0,1-1,0,13.21,13.21,0,0,1-6.55-4.81A29.43,29.43,0,0,1,579.39,30.64Z"/><path class="cls-35" d="M596.52,30.62a21,21,0,0,0-4.28-2.12,4.07,4.07,0,0,1-1.72,2.18L590,29.26l-1.43,3.86A5.68,5.68,0,0,1,585,27.91l-1.3,2a2.1,2.1,0,0,1-.88-1,23.46,23.46,0,0,0-3.44,1.76q-.06-1-.08-2.12a17.79,17.79,0,0,1,8.82-2.23,18.39,18.39,0,0,1,8.42,2.41Q596.54,29.7,596.52,30.62Z"/><path class="cls-73" d="M578.51,31.88a4.41,4.41,0,0,1,1-1.26l.73-.48a20.77,20.77,0,0,0-.27,5.4Z"/><path class="cls-74" d="M580.23,30.14l-.73.48a4.41,4.41,0,0,0-1,1.26l-.38-.94a7.43,7.43,0,0,1,2.23-1.62Z"/><path class="cls-73" d="M597.57,31.76l-1.51,3.82a20.94,20.94,0,0,0-.27-5.42q.34.19.8.48A3.78,3.78,0,0,1,597.57,31.76Z"/><path class="cls-74" d="M597.57,31.76a3.78,3.78,0,0,0-1-1.11q-.46-.3-.8-.48-.06-.38-.13-.8A7.42,7.42,0,0,1,597.89,31Z"/><path class="cls-75" d="M576.93,31.48a2.19,2.19,0,0,1-.31-1.32,13.76,13.76,0,0,1,6.68-5.48,5.84,5.84,0,0,0-.55,2.73A25.08,25.08,0,0,0,576.93,31.48ZM592,24.68a15.45,15.45,0,0,1,7.6,5.63,3.43,3.43,0,0,1-.46,1.26A25.15,25.15,0,0,0,592.53,27,10.07,10.07,0,0,0,592,24.68Z"/><path class="cls-76" d="M576.93,31.48a25.08,25.08,0,0,1,5.82-4.07,5.84,5.84,0,0,1,.55-2.73,13.79,13.79,0,0,1,4.93-.86,19.05,19.05,0,0,1,3.8.86,10.07,10.07,0,0,1,.5,2.31,25.15,25.15,0,0,1,6.63,4.58l-.25.34a20.71,20.71,0,0,0-6.4-3.72,16,16,0,0,0-4.32-.9,15.46,15.46,0,0,0-5.23,1,18.39,18.39,0,0,0-5.73,3.57A2.35,2.35,0,0,1,576.93,31.48Z"/><path class="cls-24" d="M581.53,33q2-2.51,3.72.12h0a11.68,11.68,0,0,1,0,2.48,4.26,4.26,0,0,1-3.61-.19A10.35,10.35,0,0,1,581.53,33Z"/><path class="cls-36" d="M585.25,33.09q-1.68-2.62-3.72-.12a8.55,8.55,0,0,1,.21-1.28,2,2,0,0,1,1.78-1.07,2.2,2.2,0,0,1,1.53,1.22Q585.18,32.47,585.25,33.09Z"/><path class="cls-77" d="M584.27,35a1,1,0,0,1-.89.64,1.08,1.08,0,0,1-.9-.64,3,3,0,0,1-.36-1.51,3.08,3.08,0,0,1,.36-1.53,1.08,1.08,0,0,1,.9-.62,1,1,0,0,1,.89.62,3,3,0,0,1,.38,1.53A2.85,2.85,0,0,1,584.27,35Z"/><path class="cls-24" d="M583.22,32.74a.34.34,0,0,1-.33.09.39.39,0,0,1-.26-.25.78.78,0,0,1,.21-.79.39.39,0,0,1,.35-.09.34.34,0,0,1,.24.25.68.68,0,0,1-.21.79Z"/><path class="cls-78" d="M584,35.14a.36.36,0,0,1-.38.1.44.44,0,0,1-.31-.29.84.84,0,0,1,0-.52.69.69,0,0,1,.27-.44.4.4,0,0,1,.69.19.82.82,0,0,1,0,.52A.83.83,0,0,1,584,35.14Z"/><path class="cls-79" d="M583.35,30.78a1.91,1.91,0,0,0-1.71,1.29l-.4-.19a2.25,2.25,0,0,1,2.12-1.64,2.42,2.42,0,0,1,2.12,1.55l-.36.23A2,2,0,0,0,583.35,30.78Z"/><path class="cls-24" d="M590.66,33.11q2-2.83,3.74.12a10.51,10.51,0,0,1-.08,2.16,4.25,4.25,0,0,1-3.61.19A11.6,11.6,0,0,1,590.66,33.11Z"/><path class="cls-36" d="M590.66,33.11a12.29,12.29,0,0,1,.19-1.27,2.2,2.2,0,0,1,1.53-1.22,2,2,0,0,1,1.78,1.07,8.8,8.8,0,0,1,.23,1.53Q592.69,30.28,590.66,33.11Z"/><path class="cls-77" d="M593.43,35a1,1,0,0,1-.89.64,1.08,1.08,0,0,1-.9-.64,3,3,0,0,1-.36-1.51,3.08,3.08,0,0,1,.36-1.53,1.08,1.08,0,0,1,.9-.62,1,1,0,0,1,.89.62,3,3,0,0,1,.38,1.53A2.85,2.85,0,0,1,593.43,35Z"/><path class="cls-24" d="M592.38,32.74a.34.34,0,0,1-.33.09.39.39,0,0,1-.26-.25.78.78,0,0,1,.21-.79.39.39,0,0,1,.35-.09.34.34,0,0,1,.24.25.68.68,0,0,1-.21.79Z"/><path class="cls-78" d="M593.18,35.13a.43.43,0,0,1-.4.11.48.48,0,0,1-.31-.3.94.94,0,0,1,.26-1,.48.48,0,0,1,.42-.11.43.43,0,0,1,.29.3.84.84,0,0,1-.26,1Z"/><path class="cls-79" d="M592.56,30.78a1.91,1.91,0,0,1,1.71,1.29l.4-.19a2.25,2.25,0,0,0-2.12-1.64,2.42,2.42,0,0,0-2.12,1.55l.36.23A2,2,0,0,1,592.56,30.78Z"/><path class="cls-80" d="M585.16,29.14a5.28,5.28,0,0,0,.71,1.73,15.78,15.78,0,0,0-5.24-1h-.77a6.38,6.38,0,0,1,.84-2,13.73,13.73,0,0,1,2.06.33l0,.16a2.69,2.69,0,0,0,1,1.43l.7-1.07Q584.8,29,585.16,29.14Z"/><path class="cls-81" d="M582.77,28.3a12,12,0,0,1,1.65.51l-.7,1.07a2.69,2.69,0,0,1-1-1.43Zm3.11,2.57a5.28,5.28,0,0,1-.71-1.73,11.29,11.29,0,0,1,1.32.75,3,3,0,0,1-.15,1.15Z"/><path class="cls-35" d="M589,37.07a1,1,0,0,1-.34.23,1.12,1.12,0,0,1-.52.1,1,1,0,0,1-.5-.1,1,1,0,0,1-.36-.27,1,1,0,0,1,.86-.59A1,1,0,0,1,589,37.07Z"/><path class="cls-80" d="M589.45,30.66l.4-1,.21-.13.46,1.2a4,4,0,0,0,1.7-2.12l.08,0a13.25,13.25,0,0,1,2.88-.55,6.38,6.38,0,0,1,.84,2,5.08,5.08,0,0,0-.65,0A15.75,15.75,0,0,0,589.55,31,3.77,3.77,0,0,1,589.45,30.66Z"/><path class="cls-81" d="M589.84,29.61l-.4,1a3.57,3.57,0,0,1,0-.78A4.64,4.64,0,0,1,589.84,29.61Zm.21-.13a11.81,11.81,0,0,1,2.16-.92,4,4,0,0,1-1.7,2.12Z"/><path class="cls-71" d="M590.47,30.2,590.24,28l-.07.13,0-1.09a9.42,9.42,0,0,0-1.94,5.67q-2.48-1.55-2.73-3.17a4.46,4.46,0,0,1,.21-2.6l-.21.12.67-1.69a5.82,5.82,0,0,0-2.44,4,8,8,0,0,1-.52-1.66q-.32-4.34,4.64-5.1a5,5,0,0,1,2,1.81,2.57,2.57,0,0,1,1.39-.63,4.66,4.66,0,0,1,1,2.14l-.1-.25A11.32,11.32,0,0,1,590.47,30.2Z"/><path class="cls-70" d="M583.17,27.64a4.1,4.1,0,0,1,1-4,6.62,6.62,0,0,1,3.72-1.47A7.13,7.13,0,0,1,589.78,24a3,3,0,0,1,1.36-.27,2.57,2.57,0,0,0-1.39.63,5,5,0,0,0-2-1.81Q582.85,23.3,583.17,27.64Z"/><path class="cls-82" d="M590.47,30.2A11.32,11.32,0,0,0,592,25.6l.1.25a5.27,5.27,0,0,1,.08.94,5.51,5.51,0,0,1-1.7,3.63Zm-5-3.18a4.36,4.36,0,0,0-1.76,2.28,5.82,5.82,0,0,1,2.44-4Zm4.71,1.08a16.08,16.08,0,0,0-1.86,4.66l-.13-.08A9.42,9.42,0,0,1,590.13,27Z"/><path class="cls-83" d="M585.65,39.7h5A2.5,2.5,0,0,1,588.16,42,2.63,2.63,0,0,1,585.65,39.7Z"/><path class="cls-34" d="M576.57,41.76a2.44,2.44,0,0,1,.76-.14,3.66,3.66,0,0,1,.83.33q.25-.53.46-.57l1.1,1.08a.8.8,0,0,1-.64.76,2.63,2.63,0,0,1-1.09-.1,3.2,3.2,0,0,1-.78-.52l-.29-.15q-.06-.13.09-.24a.42.42,0,0,1,.34.05,1.34,1.34,0,0,0,.47.24h0q.19.06.21-.07l-.29-.19a4.49,4.49,0,0,0-.46-.26,1.32,1.32,0,0,0-.57,0q-.27,0-.22-.23Z"/><path class="cls-35" d="M578.62,41.38q-.21,0-.46.57a3.66,3.66,0,0,0-.83-.33,1.2,1.2,0,0,1,.42-.48A5.37,5.37,0,0,1,578.62,41.38Z"/><path class="cls-35" d="M577.78,42.24l.29.19q0,.13-.21.07h0Q578,42.46,577.78,42.24Zm-.44-.62a2.44,2.44,0,0,0-.76.14.18.18,0,0,1,.17-.19q0-.14.18-.16s.08-.08.17-.08a2.58,2.58,0,0,1,.66-.18A1.2,1.2,0,0,0,577.33,41.62Z"/><path class="cls-34" d="M583.42,45.82l-1.9-1.14a.54.54,0,0,1,.46-.62l1.52,1Z"/><path class="cls-35" d="M583.42,45.82l.09-.79.54.35a.55.55,0,0,1-.31.64Z"/><path class="cls-34" d="M582,44.06a10.69,10.69,0,0,0-2.46-1.63.87.87,0,0,0-.78.71,11.31,11.31,0,0,0,2.77,1.54A.55.55,0,0,0,582,44.06Z"/><path class="cls-58" d="M584.19,44.64l1.31,1c.33.28.31,1.36.44,2l-2.27-1C583.51,46.45,583.66,44.66,584.19,44.64Z"/><path class="cls-59" d="M584.19,44.64l-.25-.17s-.86,1.28-.53,2l.26.13A2.68,2.68,0,0,1,584.19,44.64Z"/><path class="cls-84" d="M90.55,43.27a5,5,0,0,1,1.21,3.12,5,5,0,0,1-3.12-1.21,5,5,0,0,1-1.21-3.12A5,5,0,0,1,90.55,43.27Z"/><path class="cls-85" d="M90.64,44a3.23,3.23,0,0,1,.78,2,2.69,2.69,0,0,1-2.81-2.81A3.23,3.23,0,0,1,90.64,44Z"/><line class="cls-86" x1="91.75" y1="28.02" x2="91.75" y2="49.61"/><path class="cls-87" d="M101,26.17a8.39,8.39,0,0,0-2.83-1.73,8.39,8.39,0,0,0,1.58-2.91,8.39,8.39,0,0,0-3.31-.08,8.39,8.39,0,0,0-.08-3.31,8.39,8.39,0,0,0-2.91,1.58,8.39,8.39,0,0,0-1.73-2.83A8.39,8.39,0,0,0,90,19.73a8.39,8.39,0,0,0-2.91-1.58A8.39,8.39,0,0,0,87,21.46a8.39,8.39,0,0,0-3.31.08,8.39,8.39,0,0,0,1.58,2.91,8.39,8.39,0,0,0-2.83,1.73,8.39,8.39,0,0,0,2.83,1.73,8.39,8.39,0,0,0-1.58,2.91,8.39,8.39,0,0,0,3.31.08,8.39,8.39,0,0,0,.08,3.31A8.39,8.39,0,0,0,90,32.62a8.39,8.39,0,0,0,1.73,2.83,8.39,8.39,0,0,0,1.73-2.83,8.39,8.39,0,0,0,2.91,1.58,8.39,8.39,0,0,0,.08-3.31,8.39,8.39,0,0,0,3.31-.08A8.39,8.39,0,0,0,98.2,27.9,8.39,8.39,0,0,0,101,26.17Z"/><path class="cls-88" d="M98.28,26.17a5.91,5.91,0,0,0-2-1.22,5.91,5.91,0,0,0,1.11-2,5.91,5.91,0,0,0-2.33-.06A5.91,5.91,0,0,0,95,20.52a5.91,5.91,0,0,0-2,1.11,5.91,5.91,0,0,0-1.22-2,5.91,5.91,0,0,0-1.22,2,5.91,5.91,0,0,0-2-1.11,5.91,5.91,0,0,0-.06,2.33,5.91,5.91,0,0,0-2.33.06,5.91,5.91,0,0,0,1.11,2,5.91,5.91,0,0,0-2,1.22,5.91,5.91,0,0,0,2,1.22,5.91,5.91,0,0,0-1.11,2,5.91,5.91,0,0,0,2.33.06,5.91,5.91,0,0,0,.06,2.33,5.91,5.91,0,0,0,2-1.11,5.91,5.91,0,0,0,1.22,2,5.91,5.91,0,0,0,1.22-2,5.91,5.91,0,0,0,2,1.11,5.91,5.91,0,0,0,.06-2.33,5.91,5.91,0,0,0,2.33-.06,5.91,5.91,0,0,0-1.11-2A5.91,5.91,0,0,0,98.28,26.17Z"/><path class="cls-89" d="M95.81,26.17a3.67,3.67,0,0,0-1.24-.76,3.67,3.67,0,0,0,.69-1.27,3.67,3.67,0,0,0-1.45,0,3.67,3.67,0,0,0,0-1.45,3.67,3.67,0,0,0-1.27.69,3.67,3.67,0,0,0-.76-1.24A3.67,3.67,0,0,0,91,23.35a3.67,3.67,0,0,0-1.27-.69,3.67,3.67,0,0,0,0,1.45,3.67,3.67,0,0,0-1.45,0,3.67,3.67,0,0,0,.69,1.27,3.67,3.67,0,0,0-1.24.76,3.67,3.67,0,0,0,1.24.76,3.67,3.67,0,0,0-.69,1.27,3.67,3.67,0,0,0,1.45,0,3.67,3.67,0,0,0,0,1.45A3.67,3.67,0,0,0,91,29a3.67,3.67,0,0,0,.76,1.24A3.67,3.67,0,0,0,92.51,29a3.67,3.67,0,0,0,1.27.69,3.67,3.67,0,0,0,0-1.45,3.67,3.67,0,0,0,1.45,0,3.67,3.67,0,0,0-.69-1.27A3.67,3.67,0,0,0,95.81,26.17Z"/><path class="cls-84" d="M95.38,40.53a5.77,5.77,0,0,1-3.62,1.4,5.77,5.77,0,0,1,1.4-3.62,5.77,5.77,0,0,1,3.62-1.4A5.77,5.77,0,0,1,95.38,40.53Z"/><path class="cls-85" d="M94.36,40.79a3.87,3.87,0,0,1-2.43.94,3.23,3.23,0,0,1,3.37-3.37A3.87,3.87,0,0,1,94.36,40.79Z"/><circle class="cls-88" cx="91.75" cy="26.17" r="1.84"/><circle class="cls-87" cx="91.75" cy="26.17" r="1.09"/><ellipse class="cls-25" cx="91.69" cy="59.36" rx="11.41" ry="4.23"/><path class="cls-90" d="M84.6,49.38l1.59,8.89s.79,1.45,5.67,1.45,5.74-1.61,5.74-1.61l2.08-8.89Z"/><path class="cls-91" d="M84.75,50.16s4.53,3.28,14,3l.73-3.11S85.59,49,84.75,50.16Z"/><path class="cls-90" d="M101.52,48c-.26,2.85-.85,2.27-9.35,2.23-8.86,0-9.45.54-9.66-2.06s.3-2.11,9.66-2.06S101.71,45.88,101.52,48Z"/><path class="cls-92" d="M89.34,48.11c0,.54-1.36,1-3,1s-3.1,0-3-1,1.36-1,3-1S89.4,47,89.34,48.11Z"/><path class="cls-92" d="M91.4,58.44c-.12.39-1.19.47-2.43.16s-1.87-.46-2.07-1.28-.85-3.21.39-2.9S91.64,57.64,91.4,58.44Z"/><path class="cls-93" d="M500.71,29.17c0,7.46,7.84,13.51,17.5,13.51A21.74,21.74,0,0,0,526,41.26a34.37,34.37,0,0,0,6.14-3.95c1.2-1.22,8.06-2.66,8.32-3.7.33-1.33-4.78-3-4.78-4.44,0-7.46-7.84-13.51-17.5-13.51S500.71,21.71,500.71,29.17Z"/><circle class="cls-94" cx="517.08" cy="31.69" r="0.28"/><path class="cls-94" d="M517.06,18.21h0Z"/><path class="cls-94" d="M507.52,26a.29.29,0,0,0,.12-.57.18.18,0,0,1-.19.18.18.18,0,0,1-.15-.09.29.29,0,0,0,.22.48Z"/><path class="cls-94" d="M528.72,33.44c-.46-1.06,1.84-1.55.54-6-.76-2.63-3.76-4.92-7.26-6.22a1.17,1.17,0,0,1-.19-1.1c.16-.6,1.51-1.33,1.81-1.41a8.12,8.12,0,0,0-3.85,1.83l-.42-.09a17.34,17.34,0,0,0-3.67-1.19c-1.52-.32-2.73-.08-3.63-1.74a8.21,8.21,0,0,0-1,3.31l.43-.16c.3-.1.6-.21.91-.3s.62-.17.93-.23.62-.12.92-.16.59-.07.87-.08.54,0,.78,0,.46,0,.66,0l.5.05.43.07H516.2l-.34,0-.37,0-.39,0-.41.06-.43.07c-.29.05-.59.12-.89.19s-.61.15-.91.24-.6.18-.9.28l-.87.3-.09,0a21.72,21.72,0,0,0-6.32,4.8c-1,.91-1.63,1.67-.86,1.88s2.34.27,2.87,1a3.45,3.45,0,0,1-1.54.74c-.44.12-1.41.93-.3.88s2.91.65,5.11.91a18.79,18.79,0,0,0,5.06-.42,1.46,1.46,0,0,1,.85.37A10.29,10.29,0,0,0,518,33.28c.18-2.06.06-2.47-.25-2.78l-.06,0-.38.11-.55.14c-.69.17-1.16.23-1.16.23l.3-.12.8-.3.53-.2.59-.22.31-.12.32-.13.32-.13.32-.14.64-.28.63-.26c.41-.17.79-.31,1.13-.42l.24-.08.22-.06c.14,0,.26-.06.37-.08a1.94,1.94,0,0,1,.24,0h.08l-.08,0-.23.08-.34.14-.44.19-.14.06,0,0a9.3,9.3,0,0,0,3.1,1.56c-1.06-.52-2-1.19-1.82-1.45a8.47,8.47,0,0,0,.49-.77.2.2,0,0,0,0,0,5.38,5.38,0,0,1,2.5.06,3.06,3.06,0,0,1,2.15,2.92c-.14.81-.45,1.42-1.15,1.25s-2.94-.17-3.55.87c1.22-.08,2.48.88,4,.13.09,1.45,2.6,2.92,3,4.16C530.88,35.59,529.18,34.5,528.72,33.44Zm-21.19-8.49a.73.73,0,1,1-.74.72A.73.73,0,0,1,507.53,24.95Z"/><circle class="cls-95" cx="517.08" cy="31.69" r="0.28"/><path class="cls-95" d="M517.06,18.21h0Z"/><path class="cls-95" d="M507.52,26a.29.29,0,0,0,.12-.57.18.18,0,0,1-.19.18.18.18,0,0,1-.15-.09.29.29,0,0,0,.22.48Z"/><path class="cls-96" d="M528.72,33.44c-.46-1.06,1.84-1.55.54-6-.76-2.63-3.76-4.92-7.26-6.22a1.17,1.17,0,0,1-.19-1.1c.16-.6,1.51-1.33,1.81-1.41a8.12,8.12,0,0,0-3.85,1.83l-.42-.09a17.34,17.34,0,0,0-3.67-1.19c-1.52-.32-2.73-.08-3.63-1.74a8.21,8.21,0,0,0-1,3.31l.43-.16c.3-.1.6-.21.91-.3s.62-.17.93-.23.62-.12.92-.16.59-.07.87-.08.54,0,.78,0,.46,0,.66,0l.5.05.43.07H516.2l-.34,0-.37,0-.39,0-.41.06-.43.07c-.29.05-.59.12-.89.19s-.61.15-.91.24-.6.18-.9.28l-.87.3-.09,0a21.72,21.72,0,0,0-6.32,4.8c-1,.91-1.63,1.67-.86,1.88s2.34.27,2.87,1a3.45,3.45,0,0,1-1.54.74c-.44.12-1.41.93-.3.88s2.91.65,5.11.91a18.79,18.79,0,0,0,5.06-.42,1.46,1.46,0,0,1,.85.37A10.29,10.29,0,0,0,518,33.28c.18-2.06.06-2.47-.25-2.78l-.06,0-.38.11-.55.14c-.69.17-1.16.23-1.16.23l.3-.12.8-.3.53-.2.59-.22.31-.12.32-.13.32-.13.32-.14.64-.28.63-.26c.41-.17.79-.31,1.13-.42l.24-.08.22-.06c.14,0,.26-.06.37-.08a1.94,1.94,0,0,1,.24,0h.08l-.08,0-.23.08-.34.14-.44.19-.14.06,0,0a9.3,9.3,0,0,0,3.1,1.56c-1.06-.52-2-1.19-1.82-1.45a8.47,8.47,0,0,0,.49-.77.2.2,0,0,0,0,0,5.38,5.38,0,0,1,2.5.06,3.06,3.06,0,0,1,2.15,2.92c-.14.81-.45,1.42-1.15,1.25s-2.94-.17-3.55.87c1.22-.08,2.48.88,4,.13.09,1.45,2.6,2.92,3,4.16C530.88,35.59,529.18,34.5,528.72,33.44ZM511.3,22.74a8.15,8.15,0,0,1,.75.7c.15.15.3.33.45.52a6.8,6.8,0,0,1,.44.63,5.82,5.82,0,0,1,.39.73c.06.13.11.26.16.4s.09.27.12.41a3.9,3.9,0,0,1,.08.43,3.59,3.59,0,0,1,0,.43c0,.14,0,.28,0,.42s0,.28-.06.41a3.88,3.88,0,0,1-.23.74c-.05.11-.1.22-.15.33l-.17.29-.17.25-.08.11-.09.1c-.11.13-.2.25-.3.33l-.28.27.24-.3c.08-.09.16-.22.26-.36l.07-.11.07-.12.15-.26.14-.29c0-.1.08-.21.13-.32a4.31,4.31,0,0,0,.19-.72c0-.13,0-.26,0-.39s0-.13,0-.2a1.6,1.6,0,0,0,0-.2,3.41,3.41,0,0,0,0-.4,3.79,3.79,0,0,0-.08-.4c0-.13-.07-.26-.11-.39s-.09-.26-.15-.38a6.63,6.63,0,0,0-.35-.71c-.13-.22-.26-.44-.4-.63s-.28-.37-.41-.54l-.37-.43-.3-.32L511,22.5S511.11,22.58,511.3,22.74Zm-3.77,2.21a.73.73,0,1,1-.74.72A.73.73,0,0,1,507.53,24.95Zm11.1,3.94h0l0,0-.1.05-.37.18c-.32.14-.77.34-1.33.54l-.9.3-1,.3-1.09.28a11.42,11.42,0,0,1-1.16.23,12.66,12.66,0,0,1-2.3.1,14.77,14.77,0,0,1-2-.23c-.58-.11-1-.23-1.37-.33l-.51-.16.52.14c.33.08.81.18,1.38.26a14.63,14.63,0,0,0,2,.13,12.4,12.4,0,0,0,2.25-.21,10.87,10.87,0,0,0,1.11-.28l1.07-.34,1-.35.87-.35c.53-.22,1-.43,1.26-.59l.33-.18.08,0,0,0h0a.32.32,0,1,1,.34.54ZM520.37,25a.39.39,0,0,1-.12.16,1,1,0,0,1-.25.14l-.42.19-.8.37c-.26.11-.5.23-.73.31l-.33.12-.16.06h-.08l-.07,0-.14,0-.14,0h-.24a1.65,1.65,0,0,1-.33,0l-.11,0,.12,0h.33l.23,0,.13,0,.14,0,.07,0h0l0,0,.15-.07L518,26l.34-.18.36-.19.78-.42.42-.21a.66.66,0,0,0,.16-.1h0l-.09,0-.11,0-.11,0-.23-.06-.23,0-.47-.08-.24,0-.24,0-.47,0h-.45a6.18,6.18,0,0,0-.86.07c-.27,0-.53.09-.77.15-.47.11-.86.23-1.13.31l-.43.14.1-.06.3-.15.47-.21c.19-.07.4-.16.63-.23a7.18,7.18,0,0,1,.77-.21,5.23,5.23,0,0,1,.89-.12h.71l.24,0,.25,0,.25,0,.49.07.25.05.24.06.12,0,.12,0,.13.06a.41.41,0,0,1,.15.11l0,.05a.26.26,0,0,1,0,.07A.28.28,0,0,1,520.37,25Zm8.23,2.89a6,6,0,0,0-.52-1l-.16-.24-.19-.24c-.12-.16-.26-.31-.4-.47s-.15-.15-.22-.23l-.23-.22c-.17-.14-.32-.29-.5-.42l-.26-.21-.27-.19c-.18-.13-.37-.25-.56-.37-.39-.23-.77-.46-1.17-.65s-.79-.37-1.18-.53-.77-.3-1.14-.42-.72-.23-1-.32l-.89-.22-.69-.14-.44-.07-.16,0h0a.38.38,0,1,1,.09-.76h0l.16,0,.47.1.71.18.91.28c.33.11.68.24,1.05.38s.76.31,1.15.49.79.38,1.19.61.79.47,1.17.73c.19.14.38.27.56.41l.27.21.26.23c.17.15.33.31.49.46l.23.24c.07.08.15.16.22.25s.27.33.39.51l.18.25.15.26a6.17,6.17,0,0,1,.48,1l0,.12,0,.12.07.23a3.67,3.67,0,0,1,.1.43,6,6,0,0,1,.1.71c0,.2,0,.36,0,.46v0c0-.11,0-.26,0-.46a5.94,5.94,0,0,0-.14-.7,3.58,3.58,0,0,0-.12-.42l-.08-.22,0-.12Z"/><path class="cls-97" d="M539.38,55c0,7.8,6.56,11.21,14.66,11.32,11.63.15,14.66-8.76,14.66-11.32,0-1.51,4.47-5.86,4-6.53-.36-.48-6.29.32-7.16-.51A16.53,16.53,0,0,0,554,43.66C545.94,43.66,539.38,48.73,539.38,55Z"/><path class="cls-98" d="M559.33,56.94a5.5,5.5,0,0,1-11,0c0-4.89,1.83-9.17,5.5-9.17C557,47.78,559.33,52.67,559.33,56.94Z"/><path class="cls-99" d="M556.92,49.52a13.38,13.38,0,0,1,1.18,5.42,5.5,5.5,0,0,1-9.48,3.79,5.5,5.5,0,0,0,10.7-1.79A12.43,12.43,0,0,0,556.92,49.52Z"/><path class="cls-100" d="M613.34,28.54c0,1.5-4.83,4.34-4.49,5.5.18.64,6.55.74,7.31,1.62,3,3.39,8,5.62,13.68,5.62a20.5,20.5,0,0,0,7.38-1.34A32.41,32.41,0,0,0,643,36.22a11,11,0,0,0,3.33-7.67c0-7-7.39-12.74-16.5-12.74S613.34,21.51,613.34,28.54Z"/><path class="cls-101" d="M641.61,27.68c0,1.05-.54,2.17-2,3.26-3.23,2.34-5.34-.82-10.47-.82-2.36,0-8.85,2.63-10.44.86a3.07,3.07,0,0,1-.63-1.23V32a2.07,2.07,0,0,0,.63,1.21c1.59,1.76,8.08-.86,10.44-.86,5.13,0,7.24,3.16,10.47.82a4.25,4.25,0,0,0,2-3Z"/><path class="cls-101" d="M640,30.6a7.69,7.69,0,0,1-2.6,1.13,5.65,5.65,0,0,1-1.53-.08c-.4-.07-.75-.41-1.13-.55a25.83,25.83,0,0,0-3-.54,6.62,6.62,0,0,0-2.66-.23c-.95.14-1.94.07-2.87.24s-1.84.57-2.79.73c-1.7.29-4.24,1.09-5.29-.83a.1.1,0,0,0-.19.08c.32,1.28,1.92,1.72,3.08,1.66.48,0,1-.19,1.44-.25a12.65,12.65,0,0,0,1.77-.24c.51-.13,1-.32,1.52-.47a8.42,8.42,0,0,1,2.12-.17,8.61,8.61,0,0,0,1.37-.21,5.23,5.23,0,0,1,2.37.22,29,29,0,0,0,3.58.86C639.89,32.6,640.29,30.46,640,30.6Z"/><path class="cls-102" d="M629.63,21.41a11,11,0,0,1,7.86,1.16c1.94,1.13,6.9,4.87,2.07,8.37-3.23,2.34-5.34-.82-10.47-.82-2.36,0-8.85,2.63-10.44.86s-.32-2.75,4.47-6.18C626.58,22.34,627.85,21.84,629.63,21.41Z"/><path class="cls-103" d="M630.29,21.78a6.39,6.39,0,0,1,4.07.36,8.51,8.51,0,0,0-2.05.47c-1.6.62-1.2,1.74-1.79,1.74a8.94,8.94,0,0,0-2.13-.62c-1.22-.14-2.89.37-1.55-.34C628.71,22.38,629.07,22,630.29,21.78Z"/><path class="cls-104" d="M633.57,21.94a2.79,2.79,0,0,0-1.57-.21,13.5,13.5,0,0,0-2,.14,6.53,6.53,0,0,0-1.77.81c-.48.27-1,.47-1.45.79h-.06a.13.13,0,0,0-.12.13h0c-.06,0,0,.14.07.13a.16.16,0,0,0,.16.06,5.11,5.11,0,0,1,2.29,0c.37.1.89.41,1.29.33s.46-.28.64-.53a3.23,3.23,0,0,1,2.5-1.47C633.61,22.14,633.67,22,633.57,21.94ZM631,23.27c-.7.91-1.5.3-2.41.13a4.4,4.4,0,0,0-1.35,0c.63-.35,1.35-.63,2-.93A6.79,6.79,0,0,1,633,22,3.24,3.24,0,0,0,631,23.27ZM631.8,22c-1.15,0-2.12.92-3.25.93a0,0,0,0,0,0,.08h0a.13.13,0,0,0,.06.2,3.48,3.48,0,0,0,1.56.2c.69-.12.92-1.05,1.62-1.22A.1.1,0,0,0,631.8,22Zm-1.1,1c-.45.54-1.22.28-1.82.07a3.32,3.32,0,0,0,.83-.23,11.65,11.65,0,0,1,1.61-.55A5.15,5.15,0,0,0,630.7,23Zm-.95.09c0-.11.14-.15.23-.19l.22-.13a1.13,1.13,0,0,1,.17-.12c.07,0,.16,0,.13.1s-.23.23-.36.3a1.24,1.24,0,0,1-.32.12A.06.06,0,0,1,629.75,23.08Z"/><path class="cls-103" d="M633.4,22.6a7.42,7.42,0,0,1,5.35,1.77c.86.72,2.83,3.18.75,5.32s-5.78-.13-8.89-.59a2.9,2.9,0,0,0,.84-3.36C630.9,24.23,632.75,22.6,633.4,22.6Z"/><path class="cls-104" d="M636.18,23.43l-.07-.05c-1.29-.53-3.13-.91-4.05.41-1,1.49.31,3.46-1,4.87a.28.28,0,0,0,.2.47,9.83,9.83,0,0,1,3.31.63,8.25,8.25,0,0,0,2.71.65,2.92,2.92,0,0,0,3-2.78C640.36,25.44,638.32,24,636.18,23.43Zm2.38,6.27c-.9.56-2.08.17-3-.14a15.6,15.6,0,0,0-3.8-1,4.67,4.67,0,0,0,.41-2.93,2,2,0,0,1,1-2.17,2.3,2.3,0,0,1,1.12-.07c2.24.44,4.68,1.38,5.34,3.73A2.46,2.46,0,0,1,638.57,29.71Zm-.84-4.36c-1-.69-2.77-1.63-4.05-1.39a1,1,0,0,0-.9.92,2.84,2.84,0,0,0,.15,1.17,4.51,4.51,0,0,1,.17,1.81.09.09,0,0,0,0,0,.16.16,0,0,0,.14.21,17.25,17.25,0,0,1,1.88.13,12.26,12.26,0,0,1,1.7.59,1.67,1.67,0,0,0,1.75-.25C639.6,27.67,638.58,25.93,637.72,25.35Zm1,1.57c.51,1.28-.75,1.89-1.8,1.56-1.24-.39-2.23-.93-3.56-.69a.06.06,0,0,0-.08,0c1.13-.57-1.07-2.87.35-3.37.89-.32,2.47.47,3.26.83A3.51,3.51,0,0,1,638.71,26.91Zm-4.46-2.13c-.87.14.08,1.62.27,2.08a.37.37,0,0,0-.09.19.14.14,0,0,0,.21.16c.35-.22,1,.17,1.43.21a3.1,3.1,0,0,0,1.7-.2.16.16,0,0,0,.06-.21C637.2,25.89,635.65,24.56,634.25,24.78Zm1.82.82A4,4,0,0,1,637.47,27a3,3,0,0,1-1.94-.08,1.94,1.94,0,0,0-.78-.18c-.14-.45-.66-1.55-.42-1.63C634.84,24.94,635.67,25.37,636.07,25.6Zm-1,.31,0,0a.46.46,0,0,0,.2.55,1.14,1.14,0,0,0,.69.15.35.35,0,0,0,.36-.28.69.69,0,0,0-.18-.46c-.19-.25-.56-.6-.9-.54a.3.3,0,0,0-.25.37A.39.39,0,0,0,635.07,25.91Zm.22-.28a1.2,1.2,0,0,1,.56.4.76.76,0,0,1,.15.23c0,.1,0,.1-.11.11a.69.69,0,0,1-.43-.09.28.28,0,0,1-.11-.16l.06.05s.12,0,.09-.07S635.07,25.6,635.3,25.64Zm2,3.56c.12.09.05.3-.1.25-.53-.17-1.08-.16-1.61-.31a8.4,8.4,0,0,0-1.64-.58.08.08,0,0,1,0-.17,8.19,8.19,0,0,1,1.72.43A3.57,3.57,0,0,1,637.25,29.19Zm.76-2.07c0-.15.23-.2.27,0a.85.85,0,0,1-.64,1.08,6.41,6.41,0,0,1-1.62,0,.11.11,0,0,1,0-.23c.4,0,.79,0,1.19,0S638,27.65,638,27.12Z"/><path class="cls-103" d="M626.46,24.37c2.77-.14,3.16.24,3.89,1s2.18,3.83-4.39,4.35c-1.88.15-5.72,1.31-6.53.44s.67-2.15,3-3.89A8.6,8.6,0,0,1,626.46,24.37Z"/><path class="cls-104" d="M630.42,25.9c-.92-1.65-2.79-1.76-4.46-1.24a9.33,9.33,0,0,0-3.52,1.8c-.93.72-2.61,1.45-3,2.69-.24.87.28,1.3,1.1,1.39a6.59,6.59,0,0,0,2.28-.39,18.75,18.75,0,0,1,3.08-.36C627.93,29.63,632,28.78,630.42,25.9ZM630.12,28a1.84,1.84,0,0,0-.67-2.33c-.79-.6-3.09-1.1-3.81-.18a.06.06,0,0,0,.06.11,5.58,5.58,0,0,1,2.88,0,1.74,1.74,0,0,1,.92,2.92.08.08,0,0,0,0,.09,3.33,3.33,0,0,1-.75.38,14.05,14.05,0,0,1-3.86.49,13.2,13.2,0,0,0-2.75.43c-.5.14-2,.58-2.27-.16-.23-.57.55-1.28.91-1.61a26,26,0,0,1,2.42-1.76,12.06,12.06,0,0,1,3.17-1.47,3.38,3.38,0,0,1,3.78,1.23A1.51,1.51,0,0,1,630.12,28Zm-8.95.7a.16.16,0,0,0-.08.1v0l-.13.2a0,0,0,0,0,.07.05l0,0c.1.77,2.17.35,2.58.29,1.77-.27,4.37,0,5.62-1.5,1.12-1.36-1.21-2.38-2.25-2.24C625.06,25.83,622.39,27,621.17,28.66Zm6.16-2.88c1.43-.11,2.7,1.33,1.27,2.38-1.09.79-2.56.64-3.85.74.45-.05.89-.12,1.32-.18a3.21,3.21,0,0,0,2.38-1.1c1.07-1.62-2.18-1.49-2.9-1.22a11.9,11.9,0,0,0-1.82,1,7.08,7.08,0,0,0-.73.43,1.19,1.19,0,0,0-.54.39c-.29.4.38.71.65.74a7.6,7.6,0,0,0,1.3,0h-.08c-.38.05-2.87.53-2.93-.14a.18.18,0,0,0,0-.06,12.81,12.81,0,0,1,3.75-2.44A7.89,7.89,0,0,1,627.33,25.78ZM624,27.61h-.11l.9-.53a3.6,3.6,0,0,1,3.29-.48c.82.37-.07,1.18-.34,1.36a3.45,3.45,0,0,1-1.08.34,11,11,0,0,1-2.33.25l-.56,0c-.06,0-1-.13-.79-.27a5.4,5.4,0,0,1,1.09-.47A.12.12,0,0,0,624,27.61Zm.42.68c.69-.05,3.81,0,3.13-1.34-.37-.76-1.46-.29-2,0-.09,0-1.24.74-1.22,1C624.18,28.07,624.23,28.3,624.4,28.29Zm1.27-1.11c.33-.16,1.85-.76,1.66.18-.09.48-1.26.52-1.6.54l-.64,0c.18-.1.36-.21.53-.33a.87.87,0,0,0,1.26-.36c.07-.21-.17-.23-.3-.19l-.12,0a1.47,1.47,0,0,0-.88.22.13.13,0,0,0-.06.07,4.09,4.09,0,0,0-.86.37A5,5,0,0,1,625.67,27.18Zm.48.32.26-.15h0l.12,0,.05,0h0A.67.67,0,0,1,626.15,27.51Z"/><path class="cls-105" d="M646.88,53.55c0,1-5.71.28-5.55,1.23s7,4.2,7.9,5.33c2.89,3.71,8.14,6.19,14.15,6.19a20.5,20.5,0,0,0,7.38-1.34,32.41,32.41,0,0,0,5.79-3.72,11,11,0,0,0,3.33-7.67c0-7-7.39-12.74-16.5-12.74S646.88,46.52,646.88,53.55Z"/><path class="cls-106" d="M658.63,45.74A2,2,0,0,0,658,47a1.88,1.88,0,0,0,1.63,2.11h0A1.49,1.49,0,0,0,661,50.23a1.47,1.47,0,0,0,1.6-.92h0a1.3,1.3,0,0,0,.52.17,1.06,1.06,0,0,0,1.23-.83.82.82,0,0,0,0-.22,2.92,2.92,0,0,0,.48-.64,1.22,1.22,0,0,0,.31-.72,1.48,1.48,0,0,0,0-.18c0-.06,0-.12,0-.18a2.9,2.9,0,0,0,0-.34,1.39,1.39,0,0,0,.82-1.07,1.73,1.73,0,0,0-1.73-1.69,2.33,2.33,0,0,0-.88.07l-.28-.11a1.29,1.29,0,0,0-1.08-.73,1.32,1.32,0,0,0-1.17.42.79.79,0,0,0-.3-.1,1,1,0,0,0-1,.81,1.2,1.2,0,0,0-1.39.91A1,1,0,0,0,658.63,45.74Z"/><path class="cls-106" d="M672.71,49.56a2,2,0,0,0-.64-1.22,1.88,1.88,0,0,0-2.66.09l0,0a1.49,1.49,0,0,0-1.72.43,1.47,1.47,0,0,0-.18,1.84l0,0a1.3,1.3,0,0,0-.44.32,1.06,1.06,0,0,0,0,1.49.82.82,0,0,0,.18.12,2.93,2.93,0,0,0,.24.77,1.22,1.22,0,0,0,.4.67l.14.11.13.13.26.21a1.39,1.39,0,0,0,.39,1.29,1.73,1.73,0,0,0,2.38-.42,2.33,2.33,0,0,0,.46-.76l.26-.16a1.29,1.29,0,0,0,1.23-.45,1.32,1.32,0,0,0,.34-1.19.79.79,0,0,0,.26-.19,1,1,0,0,0-.07-1.28,1.2,1.2,0,0,0,.07-1.66A1,1,0,0,0,672.71,49.56Z"/><polygon class="cls-107" points="660.07 63.46 657.45 62.14 662.59 51.89 665.22 53.21 660.07 63.46"/><polygon class="cls-108" points="658.71 62.77 657.4 62.11 662.54 51.86 663.85 52.52 658.71 62.77"/><rect class="cls-108" x="658.45" y="49.37" width="1.55" height="9.93" transform="translate(-1.94 74.15) rotate(-6.43)"/><polygon class="cls-107" points="661.16 61.05 660.32 59.71 668.29 53.77 669.17 55.14 661.16 61.05"/><path class="cls-109" d="M670,51.66a3.93,3.93,0,0,0,.29-.71,1.11,1.11,0,0,0,1.08-.34,1.2,1.2,0,0,0-.19-1.64c.56-.88.07-2.36-1.17-3.41a4,4,0,0,0-2.14-1,1.57,1.57,0,0,0-.5-.74,1.18,1.18,0,0,0-1.63-.1.9.9,0,0,0-.14.85l-.4,0a1.52,1.52,0,0,0-2.09.12,1.31,1.31,0,0,0-.28.57,3.87,3.87,0,0,0-1.29,1.43,1.48,1.48,0,0,0-1.32.49,1.58,1.58,0,0,0,.28,2.21,1.75,1.75,0,0,0,.66.35,1.14,1.14,0,0,0-.3.25,1.9,1.9,0,0,0,.62,2.55,2.16,2.16,0,0,0,2.25.48l.22.12a1.68,1.68,0,0,0,.41.52,1.63,1.63,0,0,0,1.37.37,2.67,2.67,0,0,0,.33.34,2.5,2.5,0,0,0,3.53-.22A2.44,2.44,0,0,0,670,51.66Z"/><ellipse class="cls-110" cx="662.63" cy="47.2" rx="0.82" ry="0.99" transform="translate(322.63 617.91) rotate(-63.29)"/><path class="cls-110" d="M659.93,48.61a3.11,3.11,0,0,1,2.14.26,3.28,3.28,0,0,1,.35.21c.28-.23.26-.61.63-.65-.6-.55-1-1.41-.62-2,1-1.49,2.06-.87,3-.38a2.28,2.28,0,0,1,.49.33,2,2,0,0,1,2.33-.23,2.34,2.34,0,0,1,1,1,2.68,2.68,0,0,1,1.84,0A4.22,4.22,0,0,0,670,45.54a4,4,0,0,0-2.14-1,1.57,1.57,0,0,0-.5-.74,1.18,1.18,0,0,0-1.63-.1.9.9,0,0,0-.14.85l-.4,0a1.52,1.52,0,0,0-2.09.12,1.31,1.31,0,0,0-.28.57,3.86,3.86,0,0,0-1.29,1.43,1.44,1.44,0,0,0-1.57,1.94Z"/><path class="cls-110" d="M661.1,52.1a1.87,1.87,0,0,0,1.3-.22,1.8,1.8,0,0,0,.71-2.44l0,0a1.42,1.42,0,0,0,.12-1.68A1.4,1.4,0,0,0,661.6,47l0,0a1.24,1.24,0,0,0-.16-.49,1,1,0,0,0-1.33-.48.79.79,0,0,0-.16.13,2.8,2.8,0,0,0-.76,0,1.16,1.16,0,0,0-.73.17l-.14.09-.16.08-.27.18a1.32,1.32,0,0,0-1.28,0,1.65,1.65,0,0,0-.33,2.28,2.22,2.22,0,0,0,.55.64q0,.14.07.28a1.23,1.23,0,0,0,0,1.25,1.26,1.26,0,0,0,1,.66A.76.76,0,0,0,658,52a.93.93,0,0,0,1.18.31,1.15,1.15,0,0,0,1.48.56A1,1,0,0,0,661.1,52.1Z"/><path class="cls-110" d="M663.9,53.93l0,0a1.49,1.49,0,0,0,.15,1.76,1.57,1.57,0,0,0,1.29.61.71.71,0,0,0,.47.47.72.72,0,0,0,.29,0,2.43,2.43,0,0,0,1.54,1.43,2.28,2.28,0,0,0,2.92-1.36l0-.11c.63.11,1.18-.08,1.31-.48a.92.92,0,0,0-.46-1,1.71,1.71,0,0,0,0-1.28.83.83,0,0,0,.36-.46.91.91,0,0,0-.54-1.09h0c.23-.72-.4-1.56-1.4-1.88a2.46,2.46,0,0,0-1.05-.11l-.08-.12a1,1,0,0,0-1.28-.13,1.2,1.2,0,0,0-1.63-.34,1,1,0,0,0-.33.89,2,2,0,0,0-1.31.44A1.88,1.88,0,0,0,663.9,53.93Z"/><path class="cls-111" d="M663.13,49.45l0,0a1.42,1.42,0,0,0,.12-1.68,1.4,1.4,0,0,0-1.61-.71l0,0a1.24,1.24,0,0,0-.16-.49,1,1,0,0,0-1.33-.48.78.78,0,0,0-.16.13,2.79,2.79,0,0,0-.76,0,1.16,1.16,0,0,0-.73.17l-.14.09-.16.08-.27.18a1.32,1.32,0,0,0-1.28,0,1.65,1.65,0,0,0-.33,2.28l.07.12.21-.14a.82.82,0,0,1,0-.74.94.94,0,0,1,1.29-.33,1.14,1.14,0,0,1,.28.2,1.11,1.11,0,0,1,1,0,1.23,1.23,0,0,1,.51.46.7.7,0,0,1,.58,0,.72.72,0,0,1,.32.31l0-.07a.72.72,0,0,1-.21-.84.86.86,0,0,1,1.18-.28,1,1,0,0,1,.45.43l.1,0a.49.49,0,0,1,.26.58,1.4,1.4,0,0,1,.54,1.79l0,.07a1.19,1.19,0,0,1,.26.09l.17.1A1.72,1.72,0,0,0,663.13,49.45Z"/><ellipse class="cls-110" cx="658.29" cy="47.8" rx="0.42" ry="0.51" transform="translate(505.07 689.79) rotate(-80.73)"/><ellipse class="cls-111" cx="659.13" cy="49.16" rx="0.22" ry="0.28" transform="translate(319.06 615.93) rotate(-63.3)"/><ellipse class="cls-111" cx="661.8" cy="49.22" rx="0.2" ry="0.26" transform="translate(320.48 618.35) rotate(-63.3)"/><ellipse class="cls-110" cx="662.54" cy="48.91" rx="0.29" ry="0.3" transform="translate(321.09 618.79) rotate(-63.29)"/><ellipse class="cls-111" cx="660.69" cy="48.55" rx="0.41" ry="0.42" transform="translate(320.39 616.94) rotate(-63.29)"/><ellipse class="cls-111" cx="658.01" cy="49.56" rx="0.47" ry="0.55" transform="translate(317.91 615.04) rotate(-63.28)"/><ellipse class="cls-111" cx="657.23" cy="50.36" rx="0.21" ry="0.21" transform="translate(317.02 614.94) rotate(-63.31)"/><circle class="cls-111" cx="657.15" cy="48.61" r="0.19" transform="translate(318.42 613.83) rotate(-63.3)"/><ellipse class="cls-111" cx="660.18" cy="49.79" rx="0.31" ry="0.32" transform="translate(318.91 617.11) rotate(-63.28)"/><ellipse class="cls-111" cx="659.17" cy="50.16" rx="0.17" ry="0.21" transform="translate(318.08 616.45) rotate(-63.29)"/><path class="cls-111" d="M671.33,52.51h0c.23-.72-.4-1.56-1.4-1.88a2.46,2.46,0,0,0-1.05-.11l-.08-.12a1,1,0,0,0-1.28-.13,1.2,1.2,0,0,0-1.63-.34,1,1,0,0,0-.33.89,2,2,0,0,0-1.31.44,1.89,1.89,0,0,0-.34,2.64l0,0a1.33,1.33,0,0,0-.21.92,1,1,0,0,1,.81-.31,1.52,1.52,0,0,1,.16-.54,1.49,1.49,0,0,1,.59-.63,1,1,0,0,1,0-.85,1,1,0,0,1,1.31-.48.9.9,0,0,1,.31.26,1.64,1.64,0,0,1,1.44-.11,1,1,0,0,1,1,0,1,1,0,0,1,.57.73,1.92,1.92,0,0,1,1.69.13l.19.11A1,1,0,0,0,671.33,52.51Z"/><circle class="cls-111" cx="667.19" cy="52.54" r="0.53" transform="translate(320.38 624.92) rotate(-63.29)"/><ellipse class="cls-111" cx="669.11" cy="53.37" rx="0.22" ry="0.25" transform="translate(320.61 627.05) rotate(-63.28)"/><ellipse class="cls-110" cx="664.8" cy="52.99" rx="0.63" ry="0.65" transform="translate(318.63 623.02) rotate(-63.29)"/><ellipse class="cls-111" cx="664.77" cy="54.31" rx="0.35" ry="0.39" transform="translate(317.38 623.69) rotate(-63.28)"/><ellipse class="cls-111" cx="670.46" cy="52.85" rx="0.45" ry="0.52" transform="translate(321.85 627.99) rotate(-63.29)"/><ellipse class="cls-111" cx="667.76" cy="53.8" rx="0.21" ry="0.16" transform="translate(319.39 626.03) rotate(-63.27)"/><circle class="cls-110" cx="668.64" cy="52.09" r="0.38" transform="translate(321.47 625.91) rotate(-63.28)"/><ellipse class="cls-111" cx="666.11" cy="53.74" rx="0.44" ry="0.46" transform="translate(318.77 624.66) rotate(-63.3)"/><ellipse class="cls-110" cx="666.21" cy="51.76" rx="0.47" ry="0.49" transform="translate(320.57 623.64) rotate(-63.29)"/><ellipse class="cls-111" cx="669.16" cy="54.5" rx="0.37" ry="0.42" transform="translate(319.61 627.7) rotate(-63.28)"/><ellipse class="cls-112" cx="660.42" cy="46.92" rx="0.33" ry="0.42" transform="translate(321.6 615.74) rotate(-63.28)"/><ellipse class="cls-112" cx="659.87" cy="47.86" rx="0.21" ry="0.23" transform="translate(320.32 615.69) rotate(-63.27)"/><ellipse class="cls-112" cx="659.15" cy="46.91" rx="0.23" ry="0.26" transform="translate(320.95 614.63) rotate(-63.29)"/><ellipse class="cls-112" cx="662.28" cy="47.85" rx="0.17" ry="0.19" transform="translate(321.86 617.96) rotate(-63.29)"/><ellipse class="cls-112" cx="657.36" cy="47.03" rx="0.14" ry="0.12" transform="translate(319.47 612.86) rotate(-63.25)"/><ellipse class="cls-112" cx="667.76" cy="51.14" rx="0.31" ry="0.3" transform="translate(321.87 624.62) rotate(-63.28)"/><ellipse class="cls-112" cx="665.22" cy="51.43" rx="0.13" ry="0.13" transform="translate(320.34 622.59) rotate(-63.3)"/><ellipse class="cls-112" cx="664.51" cy="51.88" rx="0.23" ry="0.22" transform="translate(319.51 622.18) rotate(-63.29)"/><ellipse class="cls-112" cx="669.59" cy="51.62" rx="0.25" ry="0.25" transform="translate(322.44 626.51) rotate(-63.28)"/><ellipse class="cls-112" cx="667.04" cy="50.5" rx="0.14" ry="0.17" transform="translate(322.35 623.81) rotate(-63.31)"/><ellipse class="cls-112" cx="670.55" cy="52.39" rx="0.26" ry="0.29" transform="translate(322.22 627.76) rotate(-63.28)"/><ellipse class="cls-112" cx="670.36" cy="51.4" rx="0.12" ry="0.11" transform="translate(323.14 627.13) rotate(-63.29)"/><ellipse class="cls-112" cx="666.34" cy="50.96" rx="0.13" ry="0.11" transform="translate(321.28 623.28) rotate(-63.29)"/><ellipse class="cls-109" cx="665.68" cy="46.43" rx="0.59" ry="0.72" transform="translate(324.98 620.19) rotate(-63.29)"/><ellipse class="cls-110" cx="664.47" cy="47.33" rx="0.28" ry="0.31" transform="translate(323.52 619.62) rotate(-63.29)"/><ellipse class="cls-110" cx="667.43" cy="47.44" rx="0.47" ry="0.5" transform="translate(325.06 622.33) rotate(-63.29)"/><ellipse class="cls-110" cx="663.59" cy="45.75" rx="0.56" ry="0.49" transform="translate(324.49 617.98) rotate(-63.29)"/><circle class="cls-110" cx="669.02" cy="48.51" r="0.35" transform="translate(324.92 624.3) rotate(-63.28)"/><circle class="cls-110" cx="665.85" cy="48.63" r="0.27" transform="translate(323.05 621.53) rotate(-63.28)"/><ellipse class="cls-113" cx="659.42" cy="45.03" rx="0.5" ry="0.6" transform="translate(322.75 613.82) rotate(-63.28)"/><ellipse class="cls-113" cx="660.54" cy="45.04" rx="0.3" ry="0.27" transform="translate(323.27 614.77) rotate(-63.28)"/><ellipse class="cls-113" cx="662.02" cy="43.89" rx="0.4" ry="0.48" transform="translate(325.2 615.51) rotate(-63.28)"/><ellipse class="cls-113" cx="661.51" cy="44.13" rx="0.18" ry="0.28" transform="translate(324.71 615.19) rotate(-63.28)"/><ellipse class="cls-113" cx="672.98" cy="50.67" rx="0.39" ry="0.44" transform="translate(325.29 629.1) rotate(-63.3)"/><ellipse class="cls-113" cx="673.14" cy="51.92" rx="0.21" ry="0.26" transform="translate(324.02 629.79) rotate(-63.27)"/><ellipse class="cls-113" cx="672.71" cy="52.41" rx="0.45" ry="0.42" transform="translate(323.47 629.75) rotate(-63.28)"/></g></g></svg>