<svg xmlns="http://www.w3.org/2000/svg" xmlns:xlink="http://www.w3.org/1999/xlink" viewBox="0 0 1024 80"><defs><style>.cls-1{fill:#0d3170;}.cls-2{isolation:isolate;}.cls-3{fill:#001b4d;stroke:#231815;}.cls-3,.cls-5,.cls-7{stroke-miterlimit:10;}.cls-4{fill:url(#linear-gradient);}.cls-5{fill:#001f4c;stroke:#002582;}.cls-29,.cls-30,.cls-31,.cls-32,.cls-33,.cls-34,.cls-35,.cls-36,.cls-37,.cls-38,.cls-39,.cls-40,.cls-41,.cls-42,.cls-43,.cls-44,.cls-45,.cls-46,.cls-47,.cls-48,.cls-49,.cls-5,.cls-50,.cls-51,.cls-52,.cls-53{fill-rule:evenodd;}.cls-6,.cls-61,.cls-62,.cls-9{opacity:0.3;}.cls-54,.cls-7{fill:none;}.cls-7{stroke:#fff;mix-blend-mode:overlay;}.cls-8{fill:url(#linear-gradient-2);}.cls-9{fill:url(#linear-gradient-3);}.cls-10{fill:#071435;}.cls-11{fill:#53822a;}.cls-12{fill:#15667c;}.cls-13{fill:#084e5e;}.cls-14{fill:#1d8299;}.cls-15,.cls-58{fill:#7c4dff;}.cls-16,.cls-60{fill:#00e03a;}.cls-17,.cls-59{fill:#ffe812;}.cls-18{fill:#ef6f20;}.cls-19{fill:#f5981b;}.cls-20{fill:#43a9de;}.cls-21{fill:#499ecc;}.cls-22{fill:#009b4f;}.cls-23{fill:#35904d;}.cls-24{fill:#7b828a;}.cls-25{fill:#80888f;}.cls-26{fill:#891c80;}.cls-27{fill:#85297b;}.cls-28{fill:#ea2f35;}.cls-29{fill:#efdfd5;}.cls-30{fill:#f98e75;}.cls-31{fill:#e2e2e2;}.cls-32{fill:#00676a;}.cls-33{fill:#c19785;}.cls-34{fill:#275883;}.cls-35,.cls-57{fill:#fff;}.cls-36{fill:#e6dfe7;}.cls-37{fill:#cbb8a8;}.cls-38{fill:#eeddcf;}.cls-39{fill:#645a52;}.cls-40{fill:#9a714d;}.cls-41{fill:#835934;}.cls-42{fill:#2f3f5b;}.cls-43{fill:#004949;}.cls-44{fill:#67a2f9;}.cls-45{fill:#2c7dff;}.cls-46{fill:#2d6fa0;}.cls-47{fill:#006ac1;}.cls-48{fill:#005b99;}.cls-49{fill:#0c90a5;}.cls-50{fill:#065d66;}.cls-51{fill:#e9dfdf;}.cls-52{fill:#194768;}.cls-53{fill:#ff0037;}.cls-54{stroke:#3f1e15;stroke-linecap:round;stroke-linejoin:round;stroke-width:0.5px;}.cls-55{fill:#bebebe;}.cls-56{fill:#ffe500;}.cls-58,.cls-59,.cls-60{font-size:10px;font-family:FZY4JW--GB1-0, FZY4JW -GB1-0;}.cls-61{fill:url(#linear-gradient-4);}.cls-62{fill:url(#linear-gradient-5);}.cls-63{clip-path:url(#clip-path);}</style><linearGradient id="linear-gradient" x1="54.33" y1="9.37" x2="54.33" y2="54.19" gradientUnits="userSpaceOnUse"><stop offset="0" stop-color="#071636"/><stop offset="1" stop-color="#073b93"/></linearGradient><linearGradient id="linear-gradient-2" x1="962.33" y1="14.75" x2="962.33" y2="54.75" xlink:href="#linear-gradient"/><linearGradient id="linear-gradient-3" x1="508.21" y1="53.8" x2="508.21" y2="4.2" gradientUnits="userSpaceOnUse"><stop offset="0" stop-color="#000019"/><stop offset="1" stop-color="#071639"/></linearGradient><linearGradient id="linear-gradient-4" x1="120.79" y1="19.71" x2="156.27" y2="19.71" xlink:href="#linear-gradient-3"/><linearGradient id="linear-gradient-5" x1="791.31" y1="26.37" x2="941.33" y2="26.37" xlink:href="#linear-gradient-3"/><clipPath id="clip-path"><path class="cls-1" d="M863.83,25.38c0-.33,0-.62-.07-.91a11.47,11.47,0,0,0-5.11-8.31h0l-.06,0A11.5,11.5,0,0,0,849,14.78c-.28.08-.57.19-.86.3a11.47,11.47,0,0,0-7.27,11.11c0,.31,0,.61.07.91A11.48,11.48,0,0,0,846,35.37l.05,0a11.5,11.5,0,0,0,9.67,1.37c.28-.08.56-.18.86-.3a11.47,11.47,0,0,0,7.27-11.11Z"/></clipPath></defs><title>初化小故事-1</title><g class="cls-2"><g id="图层_1" data-name="图层 1"><rect class="cls-3" x="-26.33" y="-0.13" width="1072.32" height="80"/><rect class="cls-4" x="53.83" y="0.28" width="1" height="54.11"/><polygon class="cls-5" points="54.5 54.4 961 54.4 1024 80 0 80 54.5 54.4"/><g class="cls-6"><line class="cls-7" x1="17.67" y1="70.39" x2="997.67" y2="70.39"/><line class="cls-7" x1="33.67" y1="61.98" x2="978.67" y2="61.35"/><line class="cls-7" x1="122.33" y1="55.25" x2="90" y2="80"/><line class="cls-7" x1="157" y1="55.25" x2="128.67" y2="80"/><line class="cls-7" x1="227.67" y1="55.25" x2="196.33" y2="80"/><line class="cls-7" x1="293" y1="55.25" x2="269.67" y2="80"/><line class="cls-7" x1="84.67" y1="55.25" x2="47.33" y2="80"/><line class="cls-7" x1="193.67" y1="55.25" x2="162.67" y2="80"/><line class="cls-7" x1="261.67" y1="55.25" x2="234.33" y2="80"/><line class="cls-7" x1="326" y1="55.25" x2="306" y2="80"/><line class="cls-7" x1="360" y1="55.25" x2="348" y2="80"/><line class="cls-7" x1="431.33" y1="55.25" x2="426.33" y2="80"/><line class="cls-7" x1="505.33" y1="55.25" x2="504.33" y2="80"/><line class="cls-7" x1="576" y1="55.25" x2="578" y2="80"/><line class="cls-7" x1="646.67" y1="55.25" x2="652.67" y2="80"/><line class="cls-7" x1="718.33" y1="55.25" x2="730.33" y2="80"/><line class="cls-7" x1="792" y1="55.25" x2="810" y2="80"/><line class="cls-7" x1="933" y1="55.25" x2="985" y2="80"/><line class="cls-7" x1="866.67" y1="55.25" x2="896.67" y2="80"/><line class="cls-7" x1="397.67" y1="55.25" x2="389.67" y2="80"/><line class="cls-7" x1="469.33" y1="55.25" x2="464" y2="80"/><line class="cls-7" x1="542" y1="55.25" x2="543.67" y2="80"/><line class="cls-7" x1="612.67" y1="55.25" x2="616.67" y2="80"/><line class="cls-7" x1="682.33" y1="55.25" x2="689.67" y2="80"/><line class="cls-7" x1="753" y1="55.25" x2="768.67" y2="80"/><line class="cls-7" x1="853.67" y1="80" x2="827.67" y2="55.25"/><line class="cls-7" x1="899.33" y1="55.25" x2="946.33" y2="80"/></g><rect class="cls-8" x="961.83" y="6.63" width="1" height="48.3"/><rect class="cls-9" x="54.92" y="-0.31" width="906.58" height="56.12"/><ellipse class="cls-10" cx="601.73" cy="58.86" rx="11.5" ry="4.75"/><ellipse class="cls-10" cx="88.78" cy="59.7" rx="13.08" ry="4.85"/><path class="cls-11" d="M85.21,47.18S75.21,40.74,75,28.67c0,0,9.69,4.1,12.29,13.84,0,0-4.21-18.13.89-28.14,0,0,5.59,13.79,3.13,27.84,0,0,4.43-9.35,6.79-11.34a14.88,14.88,0,0,1-4.15,16.05Z"/><path class="cls-11" d="M87.26,44.27S83,24.38,88.15,14.36c0,0,5.59,15.55,3.13,29.61Z"/><path class="cls-12" d="M80.66,48.27l1.82,10.19s.91,1.66,6.5,1.66,6.58-1.85,6.58-1.85l2.39-10.19Z"/><path class="cls-13" d="M80.83,49.15S86,52.91,96.88,52.63l.83-3.57S81.8,47.8,80.83,49.15Z"/><path class="cls-12" d="M100.05,46.7c-.3,3.27-1,2.61-10.71,2.55-10.16-.06-10.83.62-11.07-2.36-.23-2.82.34-2.42,11.07-2.36S100.28,44.25,100.05,46.7Z"/><path class="cls-14" d="M86.09,46.81c0,.62-1.56,1.12-3.48,1.12s-3.55,0-3.48-1.12,1.56-1.12,3.48-1.12S86.16,45.56,86.09,46.81Z"/><path class="cls-14" d="M88.45,58.64c-.14.45-1.36.54-2.78.19s-2.14-.53-2.37-1.46-1-3.68.45-3.32S88.73,57.73,88.45,58.64Z"/><ellipse class="cls-10" cx="476.16" cy="60.5" rx="12.73" ry="4.72"/><circle class="cls-15" cx="473.56" cy="25.69" r="1.3"/><circle class="cls-15" cx="480.38" cy="26.06" r="1.3"/><circle class="cls-15" cx="485.07" cy="27.88" r="1.3"/><circle class="cls-15" cx="489.76" cy="32.15" r="1.3"/><circle class="cls-15" cx="493.11" cy="37.57" r="1.3"/><circle class="cls-15" cx="493.96" cy="43.9" r="1.3"/><circle class="cls-15" cx="492.75" cy="49.75" r="1.3"/><circle class="cls-15" cx="488.85" cy="55.29" r="1.3"/><circle class="cls-15" cx="483.86" cy="59.25" r="1.3"/><circle class="cls-15" cx="479.11" cy="60.28" r="1.3"/><circle class="cls-15" cx="472.59" cy="59.79" r="1.3"/><circle class="cls-15" cx="469.91" cy="26.91" r="1.3"/><circle class="cls-15" cx="464.06" cy="30.4" r="1.3"/><circle class="cls-15" cx="461.47" cy="35.76" r="1.3"/><circle class="cls-15" cx="459.68" cy="42.01" r="1.3"/><circle class="cls-15" cx="460.65" cy="48.26" r="1.3"/><circle class="cls-15" cx="463.27" cy="53.68" r="1.3"/><circle class="cls-15" cx="468.69" cy="58.19" r="1.3"/><circle class="cls-15" cx="472.29" cy="57.4" r="1.3"/><circle class="cls-15" cx="480.45" cy="57.7" r="1.3"/><circle class="cls-15" cx="482.7" cy="51.19" r="1.3"/><circle class="cls-15" cx="470.21" cy="50.21" r="1.3"/><circle class="cls-15" cx="464.13" cy="45.89" r="1.3"/><circle class="cls-15" cx="476.61" cy="46.74" r="1.3"/><circle class="cls-15" cx="477.22" cy="38.58" r="1.3"/><circle class="cls-15" cx="483.73" cy="35.48" r="1.3"/><circle class="cls-15" cx="479.29" cy="32.61" r="1.03"/><circle class="cls-15" cx="482.64" cy="29.26" r="1.03"/><circle class="cls-15" cx="470.7" cy="28.35" r="1.03"/><circle class="cls-15" cx="473.32" cy="32.07" r="1.03"/><circle class="cls-15" cx="471.62" cy="37.06" r="1.03"/><circle class="cls-15" cx="464.73" cy="32.01" r="1.03"/><circle class="cls-15" cx="462.72" cy="37.06" r="1.03"/><circle class="cls-15" cx="466.74" cy="39.43" r="1.03"/><circle class="cls-15" cx="466.32" cy="44.91" r="1.03"/><circle class="cls-15" cx="461.14" cy="41.93" r="1.03"/><circle class="cls-15" cx="461.99" cy="47.17" r="1.03"/><circle class="cls-15" cx="464" cy="52.28" r="1.03"/><circle class="cls-15" cx="469.48" cy="56.24" r="1.03"/><circle class="cls-15" cx="472.53" cy="53.07" r="1.03"/><circle class="cls-15" cx="470.82" cy="48.02" r="1.03"/><circle class="cls-15" cx="475.09" cy="45.4" r="1.03"/><circle class="cls-15" cx="475.63" cy="40.04" r="1.03"/><circle class="cls-15" cx="480.87" cy="37.61" r="1.03"/><circle class="cls-15" cx="488.3" cy="33.28" r="1.03"/><circle class="cls-15" cx="489.94" cy="37.97" r="1.03"/><circle class="cls-15" cx="485.26" cy="40.65" r="1.03"/><circle class="cls-15" cx="485.26" cy="46.07" r="1.03"/><circle class="cls-15" cx="492.44" cy="43.88" r="1.03"/><circle class="cls-15" cx="489.03" cy="48.87" r="1.03"/><circle class="cls-15" cx="487.81" cy="53.87" r="1.03"/><circle class="cls-15" cx="480.38" cy="48.63" r="1.03"/><circle class="cls-15" cx="478.62" cy="53.44" r="1.03"/><circle class="cls-15" cx="482.21" cy="57.34" r="1.03"/><circle class="cls-15" cx="481.3" cy="28.84" r="1.3"/><circle class="cls-15" cx="489.88" cy="39.68" r="1.3"/><circle class="cls-15" cx="489.46" cy="47.47" r="1.3"/><circle class="cls-15" cx="470.88" cy="34.56" r="1.3"/><circle class="cls-15" cx="464.37" cy="38.16" r="1.3"/><circle class="cls-15" cx="473.38" cy="28.29" r="1.3"/><path class="cls-15" d="M479.12,60.53l-7.33-.39-3.56-1.76-5.65-4.6L460.11,48l-.74-6.56v0l1.47-6.06,3-5.16,5.53-3.51,4.67-1.35,7.21.43,4.4,2L490,32l3.38,5.46v.05l.86,6.37-1.3,6.15-3.46,5.44-5.74,4.08Zm-7.2-.87,7.17.38,4.43-.92,5.58-4,3.36-5.28,1.26-6-.84-6.24-3.31-5.35-4.15-4.05-4.24-2-7-.42-4.55,1.32-5.34,3.4-2.94,5-1.44,6,.72,6.44,2.4,5.51L468.52,58Z"/><polygon class="cls-15" points="471.92 59.69 469.14 56.49 463.8 52.86 462 47.12 460.77 41.67 462.5 36.98 464.72 31.29 470.56 28.15 472.97 25.92 473.3 26.28 470.82 28.57 465.11 31.63 462.95 37.15 461.27 41.7 462.48 46.99 464.21 52.56 469.49 56.14 472.29 59.37 471.92 59.69"/><path class="cls-15" d="M481.07,28.91s-.73-2.26-.91-2.78l.46-.16c.18.52.89,2.69.91,2.79Z"/><polygon class="cls-15" points="490.62 39.94 483.53 35.64 481.13 28.84 473.56 28.72 473.57 28.23 481.47 28.35 483.93 35.31 489.88 38.92 488.57 33.31 481.96 29.11 482.22 28.69 489 33.01 490.62 39.94"/><path class="cls-15" d="M470.33,50.43,470.1,50l6.27-3.4.18-7.65c-.7-.53-4.88-3.67-5.37-4l.27-.41c.55.37,5.29,3.94,5.49,4.09l.1.08-.19,8.18Z"/><path class="cls-15" d="M470.81,48.31,466.07,45l.29-5.48,5.28-2.79,4.25,3.15-.32,5.75Zm-4.24-3.52,4.27,2.94,4.26-2.36.29-5.22-3.79-2.81-4.77,2.51Z"/><polygon class="cls-15" points="471.85 37.14 471.38 36.98 473.05 32.11 470.33 28.75 470.71 28.44 473.6 32.02 471.85 37.14"/><polygon class="cls-15" points="479.51 32.56 473.92 32.37 473.94 31.88 479.31 32.06 481.98 29.46 482.32 29.8 479.51 32.56"/><polygon class="cls-15" points="469.66 56.41 469.31 56.07 472.25 53.01 470.59 47.85 471.06 47.7 472.81 53.14 469.66 56.41"/><polygon class="cls-15" points="478.78 53.44 472.52 53.32 472.53 52.83 478.45 52.95 480.09 48.71 475.96 45.6 476.26 45.21 480.68 48.55 478.78 53.44"/><polygon class="cls-15" points="480.74 57.48 480.28 57.32 482.41 51.27 476.7 46.94 477 46.55 482.99 51.1 480.74 57.48"/><path class="cls-15" d="M482.22,58l-10.12-.33-2.16-7-6.25-4.35.13-8.31,6.86-3.62,2-5.63.46.16-2,5.81-6.78,3.57-.12,7.76,6.17,4.3,2.1,6.8,8.76.28c-2-2.71-3.09-4.15-3.14-4.29l.23-.08.22-.1c.12.23,2.14,2.93,3.38,4.58Z"/><polygon class="cls-15" points="477.58 39.52 477.34 39.1 480.52 37.25 479.06 32.69 479.52 32.54 481.1 37.48 477.58 39.52"/><rect class="cls-15" x="477.01" y="36.57" width="6.81" height="0.49" transform="translate(30.69 209.74) rotate(-25.41)"/><polygon class="cls-15" points="485.56 40.88 480.74 37.81 481 37.4 485.56 40.3 488.66 38.38 488.92 38.79 485.56 40.88"/><rect class="cls-15" x="484.95" y="41.08" width="0.49" height="4.99"/><polygon class="cls-15" points="480.38 48.6 480.14 48.17 485.14 45.42 489.35 48.18 489.08 48.59 485.12 45.99 480.38 48.6"/><path class="cls-15" d="M489.13,48.4l.29-9.66L493,43.92Zm.73-8.15-.2,6.79,2.7-3.15Z"/><rect class="cls-15" x="482.22" y="49.18" width="7.04" height="0.49" transform="matrix(0.86, -0.5, 0.5, 0.86, 40.79, 250.42)"/><polygon class="cls-15" points="482.5 57.31 482.29 56.88 487.37 54.36 489.17 48.92 489.63 49.07 487.77 54.71 482.5 57.31"/><path class="cls-15" d="M483.27,59.45a13.86,13.86,0,0,1-3-1.62l.42-.25h0A18.71,18.71,0,0,0,483.47,59Z"/><rect class="cls-15" x="479.03" y="58.92" width="2.04" height="0.49" transform="translate(212.45 462.07) rotate(-63.43)"/><rect class="cls-15" x="490.83" y="46.68" width="0.49" height="4.08" transform="translate(152.06 407.33) rotate(-52.28)"/><ellipse class="cls-10" cx="538.88" cy="60.5" rx="12.73" ry="4.72"/><circle class="cls-16" cx="529.63" cy="32.95" r="1.29"/><circle class="cls-16" cx="531.8" cy="30.61" r="1.29"/><circle class="cls-16" cx="537.06" cy="30.55" r="1.29"/><circle class="cls-16" cx="541.65" cy="32" r="1.29"/><circle class="cls-16" cx="547.15" cy="31.76" r="1.29"/><circle class="cls-16" cx="551.01" cy="33.39" r="1.29"/><circle class="cls-16" cx="548.54" cy="35.69" r="1.29"/><circle class="cls-16" cx="543.1" cy="35.63" r="1.29"/><circle class="cls-16" cx="539.42" cy="34.42" r="1.29"/><circle class="cls-16" cx="533.56" cy="34.36" r="1.29"/><circle class="cls-16" cx="531.14" cy="36.77" r="1.29"/><circle class="cls-16" cx="535.49" cy="38.34" r="1.29"/><circle class="cls-16" cx="541.23" cy="38.22" r="1.29"/><circle class="cls-16" cx="531.93" cy="41.79" r="1.29"/><circle class="cls-16" cx="535.71" cy="42.83" r="1.29"/><circle class="cls-16" cx="537.64" cy="46.94" r="1.29"/><circle class="cls-16" cx="543.2" cy="46.94" r="1.29"/><circle class="cls-16" cx="532.03" cy="52.62" r="1.29"/><circle class="cls-16" cx="529.73" cy="54.98" r="1.29"/><circle class="cls-16" cx="537.1" cy="52.62" r="1.29"/><circle class="cls-16" cx="541.81" cy="53.83" r="1.29"/><circle class="cls-16" cx="547.25" cy="53.83" r="1.29"/><circle class="cls-16" cx="551.3" cy="55.4" r="1.29"/><circle class="cls-16" cx="548.7" cy="57.69" r="1.29"/><circle class="cls-16" cx="543.2" cy="57.69" r="1.29"/><circle class="cls-16" cx="539.58" cy="56.43" r="1.29"/><circle class="cls-16" cx="533.66" cy="56.43" r="1.29"/><circle class="cls-16" cx="531.42" cy="58.84" r="1.29"/><circle class="cls-16" cx="535.59" cy="60.29" r="1.29"/><circle class="cls-16" cx="541.33" cy="60.29" r="1.29"/><circle class="cls-16" cx="533.42" cy="45.25" r="1.29"/><circle class="cls-16" cx="528.1" cy="45.55" r="1.29"/><circle class="cls-16" cx="541.63" cy="42.95" r="1.29"/><circle class="cls-16" cx="545.13" cy="44.28" r="1.29"/><circle class="cls-16" cx="550.81" cy="44.28" r="1.29"/><path class="cls-16" d="M539.51,34.6h-6l-4.31-1.55,2.49-2.68,5.4-.06,5.11,1.8Zm-5.91-.48h5.72l2-1.82L537,30.79l-5.11.06-1.85,2Z"/><polygon class="cls-16" points="548.62 35.93 543.06 35.93 539.94 34.78 540.1 34.33 543.14 35.44 548.45 35.44 550.77 33.52 547.11 32.24 541.65 32.24 541.65 31.76 547.19 31.76 551.74 33.34 548.62 35.93"/><polygon class="cls-16" points="541.35 38.59 535.45 38.59 530.72 36.88 532.96 34.44 533.31 34.76 531.56 36.67 535.53 38.1 541.11 38.1 542.85 35.9 543.23 36.2 541.35 38.59"/><polygon class="cls-16" points="550.81 44.52 545.09 44.52 541.59 43.26 535.63 43.26 531.85 42.02 532 41.56 535.71 42.77 541.67 42.77 545.18 44.04 550.81 44.04 550.81 44.52"/><polygon class="cls-16" points="533.52 45.73 528.1 45.73 528.1 45.25 533.31 45.25 535.17 43.18 535.53 43.5 533.52 45.73"/><polygon class="cls-16" points="543 47.36 537.55 47.36 533.32 45.47 533.51 45.03 537.65 46.88 543 46.88 543 47.36"/><polygon class="cls-16" points="548.79 57.94 543.16 57.94 539.7 56.75 533.62 56.75 529.91 55.49 530.07 55.03 533.7 56.26 539.78 56.26 543.24 57.45 548.61 57.45 550.84 55.48 547.2 54.07 541.75 54.06 537.07 52.86 532.13 52.86 529.9 55.14 529.56 54.81 531.92 52.38 537.16 52.38 541.84 53.59 547.29 53.59 551.75 55.32 548.79 57.94"/><rect class="cls-16" x="539.5" y="54.91" width="2.28" height="0.48" transform="translate(128.01 408.81) rotate(-46.42)"/><polygon class="cls-16" points="541.33 60.61 535.42 60.61 531 58.94 533.48 56.34 533.83 56.67 531.85 58.74 535.51 60.13 541.13 60.13 543.27 57.95 543.62 58.29 541.33 60.61"/><ellipse class="cls-10" cx="413.54" cy="60.5" rx="12.73" ry="4.72"/><circle class="cls-17" cx="412.43" cy="31.38" r="1.39"/><circle class="cls-17" cx="412.52" cy="37.53" r="1.39"/><circle class="cls-17" cx="408.45" cy="39.53" r="1.39"/><circle class="cls-17" cx="411.65" cy="40.83" r="1.39"/><circle class="cls-17" cx="411.65" cy="46.96" r="1.39"/><circle class="cls-17" cx="408.45" cy="45.66" r="1.39"/><circle class="cls-17" cx="404.48" cy="47.48" r="1.39"/><circle class="cls-17" cx="407.54" cy="48.91" r="1.39"/><circle class="cls-17" cx="410.66" cy="50.02" r="1.39"/><circle class="cls-17" cx="414.23" cy="48.52" r="1.39"/><circle class="cls-17" cx="417.29" cy="49.89" r="1.39"/><circle class="cls-17" cx="424.05" cy="49.63" r="1.39"/><circle class="cls-17" cx="424.11" cy="55.74" r="1.39"/><circle class="cls-17" cx="423.2" cy="58.99" r="1.39"/><circle class="cls-17" cx="420.08" cy="57.69" r="1.39"/><circle class="cls-17" cx="416.51" cy="59.25" r="1.39"/><circle class="cls-17" cx="417.42" cy="56.13" r="1.39"/><circle class="cls-17" cx="414.43" cy="54.83" r="1.39"/><circle class="cls-17" cx="413.32" cy="57.88" r="1.39"/><circle class="cls-17" cx="410.72" cy="56.45" r="1.39"/><circle class="cls-17" cx="409.88" cy="59.34" r="1.39"/><circle class="cls-17" cx="407.67" cy="55.04" r="1.39"/><circle class="cls-17" cx="406.67" cy="58.12" r="1.39"/><circle class="cls-17" cx="404.33" cy="53.7" r="1.39"/><circle class="cls-17" cx="400.38" cy="55.43" r="1.39"/><circle class="cls-17" cx="403.5" cy="56.73" r="1.39"/><circle class="cls-17" cx="429.9" cy="58.73" r="1.39"/><circle class="cls-17" cx="418.39" cy="46.64" r="1.39"/><circle class="cls-17" cx="418.24" cy="40.57" r="1.39"/><rect class="cls-17" x="412.17" y="32.25" width="0.52" height="4.55"/><rect class="cls-17" x="408.23" y="40.31" width="0.52" height="4.55"/><rect class="cls-17" x="411.31" y="41.96" width="0.52" height="4.55"/><rect class="cls-17" x="418.11" y="41.65" width="0.52" height="4.55"/><rect class="cls-17" x="423.79" y="50.41" width="0.52" height="4.55"/><rect class="cls-17" x="417.07" y="51.06" width="0.52" height="4.55"/><rect class="cls-17" x="413.95" y="49.63" width="0.52" height="4.55"/><rect class="cls-17" x="410.48" y="51.01" width="0.52" height="4.55"/><rect class="cls-17" x="407.43" y="49.52" width="0.52" height="4.55"/><rect class="cls-17" x="404.05" y="48.61" width="0.52" height="4.55"/><line class="cls-17" x1="424.74" y1="56.08" x2="429.34" y2="58.34"/><rect class="cls-17" x="426.78" y="54.65" width="0.52" height="5.12" transform="translate(187.59 415.4) rotate(-63.87)"/><line class="cls-17" x1="418.8" y1="46.85" x2="423.4" y2="49.11"/><rect class="cls-17" x="420.84" y="45.42" width="0.52" height="5.12" transform="translate(192.56 404.91) rotate(-63.87)"/><line class="cls-17" x1="413.13" y1="37.84" x2="417.72" y2="40.09"/><rect class="cls-17" x="415.16" y="36.41" width="0.52" height="5.12" transform="translate(197.49 394.77) rotate(-63.87)"/><line class="cls-17" x1="411.87" y1="37.71" x2="408.79" y2="39.1"/><rect class="cls-17" x="408.64" y="38.14" width="3.38" height="0.52" transform="translate(20.47 172.01) rotate(-24.26)"/><line class="cls-17" x1="412.13" y1="38.23" x2="411.65" y2="40.35"/><rect class="cls-17" x="410.8" y="39.03" width="2.18" height="0.52" transform="translate(283.43 432.61) rotate(-77.36)"/><line class="cls-17" x1="407.84" y1="45.68" x2="404.76" y2="47.37"/><rect class="cls-17" x="404.54" y="46.27" width="3.51" height="0.52" transform="translate(27.72 201.19) rotate(-28.75)"/><line class="cls-17" x1="408.14" y1="46.2" x2="407.62" y2="48.11"/><rect class="cls-17" x="406.89" y="46.9" width="1.98" height="0.52" transform="translate(255.23 428.32) rotate(-74.77)"/><line class="cls-17" x1="408.97" y1="45.81" x2="411.13" y2="46.94"/><rect class="cls-17" x="409.79" y="45.16" width="0.52" height="2.44" transform="translate(179.7 388.76) rotate(-62.52)"/><line class="cls-17" x1="411.18" y1="47.07" x2="407.8" y2="48.54"/><rect class="cls-17" x="407.64" y="47.55" width="3.69" height="0.52" transform="translate(14.98 167.5) rotate(-23.54)"/><line class="cls-17" x1="412.3" y1="47.29" x2="413.91" y2="48.11"/><rect class="cls-17" x="412.84" y="46.8" width="0.52" height="1.8" transform="translate(181.96 393.39) rotate(-62.82)"/><line class="cls-17" x1="414.69" y1="48.15" x2="417.94" y2="46.64"/><rect class="cls-17" x="414.52" y="47.13" width="3.59" height="0.52" transform="translate(19.01 180.48) rotate(-25.01)"/><line class="cls-17" x1="417.85" y1="47.37" x2="417.59" y2="49.32"/><rect class="cls-17" x="416.74" y="48.09" width="1.97" height="0.52" transform="translate(314.72 456.05) rotate(-82.42)"/><line class="cls-17" x1="414.9" y1="48.54" x2="416.85" y2="49.37"/><rect class="cls-17" x="415.62" y="47.9" width="0.52" height="2.12" transform="translate(209 413.03) rotate(-67.11)"/><line class="cls-17" x1="400.21" y1="55.3" x2="404.07" y2="53.83"/><rect class="cls-17" x="400.07" y="54.31" width="4.13" height="0.52" transform="translate(7 147.07) rotate(-20.9)"/><line class="cls-17" x1="403.59" y1="56.21" x2="404.15" y2="54.22"/><rect class="cls-17" x="402.84" y="54.96" width="2.07" height="0.52" transform="translate(241.08 428.93) rotate(-74.25)"/><line class="cls-17" x1="404.63" y1="53.83" x2="407.32" y2="54.91"/><rect class="cls-17" x="405.71" y="52.92" width="0.52" height="2.9" transform="translate(203.75 410.57) rotate(-68.04)"/><line class="cls-17" x1="403.76" y1="56.78" x2="407.01" y2="55.22"/><rect class="cls-17" x="403.59" y="55.74" width="3.61" height="0.52" transform="translate(15.69 180.93) rotate(-25.64)"/><line class="cls-17" x1="407.19" y1="55.48" x2="407.1" y2="57.3"/><rect class="cls-17" x="406.23" y="56.13" width="1.82" height="0.52" transform="translate(331.34 460.37) rotate(-87.26)"/><line class="cls-17" x1="406.88" y1="57.9" x2="410.44" y2="56.43"/><rect class="cls-17" x="406.74" y="56.91" width="3.85" height="0.52" transform="translate(9.24 160.8) rotate(-22.51)"/><line class="cls-17" x1="408.01" y1="55.17" x2="410.4" y2="55.95"/><rect class="cls-17" x="408.94" y="54.31" width="0.52" height="2.51" transform="translate(229.12 427.19) rotate(-71.88)"/><line class="cls-17" x1="411.05" y1="56.17" x2="413.95" y2="54.87"/><rect class="cls-17" x="410.91" y="55.26" width="3.18" height="0.52" transform="translate(13.26 173.19) rotate(-24.09)"/><line class="cls-17" x1="411.35" y1="56.78" x2="413.56" y2="57.6"/><rect class="cls-17" x="412.19" y="56.01" width="0.52" height="2.36" transform="translate(214.86 423.72) rotate(-69.57)"/><line class="cls-17" x1="409.83" y1="58.73" x2="410.48" y2="56.91"/><rect class="cls-17" x="409.19" y="57.56" width="1.93" height="0.52" transform="translate(217.85 424.68) rotate(-70.36)"/><line class="cls-17" x1="413.78" y1="55.43" x2="413.65" y2="57.99"/><rect class="cls-17" x="412.43" y="56.45" width="2.56" height="0.52" transform="translate(336.07 467.01) rotate(-87.09)"/><line class="cls-17" x1="414.73" y1="55" x2="417.07" y2="55.95"/><rect class="cls-17" x="415.64" y="54.21" width="0.52" height="2.53" transform="translate(207.63 419.72) rotate(-67.84)"/><path class="cls-17" d="M413.32,57.88l3.53-1.45a13.84,13.84,0,0,1,.09,2.21"/><path class="cls-17" d="M417.2,58.65h-.52c0-.66,0-1.43,0-1.84l-3.23,1.33-.2-.48L417,56.09l.09.25A11.81,11.81,0,0,1,417.2,58.65Z"/><line class="cls-17" x1="413.86" y1="58.08" x2="416.81" y2="58.94"/><rect class="cls-17" x="415.08" y="56.98" width="0.52" height="3.07" transform="translate(242.02 440.47) rotate(-73.61)"/><line class="cls-17" x1="417.76" y1="56.26" x2="419.76" y2="57.3"/><rect class="cls-17" x="418.5" y="55.65" width="0.52" height="2.25" transform="translate(174.72 401.79) rotate(-62.45)"/><line class="cls-17" x1="423.61" y1="55.69" x2="420.23" y2="57.51"/><rect class="cls-17" x="420" y="56.34" width="3.84" height="0.52" transform="translate(23.51 206.56) rotate(-28.27)"/><line class="cls-17" x1="423.66" y1="56.3" x2="423.57" y2="58.86"/><rect class="cls-17" x="422.34" y="57.32" width="2.56" height="0.52" transform="translate(351.58 478.98) rotate(-88.04)"/><line class="cls-17" x1="420.71" y1="57.69" x2="422.66" y2="58.55"/><rect class="cls-17" x="421.43" y="57.05" width="0.52" height="2.13" transform="translate(197.32 419.87) rotate(-66.04)"/><path class="cls-18" d="M676.42,53.64l-3.77-3.21a.41.41,0,0,0-.58.14l-2.71,4a.41.41,0,0,0,0,.48l3.31,3.83a.39.39,0,0,0,.62,0l3.15-4.66a.42.42,0,0,0-.05-.58"/><path class="cls-19" d="M686.23,37.63l2.35,1.92h0l.32.27,3.18-4.72a.3.3,0,0,0-.12-.45L683.08,30a.43.43,0,0,0-.52.14l-1.92,2.84.84.5a.32.32,0,0,1,.15.47l-1.21,1.79-.4.59L679,37.87l4.61,3,2.16-3.21a.33.33,0,0,1,.48-.08"/><path class="cls-20" d="M692.66,42.9l-3.76-3.1h0l-.17-.14.16.13-1.94,2.88a.36.36,0,0,1-.5.1l-2.87-1.86-2.23,3.31.23.16h0l3.72,2.52a.37.37,0,0,1,.09.5l-1,1.52,3.14,1.64a.43.43,0,0,0,.52-.14l4.69-7a.42.42,0,0,0-.05-.55"/><polygon class="cls-21" points="688.58 39.55 688.73 39.67 688.9 39.81 688.9 39.8 688.58 39.54 688.58 39.55"/><path class="cls-22" d="M688.73,39.67l-.15-.13h0l-2.35-1.92a.33.33,0,0,0-.48.08l-2.16,3.21,2.87,1.86a.36.36,0,0,0,.5-.1l1.94-2.88Z"/><polygon class="cls-23" points="688.58 39.55 688.73 39.67 688.58 39.55 688.58 39.55"/><path class="cls-24" d="M680,46.19l1.32-2h0L679.63,43a.38.38,0,0,0-.53.08L674.46,50a.33.33,0,0,0,.12.47l6.51,2.69a.47.47,0,0,0,.53-.17l2.75-4.08-4.22-2.21a.38.38,0,0,1-.12-.52"/><polygon class="cls-25" points="681.58 44.38 681.58 44.38 681.35 44.23 681.35 44.23 681.58 44.38"/><path class="cls-26" d="M685.3,46.91l-3.72-2.53-.23-.16-1.33,2a.37.37,0,0,0,.1.48l4.25,2.23,1-1.52a.37.37,0,0,0-.09-.5"/><polygon class="cls-27" points="681.58 44.38 681.58 44.38 681.35 44.23 681.58 44.38"/><path class="cls-28" d="M681.48,33.45l-.84-.51-4.28-2.59a.43.43,0,0,0-.55.12L671.38,37a.43.43,0,0,0,.07.58l4.57,4a.29.29,0,0,0,.47,0L679,37.81l1-1.51.4-.59,1.21-1.79a.32.32,0,0,0-.15-.47"/><path class="cls-29" d="M604.74,42.31l.6-.6.82,2.22a.58.58,0,0,1-.8.21Z"/><path class="cls-30" d="M604.74,42.31l-.22-.65a.59.59,0,0,1,.68-.32l.14.38Z"/><path class="cls-29" d="M598.38,41.67l-.82,2.22a.58.58,0,0,0,.8.21l.62-1.83Z"/><path class="cls-30" d="M598.38,41.67l.6.6.22-.65a.59.59,0,0,0-.68-.32Z"/><path class="cls-29" d="M598.21,43.52c-1.44.08-2.16.28-3,.38-.32.32-.49.15-.31.56a12.45,12.45,0,0,0,3.42-.22C598.5,44,598.43,43.82,598.21,43.52Z"/><path class="cls-29" d="M592.2,43.65a2.14,2.14,0,0,0,.47.48,2.75,2.75,0,0,0,.94.27,11.09,11.09,0,0,0,1.65.08c.17-.34.14-.39-.09-.63a2.3,2.3,0,0,0-.83-.47,2.8,2.8,0,0,0-.82,0l-.28,0q-.1.06-.06.22t.27.14a.62.62,0,0,1,.32.06h0q.17.05.12.16a4.15,4.15,0,0,1-.94-.09,1.1,1.1,0,0,1-.54-.27c-.14-.07-.21,0-.25.09Z"/><path class="cls-29" d="M605.52,43.52c1.44.08,2.16.28,3,.38.32.32.49.15.31.56a12.45,12.45,0,0,1-3.42-.22C605.22,44,605.29,43.82,605.52,43.52Z"/><path class="cls-29" d="M611.53,43.65a2.14,2.14,0,0,1-.47.48,2.75,2.75,0,0,1-.94.27,11.09,11.09,0,0,1-1.65.08c-.17-.34-.14-.39.09-.63a2.3,2.3,0,0,1,.83-.47,2.8,2.8,0,0,1,.82,0l.28,0q.1.06.06.22t-.27.14a.62.62,0,0,0-.32.06h0q-.17.05-.12.16a4.15,4.15,0,0,0,.94-.09,1.1,1.1,0,0,0,.54-.27c.14-.07.21,0,.25.09Z"/><path class="cls-31" d="M598,41.17l1.28-2a2.42,2.42,0,0,1,.71,1.39l-.36,1.61A4.23,4.23,0,0,1,598,41.17Z"/><path class="cls-32" d="M598,41.17a4.23,4.23,0,0,0,1.63,1l-.09.42a3.41,3.41,0,0,1-1.74-1.05Z"/><path class="cls-31" d="M605.8,41.17l-1.28-2a2.42,2.42,0,0,0-.71,1.39l.36,1.61A4.23,4.23,0,0,0,605.8,41.17Z"/><path class="cls-32" d="M605.8,41.17a4.23,4.23,0,0,1-1.63,1l.09.42A3.41,3.41,0,0,0,606,41.5Z"/><path class="cls-29" d="M604.3,50.88q.05,1.21,0,2.47a1.34,1.34,0,0,1-1.07,0q-.16-1.05-.26-2.1A5.79,5.79,0,0,1,604.3,50.88Z"/><path class="cls-33" d="M604.3,50.88a5.79,5.79,0,0,0-1.29.38q-.07-.68-.11-1.35a1.52,1.52,0,0,1,1.34-.14Q604.28,50.31,604.3,50.88Z"/><path class="cls-29" d="M599.52,50.82a6.19,6.19,0,0,1,1.29.4q-.1,1.06-.26,2.13a1.34,1.34,0,0,1-1.07,0Q599.46,52.05,599.52,50.82Z"/><path class="cls-33" d="M600.81,51.22a6.19,6.19,0,0,0-1.29-.4q0-.54.06-1.06a1.52,1.52,0,0,1,1.34.14Q600.88,50.56,600.81,51.22Z"/><path class="cls-34" d="M599.15,48.09a2.34,2.34,0,0,1,2.62.35l-.13,2a4.72,4.72,0,0,1-1.83.13,2.12,2.12,0,0,1-1-.62l-.06-.08Z"/><path class="cls-34" d="M602.23,50.46l-.14-2a2.46,2.46,0,0,1,2.58-.35l.48,1.79a1.79,1.79,0,0,1-.39.37,2.41,2.41,0,0,1-.72.33A4.69,4.69,0,0,1,602.23,50.46Z"/><path class="cls-29" d="M604.33,53q-.29.43-.74.06Q604,54,604.33,53Zm.35,3.65a3.9,3.9,0,0,1-1.32.07q-.14-1.72-.17-3.29c0-.72,0,0,.13-.72a1.31,1.31,0,0,1,1,0C604.49,54.45,604.6,54.87,604.68,56.63Z"/><path class="cls-35" d="M603.36,56.7a3.9,3.9,0,0,0,1.32-.07l.19,1.88a1.49,1.49,0,0,1-1.44.08Z"/><path class="cls-33" d="M604.33,53q-.29,1-.74.06Q604,53.41,604.33,53Z"/><path class="cls-36" d="M605.44,58.4a2.15,2.15,0,0,0-.88.21.17.17,0,0,1-.09-.18,1.85,1.85,0,0,1,.87-.19A.26.26,0,0,1,605.44,58.4Zm.19.24a2.08,2.08,0,0,0-.87.24q-.15,0-.15-.17a2.09,2.09,0,0,1,.88-.22A.46.46,0,0,1,605.63,58.64Zm-.33-.48a1.8,1.8,0,0,0-.85.18q-.08,0,0-.17a1.38,1.38,0,0,1,.82-.15A.27.27,0,0,1,605.29,58.16Zm-.91-.06a.16.16,0,0,1,0-.17.74.74,0,0,1,.74-.14.23.23,0,0,1,.08.17A.93.93,0,0,0,604.38,58.11Z"/><path class="cls-37" d="M603.21,58.85l1.24.84,0,.2a8,8,0,0,0-1.28-.44Z"/><path class="cls-38" d="M607,59.72l.28-.13,0,.19a.86.86,0,0,1-.23.11A.74.74,0,0,0,607,59.72Zm-2.64.17,0-.2h0l0,0a6.12,6.12,0,0,0,1.53.14l-.23.2a7.54,7.54,0,0,1-1.29-.11Z"/><path class="cls-39" d="M607,59.72a.74.74,0,0,1,0,.17,2.77,2.77,0,0,1-.51.12q-.38,0-.76,0l.23-.2.3-.32a1.15,1.15,0,0,1,.67-.08A2.34,2.34,0,0,1,607,59.72Z"/><path class="cls-40" d="M607.32,59.59l-.28.13a2.34,2.34,0,0,0-.07-.27,1.15,1.15,0,0,0-.67.08l-.3.32a6.12,6.12,0,0,1-1.53-.14l0,0a1,1,0,0,1,.35-.66,1.61,1.61,0,0,1,1.21-.25q.5.17,1.11.32A.84.84,0,0,1,607.32,59.59Z"/><path class="cls-41" d="M604.44,59.68l-1.24-.84v0l.05-1.06q.11,0,.16.08a.79.79,0,0,0,.15.42q.1.15.28,0a.91.91,0,0,0,.14-.53.94.94,0,0,1,.72-.41.61.61,0,0,1,.42.26,2.33,2.33,0,0,0,.6,1.09l.29.11a1.61,1.61,0,0,0-1.21.25,1,1,0,0,0-.35.66Zm.85-1.52a.27.27,0,0,0-.08-.14,1.38,1.38,0,0,0-.82.15q0,.14,0,.17A1.8,1.8,0,0,1,605.29,58.16Zm.33.48a.46.46,0,0,0-.13-.16,2.09,2.09,0,0,0-.88.22q0,.13.15.17A2.08,2.08,0,0,1,605.63,58.64Zm-.19-.24a.26.26,0,0,0-.1-.16,1.85,1.85,0,0,0-.87.19.17.17,0,0,0,.09.18A2.15,2.15,0,0,1,605.44,58.4Zm-1.05-.3a.93.93,0,0,1,.8-.14.23.23,0,0,0-.08-.17.74.74,0,0,0-.74.14A.16.16,0,0,0,604.38,58.11Z"/><path class="cls-29" d="M600.25,53q-.45.37-.74-.06Q599.8,54,600.25,53Zm-.76-.39a1.31,1.31,0,0,1,1,0c.08.67.13,0,.13.72q0,1.58-.17,3.29a3.9,3.9,0,0,1-1.32-.07C599.24,54.87,599.35,54.45,599.48,52.66Z"/><path class="cls-35" d="M600.47,56.7a3.9,3.9,0,0,1-1.32-.07L599,58.51a1.49,1.49,0,0,0,1.44.08Z"/><path class="cls-33" d="M599.51,53q.29,1,.74.06Q599.8,53.41,599.51,53Z"/><path class="cls-36" d="M598.5,58.25a1.85,1.85,0,0,1,.87.19.17.17,0,0,1-.09.18,2.15,2.15,0,0,0-.88-.21A.26.26,0,0,1,598.5,58.25Zm-.16.24a2.09,2.09,0,0,1,.88.22q0,.13-.15.17a2.08,2.08,0,0,0-.87-.24A.46.46,0,0,1,598.34,58.48Zm.29-.46a1.38,1.38,0,0,1,.82.15q0,.14,0,.17a1.8,1.8,0,0,0-.85-.18A.27.27,0,0,1,598.62,58Zm0-.06a.23.23,0,0,1,.08-.17.74.74,0,0,1,.74.14.16.16,0,0,1,0,.17A.93.93,0,0,0,598.65,58Z"/><path class="cls-37" d="M600.63,58.85l-1.24.84,0,.2a8,8,0,0,1,1.28-.44Z"/><path class="cls-38" d="M596.79,59.89a.86.86,0,0,1-.23-.11l0-.19.28.13A.75.75,0,0,0,596.79,59.89Zm2.55,0a7.54,7.54,0,0,1-1.29.11l-.23-.2a6.12,6.12,0,0,0,1.53-.14l0,0h0l0,.2Z"/><path class="cls-39" d="M596.8,59.72a.75.75,0,0,0,0,.17,2.77,2.77,0,0,0,.51.12q.38,0,.76,0l-.23-.2-.3-.32a1.15,1.15,0,0,0-.67-.08A2.36,2.36,0,0,0,596.8,59.72Z"/><path class="cls-40" d="M596.51,59.59l.28.13a2.36,2.36,0,0,1,.07-.27,1.15,1.15,0,0,1,.67.08l.3.32a6.12,6.12,0,0,0,1.53-.14l0,0A1,1,0,0,0,599,59a1.61,1.61,0,0,0-1.21-.25q-.5.17-1.11.32A.84.84,0,0,0,596.51,59.59Z"/><path class="cls-41" d="M599.38,59.69A1,1,0,0,0,599,59a1.61,1.61,0,0,0-1.21-.25l.29-.11a2.33,2.33,0,0,0,.6-1.09.61.61,0,0,1,.42-.26.94.94,0,0,1,.72.41.91.91,0,0,0,.14.53q.18.14.28,0a.79.79,0,0,0,.15-.42q0-.13.16-.08l.05,1.06v0l-1.24.84Zm0-1.35q.08,0,0-.17a1.38,1.38,0,0,0-.82-.15.27.27,0,0,0-.08.14A1.8,1.8,0,0,1,599.39,58.34Zm-.32.54q.15,0,.15-.17a2.09,2.09,0,0,0-.88-.22.46.46,0,0,0-.13.16A2.08,2.08,0,0,1,599.07,58.88Zm.2-.26a.17.17,0,0,0,.09-.18,1.85,1.85,0,0,0-.87-.19.26.26,0,0,0-.1.16A2.15,2.15,0,0,1,599.28,58.62Zm.19-.68a.74.74,0,0,0-.74-.14.23.23,0,0,0-.08.17.93.93,0,0,1,.8.14A.16.16,0,0,0,599.47,57.94Z"/><path class="cls-34" d="M604.43,47l.24,1.05-2.23.36a2,2,0,0,0,.75-.38,3.75,3.75,0,0,1-1.28.22,3.64,3.64,0,0,1-1.34-.24,2.31,2.31,0,0,0,.8.4l-2.22-.36.23-1.05a1.38,1.38,0,0,0,1-1.23,11.3,11.3,0,0,0,3.05,0A1.37,1.37,0,0,0,604.43,47Z"/><path class="cls-42" d="M604.43,47a1.37,1.37,0,0,1-1-1.23,11.3,11.3,0,0,1-3.05,0,1.38,1.38,0,0,1-1,1.23l.4-1.67.59-.09h.08a14.21,14.21,0,0,1,2.92,0h.08l.58.09Zm-3.05,1.41a2.31,2.31,0,0,1-.8-.4,3.64,3.64,0,0,0,1.34.24,3.75,3.75,0,0,0,1.28-.22,2,2,0,0,1-.75.38l-.11,0h-.1l-.14,0h-.35l-.15,0h-.1Z"/><path class="cls-33" d="M601.27,39.32l-.17-.17h0l-.18-.41.53-.05a2.73,2.73,0,0,0,0-.5v-.08a1.75,1.75,0,0,0,.31.12l.15,0,.13,0,.27-.11v.08a3.24,3.24,0,0,0,0,.49l.51,0-.17.42h0l-.77.79Z"/><path class="cls-32" d="M602.83,38.72l.17-.4.3.48v0l.06,1.16-.57-.65-.16-.17h0Zm-1.83.56.27,0,.6.63-.12.12H602l0,1.12h-.38l0-1.1h0l-.75-.79-.51.73-.09-1.17v0l.31-.5.2.41.18.41h0Z"/><path class="cls-43" d="M600.72,38.32v0a4.38,4.38,0,0,1,.74-.12,2.73,2.73,0,0,1,0,.5l-.53.05Zm.28,1,.1-.13.17.17Zm2-1-.17.4-.51,0a3.24,3.24,0,0,1,0-.49,4.27,4.27,0,0,1,.68.12Zm-1.13,1.62.77-.79.16.17-.76.74h-.29Z"/><path class="cls-34" d="M600.41,38.81v0l.09,1.17.51-.73.75.79h0l0,1.1h.38l0-1.12.76-.74.57.65-.06-1.16v0a8.38,8.38,0,0,1,1.21.34l-.75,5,.29,1.38a12.11,12.11,0,0,1-4.33,0l.24-1.43-.73-5A9.25,9.25,0,0,1,600.41,38.81Z"/><path class="cls-30" d="M602.32,38.1l-.27.11-.13,0-.15,0a1.75,1.75,0,0,1-.31-.12,3.05,3.05,0,0,0-.06-.39,1.19,1.19,0,0,1,1,0A3.86,3.86,0,0,0,602.32,38.1Z"/><path class="cls-44" d="M608,4.72A19.28,19.28,0,0,0,603.83,6a21.09,21.09,0,0,0-7.91,5.67l.33-1.41a4.78,4.78,0,0,1,.85-1.09,16,16,0,0,1,6.74-3.57A27,27,0,0,1,608,4.72Zm4.13,4.76a10.56,10.56,0,0,0-4.09,2.87l.72-1.43a6.23,6.23,0,0,1,3.28-1.41Zm2,4.41a15.07,15.07,0,0,1-3,2.41l.85-1.22a.16.16,0,0,0,0,.07Zm-24.28,5.76a32.67,32.67,0,0,0,0,3.37v.13a2.65,2.65,0,0,0-.09-.35q-.09-.41-.11-.61-.09-.52-.13-1.15a18.42,18.42,0,0,1,1.67-10,32.52,32.52,0,0,0-1,4.52A38.85,38.85,0,0,0,589.89,19.66ZM597,7.44a12.69,12.69,0,0,0-5,7.17l-.13-.78a9.55,9.55,0,0,1,.5-1.76,7.75,7.75,0,0,1,.63-1.3A8.43,8.43,0,0,1,597,7.42Z"/><path class="cls-45" d="M613.13,20.16h0l1.3-.46,0,.09q-.76,2.89-2.13,3.8h0a116.88,116.88,0,0,1-20.87-.39,6.77,6.77,0,0,1-1.54-3.54,38.85,38.85,0,0,1,.35-4.09,32.52,32.52,0,0,1,1-4.52l0-.11.5,2.89.13.78a12.69,12.69,0,0,1,5-7.17l-.72,2.8-.33,1.41A21.09,21.09,0,0,1,603.83,6,19.28,19.28,0,0,1,608,4.72a64,64,0,0,0,0,7.63,10.56,10.56,0,0,1,4.09-2.87,20.57,20.57,0,0,1-.61,5.7q-.15.59-.35,1.13a15.07,15.07,0,0,0,3-2.41,23.11,23.11,0,0,1-.22,4.28,7.63,7.63,0,0,1-2.11,2.26Z"/><path class="cls-46" d="M608.09,12.35a64,64,0,0,1,0-7.63q.06,1,.15,1.85,0,.26.07.54.24,2,.54,3.8Zm4.09-2.87a14.21,14.21,0,0,1-.11,5.61l-.85,1.22q.2-.54.35-1.13A20.57,20.57,0,0,0,612.17,9.48Zm1,10.67-1.28.28A7.63,7.63,0,0,0,614,18.18a23.11,23.11,0,0,0,.22-4.28,11.67,11.67,0,0,1,.28,1.28,10.78,10.78,0,0,1,0,3.2,9.71,9.71,0,0,1-.52.89,6,6,0,0,1-.7.76Zm-23.24,3V23a32.67,32.67,0,0,1,0-3.37,6.77,6.77,0,0,0,1.54,3.54,116.88,116.88,0,0,0,20.87.39h0q1.37-.91,2.13-3.8l-.83,3.7q-.24.52-.5,1a16.61,16.61,0,0,1-2.76,3.85,18,18,0,0,1-8.57,3.15,21.91,21.91,0,0,1-8.65-3,11.18,11.18,0,0,1-2.39-3.2A9.94,9.94,0,0,1,589.89,23.16Z"/><path class="cls-44" d="M610.39,20l-.57-.41,1-.65Zm-2-1.33a14.73,14.73,0,0,0-1.83-.83,4.16,4.16,0,0,0,2.17-2.61A9.84,9.84,0,0,1,608.37,18.68Zm-2.13-1L603,17.51l-2.15-1.22.67-1.43a5.67,5.67,0,0,1,2.13,1.39l1.24-.35A3.22,3.22,0,0,1,606.24,17.72Zm-10,.2-1,.4a3.86,3.86,0,0,1,0-2.08A2.79,2.79,0,0,0,596.28,17.92Zm-2.57,1.46-1.22.83a12.14,12.14,0,0,1,.11-4.24A7.75,7.75,0,0,0,593.72,19.38Z"/><path class="cls-29" d="M610.24,26.19q.06-.38.11-.77a1.54,1.54,0,0,1,2.31.15,2.46,2.46,0,0,1,.26,2.4q-.07.24-.18.49-1.43,2.58-3.56,2.22.22-.7.4-1.4a2.06,2.06,0,0,0,1.65-.37,1.29,1.29,0,0,0,.46-1.42,1.17,1.17,0,0,0-1.25-.66,1.38,1.38,0,0,1,1-.39,1.25,1.25,0,0,1,1.09,1,1.26,1.26,0,0,0-.68-1.64A1.68,1.68,0,0,0,610.24,26.19Z"/><path class="cls-33" d="M609.59,29.29q.24-.91.43-1.83l0-.21q.11-.53.19-1.06a1.68,1.68,0,0,1,1.65-.42,1.26,1.26,0,0,1,.68,1.64,1.25,1.25,0,0,0-1.09-1,1.38,1.38,0,0,0-1,.39,1.17,1.17,0,0,1,1.25.66,1.29,1.29,0,0,1-.46,1.42A2.06,2.06,0,0,1,609.59,29.29Z"/><path class="cls-29" d="M593,26.19q-.06-.38-.11-.77a1.54,1.54,0,0,0-2.31.15,2.46,2.46,0,0,0-.26,2.4,5.23,5.23,0,0,0,.18.49Q591.88,31,594,30.69q-.22-.7-.4-1.4a2.06,2.06,0,0,1-1.65-.37,1.29,1.29,0,0,1-.46-1.42,1.17,1.17,0,0,1,1.25-.66,1.38,1.38,0,0,0-1-.39,1.25,1.25,0,0,0-1.09,1,1.26,1.26,0,0,1,.68-1.64A1.68,1.68,0,0,1,593,26.19Z"/><path class="cls-33" d="M593.61,29.29q-.24-.91-.43-1.83l0-.21q-.11-.53-.19-1.06a1.68,1.68,0,0,0-1.65-.42,1.26,1.26,0,0,0-.68,1.64,1.25,1.25,0,0,1,1.09-1,1.38,1.38,0,0,1,1,.39,1.17,1.17,0,0,0-1.25.66,1.29,1.29,0,0,0,.46,1.42A2.06,2.06,0,0,0,593.61,29.29Z"/><path class="cls-29" d="M592.74,23.53a24.29,24.29,0,0,1,3.57-1.83,2.17,2.17,0,0,0,.91,1l1.35-2a5.88,5.88,0,0,0,3.65,5.39l1.48-4,.57,1.48A4.21,4.21,0,0,0,606,21.31a21.78,21.78,0,0,1,4.43,2.2,25,25,0,0,1-1.65,9.24,12.54,12.54,0,0,1-6.46,4.93,1.54,1.54,0,0,1-1,0,13.68,13.68,0,0,1-6.78-5A30.47,30.47,0,0,1,592.74,23.53Z"/><path class="cls-33" d="M610.48,23.51a21.78,21.78,0,0,0-4.43-2.2,4.21,4.21,0,0,1-1.78,2.26l-.57-1.48-1.48,4a5.88,5.88,0,0,1-3.65-5.39l-1.35,2a2.17,2.17,0,0,1-.91-1,24.29,24.29,0,0,0-3.57,1.83q-.07-1.07-.09-2.2a18.42,18.42,0,0,1,9.13-2.3,19,19,0,0,1,8.72,2.5Q610.5,22.55,610.48,23.51Z"/><path class="cls-47" d="M591.83,24.81a4.57,4.57,0,0,1,1-1.3l.76-.5a21.51,21.51,0,0,0-.28,5.59Z"/><path class="cls-48" d="M593.61,23l-.76.5a4.57,4.57,0,0,0-1,1.3l-.39-1a7.69,7.69,0,0,1,2.3-1.67Z"/><path class="cls-47" d="M611.57,24.68l-1.57,4a21.69,21.69,0,0,0-.28-5.61q.35.19.83.5A3.91,3.91,0,0,1,611.57,24.68Z"/><path class="cls-48" d="M611.57,24.68a3.91,3.91,0,0,0-1-1.15q-.47-.31-.83-.5-.06-.39-.13-.83a7.68,7.68,0,0,1,2.3,1.67Z"/><path class="cls-49" d="M590.19,24.4a2.26,2.26,0,0,1-.33-1.37,14.25,14.25,0,0,1,6.91-5.67,6.05,6.05,0,0,0-.57,2.83A26,26,0,0,0,590.19,24.4Zm15.63-7a16,16,0,0,1,7.87,5.83,3.55,3.55,0,0,1-.48,1.3,26,26,0,0,0-6.87-4.74A10.43,10.43,0,0,0,605.83,17.35Z"/><path class="cls-50" d="M590.19,24.4a26,26,0,0,1,6-4.22,6.05,6.05,0,0,1,.57-2.83,14.28,14.28,0,0,1,5.11-.89,19.73,19.73,0,0,1,3.94.89,10.43,10.43,0,0,1,.52,2.39,26,26,0,0,1,6.87,4.74l-.26.35A21.44,21.44,0,0,0,606.33,21a16.56,16.56,0,0,0-4.48-.93,16,16,0,0,0-5.41,1,19,19,0,0,0-5.94,3.7A2.43,2.43,0,0,1,590.19,24.4Z"/><path class="cls-51" d="M604.41,26.08a12.73,12.73,0,0,1,.2-1.32,2.28,2.28,0,0,1,1.59-1.26A2.07,2.07,0,0,1,608,24.61a9.11,9.11,0,0,1,.24,1.59Q606.51,23.15,604.41,26.08Z"/><path class="cls-33" d="M602.64,30.18a1,1,0,0,1-.35.24,1.16,1.16,0,0,1-.54.11,1,1,0,0,1-.52-.11,1,1,0,0,1-.37-.28,1.07,1.07,0,0,1,.89-.61A1,1,0,0,1,602.64,30.18Z"/><path class="cls-45" d="M604.22,23.07l-.24-2.3-.08.13,0-1.13a9.76,9.76,0,0,0-2,5.87Q599.28,24,599,22.35a4.62,4.62,0,0,1,.22-2.7l-.22.12.7-1.75a6,6,0,0,0-2.52,4.11,8.32,8.32,0,0,1-.54-1.72q-.33-4.49,4.8-5.28a5.13,5.13,0,0,1,2,1.87,2.66,2.66,0,0,1,1.43-.65,4.83,4.83,0,0,1,1,2.22l-.11-.26A11.72,11.72,0,0,1,604.22,23.07Z"/><path class="cls-44" d="M596.65,20.42a4.24,4.24,0,0,1,1-4.13,6.86,6.86,0,0,1,3.85-1.52,7.38,7.38,0,0,1,2,1.87,3.14,3.14,0,0,1,1.41-.28,2.66,2.66,0,0,0-1.43.65,5.13,5.13,0,0,0-2-1.87Q596.32,15.93,596.65,20.42Z"/><path class="cls-52" d="M604.22,23.07a11.72,11.72,0,0,0,1.59-4.76l.11.26a5.46,5.46,0,0,1,.09,1,5.71,5.71,0,0,1-1.76,3.76ZM599,19.78a4.51,4.51,0,0,0-1.83,2.36A6,6,0,0,1,599.72,18Zm4.88,1.12A16.65,16.65,0,0,0,602,25.72l-.13-.09a9.76,9.76,0,0,1,2-5.87Z"/><path class="cls-53" d="M599.22,32.9h5.14a2.59,2.59,0,0,1-2.55,2.4A2.72,2.72,0,0,1,599.22,32.9Z"/><path class="cls-54" d="M596.17,29.39a2.31,2.31,0,0,1-1-1.68,2.92,2.92,0,0,1,.68-2.22,2.27,2.27,0,0,1,1.79-.69,2.3,2.3,0,0,1,1.74.9,1.88,1.88,0,0,1,.32,1.68,1.84,1.84,0,0,1-1.13,1.18,1.66,1.66,0,0,1-1.75-.4,1.39,1.39,0,0,1-.27-1.53,1.18,1.18,0,0,1,1.5-.69,1,1,0,0,1,.72,1.12.78.78,0,0,1-.41.51"/><path class="cls-54" d="M606.94,29.39a2.31,2.31,0,0,0,1-1.68,2.92,2.92,0,0,0-.68-2.22,2.27,2.27,0,0,0-1.79-.69,2.3,2.3,0,0,0-1.74.9,1.88,1.88,0,0,0-.32,1.68,1.84,1.84,0,0,0,1.13,1.18,1.66,1.66,0,0,0,1.75-.4,1.39,1.39,0,0,0,.27-1.53,1.18,1.18,0,0,0-1.5-.69,1,1,0,0,0-.72,1.12.78.78,0,0,0,.41.51"/><path class="cls-55" d="M602.88,19.56A147,147,0,0,1,580.1,18c-9.93-1.64-9.93-3.71-9.93-4.39,0-2.74,7.48-4,9.93-4.39a166.93,166.93,0,0,1,45.55,0c9.93,1.64,9.93,3.71,9.93,4.39,0,2.74-7.48,4-9.93,4.39A147,147,0,0,1,602.88,19.56Zm0-10.6a145.72,145.72,0,0,0-22.57,1.54c-7,1.16-8.85,2.54-8.85,3.11s1.85,2,8.85,3.11a145.72,145.72,0,0,0,22.57,1.54,145.72,145.72,0,0,0,22.57-1.54c7-1.16,8.85-2.54,8.85-3.11s-1.85-2-8.85-3.11A145.72,145.72,0,0,0,602.88,9Z"/><path class="cls-55" d="M602.88,16.46A147,147,0,0,1,580.1,14.9c-9.93-1.64-9.93-3.71-9.93-4.39,0-2.74,7.48-4,9.93-4.39a166.93,166.93,0,0,1,45.55,0c9.93,1.64,9.93,3.71,9.93,4.39,0,2.74-7.48,4-9.93,4.39A147,147,0,0,1,602.88,16.46Zm0-10.6A145.72,145.72,0,0,0,580.32,7.4c-7,1.16-8.85,2.54-8.85,3.11s1.85,2,8.85,3.11a145.72,145.72,0,0,0,22.57,1.54,145.72,145.72,0,0,0,22.57-1.54c7-1.16,8.85-2.54,8.85-3.11s-1.85-2-8.85-3.11A145.72,145.72,0,0,0,602.88,5.86Z"/><polygon class="cls-56" points="629.39 4.66 630.02 5.94 631.43 6.14 630.41 7.14 630.65 8.55 629.39 7.88 628.12 8.55 628.36 7.14 627.34 6.14 628.75 5.94 629.39 4.66"/><polygon class="cls-56" points="573.79 19.59 574.27 20.55 575.32 20.71 574.56 21.45 574.74 22.5 573.79 22.01 572.85 22.5 573.03 21.45 572.26 20.71 573.32 20.55 573.79 19.59"/><polygon class="cls-56" points="587.91 3.13 589.12 5.58 591.83 5.98 589.87 7.89 590.33 10.59 587.91 9.31 585.48 10.59 585.95 7.89 583.98 5.98 586.69 5.58 587.91 3.13"/><polygon class="cls-56" points="623.91 14.93 624.83 16.78 626.87 17.07 625.39 18.51 625.74 20.54 623.91 19.58 622.09 20.54 622.44 18.51 620.96 17.07 623 16.78 623.91 14.93"/><polygon class="cls-57" points="645.42 10.11 660.79 16.77 655.5 29.11 644.5 33.11 646.84 30.04 639.83 25.22 645.42 10.11"/><path class="cls-10" d="M650,21.94l-.78,1.24a.71.71,0,0,1-1,.26.68.68,0,0,1-.19-1l1.11-1.75a2.16,2.16,0,0,1,1.51-.78,2.12,2.12,0,0,0,1.73-.75l0,0a1.52,1.52,0,0,0-.34-2.19,1.49,1.49,0,0,0-2,.5,2.06,2.06,0,0,0-.18,1.14.54.54,0,0,0,0,.32.83.83,0,0,1-.61.87.73.73,0,0,1-.85-.54,2.59,2.59,0,0,1,.33-2.6,2.93,2.93,0,0,1,4.09-1q2.42,1.65.86,4.3a3.2,3.2,0,0,1-2.36,1.37Q650.15,21.46,650,21.94ZM647.69,24a1,1,0,0,1,.38,1.38,1,1,0,0,1-1.43.29,1,1,0,0,1-.31-1.39A.93.93,0,0,1,647.69,24Z"/><text class="cls-58" transform="translate(460.72 18.31)">足球烯</text><text class="cls-59" transform="translate(397.08 18.19)">金刚石</text><text class="cls-60" transform="translate(528.58 18.19)">石墨</text><circle class="cls-61" cx="138.53" cy="19.71" r="17.74"/><path class="cls-1" d="M138.53,39a19.33,19.33,0,1,1,19.33-19.33A19.35,19.35,0,0,1,138.53,39Zm0-35.48a16.15,16.15,0,1,0,16.15,16.15A16.17,16.17,0,0,0,138.53,3.57Z"/><path class="cls-1" d="M126,27.46c.33.54,1.29,0,1-.59A.57.57,0,1,0,126,27.46Z"/><path class="cls-1" d="M150.1,12.73c.33.54,1.29,0,1-.59A.57.57,0,1,0,150.1,12.73Z"/><path class="cls-1" d="M151.76,20.16c.33.54,1.29,0,1-.59A.57.57,0,1,0,151.76,20.16Z"/><path class="cls-1" d="M124.1,20.16c.33.54,1.29,0,1-.59A.57.57,0,1,0,124.1,20.16Z"/><path class="cls-1" d="M131.25,32.5c.55.32,1.11-.66.56-1A.57.57,0,1,0,131.25,32.5Z"/><path class="cls-1" d="M145.32,8c.55.32,1.11-.66.56-1A.57.57,0,1,0,145.32,8Z"/><path class="cls-1" d="M145.55,32.61c.56-.3,0-1.29-.54-1A.57.57,0,1,0,145.55,32.61Z"/><path class="cls-1" d="M132.12,7.77c.56-.3,0-1.29-.54-1A.57.57,0,1,0,132.12,7.77Z"/><path class="cls-1" d="M139.13,6.12c.56-.3,0-1.29-.54-1A.57.57,0,1,0,139.13,6.12Z"/><path class="cls-1" d="M139.13,33.77c.56-.3,0-1.29-.54-1A.57.57,0,1,0,139.13,33.77Z"/><path class="cls-1" d="M151.17,27.15c.32-.55-.64-1.12-1-.57A.57.57,0,1,0,151.17,27.15Z"/><path class="cls-1" d="M126.87,12.75c.32-.55-.64-1.12-1-.57A.57.57,0,1,0,126.87,12.75Z"/><polygon class="cls-1" points="145.51 29.27 136.83 20.85 137.14 11.11 138.34 11.11 138.85 20.6 146.34 28.49 145.51 29.27"/><path class="cls-1" d="M381,23.45c0,.2-.88-.34-1.28-.34H289.41c-.4,0-.41.54-.41.34V21.72c0-.2,0-1.61.41-1.61h90.31c.4,0,1.28,1.41,1.28,1.61Z"/><path class="cls-1" d="M381,23.63c0,.1-.88-.52-1.28-.52H289.41c-.4,0-.41.62-.41.52v-.87c0-.1,0,.34.41.34h90.31c.4,0,1.28-.44,1.28-.34Z"/><rect class="cls-1" x="292" y="23.11" width="3" height="3" rx="0.72" ry="0.72"/><rect class="cls-1" x="372" y="23.11" width="3" height="3" rx="0.72" ry="0.72"/><path class="cls-1" d="M302,21c0,.2,0-.89-.28-.89h-4.3c-.28,0-2.43,1.09-2.43.89V1.27a10.65,10.65,0,0,1,2.43-2.16h4.3c.28,0,.28,2,.28,2.16Z"/><path class="cls-1" d="M305,21.08c0,.16,1.12-1,.9-1h-3.32c-.21,0-.59,1.12-.59,1V5.65a.87.87,0,0,1,.59-.54h3.32c.21,0-.9.38-.9.54Z"/><path class="cls-1" d="M310,21v-.94h-3.37c-.21,0-1.63,1.11-1.63.94V4c0-.17,1.42,1.14,1.63,1.14H310V21Z"/><path class="cls-1" d="M318.4,20.08a.3.3,0,0,1-.25.37l-3.19.91a.35.35,0,0,1-.45-.17L310.27,6.36c0-.15.1-.3.3-.35l3.19-.91c.2-.06.36,0,.4.15Z"/><rect class="cls-1" x="304" y="10.11" width="1" height="8"/><rect class="cls-1" x="305" y="5.11" width="5" height="2"/><rect class="cls-1" x="312.29" y="8.01" width="0.72" height="5.64" transform="translate(9.63 88.6) rotate(-16.38)"/><rect class="cls-1" x="312.9" y="7.84" width="0.29" height="3.03" transform="translate(10.07 88.68) rotate(-16.38)"/><rect class="cls-1" x="348" y="17.11" width="21" height="6" rx="0.36" ry="0.36"/><rect class="cls-1" x="347" y="12.11" width="23" height="4" rx="0.36" ry="0.36"/><rect class="cls-1" x="351" y="10.11" width="18" height="4" rx="0.36" ry="0.36"/><rect class="cls-1" x="353" y="7.11" width="18" height="1" rx="0.36" ry="0.36"/><rect class="cls-1" x="365" y="17.11" width="3" height="3"/><rect class="cls-1" x="348" y="17.11" width="4" height="3"/><rect class="cls-1" x="349" y="13.11" width="2" height="4"/><rect class="cls-1" x="362" y="9.11" width="5" height="1"/><rect class="cls-1" x="360" y="10.11" width="5" height="2"/><rect class="cls-1" x="367" y="8.11" width="1" height="2"/><rect class="cls-1" x="355" y="8.11" width="1" height="2"/><polygon class="cls-1" points="339.48 21.26 338.14 12.11 332.91 12.11 330.38 12.11 325.14 12.11 323.8 21.26 331.64 21.25 339.48 21.26"/><circle class="cls-1" cx="331.64" cy="13.31" r="6.04"/><path class="cls-1" d="M331.64,19.88a6.58,6.58,0,1,1,6.58-6.58A6.59,6.59,0,0,1,331.64,19.88Zm0-12.07a5.49,5.49,0,1,0,5.49,5.49A5.5,5.5,0,0,0,331.64,7.81Z"/><path class="cls-1" d="M331,8.34v.38C333,8.73,333,8.34,331,8.34Z"/><path class="cls-1" d="M331,18v.38C333,18.34,333,18,331,18Z"/><path class="cls-1" d="M327.38,15.94c.11.18.44,0,.33-.2A.19.19,0,1,0,327.38,15.94Z"/><path class="cls-1" d="M335.58,10.93c.11.18.44,0,.33-.2A.19.19,0,1,0,335.58,10.93Z"/><path class="cls-1" d="M329.17,17.66c.19.11.38-.22.19-.33A.19.19,0,1,0,329.17,17.66Z"/><path class="cls-1" d="M334,9.33c.19.11.38-.22.19-.33A.19.19,0,1,0,334,9.33Z"/><path class="cls-1" d="M334,17.69c.19-.1,0-.44-.18-.34A.19.19,0,1,0,334,17.69Z"/><path class="cls-1" d="M329.46,9.24c.19-.1,0-.44-.18-.34A.19.19,0,1,0,329.46,9.24Z"/><path class="cls-1" d="M335.94,15.84c.11-.19-.22-.38-.33-.2A.19.19,0,1,0,335.94,15.84Z"/><path class="cls-1" d="M327.68,10.94c.11-.19-.22-.38-.33-.2A.19.19,0,1,0,327.68,10.94Z"/><polygon class="cls-1" points="334.14 16.27 331.54 13.56 331.52 10.11 331.74 10.11 331.75 13.47 334.3 16.23 334.14 16.27"/><path class="cls-1" d="M331,12.94v.72C333,13.66,333,12.94,331,12.94Z"/><path class="cls-1" d="M283,44.11H191V40.68c0-.2.26.43.65.43H282c.4,0,1-.63,1-.43Z"/><rect class="cls-1" x="195" y="43.11" width="3" height="3" rx="0.72" ry="0.72"/><rect class="cls-1" x="274" y="43.11" width="3" height="3" rx="0.72" ry="0.72"/><rect class="cls-1" x="243" y="23.11" width="7" height="18"/><rect class="cls-1" x="250" y="25.11" width="6" height="16" rx="0.36" ry="0.36"/><rect class="cls-1" x="256" y="23.11" width="4" height="18" rx="0.36" ry="0.36"/><rect class="cls-1" x="261.74" y="24.28" width="3.76" height="15.89" rx="0.36" ry="0.36" transform="matrix(0.97, -0.26, 0.26, 0.97, 0.59, 68.94)"/><rect class="cls-1" x="243" y="37.11" width="7" height="1"/><rect class="cls-1" x="250" y="27.11" width="1" height="5"/><rect class="cls-1" x="256" y="23.11" width="4" height="2"/><rect class="cls-1" x="256" y="25.11" width="4" height="2"/><rect class="cls-1" x="256" y="36.11" width="4" height="1"/><rect class="cls-1" x="256" y="38.11" width="4" height="1"/><rect class="cls-1" x="260.18" y="25.78" width="3.76" height="1.23" transform="translate(2.03 68.34) rotate(-14.92)"/><rect class="cls-1" x="263.31" y="37.51" width="3.76" height="1.23" transform="translate(-0.88 69.54) rotate(-14.92)"/><polygon class="cls-1" points="258.59 25.08 258.2 25.06 257.96 25.37 257.86 24.99 257.49 24.86 257.82 24.64 257.82 24.25 258.13 24.5 258.51 24.38 258.37 24.75 258.59 25.08"/><polygon class="cls-1" points="258.59 37.86 258.2 37.84 257.96 38.16 257.86 37.78 257.49 37.65 257.82 37.43 257.82 37.04 258.13 37.28 258.51 37.17 258.37 37.54 258.59 37.86"/><rect class="cls-1" x="262.4" y="27.35" width="0.51" height="10.11" transform="matrix(0.97, -0.26, 0.26, 0.97, 0.51, 68.69)"/><rect class="cls-1" x="262.51" y="27.24" width="0.36" height="4.48" transform="matrix(0.97, -0.26, 0.26, 0.97, 1.26, 68.56)"/><rect class="cls-1" x="217" y="37.11" width="19" height="4" rx="0.36" ry="0.36"/><rect class="cls-1" x="220" y="36.11" width="18" height="4" rx="0.36" ry="0.36"/><rect class="cls-1" x="221" y="30.11" width="16" height="4" rx="0.36" ry="0.36"/><rect class="cls-1" x="222" y="27.11" width="16" height="4" rx="0.36" ry="0.36"/><rect class="cls-1" x="222" y="29.11" width="12" height="1"/><rect class="cls-1" x="222" y="29.11" width="12" height="1"/><polygon class="cls-1" points="224 33.02 223.54 32.3 223 33.02 223 31.11 224 31.11 224 33.02"/><rect class="cls-1" x="234" y="34.11" width="1" height="3"/><rect class="cls-1" x="220" y="34.11" width="2" height="3"/><rect class="cls-1" x="235" y="37.11" width="3" height="2"/><rect class="cls-1" x="221" y="38.11" width="13" height="3"/><path class="cls-1" d="M234,41.11H221v-3h13Zm-13,0h13v-3H221Z"/><path class="cls-1" d="M202.78,32.11s.07-11-5.94-10.79,4.35,10.79,4.69,10.79Z"/><path class="cls-1" d="M204.46,36.11s-.06-11,4.84-10.79-3.54,10.79-3.83,10.79Z"/><path class="cls-1" d="M203,32.93s-4.9-6.13-2.84-10,3.81,9.18,3.74,9.83S203,32.93,203,32.93Z"/><path class="cls-1" d="M204.32,33.56s4.64-6.32,2.43-10.11-3.43,9.33-3.33,10S204.32,33.56,204.32,33.56Z"/><path class="cls-1" d="M202.83,32.24c.28.59.91-.13.91-.13s2.6-7.4-.61-10.38"/><polygon class="cls-1" points="208.13 41.11 200.18 41.11 198.09 30.11 210.15 30.11 208.13 41.11"/><polygon class="cls-1" points="210.28 32.11 198.02 32.11 197.62 30.11 210.61 30.11 210.28 32.11"/><rect class="cls-62" x="791.31" y="3.27" width="150.02" height="46.2"/><circle class="cls-1" cx="932.71" cy="52.08" r="1.63"/><circle class="cls-1" cx="830.47" cy="52.08" r="1.63"/><rect class="cls-1" x="940.53" y="1.55" width="2.15" height="49.85"/><rect class="cls-1" x="791.49" y="48.76" width="149.61" height="0.41"/><rect class="cls-1" x="791.49" y="1.55" width="149.61" height="2.45"/><rect class="cls-1" x="789.91" y="1.55" width="2.35" height="49.85"/><rect class="cls-1" x="790.07" y="48.64" width="152.49" height="2.76"/><rect class="cls-1" x="849.19" y="40.48" width="6.92" height="4.08"/><polygon class="cls-1" points="846.51 39.87 844.06 38.64 858.49 11.73 860.87 13 846.51 39.87"/><path class="cls-1" d="M856.4,12.43A13.93,13.93,0,1,1,842.93,36l-1.13,1.89A16.09,16.09,0,1,0,857.46,10.5Z"/><path class="cls-1" d="M862.16,48c0-2.26-4.24-4.28-9.47-4.28s-9.46,2-9.46,4.28Z"/><path class="cls-1" d="M863.83,25.38c0-.33,0-.62-.07-.91a11.47,11.47,0,0,0-5.11-8.31h0l-.06,0A11.5,11.5,0,0,0,849,14.78c-.28.08-.57.19-.86.3a11.47,11.47,0,0,0-7.27,11.11c0,.31,0,.61.07.91A11.48,11.48,0,0,0,846,35.37l.05,0a11.5,11.5,0,0,0,9.67,1.37c.28-.08.56-.18.86-.3a11.47,11.47,0,0,0,7.27-11.11Z"/><path class="cls-1" d="M863.83,25.38c0-.33,0-.62-.07-.91a11.47,11.47,0,0,0-5.11-8.31h0l-.06,0A11.5,11.5,0,0,0,849,14.78c-.28.08-.57.19-.86.3a11.47,11.47,0,0,0-7.27,11.11c0,.31,0,.61.07.91A11.48,11.48,0,0,0,846,35.37l.05,0a11.5,11.5,0,0,0,9.67,1.37c.28-.08.56-.18.86-.3a11.47,11.47,0,0,0,7.27-11.11Z"/><g class="cls-63"><polygon class="cls-1" points="868.21 30.27 867.55 30.29 867.52 29.93 867.63 29.98 867.88 29.95 867.86 29.63 867.15 29.63 866.95 29.38 866.96 29.24 866.05 28.42 865.83 28.59 867.13 30.19 867.32 30.25 867.32 30.34 867.07 30.34 867.13 30.54 868.74 30.61 868.21 30.27"/><polygon class="cls-1" points="869.24 29.44 869.34 29.36 869.34 28.49 869.24 28.44 869.18 28.17 869.02 28.17 868.92 28.45 868.8 28.55 867.87 29.06 867.87 29.56 868.18 29.97 868.96 29.97 869.06 29.71 869.24 29.55 869.24 29.44"/><polygon class="cls-1" points="869.93 29.36 869.46 29.55 869.46 29.65 869.34 29.65 869.34 30.3 869.59 30.3 869.55 29.89 869.74 29.95 869.74 30.25 869.93 30.23 869.93 29.36"/><polygon class="cls-1" points="873.75 32.77 873.27 32.36 873.24 31.58 872.92 31.04 872.64 31.03 872.52 32.01 871.98 31.97 871.83 31.88 871.81 31.49 872.1 31.55 872.34 31.31 871.82 31 871.22 31 870.78 31.62 870.6 31.62 870.6 31.42 870.08 31.46 869.25 32.4 868.82 32.41 868.33 32.75 868.29 34.2 868 34.49 868 34.74 869.42 34.26 870.57 34.21 871 35.15 872.31 35.19 873.57 34.01 873.88 33.3 873.75 32.77"/><polygon class="cls-1" points="871.17 35.87 871.63 35.92 872.01 35.71 872.01 35.43 871.61 35.39 871.17 35.87"/><polygon class="cls-1" points="875.62 34.59 875.43 34.63 875.42 34.19 875.07 34.22 875.02 34.9 874.71 35.11 874.13 35.19 873.21 35.84 873.05 35.97 873.05 36.19 873.54 36.12 874.71 35.4 875.04 35.18 875.39 35.02 875.75 34.82 875.62 34.59"/><polygon class="cls-1" points="871.99 29.74 871.69 29.75 871.71 29.44 871.43 29.27 871.03 29.67 871.29 30.01 871.88 30.09 872.21 30.26 872.22 30.42 872.01 30.42 872.01 30.75 872.73 30.71 872.98 30.43 873.26 30.41 873.26 30.91 873.74 30.91 873.74 30.71 873.5 30.71 873.45 30.09 872.31 29.57 871.99 29.74"/><polygon class="cls-1" points="863.46 28.27 863.57 28.57 863.98 28.42 864.02 28 863.7 27.93 863.46 28.27"/><polygon class="cls-1" points="858.72 31.78 858.17 31.71 858.17 32.14 858.37 32.37 858.22 32.6 857.99 32.86 857.99 33.33 858.3 33.62 858.57 33.18 859.11 32.39 859.37 31.14 859.04 31.14 858.72 31.78"/><polygon class="cls-1" points="870.04 30.47 869.86 30.47 869.86 30.57 870 30.61 870.04 30.47"/><rect class="cls-1" x="869.02" y="30.61" width="0.21" height="0.12"/><polygon class="cls-1" points="869.54 30.73 869.67 30.73 869.67 30.63 869.77 30.61 869.77 30.51 869.56 30.51 869.47 30.61 869.34 30.73 869.34 30.83 869.54 30.81 869.54 30.73"/><polygon class="cls-1" points="870.09 30.82 870.3 30.82 870.3 30.71 870.45 30.73 870.43 30.54 870.19 30.58 870.16 30.7 869.89 30.73 869.88 30.73 869.88 30.91 870.09 30.91 870.09 30.82"/><path class="cls-1" d="M837.27,21.56l0-.28-.29,0a1.41,1.41,0,0,0,0,.32Z"/><polygon class="cls-1" points="851.77 21.29 851.79 21.46 851.53 21.52 851.5 21.89 851.81 21.89 852.22 21.85 852.43 21.59 852.21 21.5 852.09 21.36 851.9 21.06 851.81 20.63 851.46 20.7 851.36 20.86 851.36 21.02 851.53 21.14 851.77 21.29"/><polygon class="cls-1" points="851.47 21.43 851.49 21.2 851.29 21.11 851 21.18 850.78 21.52 850.78 21.74 851.03 21.74 851.47 21.43"/><path class="cls-1" d="M866.21,28.18l1.26,1.21.07-.21-1-1.46.11-.43.54.61.3,0,.4-.27-.06-.4-.66-.53,0-.48.19-.25.33.11,0,.23.19.29.17-.12-.09-.35.93-.33.41-.34-.06-.62-.81-.85v-.69h.36l1.12.85.32-.09-.21-.27-.6-.37,0-.54h.71l.06-.67-.27-.36.16-.17.35.35.11-.15-.44-.51-1.11-.13-.15-.29.32-.45.25.18.76.07,1-.64.16.2-.21.33V21l.88.72.28-.15-.11-.48-.62-.59.82-.05v-.24l.4-.08-.31-.21v-.16l.84.13.16-.13-1.13-.48-4.13-.21-.39-.19-.61-.09-.46,0-.42.42H866l-.55-.41h-1.64l-.76-.45-1.52.1-1.16.52v.6l-.36.11L860,19l-.13-.21-.4-.1-.09.36.12.29-1.42-.09-.68.32-.1-.3-.17,0-.12.33-.36.28-.87,0,0-.19.91,0,.19-.16L855.73,19l-1.33,0-.75.38-.28.5-.49.19-.21.22,0,.26.26,0,.15.38.44-.18.07.51h-.13l-.36-.05-.4.07-.39.55-.55.09-.08.47.23.05-.07.3-.55-.11-.5.11-.11.28.09.59.29.14h.49l.33,0,.1-.27.52-.68.34.07.34-.31.06.24.84.56-.1.14-.37,0,.14.2.23.05.27-.11v-.33l.12-.06-.1-.11-.56-.31-.15-.41h.46l.15.15.4.34,0,.41.41.44.15-.6.29-.16.05.49.28.31h.84l.25.19v.44l-.31.28h-.85l-.52-.39-.55.05v.33h-.17l-.19-.13-.95-.24v-.61l-1.2.09-.37.2h-.48l-.23,0-.58.32V25l-1.18.85.1.37h.24l-.06.35-.17.06v.91l1,1.16h.44l0-.07h.8l.23-.21h.45l.25.25.68.07-.09.9L854,31l-.39.76,0,.36.31.31v.86l.41.55v.71h1.21l.91-.93.28-.51.37-.08v-.43l.24-.28.51-.69-.11-1.06-.22-.39,1-1,1.1-1.57-.21-.1-1.14.24-.29-.15-1.2-2.26.08-.1,1.19,1.44,0,.45.28.28.56,0,1.17-.85.37-.24V26l-.39-.05s-1.37-.64-1.37-.67,0-.55,0-.55h.3l0,.38.63.36.72,0,1.57.26.37.23v.36l0,.49.8,1.33.26.06.26-.38.14-1.07.27-.58.43-.16.76.08,1,.85Zm-11-8.43-.53.32v.21l.3.14,0,.28-.42.63h-.73l0-.15.46-.23v-.87l.78-.54h.17Zm1.63,3.7-.69,0-.21,0V23l.15-.18.17-.05.37,0,.08-.13.15.07,0,.43.4.16,0,.2Zm2.65.34-.12.11-.28,0L859,23.8l-.44,0,0-.14.23-.2v-.17l-.45-.32,0-.41.09-.21.36,0,.31.13v.21l-.44,0,0,.2.55.36v.27l.24.17Z"/><path class="cls-1" d="M845.49,22.58h-.31v.16h.07s0,0,0,.08l.19,0,.12-.07,0-.15h.15l.06-.12-.14,0h-.12Z"/><polygon class="cls-1" points="844.76 22.86 844.98 22.84 845 22.68 844.87 22.57 844.77 22.7 844.76 22.86"/><path class="cls-1" d="M847.68,29.71h-.94l-.75-.29,0-.53-.25-.44H845l-.39-.61-.34-.17,0,.18-.63,0-.23-.32-.66-.13-.54.63-.85-.15-.06-1-.62-.1.25-.47-.07-.27-.82.55-.52-.06-.18-.4.11-.42.28-.52.65-.33h1.26v.38l.45.21,0-.66.32-.33.66-.43,0-.31.66-.68.7-.39-.06-.05.48-.44.17,0,.08.1.18-.2,0,0-.2,0-.2-.07v-.19l.1-.09h.24l.1,0,.09.18.11,0h0l.33,0,0-.16.19,0V22l-.17.12h0l0,.19.59.18h.14v-.26l-.47-.21,0-.13.39-.13,0-.37-.41-.25,0-.63-.56.27h-.2l.05-.48-.76-.18-.32.24v.73l-.57.18-.23.47-.25,0v-.61l-.53-.07-.27-.17-.11-.39,1-.56.47-.14,0,.31h.26l0-.16.27,0v-.05l-.12,0,0-.17.33,0,.2-.21v0h0l.06-.06.7-.09.31.26-.81.43,1,.24.13-.35h.45l.16-.3-.32-.08v-.38l-1-.44-.69.08-.39.2,0,.5-.41-.06-.06-.28.39-.36-.71,0-.2.06-.09.24.27,0-.05.27-.45,0-.07.18-.65,0a1.8,1.8,0,0,0,0-.37H843l.39-.38-.21-.11-.28.28-.47,0-.28-.39h-.6l-.63.47h.58l.05.17-.15.14.64,0,.1.23-.72,0,0-.18-.45-.1-.24-.13h-1.07l-.33.32-.22,0-.25-.14-.74-.22h-1.35l-.78.53-.52.08-.24.19.37.05v.15h-.8l-.31.22.4.34H836l.15-.16H837l.33.29,0,.45.28.26-.23.16.05.6-.83,1v.94l.44.21v.85l.43.73.35.05,0-.25-.41-.63-.08-.61h.24l.1.63.59.86-.15.28.37.57.93.23V27l.37.05,0,.27.29.05.45.13.64.73.82.06.08.66-.56.39,0,.59-.08.37.81,1,.06.34.33.08s.66.47.66.47V34l.22.06-.15.84.37.5-.07.84.49.87.63.55h.64l.06-.21-.47-.39,0-.2.08-.24,0-.24h-.31l-.16-.2.26-.25,0-.19-.29-.08,0-.18.42-.06.64-.31.21-.39.67-.85-.15-.67.21-.36.61,0,.41-.33.14-1.28.46-.58.08-.37-.42-.13Zm-4.83-6.56-.15.15h-.34l.05-.24h.16l0-.08.25,0Zm.08-.42-.16.1-.2,0v-.35h.36Zm.3-.25.16.1-.13.11-.13-.11Zm-.22.27h0l.41.12v.21h-.34l-.09-.13Zm-.27-.57.22.2-.22.05Zm-.93,0,.31-.13h.42v.13h.09v.22H842l-.24-.07Zm-.06.57.25-.27h.35l-.45.63-.19-.1Zm-.33-1.51.25.06-.09.34-.27.09-.17-.35Zm-1.27-1.61v0h.24l0-.08h.38v.17l-.11.15h-.53Zm.37.52.25,0s0,.23,0,.23l-.53,0-.1-.12Z"/></g><path class="cls-1" d="M882.57,35.1V26.23h-7V35.1s-9.64,13.05-6,13.05h18.9C892.21,48.15,882.57,35.1,882.57,35.1Z"/><path class="cls-1" d="M882.48,24.46h-6.79a.91.91,0,1,0,0,1.82h6.79a.91.91,0,1,0,0-1.82Z"/><path class="cls-1" d="M835.29,37.73V30.66h-5.56v7.07S822,48.15,825,48.15h15.08C843,48.15,835.29,37.73,835.29,37.73Z"/><path class="cls-1" d="M835.22,29.24H829.8a.73.73,0,1,0,0,1.45h5.42a.73.73,0,1,0,0-1.45Z"/><path class="cls-1" d="M821.32,35.1H810.19V46.22a1.93,1.93,0,0,0,1.93,1.93h7.26a1.93,1.93,0,0,0,1.93-1.93Z"/><path class="cls-1" d="M821.3,33.74h-11a.7.7,0,1,0,0,1.39h11a.7.7,0,1,0,0-1.39Z"/><path class="cls-1" d="M934.28,40.13V34.69H930v5.45s-5.92,8-3.66,8h11.61C940.2,48.15,934.28,40.13,934.28,40.13Z"/><path class="cls-1" d="M934.22,33.6h-4.17a.56.56,0,1,0,0,1.12h4.17a.56.56,0,1,0,0-1.12Z"/><path class="cls-1" d="M894,27.88h-2.51v17.6A2.67,2.67,0,0,0,894,48.15a2.7,2.7,0,0,0,2.54-2.68V27.88Z"/><path class="cls-1" d="M896.79,26.77h-5.5a.6.6,0,0,0,0,1.17h5.5a.6.6,0,0,0,0-1.17Z"/><path class="cls-1" d="M804.35,27.88h-2.51v17.6a2.67,2.67,0,0,0,2.51,2.68,2.7,2.7,0,0,0,2.54-2.68V27.88Z"/><path class="cls-1" d="M807.12,26.77h-5.5a.6.6,0,0,0,0,1.17h5.5a.6.6,0,0,0,0-1.17Z"/><path class="cls-1" d="M920.49,42.25v0h-14.8s0,0,0,.05v3.55c0,1.29.74,2.33,1.65,2.33l11.5,0c.91,0,1.65-1,1.65-2.33Z"/><path class="cls-1" d="M923.93,46.93l-3.2-16.37H919.2l3.26,16.66a.75.75,0,1,0,1.48-.29Z"/><path class="cls-1" d="M905.44,30.55l-3.2,16.37a.75.75,0,1,0,1.48.29L907,30.55Z"/><path class="cls-1" d="M913.13,30.55h-.79V47.07a.75.75,0,0,0,.75.75h0a.75.75,0,0,0,.71-.74V30.55Z"/><path class="cls-1" d="M905.44,30.55l-3.2,16.37a.75.75,0,1,0,1.48.29L907,30.55Z"/><path class="cls-1" d="M923,29.66H903.17a.89.89,0,0,0,0,1.78H923a.89.89,0,1,0,0-1.78Z"/><path class="cls-1" d="M752.15,31.06V46h15v-15Zm6,11.05a.63.63,0,0,1-.76-.47L756.71,39a.63.63,0,0,1,1.22-.29l.63,2.65A.63.63,0,0,1,758.1,42.11Zm2.16-4.45a.63.63,0,1,1-1.26,0V34.93a.63.63,0,1,1,1.26,0ZM762.44,39l-.63,2.65a.63.63,0,1,1-1.22-.29l.63-2.65a.63.63,0,1,1,1.22.29Z"/></g></g></svg>