<svg xmlns="http://www.w3.org/2000/svg" xmlns:xlink="http://www.w3.org/1999/xlink" viewBox="0 0 1024 80"><defs><style>.cls-1{fill:#0d3170;}.cls-2{isolation:isolate;}.cls-3{fill:#001b4d;stroke:#231815;}.cls-3,.cls-5,.cls-7{stroke-miterlimit:10;}.cls-4{fill:url(#linear-gradient);}.cls-5{fill:#001f4c;stroke:#002582;}.cls-100,.cls-22,.cls-23,.cls-24,.cls-25,.cls-29,.cls-30,.cls-31,.cls-32,.cls-33,.cls-34,.cls-35,.cls-36,.cls-37,.cls-38,.cls-39,.cls-40,.cls-41,.cls-42,.cls-43,.cls-44,.cls-45,.cls-46,.cls-47,.cls-48,.cls-49,.cls-5,.cls-50,.cls-51,.cls-52,.cls-53,.cls-54,.cls-55,.cls-56,.cls-57,.cls-58,.cls-59,.cls-60,.cls-61,.cls-62,.cls-63,.cls-64,.cls-65,.cls-66,.cls-67,.cls-68,.cls-69,.cls-70,.cls-71,.cls-72,.cls-73,.cls-74,.cls-75,.cls-76,.cls-77,.cls-78,.cls-79,.cls-80,.cls-81,.cls-82,.cls-83,.cls-84,.cls-86,.cls-91,.cls-92,.cls-98{fill-rule:evenodd;}.cls-113,.cls-114,.cls-6,.cls-9{opacity:0.3;}.cls-7,.cls-85,.cls-86{fill:none;stroke:#fff;}.cls-7{mix-blend-mode:overlay;}.cls-8{fill:url(#linear-gradient-2);}.cls-9{fill:url(#linear-gradient-3);}.cls-10{fill:#ef6f20;}.cls-11{fill:#f5981b;}.cls-12{fill:#43a9de;}.cls-13{fill:#499ecc;}.cls-14{fill:#009b4f;}.cls-15{fill:#35904d;}.cls-16{fill:#7b828a;}.cls-17{fill:#80888f;}.cls-18{fill:#891c80;}.cls-19{fill:#85297b;}.cls-20{fill:#ea2f35;}.cls-21{fill:#071435;}.cls-22{fill:#efdfd5;}.cls-23{fill:#c19785;}.cls-24{fill:#e7e7e7;}.cls-25{fill:#d3524b;}.cls-26{opacity:0.5;}.cls-27{fill:#99f;}.cls-28{fill:url(#linear-gradient-4);}.cls-29{fill:#231054;}.cls-30{fill:#fff;}.cls-31{fill:#1f1931;}.cls-32{fill:#4f365f;}.cls-33{fill:#b66f5d;}.cls-34{fill:#1e9f96;}.cls-35{fill:#07988d;}.cls-36{fill:#ec496e;}.cls-37{fill:#09b5a8;}.cls-38{fill:#4bcdc4;}.cls-39{fill:#10877e;}.cls-40{fill:#932727;}.cls-41{fill:#e9a285;}.cls-42{fill:#585672;}.cls-43{fill:#434156;}.cls-44{fill:#ae9f84;}.cls-45{fill:#cdc1a9;}.cls-46{fill:#c73434;}.cls-47{fill:#bb4942;}.cls-48{fill:#ffb26d;}.cls-49{fill:#f5f5f5;}.cls-50{fill:#5b5880;}.cls-51{fill:#474562;}.cls-52{fill:#e7d9bf;}.cls-53{fill:#c2b295;}.cls-54{fill:#e2e2e2;}.cls-55{fill:#004949;}.cls-56{fill:#e9dfdf;}.cls-57{fill:#351504;}.cls-58{fill:#1c1313;}.cls-59{fill:#432a2a;}.cls-60{fill:#4f2006;}.cls-61{fill:#3c1905;}.cls-62{fill:#f08f31;}.cls-63{fill:#006ac1;}.cls-116,.cls-64{fill:#2c7dff;}.cls-65{fill:#2d6fa0;}.cls-66{fill:#0c90a5;}.cls-67{fill:#065d66;}.cls-68{fill:#14405b;}.cls-69{fill:#ff0037;}.cls-70{fill:#e9e9e9;}.cls-71{fill:#744f2f;}.cls-72{fill:#d6d3d7;}.cls-73{fill:#bbab9d;}.cls-74{fill:#195c93;}.cls-75{fill:#f98e75;}.cls-76{fill:#ecac99;}.cls-77{fill:#cdcdcd;}.cls-78{fill:#e08731;}.cls-79{fill:#e2846e;}.cls-80{fill:#275883;}.cls-81{fill:#2f3f5b;}.cls-82{fill:#835934;}.cls-83{fill:#e6dfe7;}.cls-84{fill:#cbb8a8;}.cls-85,.cls-86{stroke-linecap:round;stroke-linejoin:round;}.cls-86{stroke-dasharray:3 3;}.cls-87{fill:#66c;}.cls-88{fill:#39f;}.cls-88,.cls-89{opacity:0.6;}.cls-89{fill:#336;}.cls-90,.cls-91{fill:#bd8e00;}.cls-92,.cls-97{fill:#998d8c;}.cls-93,.cls-98{fill:#b7afae;}.cls-94{fill:#4a60bc;}.cls-95{fill:#8298f4;}.cls-96{fill:#7686e5;}.cls-99{fill:#7a7170;}.cls-100{fill:#989291;}.cls-101{fill:#6eccaa;}.cls-102{fill:#dee2e2;}.cls-103{fill:#ef7f1a;}.cls-104{fill:#f4f4f4;}.cls-105{fill:url(#linear-gradient-5);}.cls-106{fill:#5252aa;}.cls-107{fill:#c98150;}.cls-108{fill:#e8a679;}.cls-109{fill:#6dc0f2;}.cls-110{fill:#58a5dd;}.cls-111{fill:#b472d6;}.cls-112{fill:#8a50a5;}.cls-113{fill:url(#linear-gradient-6);}.cls-114{fill:url(#linear-gradient-7);}.cls-115{clip-path:url(#clip-path);}.cls-116{font-size:10px;font-family:FZY4JW--GB1-0, FZY4JW -GB1-0;}</style><linearGradient id="linear-gradient" x1="54.33" y1="9.37" x2="54.33" y2="54.19" gradientUnits="userSpaceOnUse"><stop offset="0" stop-color="#071636"/><stop offset="1" stop-color="#073b93"/></linearGradient><linearGradient id="linear-gradient-2" x1="962.33" y1="14.75" x2="962.33" y2="54.75" xlink:href="#linear-gradient"/><linearGradient id="linear-gradient-3" x1="508.21" y1="53.8" x2="508.21" y2="4.2" gradientUnits="userSpaceOnUse"><stop offset="0" stop-color="#000019"/><stop offset="1" stop-color="#071639"/></linearGradient><linearGradient id="linear-gradient-4" x1="504.36" y1="53.98" x2="504.36" y2="42.99" gradientUnits="userSpaceOnUse"><stop offset="0" stop-color="#fff" stop-opacity="0.2"/><stop offset="1" stop-color="#fff"/></linearGradient><linearGradient id="linear-gradient-5" x1="83.84" y1="60.85" x2="83.84" y2="55.84" xlink:href="#linear-gradient-3"/><linearGradient id="linear-gradient-6" x1="770.79" y1="19.71" x2="806.27" y2="19.71" xlink:href="#linear-gradient-3"/><linearGradient id="linear-gradient-7" x1="135.62" y1="26.37" x2="285.64" y2="26.37" xlink:href="#linear-gradient-3"/><clipPath id="clip-path"><path class="cls-1" d="M208.14,25.38c0-.33,0-.62-.07-.91A11.47,11.47,0,0,0,203,16.17h0l-.06,0a11.5,11.5,0,0,0-9.62-1.33c-.28.08-.57.19-.86.3a11.47,11.47,0,0,0-7.27,11.11c0,.31,0,.61.07.91a11.48,11.48,0,0,0,5.07,8.28l.05,0A11.5,11.5,0,0,0,200,36.79c.28-.08.56-.18.86-.3a11.47,11.47,0,0,0,7.27-11.11Z"/></clipPath></defs><title>初化小故事-6</title><g class="cls-2"><g id="图层_1" data-name="图层 1"><rect class="cls-3" x="-23.68" y="0.04" width="1072.32" height="80"/><rect class="cls-4" x="53.83" y="0.28" width="1" height="54.11"/><polygon class="cls-5" points="54.5 54.4 961 54.4 1024 80 0 80 54.5 54.4"/><g class="cls-6"><line class="cls-7" x1="17.67" y1="70.39" x2="997.67" y2="70.39"/><line class="cls-7" x1="33.67" y1="61.98" x2="978.67" y2="61.35"/><line class="cls-7" x1="122.33" y1="55.25" x2="90" y2="80"/><line class="cls-7" x1="157" y1="55.25" x2="128.67" y2="80"/><line class="cls-7" x1="227.67" y1="55.25" x2="196.33" y2="80"/><line class="cls-7" x1="293" y1="55.25" x2="269.67" y2="80"/><line class="cls-7" x1="84.67" y1="55.25" x2="47.33" y2="80"/><line class="cls-7" x1="193.67" y1="55.25" x2="162.67" y2="80"/><line class="cls-7" x1="261.67" y1="55.25" x2="234.33" y2="80"/><line class="cls-7" x1="326" y1="55.25" x2="306" y2="80"/><line class="cls-7" x1="360" y1="55.25" x2="348" y2="80"/><line class="cls-7" x1="431.33" y1="55.25" x2="426.33" y2="80"/><line class="cls-7" x1="505.33" y1="55.25" x2="504.33" y2="80"/><line class="cls-7" x1="576" y1="55.25" x2="578" y2="80"/><line class="cls-7" x1="646.67" y1="55.25" x2="652.67" y2="80"/><line class="cls-7" x1="718.33" y1="55.25" x2="730.33" y2="80"/><line class="cls-7" x1="792" y1="55.25" x2="810" y2="80"/><line class="cls-7" x1="933" y1="55.25" x2="985" y2="80"/><line class="cls-7" x1="866.67" y1="55.25" x2="896.67" y2="80"/><line class="cls-7" x1="397.67" y1="55.25" x2="389.67" y2="80"/><line class="cls-7" x1="469.33" y1="55.25" x2="464" y2="80"/><line class="cls-7" x1="542" y1="55.25" x2="543.67" y2="80"/><line class="cls-7" x1="612.67" y1="55.25" x2="616.67" y2="80"/><line class="cls-7" x1="682.33" y1="55.25" x2="689.67" y2="80"/><line class="cls-7" x1="753" y1="55.25" x2="768.67" y2="80"/><line class="cls-7" x1="853.67" y1="80" x2="827.67" y2="55.25"/><line class="cls-7" x1="899.33" y1="55.25" x2="946.33" y2="80"/></g><rect class="cls-8" x="961.83" y="6.63" width="1" height="48.3"/><rect class="cls-9" x="54.92" y="-0.31" width="906.58" height="56.12"/><path class="cls-10" d="M584.66,31.34l-4.45-2.17a.41.41,0,0,0-.53.28L578.06,34a.41.41,0,0,0,.15.45l4.16,2.88a.39.39,0,0,0,.6-.17l1.88-5.3a.42.42,0,0,0-.19-.54"/><path class="cls-11" d="M590.16,13.39l2.75,1.27h0l.38.18,1.91-5.37a.3.3,0,0,0-.23-.41L585.2,6.75a.43.43,0,0,0-.47.27l-1.15,3.23.94.28a.32.32,0,0,1,.26.42l-.72,2-.24.68-.63,1.78,5.23,1.8,1.3-3.65a.33.33,0,0,1,.45-.2"/><path class="cls-12" d="M597.71,16.9l-4.41-2.06h0l-.2-.09.19.08-1.16,3.28a.36.36,0,0,1-.46.22l-3.24-1.09L587.09,21l.26.09h0l4.23,1.52a.37.37,0,0,1,.21.46l-.61,1.72,3.45.8a.43.43,0,0,0,.47-.27l2.81-7.9a.42.42,0,0,0-.19-.52"/><polygon class="cls-13" points="592.92 14.66 593.1 14.75 593.29 14.84 593.3 14.83 592.92 14.65 592.92 14.66"/><path class="cls-14" d="M593.1,14.75l-.18-.08h0l-2.75-1.27a.33.33,0,0,0-.45.2l-1.3,3.65,3.24,1.09a.36.36,0,0,0,.46-.22l1.16-3.28Z"/><polygon class="cls-15" points="592.92 14.66 593.1 14.75 592.92 14.66 592.92 14.66"/><path class="cls-16" d="M586.29,23.23l.79-2.23h0l-2-.72a.38.38,0,0,0-.49.21l-2.78,7.82a.33.33,0,0,0,.23.42l7,1a.47.47,0,0,0,.47-.29l1.64-4.63-4.64-1.09a.38.38,0,0,1-.25-.47"/><polygon class="cls-17" points="587.35 21.09 587.35 21.09 587.09 21 587.09 21 587.35 21.09"/><path class="cls-18" d="M591.58,22.61l-4.23-1.52-.26-.1-.8,2.24a.37.37,0,0,0,.22.45l4.67,1.1.61-1.72a.37.37,0,0,0-.21-.46"/><polygon class="cls-19" points="587.35 21.09 587.35 21.09 587.09 21 587.35 21.09"/><path class="cls-20" d="M584.53,10.53l-.94-.28L578.8,8.8a.43.43,0,0,0-.5.25l-2.65,7.46a.43.43,0,0,0,.21.54l5.41,2.69a.29.29,0,0,0,.45-.13l1.51-4.24.61-1.71.24-.68.72-2a.32.32,0,0,0-.26-.42"/><ellipse class="cls-21" cx="534.63" cy="63.74" rx="9.63" ry="3.88"/><ellipse class="cls-21" cx="510.26" cy="63.74" rx="12.25" ry="3.88"/><path class="cls-22" d="M528.18,36.75a36.28,36.28,0,0,1-3.32-1.48,1,1,0,0,1,.42-1.09q1.68.82,3.23,1.72A.6.6,0,0,1,528.18,36.75Z"/><path class="cls-22" d="M521.81,33.37a.14.14,0,0,1,.13,0q.1,0,.22.28a.89.89,0,0,0,.34.45l.5.24,0,0a1.69,1.69,0,0,1,1.44,0,1.19,1.19,0,0,1-.47-1.24.52.52,0,0,1-.21-.15l0,0-.17-.15-.09-.06q-.31-.23-.31-.38t.21-.18l.46.27a2.11,2.11,0,0,1,.93.67,9.25,9.25,0,0,0,.73,1.14,1.12,1.12,0,0,1-.58,1,5.89,5.89,0,0,1-1.87-.37l-.05,0a2.75,2.75,0,0,1-.76-.47,1.79,1.79,0,0,1-.41-.58,2.16,2.16,0,0,1-.1-.33A.31.31,0,0,1,521.81,33.37Z"/><path class="cls-23" d="M523,34.35a5.92,5.92,0,0,0,.5-1.15h0q.45,0,.31-.2a.52.52,0,0,0,.21.15,1.19,1.19,0,0,0,.47,1.24,1.69,1.69,0,0,0-1.44,0Z"/><path class="cls-23" d="M523.49,33.2a5.92,5.92,0,0,1-.5,1.15l-.5-.24a.89.89,0,0,1-.34-.45q-.11-.24-.22-.28a.14.14,0,0,0-.13,0,.23.23,0,0,1,0-.21.17.17,0,0,1,.15-.09.31.31,0,0,1-.13-.3q.05-.1.14-.08l-.09-.1q0-.08,0-.17a.39.39,0,0,1,.37.11l.44.32A4.7,4.7,0,0,0,523.49,33.2Z"/><path class="cls-22" d="M530.67,36.62a2,2,0,0,1-.49.94l-.52-.18q-.76-.29-1.42-.58a.63.63,0,0,1,.36-.83Q529.6,36.31,530.67,36.62Z"/><path class="cls-23" d="M530.67,36.62l.67.19a.66.66,0,0,1-.23,1,8.14,8.14,0,0,1-.94-.24A2,2,0,0,0,530.67,36.62Z"/><path class="cls-24" d="M531.23,38.47v0a3.26,3.26,0,0,1,.47-2.22l2.31,1a1.29,1.29,0,0,1,.32,1.19,1,1,0,0,1-.85.44Z"/><path class="cls-25" d="M531.69,36.23a3.26,3.26,0,0,0-.47,2.22v0h0l-.53-.07a3.15,3.15,0,0,1,.59-2.34Z"/><g class="cls-26"><path class="cls-27" d="M517.61,64.53H503.7A2.69,2.69,0,0,1,501,61.81V42.46l-2.21-3,2.58-.88h19.72l-.88,1.83V61.81A2.69,2.69,0,0,1,517.61,64.53Z"/></g><rect class="cls-28" x="503.77" y="42.83" width="1.18" height="11.15"/><path class="cls-29" d="M529,24.47q.72.1,1.19,1.22l0,.23a2.8,2.8,0,0,0-1.81-1.43A1.46,1.46,0,0,0,529,24.47Z"/><path class="cls-23" d="M530.06,34.91a12.32,12.32,0,0,0,3-1.38,48.36,48.36,0,0,0,.59-9.54l-4.78-.54a13.39,13.39,0,0,0-.38-1.32,13.07,13.07,0,0,1,8.42,1.28,22.4,22.4,0,0,1-.49,6.87l-.07.2a6.6,6.6,0,0,1-.84,1.81A8,8,0,0,1,530.06,34.91Zm-2.54-6.41,1,.59-.2.36A2.89,2.89,0,0,1,527.52,28.5Z"/><path class="cls-22" d="M528.36,29.46l.2-.36-1-.59s0,0,0,0a3.87,3.87,0,0,0,1.37-1.19,7.65,7.65,0,0,0,0-3.82l4.78.54a48.36,48.36,0,0,1-.59,9.54,12.32,12.32,0,0,1-3,1.38l-.07,0A14.18,14.18,0,0,1,528.36,29.46Z"/><path class="cls-30" d="M531.57,25.73a3.21,3.21,0,0,1-.44,2,1.3,1.3,0,0,1-1.08.63,14.07,14.07,0,0,1-.2-4A2,2,0,0,1,531.57,25.73Z"/><path class="cls-29" d="M529.84,24.22a2.3,2.3,0,0,1,1.78,1.4l0,.23a2.13,2.13,0,0,0-1.91-1.35Z"/><path class="cls-31" d="M530.24,24.65q.19,0,.33.52a4.36,4.36,0,0,1,.15,1.24,4.76,4.76,0,0,1-.14,1.22q-.14.52-.33.52t-.33-.52a4.5,4.5,0,0,1-.14-1.22,5.12,5.12,0,0,1,.13-1.24Q530.05,24.65,530.24,24.65Z"/><path class="cls-30" d="M530.25,25.65q-.09.1-.17.08c-.06,0-.11-.09-.13-.2a.43.43,0,0,1,0-.28.7.7,0,0,1,.13-.28.18.18,0,0,1,.18,0c.05,0,.09.07.12.16a.62.62,0,0,1,0,.31A.66.66,0,0,1,530.25,25.65Z"/><path class="cls-32" d="M530.26,27.89a.41.41,0,0,1-.14-.26,1.06,1.06,0,0,1,0-.37,1,1,0,0,1,.12-.34q.11-.12.2-.07t.13.22a.84.84,0,0,1,0,.41.56.56,0,0,1-.13.31Q530.36,27.93,530.26,27.89Z"/><path class="cls-33" d="M530,31.09l.13.07a1.47,1.47,0,0,1-1.38.64l-.06-.25A1.48,1.48,0,0,0,530,31.09Z"/><path class="cls-34" d="M529.3,23.79l.35-.51a3.09,3.09,0,0,1,1.45.12,3.41,3.41,0,0,1,1.68,1.12l-.1.07A4.23,4.23,0,0,0,529.3,23.79Z"/><path class="cls-35" d="M552.41,53.52a11.14,11.14,0,0,0-8.19,2.21A11.35,11.35,0,0,0,542.8,57a5.56,5.56,0,0,1-3-1.32,8.43,8.43,0,0,1-2.45-4.88q0-.3-.08-.61c-.36-3,.37-6.93-.2-10.41a73.14,73.14,0,0,1-1.47-14.91,28.37,28.37,0,0,1-3.1-9.47.31.31,0,0,1,0-.1l.13,0,4.43.66a.19.19,0,0,0,.07.07,7,7,0,0,1,2,4.55,8.9,8.9,0,0,1-2,4.43q3.1,7.87,3.31,12l-.07,4.22c-.21,4.47.25,3.94,1.37,8.05a5.09,5.09,0,0,0,4.92,4q4.41.25,6.49-1.47l0,0A9.12,9.12,0,0,1,552.41,53.52Zm-8.84,4.35a9.25,9.25,0,0,1,2.67-2.14,12.2,12.2,0,0,1,6-1.27l.36.18.3.37a.48.48,0,0,0-.18,0q-6.67,1.19-9.08,7A13.69,13.69,0,0,0,543.56,57.87Z"/><path class="cls-36" d="M542.8,57a11.35,11.35,0,0,1,1.42-1.32,11.14,11.14,0,0,1,8.19-2.21l.36.94h0a12.54,12.54,0,0,0-6.53,1.26,9.25,9.25,0,0,0-2.67,2.14l-.2.23Z"/><path class="cls-37" d="M546.46,40.72v0c.26,2.8,1,2.61,2.16,4.26l3.84,2.13a5.49,5.49,0,0,1,.77,4.68l0,0,0,0q-2.07,1.71-6.49,1.47c-2.62-.23-4.25-1.06-5-3.43a19,19,0,0,1-1.24-8.59l.07-4.22q-.21-4.13-3.31-12a8.9,8.9,0,0,0,2-4.43,7,7,0,0,0-2-4.55.19.19,0,0,1-.07-.07l-4.43-.66a11.64,11.64,0,0,1,5.57-1.81l.28,0a21.06,21.06,0,0,1,6.09,1.81,12.48,12.48,0,0,1,2.16,2l0,.07q3.08,4.94,1.35,12.11a33.84,33.84,0,0,0-1.78,10.2l0,.38a2.55,2.55,0,0,0,0,.28ZM543.63,62q2.4-5.76,9.08-7a10.19,10.19,0,0,0,3.69,3.36,13.85,13.85,0,0,0-5.62,1.17l-1.84.66q-4.3,1.81-5.88,4.08a12.62,12.62,0,0,0,.49-1.78Q543.6,62.25,543.63,62Z"/><path class="cls-38" d="M553.26,51.82l0,0a4.08,4.08,0,0,0-1.1-4.49A33.63,33.63,0,0,0,548.62,45c-2.45-1.58-2.19-2.51-2.16-4.26v0c.81,3.15,2.8,1.78,6,5.53a6.26,6.26,0,0,1,1.19,4A6.5,6.5,0,0,1,553.26,51.82Zm-2.49,7.74a13.85,13.85,0,0,1,5.62-1.17A10.19,10.19,0,0,1,552.7,55a.48.48,0,0,1,.18,0,.11.11,0,0,1,0,0,16.73,16.73,0,0,0,5.12,3.8l-.64-.12-.41,0a15.42,15.42,0,0,0-5.53.66ZM532.66,15.37l-.13,0-.1-.66a12.82,12.82,0,0,1,5.52-1.56,12,12,0,0,1,6.65,2.27,21.06,21.06,0,0,0-6.09-1.81l-.28,0A11.64,11.64,0,0,0,532.66,15.37Z"/><path class="cls-39" d="M543.05,64.31q1.58-2.27,5.88-4.08l1.84-.66.69-.21a15.42,15.42,0,0,1,5.53-.66l.41,0,.64.12q-1.56,3.48-6.36,5Q546,65.54,543.05,64.31Z"/><path class="cls-22" d="M536,25.65a12.24,12.24,0,0,1-.27,3.24.79.79,0,0,0,.67.35,2.69,2.69,0,0,0,1.75-1.88,2.59,2.59,0,0,0-.16-1.78Q537.06,24.48,536,25.65Zm1-.2a.84.84,0,0,1,.79.49.7.7,0,0,1,0,.64q-.21-.63-.71-.56a1.11,1.11,0,0,0-.82.66,1,1,0,0,1,.86-.12q.39.21.3.84a1.34,1.34,0,0,1-1.45.82l.15-2.08A1.2,1.2,0,0,1,537,25.45Z"/><path class="cls-23" d="M537,25.45a1.2,1.2,0,0,0-.87.71L536,28.24a1.34,1.34,0,0,0,1.45-.82q.09-.63-.3-.84a1,1,0,0,0-.86.12,1.11,1.11,0,0,1,.82-.66q.5-.07.71.56a.7.7,0,0,0,0-.64A.84.84,0,0,0,537,25.45Z"/><path class="cls-37" d="M536.31,15.3l.28.21a5.14,5.14,0,0,1,1.75,3,6.26,6.26,0,0,1-1.68,5.3,47,47,0,0,1-1.45,9.91,15.64,15.64,0,0,1-5.3,7.63q3.92-5.63,4.15-15.8,0-1.05,0-2.14,0-.66,0-1.35a5.07,5.07,0,0,1-.76,1.22q-.84-.13-1.68-.23l-.16-4.12a24,24,0,0,1-1.58,3.94q-1.43-.12-2.85-.15l-.35-1.7a8.9,8.9,0,0,0-.43,1.7q-.51,0-1,0a11.79,11.79,0,0,1,0-2.82,7,7,0,0,1,4.32-4.44A10.83,10.83,0,0,1,536.31,15.3Z"/><path class="cls-35" d="M529.84,22.87a24,24,0,0,0,1.58-3.94l.16,4.12Q530.72,22.93,529.84,22.87Zm4.22.54-.79-.13a5.07,5.07,0,0,0,.76-1.22Q534,22.75,534.06,23.41ZM527,22.72h-.77a8.9,8.9,0,0,1,.43-1.7Z"/><path class="cls-38" d="M536.31,15.3a10.83,10.83,0,0,0-6.75.16,7,7,0,0,0-4.32,4.44,6.61,6.61,0,0,1,.46-1.69,6.11,6.11,0,0,1,1.94-2.6,8,8,0,0,1,5.4-1.38A6.88,6.88,0,0,1,536.31,15.3Z"/><path class="cls-40" d="M536.18,47.25a4.65,4.65,0,0,1-2.71,1.11,15.56,15.56,0,0,1-3.06-.22Z"/><path class="cls-41" d="M531.61,48.71l-.24-1.27a4.83,4.83,0,0,1,2,.12q.1.71.18,1.39A11.92,11.92,0,0,0,531.61,48.71Z"/><path class="cls-23" d="M533.59,49a40.41,40.41,0,0,1,.31,4.84.81.81,0,0,1-1.31.09l-1-5.17A11.92,11.92,0,0,1,533.59,49Z"/><path class="cls-23" d="M534.63,55.88a3.62,3.62,0,0,1-1.94.08l-.13-2.47a.77.77,0,0,1,1.24-.39A7,7,0,0,1,534.63,55.88Zm-2-1.84a.86.86,0,0,0,.6-.62,1.16,1.16,0,0,1-.6.31Z"/><path class="cls-23" d="M532.6,54v-.3a1.16,1.16,0,0,0,.6-.31A.86.86,0,0,1,532.6,54Z"/><path class="cls-42" d="M534.69,57.11a3.65,3.65,0,0,1-1.93.06L532.68,56a3.62,3.62,0,0,0,1.94-.08q0,.14,0,.27Q534.67,56.62,534.69,57.11Z"/><path class="cls-43" d="M532.75,57.16a3.65,3.65,0,0,0,1.93-.06,36.9,36.9,0,0,1-.13,4.33q0,.41.14,1.1a2.26,2.26,0,0,1-1.56-.12Z"/><path class="cls-44" d="M532.59,61.84a1.09,1.09,0,0,1,.69.51.72.72,0,0,1-.48.49,1.34,1.34,0,0,0-.63-.47A1.64,1.64,0,0,0,532.59,61.84Zm2.57,1.57q0,.38.09.8a48.11,48.11,0,0,1-6.34,0,1.68,1.68,0,0,1,0-.32A15.67,15.67,0,0,0,535.16,63.41Z"/><path class="cls-45" d="M532.59,61.84a1.32,1.32,0,0,0,.12-.41,1,1,0,0,1,.88.33,2,2,0,0,0,.41.67q.17.14.34-.06a.89.89,0,0,0,.19-.54q0-.34.15-.34a9,9,0,0,1,.49,1.92,15.67,15.67,0,0,1-6.21.51,1.7,1.7,0,0,1,1.27-1.43,2.42,2.42,0,0,1,1.25.22,1.29,1.29,0,0,0,.57-.23l.13-.11a1.34,1.34,0,0,1,.63.47.72.72,0,0,0,.48-.49A1.09,1.09,0,0,0,532.59,61.84Z"/><path class="cls-22" d="M533.82,49a40.43,40.43,0,0,1,.31,4.84.81.81,0,0,1-1.31.09l-1-5.17A11.93,11.93,0,0,1,533.82,49Z"/><path class="cls-23" d="M533.82,49a11.93,11.93,0,0,0-2-.24l-.24-1.27a4.83,4.83,0,0,1,2,.12Q533.74,48.3,533.82,49Z"/><path class="cls-25" d="M530.76,43.9a8.6,8.6,0,0,0,2.74,0l0,0,1.17,4a10.5,10.5,0,0,1-1.08.22,30.75,30.75,0,0,1-3.2,0Z"/><path class="cls-46" d="M534.7,47.95l-1.17-4,0,0a8.6,8.6,0,0,1-2.74,0l.06-.69a4.86,4.86,0,0,1,3.62-.42l1.77,4.46A3.45,3.45,0,0,1,534.7,47.95Z"/><path class="cls-22" d="M533.89,35.86A4.15,4.15,0,0,0,531.25,38a11.33,11.33,0,0,1,1.36-1.84l0,0a4.06,4.06,0,0,0-.25-1.63,1.68,1.68,0,0,1,.94-.54,15.15,15.15,0,0,0,.45,1.83Z"/><path class="cls-47" d="M534.14,36.12a5.5,5.5,0,0,0-3.38,2.9,6.12,6.12,0,0,1,.5-1.07,4.15,4.15,0,0,1,2.64-2.09h0Z"/><path class="cls-48" d="M530.76,39a5.5,5.5,0,0,1,3.38-2.9,2.78,2.78,0,0,1,.54,1.16,1.22,1.22,0,0,0-1.24-.34A6.16,6.16,0,0,0,530.76,39Z"/><path class="cls-49" d="M530.76,39a6.16,6.16,0,0,1,2.68-2.08,1.22,1.22,0,0,1,1.24.34,20.79,20.79,0,0,1-.88,3.74l.74,2a10.65,10.65,0,0,1-3.82.74l.2-2.59Z"/><path class="cls-22" d="M534.85,55.9a3.62,3.62,0,0,1-1.94.08l-.13-2.47a.77.77,0,0,1,1.24-.39A7,7,0,0,1,534.85,55.9Zm-2-2.14v.3a.86.86,0,0,0,.6-.62A1.16,1.16,0,0,1,532.83,53.76Z"/><path class="cls-50" d="M534.92,57.13a3.65,3.65,0,0,1-1.93.06L532.91,56a3.62,3.62,0,0,0,1.94-.08q0,.14,0,.27Q534.9,56.65,534.92,57.13Z"/><path class="cls-51" d="M533,57.19a3.65,3.65,0,0,0,1.93-.06,36.9,36.9,0,0,1-.13,4.33q0,.41.14,1.1a2.26,2.26,0,0,1-1.56-.12Z"/><path class="cls-23" d="M532.83,53.76a1.16,1.16,0,0,0,.6-.31.86.86,0,0,1-.6.62Z"/><path class="cls-52" d="M535.39,63.43a15.67,15.67,0,0,1-6.21.51,1.7,1.7,0,0,1,1.27-1.43,2.42,2.42,0,0,1,1.25.22,1.29,1.29,0,0,0,.57-.23l.13-.11a1.34,1.34,0,0,1,.63.47.72.72,0,0,0,.48-.49,1.09,1.09,0,0,0-.69-.51,1.32,1.32,0,0,0,.12-.41,1,1,0,0,1,.88.33,2,2,0,0,0,.41.67q.17.14.34-.06a.89.89,0,0,0,.19-.54q0-.34.15-.34A9,9,0,0,1,535.39,63.43Z"/><path class="cls-44" d="M532.81,61.86a1.09,1.09,0,0,1,.69.51.72.72,0,0,1-.48.49,1.34,1.34,0,0,0-.63-.47A1.64,1.64,0,0,0,532.81,61.86Z"/><path class="cls-53" d="M529.18,63.94a15.67,15.67,0,0,0,6.21-.51q0,.38.09.8a48.13,48.13,0,0,1-6.34,0A1.69,1.69,0,0,1,529.18,63.94Z"/><ellipse class="cls-21" cx="466.97" cy="63.74" rx="9.63" ry="3.88"/><path class="cls-22" d="M473.2,38.46q.78-.27,1.54-.56a1.43,1.43,0,0,0-.51-.91l-1.54.6Z"/><path class="cls-23" d="M472.68,37.59l-1.13.44a.65.65,0,0,0,.29.87l1.36-.44Z"/><path class="cls-54" d="M472.35,39.45h0a5.57,5.57,0,0,0-.57-2.25l-2.18,1.06a1.15,1.15,0,0,0-.63,1.27,1.11,1.11,0,0,0,1.14.57Z"/><path class="cls-55" d="M472.35,39.45l.49-.15A4.81,4.81,0,0,0,472.2,37l-.41.18a5.57,5.57,0,0,1,.57,2.25Z"/><path class="cls-22" d="M470.48,37.19a1.08,1.08,0,0,1-.4-.27l-.22-.26a.2.2,0,0,0-.35,0l-.22.8a1.05,1.05,0,0,0,1.09.33A4.27,4.27,0,0,1,470.48,37.19Z"/><path class="cls-23" d="M470.48,37.19l.08-.27a1.44,1.44,0,0,1,.56-.62q-.45-1-1.28-.86l-.34,1.21a.2.2,0,0,1,.35,0l.22.26A1.08,1.08,0,0,0,470.48,37.19Z"/><path class="cls-22" d="M467.42,26.09l.07-.05a17.07,17.07,0,0,1,4.31-2.21q.59-.2,1.2-.36a5.83,5.83,0,0,0,2.34,2.12V23.86l.27.43.51,2.55a3.54,3.54,0,0,0,.1,1.92,3.43,3.43,0,0,0,1.33,1.44l-1.2.61a.5.5,0,0,0,.47.31l-.32,1.46a11.54,11.54,0,0,1-1.37,3.09q-1,1.56-1.89,1.44a4.31,4.31,0,0,1-1.1-.32l-.13-.05-.11-.05q-.59-.29-1.38-.74l-.27-.18a6.26,6.26,0,0,1-1.91-4.89q-.4-.68-.86-1.4Zm8.49-3.29-.85-2.1.22-.07A11.81,11.81,0,0,1,476.53,25q0,.16-.09.34Z"/><path class="cls-23" d="M475.61,24.29l-.27-.43v1.73A5.83,5.83,0,0,1,473,23.47q-.61.16-1.2.36A17.07,17.07,0,0,0,467.49,26l-.07.05,0-.7a17.73,17.73,0,0,1,7.66-4.69l.85,2.1.54,2.59,0,.14a11.48,11.48,0,0,0-.28,1.31Zm1.2,6.83a.5.5,0,0,1-.47-.31l1.2-.61A2.86,2.86,0,0,1,476.82,31.13Zm-8.47-.25a6.26,6.26,0,0,0,1.91,4.89,6.4,6.4,0,0,1-2.71-4.67l-.05-1.62Q468,30.19,468.35,30.87Z"/><path class="cls-30" d="M473.31,27.77a10.92,10.92,0,0,0,0,1.61,3.57,3.57,0,0,0,2,.45,18.33,18.33,0,0,0,.13-3.83A3.15,3.15,0,0,0,473.31,27.77Z"/><path class="cls-56" d="M475.48,26q0-.28,0-.57a1.74,1.74,0,0,0-1.91,1,6.07,6.07,0,0,0-.22,1.36A3.15,3.15,0,0,1,475.48,26Z"/><path class="cls-57" d="M473.87,26.29a1.67,1.67,0,0,1,1.62-.65l.25-.41a2.23,2.23,0,0,0-2.18.85,2.71,2.71,0,0,0-.5,1.38l.25.31A2.86,2.86,0,0,1,473.87,26.29Z"/><path class="cls-58" d="M474.4,28.93q.16.56.4.57t.43-.55a4.51,4.51,0,0,0,.19-1.32,4.7,4.7,0,0,0-.15-1.34q-.17-.54-.41-.55t-.42.53a4.49,4.49,0,0,0-.2,1.33A4.33,4.33,0,0,0,474.4,28.93Z"/><path class="cls-59" d="M474.58,29a.28.28,0,0,0,.27.12q.13,0,.2-.23a1,1,0,0,0-.21-.84.31.31,0,0,0-.29-.11q-.13,0-.19.23a.89.89,0,0,0,.21.84Z"/><path class="cls-30" d="M475,26.92q.1.13.19.11t.13-.19a1,1,0,0,0-.17-.68q-.11-.13-.2-.11c-.06,0-.1.08-.12.18a.87.87,0,0,0,.17.68Z"/><path class="cls-60" d="M475.45,24.2l.06.08.7,1.51q-.42-.18-.82-.3l-.05-1.35ZM473,23.49A6.08,6.08,0,0,0,475,25.36a10,10,0,0,0-2.28-.38,2.84,2.84,0,0,0-.47,0,4.67,4.67,0,0,1,.61-1.42l.07-.11.2,0Z"/><path class="cls-61" d="M473.28,23.49A8.72,8.72,0,0,1,475,24l0,0,.31.14.05,1.35-.43-.14A6.08,6.08,0,0,1,473,23.49l.05,0A.48.48,0,0,1,473.28,23.49Zm2.24.8-.06-.08h0a6.55,6.55,0,0,1,.87.46l.27.16.14.13-.52.85h0Z"/><path class="cls-62" d="M463.12,33a2,2,0,0,0,1,.77,0,0,0,0,0,0,0,.06.06,0,0,0,.05,0l.14,0,.68-.09-1.08-.76q-.49-.32-1-.59l.07.43.07.16A.05.05,0,0,1,463.12,33Z"/><path class="cls-63" d="M463,33q0,3.6-3.27,4.33a.05.05,0,0,1,0,0,.58.58,0,0,1,0,.14,8.42,8.42,0,0,0,3.7-1.8,6.31,6.31,0,0,0,.75-2,2,2,0,0,1-1-.77Z"/><path class="cls-64" d="M459.69,37.33q3.24-.74,3.27-4.33a4.75,4.75,0,0,0-2.07,1.2A10.14,10.14,0,0,0,459.69,37.33Z"/><path class="cls-63" d="M457.44,16.82v0a17.13,17.13,0,0,1-.26-4.89q.13-1,.31-2.36h0a24,24,0,0,0,.76,8.54l-.79-1.26Zm-.83,4.24-.7-1h0a7.54,7.54,0,0,1-.38-4.6h.05A17.17,17.17,0,0,0,456.61,21.06Zm-.43,5.09v0a9,9,0,0,0,6.2,3.47.05.05,0,0,0,0,0,21.85,21.85,0,0,1,4.19-5.3l-.47.25.56-1a3.81,3.81,0,0,1-.77-1.67A2.75,2.75,0,0,0,467.24,23l1.8-1.19a6.48,6.48,0,0,1-1.4-2.64,6.86,6.86,0,0,0,2.52,2l.09,0,.05,0a31.47,31.47,0,0,1,4.17-2,4.07,4.07,0,0,1,1-1.29,5.16,5.16,0,0,1,.43.31q.41.29.45.54a3.11,3.11,0,0,1,0,.34l-2.18,1.15,1-.23.68,1.73a10.52,10.52,0,0,0-3.78,1.6,17.54,17.54,0,0,0-4.17,2.7l-.27.22a17.42,17.42,0,0,1,.25,4.31c-.23,1.44.19,2.4,1.48,4.27a1.24,1.24,0,0,0-.09.18l-2.9-.48-2-1-.56-.32-1-.54-.65-.4-.16-.09a.63.63,0,0,0-.2-.13l-.61-.4-.07-.05a32.45,32.45,0,0,1-2.75-2.09l-.23-.22A10.3,10.3,0,0,1,456,26.18a3.51,3.51,0,0,0-.13-.38l0,0A2.66,2.66,0,0,0,456.18,26.15Zm1.38.45a13.06,13.06,0,0,1-1.91-2.1,16.15,16.15,0,0,1-.88-5.3h0A16.68,16.68,0,0,0,456.14,24l0,0a11.37,11.37,0,0,0,2.48,3.27l0,0-1-.65ZM474,15.7h0l-.58-2.09.07.07.31.32a6.23,6.23,0,0,1,.83,3.06ZM468,11l.07,0,0,0a12.36,12.36,0,0,1,1.65,4.22L468.6,13.6a0,0,0,0,0,0,0Z"/><path class="cls-64" d="M457.49,9.55h0v0h0Zm-2,6a.05.05,0,0,0,0,0l0,0,2.64,2.62h0v0a24,24,0,0,1-.76-8.54,21.74,21.74,0,0,1,12.23,5.75,12.36,12.36,0,0,0-1.65-4.22,19.9,19.9,0,0,1,6.53,6,6.23,6.23,0,0,0-.83-3.06l-.31-.32.34.29,0,0a9.71,9.71,0,0,1,2.18,4.24,5.16,5.16,0,0,0-.43-.31,4.07,4.07,0,0,0-1,1.29,31.47,31.47,0,0,0-4.17,2l-.05,0-.09,0a6.86,6.86,0,0,1-2.52-2,6.48,6.48,0,0,0,1.4,2.64L467.24,23a2.75,2.75,0,0,1-1.33-1.15,3.81,3.81,0,0,0,.77,1.67l-.56,1,.47-.25a21.85,21.85,0,0,0-4.19,5.3.05.05,0,0,1,0,0,9,9,0,0,1-6.2-3.47l2.45,1.15,0,0A11.37,11.37,0,0,1,456.16,24l0,0a16.68,16.68,0,0,1-1.33-4.82h0v0l0,0,.05.05,1.74,1.82a17.17,17.17,0,0,1-1-5.56Zm1.92,1.33v0l0,0Zm-1.53,8.94,0,0,0,0Zm14.17.65-.18,2.88L468,26.06a17.54,17.54,0,0,1,4.17-2.7Zm6.53-4.82-.67.16L475.25,20l-1,.23,2.18-1.15Q476.51,20.43,476.6,21.6Z"/><path class="cls-65" d="M457.49,9.53q8.63,1,11.09,4a0,0,0,0,1,0,0l1.11,1.71a21.74,21.74,0,0,0-12.23-5.75Zm-.05,7.3h0l.79,1.26v0h0l-2.64-2.62Zm-1.55,3.27h0l.7,1-1.74-1.82Zm2.73,7.21-2.45-1.15v0a2.66,2.66,0,0,1-.23-.36l1.71.88Zm9.44-16.23,0,0a12.81,12.81,0,0,1,5.86,4.62h0l.63,1.35A19.9,19.9,0,0,0,468.06,11.08ZM473.8,14a8.09,8.09,0,0,1,2.53,4.35h0l0,.47q0-.25-.45-.54A9.71,9.71,0,0,0,473.76,14Z"/><path class="cls-66" d="M461.45,31.88a18.72,18.72,0,0,1,11.13-9.69,4.84,4.84,0,0,1,.64-2.19,30,30,0,0,0-3.61,1.48,20.17,20.17,0,0,0-2,1.2q-.8.55-2.26,1.73l0,0a18.87,18.87,0,0,0-4.64,6.94A3.76,3.76,0,0,0,461.45,31.88Z"/><path class="cls-67" d="M461.45,31.88l.14.05.41.16a14.83,14.83,0,0,1,5.9-6.9,28.82,28.82,0,0,1,8.65-3.43,2.36,2.36,0,0,0,.05-.65,4.4,4.4,0,0,0-.51-2.06q-1.41.39-2.88.94a4.84,4.84,0,0,0-.64,2.19A18.72,18.72,0,0,0,461.45,31.88Z"/><path class="cls-23" d="M468.34,29.57a3.2,3.2,0,0,1-.36-1.42,3.77,3.77,0,0,1,.11-.64,2,2,0,0,0,0-.61,1.37,1.37,0,0,0-1.3-.51,1.12,1.12,0,0,0-.72,1.34,1,1,0,0,1,1-.71,1,1,0,0,1,.79.42.93.93,0,0,0-1.06.44,1.11,1.11,0,0,0,.24,1.22A1.58,1.58,0,0,0,468.34,29.57Z"/><path class="cls-22" d="M468.34,29.57a1.58,1.58,0,0,1-1.28-.47,1.11,1.11,0,0,1-.24-1.22.93.93,0,0,1,1.06-.44,1,1,0,0,0-.79-.42,1,1,0,0,0-1,.71,1.12,1.12,0,0,1,.72-1.34,1.37,1.37,0,0,1,1.3.51q0-.34,0-.67a1.22,1.22,0,0,0-1.88-.07,2.18,2.18,0,0,0-.45,2,2.24,2.24,0,0,0,.11.46q.92,2.3,2.68,2.19Q468.43,30.17,468.34,29.57Z"/><path class="cls-65" d="M480.18,22.13a5.39,5.39,0,0,0-.11-1,3.6,3.6,0,0,0-1.29-2.24,4.84,4.84,0,0,0-3-.78,5.56,5.56,0,0,0-1.14,1.74,12.66,12.66,0,0,1,1.27-1.35Q479,18.3,480.18,22.13Z"/><path class="cls-64" d="M473.19,21.74l.05-.32A11.26,11.26,0,0,0,474.71,25l.41.37-.21-2.09.07.09-.15-1.16A6.9,6.9,0,0,1,477.2,27a4.19,4.19,0,0,0,1.54-3,4.43,4.43,0,0,0-.46-2l-.08-.12,0,0h0l-.71-1.18q2.36,1.4,2.56,2.95a7.71,7.71,0,0,0,.14-1.47Q479,18.3,475.9,18.52a12.66,12.66,0,0,0-1.27,1.35l-1,0A3.11,3.11,0,0,0,473.19,21.74Z"/><path class="cls-68" d="M478.19,21.83l-.71-1.18q2.36,1.4,2.56,2.95A3.91,3.91,0,0,0,478.19,21.83Zm-1.06,5.25a15.9,15.9,0,0,0-2.14-3.7l-.15-1.16A6.9,6.9,0,0,1,477.2,27Zm-3.88-5.66A11.26,11.26,0,0,0,474.71,25a4.72,4.72,0,0,1-1.43-2.47q-.06-.44-.08-.8Z"/><path class="cls-69" d="M476.17,33.66s-2-.87-2.61-1.08-.21,2.91,1.26,3.45C475.15,36.14,476.17,33.66,476.17,33.66Z"/><path class="cls-22" d="M469.86,51.53a3.06,3.06,0,0,1-1.71-.06q-.42,1.12-.74,2.19a.79.79,0,0,0,1.13.46Z"/><path class="cls-23" d="M469.86,51.53l.34-.67a1.48,1.48,0,0,0-1.59-.58q-.25.6-.47,1.19A3.06,3.06,0,0,0,469.86,51.53Z"/><path class="cls-22" d="M462.95,57.12a4.42,4.42,0,0,0,1,1q1.94-1.84,4.11-3.63l0,0-.07-.05q-.19-.24.16-.68a.94.94,0,0,0,.08.58h0l.33-.27a1.18,1.18,0,0,0-.77-1A6,6,0,0,0,466,54,30.18,30.18,0,0,0,462.95,57.12Z"/><path class="cls-23" d="M468.23,54.33a.94.94,0,0,1-.08-.58q-.35.44-.16.68l.07.05Z"/><path class="cls-70" d="M463.9,58.14a4.42,4.42,0,0,1-1-1l-1.38,1.25a2.09,2.09,0,0,0,1.13,1.13l.81-.94Q463.73,58.3,463.9,58.14Z"/><path class="cls-71" d="M460.64,58.46l2,3.15A8.27,8.27,0,0,0,464,62.92l.6,0a1.55,1.55,0,0,0,0-.77,4.36,4.36,0,0,1-.92-1.09,1.92,1.92,0,0,1-.18-.44,1.25,1.25,0,0,0-.46.15.31.31,0,0,1-.17-.28,1.24,1.24,0,0,1,.51-.2l0-.12a1.57,1.57,0,0,0-.56.17.26.26,0,0,1-.12-.3,2.26,2.26,0,0,1,.63-.12q0-.08,0-.15a2,2,0,0,0-.66.09q-.15-.19,0-.31a2.87,2.87,0,0,1,.71-.06q0-.08,0-.16a1.55,1.55,0,0,0-.74,0q-.12-.09,0-.24a1.37,1.37,0,0,1,.8,0,2.08,2.08,0,0,1,.13-.34.92.92,0,0,0-.9,0l-.06,0a.56.56,0,0,1-.58,0,.42.42,0,0,1-.08-.42,1.42,1.42,0,0,1,.33-.52.24.24,0,0,0,.11-.28A4.1,4.1,0,0,0,460.64,58.46Z"/><path class="cls-72" d="M463.35,59.77a2,2,0,0,0-.66.09q-.15-.19,0-.31a2.87,2.87,0,0,1,.71-.06A.41.41,0,0,1,463.35,59.77Zm-.72-.4q-.12-.09,0-.24a1.37,1.37,0,0,1,.8,0,.23.23,0,0,1-.05.24A1.55,1.55,0,0,0,462.63,59.37Zm.93,1.27a1.25,1.25,0,0,0-.46.15.31.31,0,0,1-.17-.28,1.24,1.24,0,0,1,.51-.2A.35.35,0,0,1,463.56,60.64Zm-.7-.29a.26.26,0,0,1-.12-.3,2.26,2.26,0,0,1,.63-.12.21.21,0,0,1,0,.26A1.57,1.57,0,0,0,462.86,60.35Z"/><path class="cls-73" d="M460.64,58.46l-.6.38,2.49,2.93A10.49,10.49,0,0,0,464,63.07h.59l0-.13-.6,0a8.27,8.27,0,0,1-1.36-1.31Z"/><path class="cls-74" d="M467.75,48l-.56,1.88a7,7,0,0,0,.69.48,6.08,6.08,0,0,0,1.27.58q.33.06.78.11a15.36,15.36,0,0,0,1.6,0l.39-2.42a7.55,7.55,0,0,0-3.51-.75q-.33,0-.66,0Z"/><path class="cls-22" d="M470.73,51.42a3.06,3.06,0,0,1-1.65.45q-.07,1.19-.05,2.31a.79.79,0,0,0,1.21.11Z"/><path class="cls-23" d="M470.73,51.42l.13-.74a1.48,1.48,0,0,0-1.69-.09q-.06.65-.09,1.28A3.06,3.06,0,0,0,470.73,51.42Z"/><path class="cls-75" d="M470.15,42.31l.95-.36-.24-1.19a.65.65,0,0,0-.91.14Q470,41.61,470.15,42.31Z"/><path class="cls-76" d="M471.1,42l-.95.36q.13.81.29,1.61a1.43,1.43,0,0,0,1-.35Z"/><path class="cls-77" d="M469.26,41.35h0a5.57,5.57,0,0,0,2.31-.18l-.68-2.33a1.15,1.15,0,0,0-1.14-.83,1.11,1.11,0,0,0-.76,1Z"/><path class="cls-78" d="M469.26,41.35l.06.51a4.81,4.81,0,0,0,2.36-.25l-.11-.43a5.57,5.57,0,0,1-2.31.18Z"/><path class="cls-22" d="M474.51,38a24.62,24.62,0,0,0,3.78-1.14,1.26,1.26,0,0,0-.67-1.26A26.89,26.89,0,0,0,474.36,37,.71.71,0,0,0,474.51,38Z"/><path class="cls-76" d="M480.59,36a.25.25,0,0,0,0-.19.2.2,0,0,0-.23,0,1,1,0,0,1-.57.46l-.08,0h0q-.29-.4-1.23-.27h-.06q-.67.11-.77-.45l0,0a1.58,1.58,0,0,0,0,.31,1.13,1.13,0,0,0,0,.14.93.93,0,0,0,.54.68q.82,0,1.2,0a1.43,1.43,0,0,0,.92-.34,1.91,1.91,0,0,0,.32-.41Z"/><path class="cls-22" d="M478.39,36.12a1.17,1.17,0,0,0,.74-.92,1.4,1.4,0,0,0,0-.21l.11-.05.12-.07.4-.2q.32-.18.18-.46l0,0a.08.08,0,0,0-.1,0h0a.88.88,0,0,1-.35.19l-.78.22h0a2.25,2.25,0,0,0-1.08,1.05Q477.72,36.23,478.39,36.12Z"/><path class="cls-79" d="M479.26,34.94l-.11.05a1.4,1.4,0,0,1,0,.21,1.17,1.17,0,0,1-.74.92h.06q.94-.13,1.23.27h0a2.57,2.57,0,0,1-.42-1.19v-.11A.14.14,0,0,1,479.26,34.94Z"/><path class="cls-23" d="M479.25,35.08v.11a2.57,2.57,0,0,0,.42,1.19l.08,0a1,1,0,0,0,.57-.46.2.2,0,0,1,.23,0,.25.25,0,0,1,0,.19l0,0a.6.6,0,0,0,.08-.32.6.6,0,0,0,.09-.38h0a.36.36,0,0,0,.1-.37l0,0q.13-.2,0-.29t-.27,0h0a1.59,1.59,0,0,1-.8.44l-.48.1A.24.24,0,0,1,479.25,35.08Z"/><path class="cls-80" d="M470.8,51l.4,0h0l.62-.06.34-5.1q-.4,0-.8.06-.35,1.74-1.72,1.66l-.3,3.12a3.69,3.69,0,0,0,1.42.31Z"/><path class="cls-81" d="M468.19,45.87a.81.81,0,0,1,.36.23,5.21,5.21,0,0,0-.3,1.66.63.63,0,0,1-.45.36v.06l-.38,1.92a7.05,7.05,0,0,0,.74.41,6,6,0,0,0,1.33.45q.33,0,.78,0l.53,0v0a3.69,3.69,0,0,1-1.42-.31l.3-3.12q1.36.08,1.72-1.66.39,0,.8-.06l0-.66q-1.86,0-3.72.09l-.12.2Q468.29,45.65,468.19,45.87Z"/><path class="cls-80" d="M468.19,45.87a4.62,4.62,0,0,0-.38,1.61.1.1,0,0,1,0,0v.61a.63.63,0,0,0,.45-.36,5.21,5.21,0,0,1,.3-1.66A.81.81,0,0,0,468.19,45.87Z"/><path class="cls-22" d="M468.7,60.42a4.42,4.42,0,0,0,1.4,0q0-2.67.11-5.48v-.06l-.09,0q-.31,0-.39-.58a.94.94,0,0,0,.48.33h0l0-.42a1.18,1.18,0,0,0-1.23-.08,6,6,0,0,0-.53,2A30.18,30.18,0,0,0,468.7,60.42Z"/><path class="cls-30" d="M470.1,60.42a4.42,4.42,0,0,1-1.4,0v1.86a2.09,2.09,0,0,0,1.6-.07L470.15,61Q470.11,60.64,470.1,60.42Z"/><path class="cls-23" d="M470.22,54.64a.94.94,0,0,1-.48-.33q.08.56.39.58l.09,0Z"/><path class="cls-82" d="M468.14,63l3.68.65a8.27,8.27,0,0,0,1.89-.12l.42-.43a1.55,1.55,0,0,0-.54-.54,4.36,4.36,0,0,1-1.43-.06,1.91,1.91,0,0,1-.45-.17,1.25,1.25,0,0,0-.2.44.31.31,0,0,1-.32-.07,1.24,1.24,0,0,1,.2-.52l-.11-.06a1.57,1.57,0,0,0-.26.53.26.26,0,0,1-.3-.12,2.26,2.26,0,0,1,.33-.55l-.12-.09a2,2,0,0,0-.38.55q-.24,0-.26-.18a2.88,2.88,0,0,1,.44-.56l-.11-.12a1.55,1.55,0,0,0-.47.57q-.15,0-.18-.16a1.37,1.37,0,0,1,.51-.62,2.08,2.08,0,0,1-.16-.32.92.92,0,0,0-.59.68l0,.06q-.17.38-.41.4a.42.42,0,0,1-.36-.22,1.42,1.42,0,0,1-.16-.59.24.24,0,0,0-.13-.26A4.1,4.1,0,0,0,468.14,63Z"/><path class="cls-83" d="M470.62,61.61a1.55,1.55,0,0,0-.47.57q-.15,0-.18-.16a1.37,1.37,0,0,1,.51-.62A.23.23,0,0,1,470.62,61.61Zm-.07.86q-.24,0-.26-.18a2.88,2.88,0,0,1,.44-.56.41.41,0,0,1,.21.19A2,2,0,0,0,470.56,62.47Zm1.16-.12a1.25,1.25,0,0,0-.2.44.31.31,0,0,1-.32-.07,1.24,1.24,0,0,1,.2-.52A.35.35,0,0,1,471.71,62.35Zm-.69.32a.26.26,0,0,1-.3-.12,2.26,2.26,0,0,1,.33-.55.21.21,0,0,1,.22.14A1.57,1.57,0,0,0,471,62.67Z"/><path class="cls-84" d="M468.14,63l-.13.7,3.85.15a10.48,10.48,0,0,0,1.93-.2l.4-.44-.06-.12-.42.43a8.27,8.27,0,0,1-1.89.12Z"/><path class="cls-55" d="M471,38.07l-.33.72a4.56,4.56,0,0,0-1-.9,3.38,3.38,0,0,0-1.11-.5l.27-.72.2,0a4.22,4.22,0,0,1,1.13.42,5,5,0,0,1,.94.7Zm1,1.86v0l-.28,0-.25-1.13h.25Z"/><path class="cls-80" d="M472,40l-.28,0-.25-1.13-.48-.78-.33.72a4.56,4.56,0,0,0-1-.9,3.38,3.38,0,0,0-1.11-.5l-.17.23a5,5,0,0,0-.36.61,1.09,1.09,0,0,0-.14.55l.94,5-.45,1.4a6.23,6.23,0,0,0,1.63.36,22.35,22.35,0,0,0,2.27.13Z"/><polygon class="cls-55" points="471.76 38.85 471.15 37.85 471.04 38.07 471.52 38.85 471.76 38.85"/><path class="cls-22" d="M473.24,39.54q.82,0,1.64-.13a1.43,1.43,0,0,0-.24-1l-1.65.16Z"/><path class="cls-23" d="M473,38.56l-1.21.12a.65.65,0,0,0,0,.92l1.43-.06Z"/><path class="cls-54" d="M472.15,40.26h0a5.57,5.57,0,0,0,.06-2.32l-2.39.44a1.15,1.15,0,0,0-.94,1.05,1.11,1.11,0,0,0,.95.86Z"/><path class="cls-55" d="M472.15,40.26h.52a4.81,4.81,0,0,0,0-2.37l-.44.07a5.57,5.57,0,0,1-.06,2.32Z"/><path class="cls-22" d="M474.73,39.43a24,24,0,0,0,3.93-.32,1.28,1.28,0,0,0-.39-1.38,27.1,27.1,0,0,0-3.47.68A.72.72,0,0,0,474.73,39.43Z"/><path class="cls-22" d="M481.14,38.06a3.5,3.5,0,0,0,.42-.18l.16-.1.24-.18q.09-.16-.06-.21a.48.48,0,0,0-.35,0h0a1.77,1.77,0,0,1-.95.26H480a.54.54,0,0,1-.28-.08.51.51,0,0,1,.1-.11l.22-.08.12,0,.49-.11q.38-.1.29-.41a.1.1,0,0,0-.13,0,1,1,0,0,1-.41.11l-.87,0h0a2.44,2.44,0,0,0-1.4.83A1,1,0,0,0,478.4,39a13.1,13.1,0,0,0,1.65.34h0a5,5,0,0,0,.3-1.14A5,5,0,0,0,481.14,38.06Z"/><path class="cls-23" d="M480,37.68a.54.54,0,0,1-.28-.08.51.51,0,0,1,.1-.11l.22-.08q-.13.14.09.29Zm1.58.45h0a.58.58,0,0,1-.19.35.55.55,0,0,1-.15.3l-.33.24a2.31,2.31,0,0,0,.27-1,3.5,3.5,0,0,0,.42-.18l.16-.1A.35.35,0,0,1,481.53,38.13Z"/><path class="cls-23" d="M480.87,39a2.31,2.31,0,0,0,.27-1,5,5,0,0,1-.77.18,5,5,0,0,1-.3,1.14A2.46,2.46,0,0,0,480.87,39Z"/><polygon class="cls-30" points="477.16 24.17 482.65 43.11 506.44 37.5 499.32 17.28 477.16 24.17"/><path class="cls-85" d="M505.77,32.08a3.88,3.88,0,0,1,1.26.78"/><path class="cls-85" d="M509,36.72a10.82,10.82,0,0,1,.15,1.49"/><path class="cls-86" d="M503,26.35s12.72-2.16,13.91,11.86"/><path class="cls-86" d="M504.21,29.43s8.93-.05,9,9"/><path class="cls-87" d="M507.73,64.68a.58.58,0,0,1-.52-.83L525,28a.58.58,0,1,1,1,.51L508.24,64.36A.58.58,0,0,1,507.73,64.68Z"/><path class="cls-88" d="M501,50.55V61.81a2.69,2.69,0,0,0,2.65,2.72h13.91a2.69,2.69,0,0,0,2.65-2.72V50.55Z"/><ellipse class="cls-89" cx="510.65" cy="50.7" rx="9.6" ry="0.59"/><path class="cls-22" d="M529.92,37.39a2,2,0,0,1-.29,1l-.55-.07q-.8-.13-1.5-.27a.63.63,0,0,1,.18-.88Q528.81,37.3,529.92,37.39Z"/><path class="cls-23" d="M529.92,37.39l.7,0a.66.66,0,0,1,0,1,8.14,8.14,0,0,1-1,0A2,2,0,0,0,529.92,37.39Z"/><path class="cls-24" d="M530.84,39.08v0a3.26,3.26,0,0,1,0-2.26l2.46.47a1.29,1.29,0,0,1,.56,1.1,1,1,0,0,1-.74.61Z"/><path class="cls-25" d="M530.84,36.8a3.26,3.26,0,0,0,0,2.26v0h0l-.53,0a3.15,3.15,0,0,1,.09-2.41Z"/><path class="cls-22" d="M527.61,38.07a36.28,36.28,0,0,1-3.61-.42,1,1,0,0,1,.08-1.17q1.84.28,3.6.67A.6.6,0,0,1,527.61,38.07Z"/><path class="cls-22" d="M521.06,36.48a4.28,4.28,0,0,1-.74-.39L520.2,36s0-.1,0-.17a.39.39,0,0,1,.39,0l.51.18a4.81,4.81,0,0,0,.87.09h.26q.27-.1.24-.18a1,1,0,0,0-.61-.23q-.36-.13-.41-.27t.15-.23l.52.12a2.11,2.11,0,0,1,1.09.36,9.24,9.24,0,0,0,1,.87,1.12,1.12,0,0,1-.25,1.15,5.89,5.89,0,0,1-1.9.21H522a2.56,2.56,0,0,1,0-1.27A1.48,1.48,0,0,1,521.06,36.48Z"/><path class="cls-23" d="M520.31,36.09a4.28,4.28,0,0,0,.74.39,2.61,2.61,0,0,0,.12,1.19l-.64-.65h0q-.12-.13-.1-.22a.23.23,0,0,1-.09-.19.17.17,0,0,1,.12-.13.31.31,0,0,1-.22-.25Q520.23,36.09,520.31,36.09Zm1.54-.41a1,1,0,0,1,.61.23q0,.08-.24.18H522q.6-.18,0-.4Z"/><path class="cls-23" d="M521.17,37.66a2.61,2.61,0,0,1-.12-1.19,1.48,1.48,0,0,0,.94.13,2.56,2.56,0,0,0,0,1.27Z"/><ellipse class="cls-21" cx="979.13" cy="66.18" rx="16.25" ry="5.25"/><rect class="cls-90" x="972.74" y="50.62" width="11.29" height="1.44"/><path class="cls-91" d="M978.38,49.85a13.29,13.29,0,0,0-5.11.77h10.22A13.29,13.29,0,0,0,978.38,49.85Z"/><path class="cls-92" d="M979.19,46.27h-1.61v2.25a.81.81,0,0,0,.81.81h0a.81.81,0,0,0,.81-.81Z"/><path class="cls-93" d="M982.67,44.93l-.13.06a10.26,10.26,0,0,1-2.17.74,10.06,10.06,0,0,1-1,.17l-.5,0q-.5,0-1,0l-.49,0a10.33,10.33,0,0,1-2.17-.42l-.47-.16-.46-.18-.67-.31a10.11,10.11,0,0,1-1-.58l-.26-.17-.4-.29-.19-.15-.38-.32L971,43a10,10,0,0,1-.68-.74l-.31-.4-.3-.42-.28-.44a10.43,10.43,0,0,1-.89-1.9c-.06-.16-.11-.33-.16-.49s-.09-.33-.13-.49-.08-.33-.11-.5a10,10,0,0,1-.14-1c0-.08,0-.17,0-.25q0-.37,0-.75c0-.08,0-.17,0-.25s0-.33,0-.49a10.25,10.25,0,0,1,.23-1.46c.06-.24.12-.48.19-.71s.1-.31.16-.47.11-.31.18-.46.26-.58.41-.86a10.39,10.39,0,0,1,.66-1.08l.29-.4.14-.18.17-.21.07-.09.26-.29h0l.29-.29.06-.06q.35-.33.73-.63l.24-.19.18-.13a10.28,10.28,0,0,1,1.43-.85l.17-.08.13-.06-.34-.72-.13.06-.18.09a11.13,11.13,0,0,0-1.54.92l-.19.14-.26.2q-.41.33-.78.68l-.06.06-.31.32h0l-.28.31-.08.09-.19.22-.15.19-.32.43a11.14,11.14,0,0,0-.71,1.16q-.24.45-.44.93-.1.24-.19.49c-.06.17-.12.33-.17.5s-.15.51-.21.77a11,11,0,0,0-.25,1.57q0,.27,0,.53c0,.09,0,.18,0,.27,0,.27,0,.54,0,.8,0,.09,0,.18,0,.27a10.83,10.83,0,0,0,.15,1.07q0,.27.12.54t.14.53c.05.18.11.35.17.53q.19.53.43,1a11.29,11.29,0,0,0,.53,1l.3.47.32.45.34.43c.23.28.48.55.73.8l.39.37.41.35.21.17.43.32.28.19a10.83,10.83,0,0,0,1.09.63q.35.18.72.33l.49.19.5.17a11.1,11.1,0,0,0,2.34.45l.53,0q.53,0,1.07,0l.54,0a11.07,11.07,0,0,0,3.45-1l.13-.06Z"/><path class="cls-92" d="M972.79,24.2h0a.81.81,0,0,0-.39,1.07l10.12,21.57a.81.81,0,0,0,1.07.39h0a.81.81,0,0,0,.39-1.07L973.86,24.58A.81.81,0,0,0,972.79,24.2Z"/><path class="cls-94" d="M970.52,30.09l-.27.38-.25.4a9.61,9.61,0,0,0-.82,1.74c-.05.15-.1.3-.15.45s-.09.3-.12.45-.07.3-.1.46q-.09.46-.13.92c0,.15,0,.31,0,.46s0,.31,0,.46,0,.15,0,.23,0,.3,0,.45a9.4,9.4,0,0,0,.21,1.34q.08.33.18.65c0,.14.09.29.14.43l.16.42a9.44,9.44,0,0,0,1,1.78l.27.37q.28.36.59.7l.32.33A9.46,9.46,0,0,0,977,45.07l.46,0c.31,0,.61,0,.91,0l.45,0a9.47,9.47,0,0,0,2-.39l.43-.14.42-.16.62-.28a9.33,9.33,0,0,0,.93-.54l.24-.16.37-.27L984,43l.35-.3.33-.32c.22-.22.43-.44.62-.68l.29-.37.27-.38.25-.4a9.65,9.65,0,0,0,.82-1.74c.05-.15.1-.3.15-.45s.08-.3.12-.45.07-.3.1-.46q.09-.46.13-.92c0-.08,0-.15,0-.23,0-.23,0-.46,0-.69,0-.08,0-.15,0-.23s0-.3,0-.45a9.39,9.39,0,0,0-.21-1.34q-.08-.33-.18-.65c0-.14-.09-.29-.14-.43l-.16-.42q-.17-.4-.37-.79a9.51,9.51,0,0,0-.61-1l-.27-.37-.13-.16-.16-.19-.07-.08-.24-.26h0l-.27-.27-.06-.05q-.32-.31-.67-.58l-.22-.17-.16-.12a9.46,9.46,0,0,0-1.31-.78l-.16-.07-.27-.12a9.38,9.38,0,0,0-2.68-.71l-.46,0h-.92l-.45,0a9.46,9.46,0,0,0-1.79.33l-.21.06-.43.14-.42.16-.62.28a9.49,9.49,0,0,0-1.17.7l-.37.27-.18.14q-.27.22-.52.45l-.16.16a9.17,9.17,0,0,0-.62.68Z"/><path class="cls-95" d="M980.46,26.61h0a.15.15,0,0,0,0,.11c.1,0,.17.08.26.12a1.41,1.41,0,0,1,.28.1c.16.11.33.4.51.37s.06-.05.12-.1a2,2,0,0,0,.17-.12l.21.1a9.47,9.47,0,0,1,1.63,1c-.05.05-.12,0-.19,0s-.12,0-.19,0-.3-.2-.46-.26,0,.14.06.18a.9.9,0,0,0,.42.27c.1,0,.2.13.31.11s.11-.1.17-.12l.11,0,.25.21c0,.06-.15,0-.19.08s.24.08.33,0l.06.05.34.33q.24.24.46.49a.28.28,0,0,1-.13,0c-.08,0-.06-.16-.17-.16s0,.2.09.28a.44.44,0,0,1,.1.28c-.16.13-.2-.1-.33-.16s-.46.1-.48-.17c.08-.1.22-.06.3-.16h-.26a.86.86,0,0,1-.24,0l-.21-.06c-.13,0-.25,0-.4,0l-.17,0a2.85,2.85,0,0,0-.46,0,2.43,2.43,0,0,0-.44,0c-.06,0-.23.09-.24.14s.08.13.05.19-.12.08-.1.16.12.06.19.11.18.25.26.37a1.1,1.1,0,0,0,.26.26c.13.08.3.09.27.21s-.19.08-.23.14-.12.12-.15.2a.23.23,0,0,0,.07.25.38.38,0,0,0,.37-.06c.1-.09.16-.26.28-.3.45.22.93.19,1.12-.29a.68.68,0,0,1,.05-.16c0-.07.21-.07.23-.17a.21.21,0,0,0,.15-.05c.07,0,.13-.11.21-.1h0a.27.27,0,0,1,.12.07.79.79,0,0,0,.23.17s.13,0,.17,0,.09.2.14.29.11.09.1.17-.15.07-.19.17h0a.23.23,0,0,0,.07.23.51.51,0,0,0,.27.06,1.34,1.34,0,0,0,.29-.07l.18.36,0,.12c0,.11-.1.18-.14.28s.15.25.21.38,0,.11,0,.16.08.12.05.19-.24.11-.31.3-.16,0-.19.11.21.14.22.29-.06.11-.12.19,0,.27-.17.21-.06-.13-.13-.19l-.16-.1-.14-.1c-.11-.07-.26-.1-.3-.2a3.51,3.51,0,0,1,.62-.24c.06,0,.17,0,.18-.09S986,33,985.91,33a1,1,0,0,1-.33,0c-.17-.05-.35-.22-.52-.2s.13.11.05.21a.21.21,0,0,1-.16-.11c0-.06,0-.11,0-.15a.66.66,0,0,0-.3-.19.25.25,0,0,0-.28.07c.1.11.35.09.33.26s-.31.08-.37.25a.24.24,0,0,0,.06.22s.1,0,.15,0,0,.09.08.11.23-.1.33,0c.06.22-.22.18-.38.16s-.4-.08-.54-.09-.41.11-.37-.08.16,0,.24-.13a.89.89,0,0,0-.48-.08c-.23,0-.58-.13-.73.07,0,0,0,.13-.08.15a1.78,1.78,0,0,1-.25-.06c-.11,0-.22,0-.29,0l-.14,0c-.09,0-.17.08-.29.11s-.14,0-.18,0-.14.15-.24.13-.08-.09-.15-.08-.09.31-.2.41a3,3,0,0,1-.5.06c-.1,0-.18,0-.3,0s-.19.06-.29.07-.52,0-.65.32c0,.06,0,.14-.05.21s0,.08-.06.13,0,.27-.14.3-.26-.21-.31-.35.13-.15.16-.24a.35.35,0,0,0-.07-.28c-.05,0-.14,0-.2,0s-.09-.17-.18-.23-.25-.08-.39-.17-.29.13-.46,0-.1-.11-.16-.16a1.32,1.32,0,0,0-.26-.17,1.24,1.24,0,0,0-.52,0c-.16,0-.37,0-.47.12s-.09.17-.14.23a1.2,1.2,0,0,1-.14.09,1.07,1.07,0,0,0-.47.69,1.88,1.88,0,0,0,0,.41.59.59,0,0,0,.22.27,1.37,1.37,0,0,0,.25.06,2.44,2.44,0,0,0,.27.08c.24,0,.33-.27.59-.27a1.08,1.08,0,0,1,.39.11.24.24,0,0,1,0,.22s-.1.07-.15.13-.09.12-.13.16-.15.07-.2.12,0,.09-.08.12-.16.06-.15.14c.17.18.47.19.64.31s.18.21.13.33-.14.11-.19.21-.19.24-.24.34a.59.59,0,0,0,.2.63c.18.08.38,0,.55.15s.08.22.16.25.23,0,.31-.1.14-.15.26-.16.2.06.36.07a.86.86,0,0,0,.21,0c.06,0,.15-.07.18,0s-.15.08-.12.19.27,0,.36,0a.77.77,0,0,1,.15.19c.05.09,0,.17.12.22s.15,0,.22.09.11.17.19.21.18,0,.27,0a.28.28,0,0,1,.25.27c.08.05.13-.06.19,0s0,.13,0,.22,0,.09,0,.11.12.11.16.18a1.3,1.3,0,0,1,.09.31.65.65,0,0,0,.24.36c.1.06.21.06.29.11a1,1,0,0,1,.36.45.49.49,0,0,1,.09.26c0,.06,0,.12-.05.19s.14.28,0,.46c0,.07.06.13.11.2s.05.15.11.19a1.12,1.12,0,0,0,.12,0,1,1,0,0,1,.24.22,1.32,1.32,0,0,1,.15.14c0,.06,0,.17,0,.23s.13.05.19.09.21.19.3.24.12,0,.16.05a.57.57,0,0,1,.22.31,9.47,9.47,0,0,1-7,1.35c0-.09,0-.19.08-.27a4,4,0,0,0,.22-.49,1.93,1.93,0,0,0,.09-.45,1.42,1.42,0,0,0-.22-.47c-.05-.07-.13-.12-.18-.19a1.42,1.42,0,0,1-.35-.65c0-.05,0-.11,0-.17a2.25,2.25,0,0,0-.06-.37c0-.24,0-.51-.06-.76a2.69,2.69,0,0,0-.05-.37c0-.06-.13-.17-.11-.24a1.22,1.22,0,0,1,.05-.32c.06-.09.27-.08.31-.16s0-.16,0-.23.14-.22.26-.32l.12-.11c.06,0,.14,0,.21-.05s.09-.08.15-.11.26,0,.33-.12a2,2,0,0,0,.27-.55,2.11,2.11,0,0,0,0-.24c0-.14.06-.27-.06-.32s-.17,0-.24.05-.07.14-.15.13-.1-.19-.21-.29-.13-.08-.15-.11,0-.24-.11-.34-.14-.1-.16-.19a.86.86,0,0,1,.08-.2c-.08-.11-.06-.39-.16-.5s-.19-.13-.28-.21l-.11-.11a.88.88,0,0,1-.16-.12c-.15-.19-.11-.54-.35-.65s-.24,0-.34,0a1.27,1.27,0,0,1-.3-.29c-.09-.11-.21-.2-.29-.3s-.08-.18-.14-.24-.12-.09-.15-.13a2.09,2.09,0,0,1-.14-.24.36.36,0,0,1-.06-.27c0-.08.14-.11.18-.18a.83.83,0,0,0,0-.65c0-.14-.09-.27-.12-.4a.81.81,0,0,0,.06-.14,2.17,2.17,0,0,1-.07-.31c0-.11-.09-.24-.07-.34s.14-.19.15-.31-.27-.24-.35,0c0,.07,0,.2,0,.27s0,.16-.06.25,0,.19,0,.28-.09.29-.09.39.09.22,0,.27-.09-.13-.13-.21-.11-.16-.09-.23.1-.12.11-.19-.24-.29-.18-.43.16,0,.2-.13,0-.23,0-.32a1.6,1.6,0,0,1,.1-.31,2,2,0,0,0,.11-.29.5.5,0,0,0-.09-.28c-.06-.09-.14-.1-.15-.19a.88.88,0,0,1,.05-.28c0-.12.11-.24.16-.37a2,2,0,0,1,.18-.38c.09-.07.2-.08.29-.15s.11-.13.18-.18a3.45,3.45,0,0,1,.5-.21,1.91,1.91,0,0,0,.48-.28s.17-.13.19-.21-.11-.26,0-.36.14,0,.2-.07a.76.76,0,0,0,.11-.16c0-.09,0-.21.11-.3s.2-.05.18-.18-.2,0-.25-.13.07-.12.12-.21,0-.1,0-.13.14-.07.14-.11,0-.17,0-.27A9.39,9.39,0,0,1,980.46,26.61Z"/><path class="cls-96" d="M987.47,35.4q0-.23,0-.45a9.39,9.39,0,0,0-.21-1.34q-.08-.33-.18-.65c0-.14-.09-.29-.14-.43l-.16-.42q-.17-.4-.37-.79a9.51,9.51,0,0,0-.61-1l-.27-.37-.13-.16-.16-.19-.07-.08-.24-.26h0l-.27-.27-.06-.05q-.32-.31-.67-.58l-.22-.17-.16-.12a9.46,9.46,0,0,0-1.31-.78l-.16-.07-.27-.12a9.38,9.38,0,0,0-2.68-.71l-.46,0h-.47V45.13h.19l.45,0a9.47,9.47,0,0,0,2-.39l.43-.14.42-.16.62-.28a9.33,9.33,0,0,0,.93-.54l.24-.16.37-.27L984,43l.35-.3.33-.32c.22-.22.43-.44.62-.68l.29-.37.27-.38.25-.4a9.65,9.65,0,0,0,.82-1.74c.05-.15.1-.3.15-.45s.08-.3.12-.45.07-.3.1-.46q.09-.46.13-.92c0-.08,0-.15,0-.23,0-.23,0-.46,0-.69C987.47,35.55,987.47,35.47,987.47,35.4Z"/><path class="cls-95" d="M983,43.32s-.11,0-.16-.05-.2-.18-.3-.24-.16-.05-.19-.09,0-.17,0-.23a1.32,1.32,0,0,0-.15-.14,1,1,0,0,0-.24-.22,1.12,1.12,0,0,1-.12,0c-.06,0-.07-.13-.11-.19s-.11-.13-.11-.2c.16-.18,0-.32,0-.46s0-.13.05-.19a.49.49,0,0,0-.09-.26,1,1,0,0,0-.36-.45c-.08-.05-.19-.06-.29-.11a.65.65,0,0,1-.24-.36,1.3,1.3,0,0,0-.09-.31c0-.07-.14-.12-.16-.18s0-.06,0-.11,0-.15,0-.22-.11,0-.19,0A.28.28,0,0,0,980,39c-.09,0-.18.06-.27,0s-.1-.15-.19-.21-.17-.05-.22-.09-.07-.14-.12-.22a.77.77,0,0,0-.15-.19c-.1,0-.26.13-.36,0s.17-.08.12-.19-.12,0-.18,0a.86.86,0,0,1-.21,0,1.21,1.21,0,0,1-.25-.06v7.14a9.49,9.49,0,0,0,5-1.53A.57.57,0,0,0,983,43.32Z"/><path class="cls-95" d="M986.64,32.67s0-.12,0-.16-.28-.21-.21-.38.11-.17.14-.28l0-.12-.18-.36a1.34,1.34,0,0,1-.29.07.51.51,0,0,1-.27-.06.23.23,0,0,1-.07-.23h0c0-.1.12-.07.19-.17s-.06-.09-.1-.17,0-.23-.14-.29-.12,0-.17,0a.79.79,0,0,1-.23-.17.27.27,0,0,0-.12-.07h0c-.08,0-.14.05-.21.1a.21.21,0,0,1-.15.05c0,.1-.19.1-.23.17a.68.68,0,0,0-.05.16c-.19.48-.67.51-1.12.29-.13,0-.18.21-.28.3a.38.38,0,0,1-.37.06.23.23,0,0,1-.07-.25c0-.08.18-.07.15-.2s.2,0,.23-.14-.14-.13-.27-.21a1.1,1.1,0,0,1-.26-.26c-.08-.12-.12-.28-.26-.37s-.18,0-.19-.11.08-.12.1-.16-.08-.13-.05-.19.18-.12.24-.14a2.43,2.43,0,0,1,.44,0,2.85,2.85,0,0,1,.46,0l.17,0c.14,0,.27,0,.4,0l.21.06a.86.86,0,0,0,.24,0h.26c-.08.1-.22.06-.3.16,0,.27.34.1.48.17s.17.29.33.16a.44.44,0,0,0-.1-.28c-.05-.08-.15-.18-.09-.28s.09.13.17.16a.28.28,0,0,0,.13,0q-.22-.25-.46-.49l-.34-.33-.06-.05c-.09,0-.28,0-.33,0s.14,0,.19-.08l-.25-.21-.11,0c-.07,0-.1.11-.17.12s-.21-.07-.31-.11a.9.9,0,0,1-.42-.27s-.1-.12-.06-.18.26.21.46.26.12,0,.19,0,.14.06.19,0a9.47,9.47,0,0,0-1.63-1l-.21-.1a2,2,0,0,1-.17.12c-.06,0-.07.09-.12.1s-.35-.26-.51-.37a1.41,1.41,0,0,0-.28-.1c-.09,0-.16-.13-.26-.12a.15.15,0,0,1,0-.11,9.35,9.35,0,0,0-2.27-.31V33.8l.1,0c.09.05.11.19.18.23s.14,0,.2,0a.35.35,0,0,1,.07.28c0,.09-.14.14-.16.24s.2.23.31.35.11-.19.14-.3,0-.08.06-.13,0-.15.05-.21c.13-.28.41-.3.65-.32s.2-.06.29-.07.2,0,.3,0a3,3,0,0,0,.5-.06c.11-.1.14-.29.2-.41s.09.06.15.08.16-.1.24-.13.13,0,.18,0,.2-.12.29-.11l.14,0c.07,0,.18,0,.29,0a1.78,1.78,0,0,0,.25.06s.05-.11.08-.15c.15-.2.5-.09.73-.07a.89.89,0,0,1,.48.08c-.08.09-.2,0-.24.13s.29.07.37.08.36.07.54.09.44.05.38-.16c-.1-.06-.22.05-.33,0s0-.08-.08-.11-.1,0-.15,0a.24.24,0,0,1-.06-.22c.05-.17.24-.16.37-.25s-.23-.15-.33-.26a.25.25,0,0,1,.28-.07.66.66,0,0,1,.3.19s0,.09,0,.15a.21.21,0,0,0,.16.11c.08-.1-.11-.15-.05-.21s.35.15.52.2a1,1,0,0,0,.33,0c.1,0,.24,0,.28.07s-.12.07-.18.09a3.51,3.51,0,0,0-.62.24c0,.1.18.13.3.2l.14.1.16.1c.07.06.05.16.13.19s.2-.08.17-.21.13-.11.12-.19-.28-.13-.22-.29.13-.05.19-.11.25-.13.31-.3S986.65,32.76,986.64,32.67Z"/><rect class="cls-97" x="972.74" y="50.62" width="11.29" height="1.44"/><path class="cls-98" d="M977.57,48.26a15.53,15.53,0,0,1-4.84,2.36H984a13.7,13.7,0,0,1-4.85-2.36Z"/><rect class="cls-99" x="972.74" y="50.62" width="5.65" height="1.44"/><path class="cls-100" d="M978.39,48.26h-.82a15.53,15.53,0,0,1-4.84,2.36h5.65Z"/><path class="cls-101" d="M988,64.42a2.9,2.9,0,0,1-.85-2v-.07a2.89,2.89,0,0,1,1.94-2.73V58.4H970a3.25,3.25,0,0,0-3.25,3.25v1.46A3.25,3.25,0,0,0,970,66.36h19V65.11A2.89,2.89,0,0,1,988,64.42Z"/><path class="cls-102" d="M988,64.42a2.9,2.9,0,0,1-.85-2v-.07a2.89,2.89,0,0,1,1.94-2.73v0H970.49a2.25,2.25,0,0,0-2.24,2.24V63a2.25,2.25,0,0,0,2.24,2.24h18.56v-.1A2.89,2.89,0,0,1,988,64.42Z"/><path class="cls-103" d="M986,56.88a2.34,2.34,0,0,1-.68-1.65v-.06A2.33,2.33,0,0,1,986.9,53V52H971.54a2.62,2.62,0,0,0-2.62,2.62v1.18a2.62,2.62,0,0,0,2.62,2.62H986.9v-1A2.33,2.33,0,0,1,986,56.88Z"/><path class="cls-104" d="M986,56.88a2.34,2.34,0,0,1-.68-1.65v-.06A2.33,2.33,0,0,1,986.9,53v0h-15a1.81,1.81,0,0,0-1.81,1.81v.94a1.81,1.81,0,0,0,1.81,1.81h15v-.08A2.33,2.33,0,0,1,986,56.88Z"/><ellipse class="cls-105" cx="83.84" cy="58.22" rx="13.75" ry="2.83"/><rect class="cls-87" x="83.97" y="33.21" width="3.76" height="24.08"/><rect class="cls-106" x="80.22" y="33.21" width="3.76" height="24.08"/><path class="cls-107" d="M81.63,37.63V43a.39.39,0,0,0,.39.39h2V37.24H82A.39.39,0,0,0,81.63,37.63Z"/><path class="cls-108" d="M85.92,37.24H84v6.15h1.93a.39.39,0,0,0,.39-.39V37.63A.39.39,0,0,0,85.92,37.24Z"/><rect class="cls-109" x="76.46" y="36.71" width="3.76" height="20.57"/><rect class="cls-110" x="72.7" y="36.71" width="3.76" height="20.57"/><path class="cls-107" d="M74.12,40.39v5.37a.39.39,0,0,0,.39.39h2V40h-2A.39.39,0,0,0,74.12,40.39Z"/><path class="cls-108" d="M78.41,40H76.48v6.15h1.93a.39.39,0,0,0,.39-.39V40.39A.39.39,0,0,0,78.41,40Z"/><rect class="cls-111" x="91.48" y="36.1" width="3.76" height="21.19"/><rect class="cls-112" x="87.72" y="36.1" width="3.76" height="21.19"/><path class="cls-107" d="M89.14,39.82v5.37a.39.39,0,0,0,.39.39h2V39.43h-2A.39.39,0,0,0,89.14,39.82Z"/><path class="cls-108" d="M93.43,39.43H91.5v6.15h1.93a.39.39,0,0,0,.39-.39V39.82A.39.39,0,0,0,93.43,39.43Z"/><path class="cls-1" d="M294.52,35.05V50h15v-15Zm6,11.05a.63.63,0,0,1-.76-.47L299.08,43a.63.63,0,0,1,1.22-.29l.63,2.65A.63.63,0,0,1,300.47,46.1Zm2.16-4.45a.63.63,0,1,1-1.26,0V38.93a.63.63,0,1,1,1.26,0ZM304.81,43l-.63,2.65a.63.63,0,1,1-1.22-.29l.63-2.65a.63.63,0,1,1,1.22.29Z"/><circle class="cls-113" cx="788.53" cy="19.71" r="17.74"/><path class="cls-1" d="M788.53,39a19.33,19.33,0,1,1,19.33-19.33A19.35,19.35,0,0,1,788.53,39Zm0-35.48a16.15,16.15,0,1,0,16.15,16.15A16.17,16.17,0,0,0,788.53,3.57Z"/><path class="cls-1" d="M776,27.46c.33.54,1.29,0,1-.59A.57.57,0,1,0,776,27.46Z"/><path class="cls-1" d="M800.1,12.73c.33.54,1.29,0,1-.59A.57.57,0,1,0,800.1,12.73Z"/><path class="cls-1" d="M801.76,20.16c.33.54,1.29,0,1-.59A.57.57,0,1,0,801.76,20.16Z"/><path class="cls-1" d="M774.1,20.16c.33.54,1.29,0,1-.59A.57.57,0,1,0,774.1,20.16Z"/><path class="cls-1" d="M781.25,32.5c.55.32,1.11-.66.56-1A.57.57,0,1,0,781.25,32.5Z"/><path class="cls-1" d="M795.32,8c.55.32,1.11-.66.56-1A.57.57,0,1,0,795.32,8Z"/><path class="cls-1" d="M795.55,32.61c.56-.3,0-1.29-.54-1A.57.57,0,1,0,795.55,32.61Z"/><path class="cls-1" d="M782.12,7.77c.56-.3,0-1.29-.54-1A.57.57,0,1,0,782.12,7.77Z"/><path class="cls-1" d="M789.13,6.12c.56-.3,0-1.29-.54-1A.57.57,0,1,0,789.13,6.12Z"/><path class="cls-1" d="M789.13,33.77c.56-.3,0-1.29-.54-1A.57.57,0,1,0,789.13,33.77Z"/><path class="cls-1" d="M801.17,27.15c.32-.55-.64-1.12-1-.57A.57.57,0,1,0,801.17,27.15Z"/><path class="cls-1" d="M776.87,12.75c.32-.55-.64-1.12-1-.57A.57.57,0,1,0,776.87,12.75Z"/><polygon class="cls-1" points="795.51 29.27 786.83 20.85 787.14 11.11 788.34 11.11 788.85 20.6 796.34 28.49 795.51 29.27"/><path class="cls-1" d="M928.66,31.34c0,.2-.54-.23-.94-.23H837.41c-.4,0-.75.43-.75.23V29.61c0-.2.35-1.5.75-1.5h90.31c.4,0,.94,1.3.94,1.5Z"/><path class="cls-1" d="M928.66,31.52c0,.1-.54-.41-.94-.41H837.41c-.4,0-.75.51-.75.41v-.87c0-.1.35.45.75.45h90.31c.4,0,.94-.55.94-.45Z"/><rect class="cls-1" x="839.66" y="31.11" width="3" height="3" rx="0.72" ry="0.72"/><rect class="cls-1" x="919.66" y="31.11" width="3" height="3" rx="0.72" ry="0.72"/><path class="cls-1" d="M849.66,28.89c0,.2.34-.78.06-.78h-4.3c-.28,0-2.76,1-2.76.78V9.16a12.22,12.22,0,0,1,2.76-2.05h4.3c.28,0-.06,1.85-.06,2.05Z"/><path class="cls-1" d="M852.66,29c0,.16,1.45-.86,1.24-.86h-3.32c-.21,0-.92,1-.92.86V13.54c0-.16.71-.43.92-.43h3.32c.21,0-1.24.27-1.24.43Z"/><path class="cls-1" d="M857.66,28.94v-.83h-3c-.21,0-2,1-2,.83V11.86c0-.17,1.76,1.25,2,1.25h3V28.94Z"/><path class="cls-1" d="M866.4,28a.3.3,0,0,1-.25.37l-3.19.91a.35.35,0,0,1-.45-.17l-4.24-14.83c0-.15.1-.3.3-.35l3.19-.91c.2-.06.36,0,.4.15Z"/><rect class="cls-1" x="851.66" y="18.11" width="1" height="8"/><rect class="cls-1" x="852.66" y="13.11" width="5" height="2"/><rect class="cls-1" x="860.29" y="15.9" width="0.72" height="5.64" transform="translate(29.65 243.45) rotate(-16.38)"/><rect class="cls-1" x="860.9" y="15.73" width="0.29" height="3.03" transform="translate(30.1 243.58) rotate(-16.38)"/><rect class="cls-1" x="895.66" y="25.11" width="21" height="6" rx="0.36" ry="0.36"/><rect class="cls-1" x="894.66" y="20.11" width="23" height="4" rx="0.36" ry="0.36"/><rect class="cls-1" x="898.66" y="18.11" width="18" height="4" rx="0.36" ry="0.36"/><rect class="cls-1" x="900.66" y="15.11" width="18" height="1" rx="0.36" ry="0.36"/><rect class="cls-1" x="912.66" y="25.11" width="3" height="3"/><rect class="cls-1" x="895.66" y="25.11" width="4" height="3"/><rect class="cls-1" x="896.66" y="21.11" width="2" height="4"/><rect class="cls-1" x="909.66" y="17.11" width="5" height="1"/><rect class="cls-1" x="907.66" y="18.11" width="5" height="2"/><rect class="cls-1" x="915" y="16" width="1" height="2"/><rect class="cls-1" x="903" y="16" width="1" height="2"/><polygon class="cls-1" points="887.48 29.2 886.14 20.11 880.91 20.11 878.38 20.11 873.14 20.11 871.8 29.2 879.64 29.19 887.48 29.2"/><circle class="cls-1" cx="879.64" cy="21.2" r="6.04"/><path class="cls-1" d="M879.64,27.77a6.58,6.58,0,1,1,6.58-6.58A6.59,6.59,0,0,1,879.64,27.77Zm0-12.07a5.49,5.49,0,1,0,5.49,5.49A5.5,5.5,0,0,0,879.64,15.7Z"/><path class="cls-1" d="M878.66,16.23v.38C880.66,16.62,880.66,16.23,878.66,16.23Z"/><path class="cls-1" d="M878.66,25.84v.38C880.66,26.23,880.66,25.84,878.66,25.84Z"/><path class="cls-1" d="M875.38,23.83c.11.18.44,0,.33-.2A.19.19,0,1,0,875.38,23.83Z"/><path class="cls-1" d="M883.58,18.82c.11.18.44,0,.33-.2A.19.19,0,1,0,883.58,18.82Z"/><path class="cls-1" d="M877.17,25.55c.19.11.38-.22.19-.33A.19.19,0,1,0,877.17,25.55Z"/><path class="cls-1" d="M882,17.22c.19.11.38-.22.19-.33A.19.19,0,1,0,882,17.22Z"/><path class="cls-1" d="M882,25.58c.19-.1,0-.44-.18-.34A.19.19,0,1,0,882,25.58Z"/><path class="cls-1" d="M877.46,17.13c.19-.1,0-.44-.18-.34A.19.19,0,1,0,877.46,17.13Z"/><path class="cls-1" d="M883.94,23.73c.11-.19-.22-.38-.33-.2A.19.19,0,1,0,883.94,23.73Z"/><path class="cls-1" d="M875.68,18.83c.11-.19-.22-.38-.33-.2A.19.19,0,1,0,875.68,18.83Z"/><polygon class="cls-1" points="882.14 24.16 879.54 21.5 879.52 18.11 879.74 18.11 879.75 21.42 882.3 24.14 882.14 24.16"/><path class="cls-1" d="M878.66,20.83v.72C880.66,21.55,880.66,20.83,878.66,20.83Z"/><path class="cls-1" d="M748.66,41.11h-92V37.57c0-.2.59.54,1,.54H748c.4,0,.7-.74.7-.54Z"/><rect class="cls-1" x="660.66" y="40.11" width="3" height="3" rx="0.72" ry="0.72"/><rect class="cls-1" x="739.66" y="40.11" width="3" height="3" rx="0.72" ry="0.72"/><rect class="cls-1" x="708.66" y="20.11" width="7" height="18"/><rect class="cls-1" x="715.66" y="22.11" width="6" height="16" rx="0.36" ry="0.36"/><rect class="cls-1" x="721.66" y="20.11" width="4" height="18" rx="0.36" ry="0.36"/><rect class="cls-1" x="727.74" y="21.17" width="3.76" height="15.89" rx="0.36" ry="0.36" transform="translate(17.09 188.78) rotate(-14.92)"/><rect class="cls-1" x="708.66" y="34.11" width="7" height="1"/><rect class="cls-1" x="715.66" y="24.11" width="1" height="5"/><rect class="cls-1" x="721.66" y="20.11" width="4" height="2"/><rect class="cls-1" x="721.66" y="22.11" width="4" height="2"/><rect class="cls-1" x="721.66" y="33.11" width="4" height="1"/><rect class="cls-1" x="721.66" y="35.11" width="4" height="1"/><rect class="cls-1" x="726.18" y="22.67" width="3.76" height="1.23" transform="translate(18.54 188.19) rotate(-14.92)"/><rect class="cls-1" x="729.31" y="34.4" width="3.76" height="1.23" transform="matrix(0.97, -0.26, 0.26, 0.97, 15.62, 189.39)"/><polygon class="cls-1" points="724.59 21.97 724.2 21.95 723.96 22.26 723.86 21.88 723.49 21.75 723.82 21.53 723.83 21.14 724.13 21.39 724.51 21.27 724.37 21.64 724.59 21.97"/><polygon class="cls-1" points="724.59 34.75 724.2 34.73 723.96 35.05 723.86 34.67 723.49 34.53 723.82 34.32 723.83 33.93 724.13 34.17 724.51 34.06 724.37 34.43 724.59 34.75"/><rect class="cls-1" x="728.4" y="24.24" width="0.51" height="10.11" transform="translate(17.01 188.53) rotate(-14.91)"/><rect class="cls-1" x="728.51" y="24.13" width="0.36" height="4.48" transform="translate(17.73 188.31) rotate(-14.9)"/><rect class="cls-1" x="682.66" y="34.11" width="19" height="4" rx="0.36" ry="0.36"/><rect class="cls-1" x="685.66" y="33.11" width="18" height="4" rx="0.36" ry="0.36"/><rect class="cls-1" x="686.66" y="27.11" width="16" height="4" rx="0.36" ry="0.36"/><rect class="cls-1" x="687.66" y="24.11" width="16" height="4" rx="0.36" ry="0.36"/><rect class="cls-1" x="687.66" y="26.11" width="12" height="1"/><rect class="cls-1" x="687.66" y="26.11" width="12" height="1"/><polygon class="cls-1" points="690 29.91 689.54 29.19 689 29.91 689 28 690 28 690 29.91"/><rect class="cls-1" x="699.66" y="31.11" width="1" height="3"/><rect class="cls-1" x="685.66" y="31.11" width="2" height="3"/><rect class="cls-1" x="700.66" y="34.11" width="3" height="2"/><rect class="cls-1" x="686.66" y="35.11" width="13" height="3"/><path class="cls-1" d="M699.66,38.11h-13v-3h13Zm-13,0h13v-3h-13Z"/><path class="cls-1" d="M668.78,29.11s.07-11-5.94-10.79,4.35,10.79,4.69,10.79Z"/><path class="cls-1" d="M670.46,33.11s-.06-11,4.84-10.79-3.54,10.79-3.83,10.79Z"/><path class="cls-1" d="M669,29.82s-4.9-6.13-2.84-10S670,29,669.95,29.64,669,29.82,669,29.82Z"/><path class="cls-1" d="M670.32,30.45s4.64-6.32,2.43-10.11-3.43,9.33-3.33,10S670.32,30.45,670.32,30.45Z"/><path class="cls-1" d="M668.83,29.13c.28.59.91-.13.91-.13s2.6-7.4-.61-10.38"/><polygon class="cls-1" points="674.13 38.11 666.18 38.11 664.09 27.11 676.15 27.11 674.13 38.11"/><polygon class="cls-1" points="676.28 29.11 664.02 29.11 663.62 27.11 676.61 27.11 676.28 29.11"/><rect class="cls-114" x="135.62" y="3.27" width="150.02" height="46.2"/><circle class="cls-1" cx="277.02" cy="52.08" r="1.63"/><circle class="cls-1" cx="174.79" cy="52.08" r="1.63"/><rect class="cls-1" x="284.85" y="1.55" width="2.15" height="49.85"/><rect class="cls-1" x="135.81" y="48.76" width="149.61" height="0.41"/><rect class="cls-1" x="135.81" y="1.55" width="149.61" height="2.45"/><rect class="cls-1" x="134.22" y="1.55" width="2.35" height="49.85"/><rect class="cls-1" x="134.38" y="48.64" width="152.49" height="2.76"/><rect class="cls-1" x="193.51" y="40.48" width="6.92" height="4.08"/><polygon class="cls-1" points="190.82 39.87 188.37 38.64 202.8 11.73 205.19 13 190.82 39.87"/><path class="cls-1" d="M200.71,12.43A13.93,13.93,0,1,1,187.24,36l-1.13,1.89A16.09,16.09,0,1,0,201.77,10.5Z"/><path class="cls-1" d="M206.47,48c0-2.26-4.24-4.28-9.47-4.28s-9.46,2-9.46,4.28Z"/><path class="cls-1" d="M208.14,25.38c0-.33,0-.62-.07-.91A11.47,11.47,0,0,0,203,16.17h0l-.06,0a11.5,11.5,0,0,0-9.62-1.33c-.28.08-.57.19-.86.3a11.47,11.47,0,0,0-7.27,11.11c0,.31,0,.61.07.91a11.48,11.48,0,0,0,5.07,8.28l.05,0A11.5,11.5,0,0,0,200,36.79c.28-.08.56-.18.86-.3a11.47,11.47,0,0,0,7.27-11.11Z"/><path class="cls-1" d="M208.14,25.38c0-.33,0-.62-.07-.91A11.47,11.47,0,0,0,203,16.17h0l-.06,0a11.5,11.5,0,0,0-9.62-1.33c-.28.08-.57.19-.86.3a11.47,11.47,0,0,0-7.27,11.11c0,.31,0,.61.07.91a11.48,11.48,0,0,0,5.07,8.28l.05,0A11.5,11.5,0,0,0,200,36.79c.28-.08.56-.18.86-.3a11.47,11.47,0,0,0,7.27-11.11Z"/><g class="cls-115"><polygon class="cls-1" points="212.52 30.27 211.86 30.29 211.84 29.93 211.94 29.98 212.2 29.95 212.17 29.63 211.46 29.63 211.27 29.38 211.28 29.24 210.36 28.42 210.14 28.59 211.44 30.19 211.63 30.25 211.63 30.34 211.38 30.34 211.44 30.54 213.05 30.61 212.52 30.27"/><polygon class="cls-1" points="213.55 29.44 213.66 29.36 213.66 28.49 213.55 28.44 213.5 28.17 213.34 28.17 213.23 28.45 213.11 28.55 212.18 29.06 212.18 29.56 212.49 29.97 213.27 29.97 213.37 29.71 213.55 29.55 213.55 29.44"/><polygon class="cls-1" points="214.24 29.36 213.77 29.55 213.77 29.65 213.66 29.65 213.66 30.3 213.9 30.3 213.86 29.89 214.05 29.95 214.05 30.25 214.24 30.23 214.24 29.36"/><polygon class="cls-1" points="218.06 32.77 217.59 32.36 217.55 31.58 217.24 31.04 216.95 31.03 216.84 32.01 216.29 31.97 216.14 31.88 216.12 31.49 216.41 31.55 216.65 31.31 216.13 31 215.53 31 215.09 31.62 214.92 31.62 214.92 31.42 214.39 31.46 213.57 32.4 213.13 32.41 212.64 32.75 212.61 34.2 212.31 34.49 212.31 34.74 213.74 34.26 214.89 34.21 215.31 35.15 216.62 35.19 217.88 34.01 218.19 33.3 218.06 32.77"/><polygon class="cls-1" points="215.49 35.87 215.95 35.92 216.32 35.71 216.33 35.43 215.92 35.39 215.49 35.87"/><polygon class="cls-1" points="219.93 34.59 219.74 34.63 219.73 34.19 219.38 34.22 219.34 34.9 219.02 35.11 218.45 35.19 217.52 35.84 217.37 35.97 217.37 36.19 217.85 36.12 219.02 35.4 219.35 35.18 219.71 35.02 220.06 34.82 219.93 34.59"/><polygon class="cls-1" points="216.3 29.74 216 29.75 216.03 29.44 215.74 29.27 215.34 29.67 215.61 30.01 216.19 30.09 216.52 30.26 216.53 30.42 216.32 30.42 216.33 30.75 217.04 30.71 217.3 30.43 217.57 30.41 217.57 30.91 218.05 30.91 218.05 30.71 217.81 30.71 217.77 30.09 216.62 29.57 216.3 29.74"/><polygon class="cls-1" points="207.78 28.27 207.89 28.57 208.29 28.42 208.34 28 208.01 27.93 207.78 28.27"/><polygon class="cls-1" points="203.04 31.78 202.48 31.71 202.48 32.14 202.68 32.37 202.53 32.6 202.31 32.86 202.31 33.33 202.61 33.62 202.89 33.18 203.43 32.39 203.68 31.14 203.35 31.14 203.04 31.78"/><polygon class="cls-1" points="214.35 30.47 214.17 30.47 214.17 30.57 214.31 30.61 214.35 30.47"/><rect class="cls-1" x="213.34" y="30.61" width="0.21" height="0.12"/><polygon class="cls-1" points="213.85 30.73 213.99 30.73 213.99 30.63 214.08 30.61 214.08 30.51 213.87 30.51 213.78 30.61 213.66 30.73 213.66 30.83 213.85 30.81 213.85 30.73"/><polygon class="cls-1" points="214.4 30.82 214.61 30.82 214.61 30.71 214.76 30.73 214.74 30.54 214.5 30.58 214.48 30.7 214.21 30.73 214.19 30.73 214.19 30.91 214.4 30.91 214.4 30.82"/><path class="cls-1" d="M181.58,21.56l0-.28-.29,0a1.41,1.41,0,0,0,0,.32Z"/><polygon class="cls-1" points="196.08 21.29 196.11 21.46 195.85 21.52 195.81 21.89 196.12 21.89 196.53 21.85 196.75 21.59 196.52 21.5 196.4 21.36 196.21 21.06 196.12 20.63 195.77 20.7 195.67 20.86 195.67 21.02 195.84 21.14 196.08 21.29"/><polygon class="cls-1" points="195.78 21.43 195.8 21.2 195.6 21.11 195.31 21.18 195.1 21.52 195.1 21.74 195.35 21.74 195.78 21.43"/><path class="cls-1" d="M210.53,28.18l1.26,1.21.07-.21-1-1.46.11-.43.54.61.3,0,.4-.27-.06-.4-.66-.53,0-.48.19-.25.33.11,0,.23.19.29.17-.12-.09-.35.93-.33.41-.34-.06-.62-.81-.85v-.69H213l1.12.85.32-.09-.21-.27-.6-.37,0-.54h.71l.06-.67-.27-.36.16-.17.35.35.11-.15-.44-.51-1.11-.13-.15-.29.32-.45.25.18.76.07,1-.64.16.2-.21.33V21l.88.72.28-.15-.11-.48-.62-.59.82-.05v-.24l.4-.08-.31-.21v-.16l.84.13.16-.13-1.13-.48-4.13-.21-.39-.19-.61-.09-.46,0-.42.42h-.18l-.55-.41h-1.64l-.76-.45-1.52.1-1.16.52v.6l-.36.11-.08-.6-.13-.21-.4-.1-.09.36.12.29-1.42-.09-.68.32-.1-.3-.17,0-.12.33-.36.28-.87,0,0-.19.91,0,.19-.16L200,19l-1.33,0-.75.38-.28.5-.49.19-.21.22,0,.26.26,0,.15.38.44-.18.07.51h-.13l-.36-.05-.4.07-.39.55-.55.09-.08.47.23.05-.07.3-.55-.11-.5.11-.11.28.09.59.29.14h.49l.33,0,.1-.27.52-.68.34.07.34-.31.06.24.84.56-.1.14-.37,0,.14.2.23.05.27-.11v-.33l.12-.06-.1-.11-.56-.31-.15-.41h.46l.15.15.4.34,0,.41.41.44.15-.6.29-.16.05.49.28.31H201l.25.19v.44l-.31.28h-.85l-.52-.39-.55.05v.33h-.17l-.19-.13-.95-.24v-.61l-1.2.09-.37.2h-.48l-.23,0-.58.32V25l-1.18.85.1.37H194l-.06.35-.17.06v.91l1,1.16h.44l0-.07h.8l.23-.21h.45l.25.25.68.07-.09.9.75,1.32-.39.76,0,.36.31.31v.86l.41.55v.71h1.21l.91-.93.28-.51.37-.08v-.43l.24-.28.51-.69-.11-1.06-.22-.39,1-1L204,27.6l-.21-.1-1.14.24-.29-.15-1.2-2.26.08-.1,1.19,1.44,0,.45.28.28.56,0,1.17-.85.37-.24V26l-.39-.05S203,25.3,203,25.27s0-.55,0-.55h.3l0,.38.63.36.72,0,1.57.26.37.23v.36l0,.49.8,1.33.26.06.26-.38.14-1.07.27-.58.43-.16.76.08,1,.85Zm-11-8.43-.53.32v.21l.3.14,0,.28-.42.63h-.73l0-.15.46-.23v-.87l.78-.54h.17Zm1.63,3.7-.69,0-.21,0V23l.15-.18.17-.05.37,0,.08-.13.15.07,0,.43.4.16,0,.2Zm2.65.34-.12.11-.28,0-.05-.08-.44,0,0-.14.23-.2v-.17l-.45-.32,0-.41.09-.21.36,0,.31.13v.21l-.44,0,0,.2.55.36v.27l.24.17Z"/><path class="cls-1" d="M189.81,22.58h-.31v.16h.07s0,0,0,.08l.19,0,.12-.07,0-.15h.15l.06-.12-.14,0h-.12Z"/><polygon class="cls-1" points="189.07 22.86 189.29 22.84 189.31 22.68 189.18 22.57 189.08 22.7 189.07 22.86"/><path class="cls-1" d="M192,29.71H191l-.75-.29,0-.53-.25-.44h-.67l-.39-.61-.34-.17,0,.18-.63,0-.23-.32-.66-.13-.54.63-.85-.15-.06-1-.62-.1.25-.47-.07-.27-.82.55-.52-.06-.18-.4.11-.42.28-.52.65-.33H186v.38l.45.21,0-.66.32-.33.66-.43,0-.31.66-.68.7-.39-.06-.05.48-.44.17,0,.08.1.18-.2,0,0-.2,0-.2-.07v-.19l.1-.09h.24l.1,0,.09.18.11,0h0l.33,0,0-.16.19,0V22l-.17.12h0l0,.19.59.18h.14v-.26l-.47-.21,0-.13.39-.13,0-.37-.41-.25,0-.63-.56.27h-.2l.05-.48-.76-.18-.32.24v.73l-.57.18-.23.47-.25,0v-.61l-.53-.07-.27-.17-.11-.39,1-.56.47-.14,0,.31h.26l0-.16.27,0v-.05l-.12,0,0-.17.33,0,.2-.21v0h0l.06-.06.7-.09.31.26-.81.43,1,.24.13-.35h.45l.16-.3-.32-.08v-.38l-1-.44-.69.08-.39.2,0,.5-.41-.06-.06-.28.39-.36-.71,0-.2.06-.09.24.27,0-.05.27-.45,0-.07.18-.65,0a1.8,1.8,0,0,0,0-.37h.52l.39-.38-.21-.11-.28.28-.47,0-.28-.39h-.6l-.63.47h.58l.05.17-.15.14.64,0,.1.23-.72,0,0-.18-.45-.1-.24-.13H184l-.33.32-.22,0-.25-.14-.74-.22h-1.35l-.78.53-.52.08-.24.19.37.05v.15h-.8l-.31.22.4.34h1.09l.15-.16h.92l.33.29,0,.45.28.26-.23.16.05.6-.83,1v.94l.44.21v.85l.43.73.35.05,0-.25-.41-.63-.08-.61h.24l.1.63.59.86-.15.28.37.57.93.23V27l.37.05,0,.27.29.05.45.13.64.73.82.06.08.66-.56.39,0,.59-.08.37.81,1,.06.34.33.08s.66.47.66.47V34l.22.06-.15.84.37.5-.07.84.49.87.63.55h.64l.06-.21-.47-.39,0-.2.08-.24,0-.24h-.31l-.16-.2.26-.25,0-.19-.29-.08,0-.18.42-.06.64-.31.21-.39.67-.85-.15-.67.21-.36.61,0,.41-.33.14-1.28.46-.58.08-.37-.42-.13Zm-4.83-6.56-.15.15h-.34l.05-.24h.16l0-.08.25,0Zm.08-.42-.16.1-.2,0v-.35h.36Zm.3-.25.16.1-.13.11-.13-.11Zm-.22.27h0l.41.12v.21h-.34l-.09-.13Zm-.27-.57.22.2-.22.05Zm-.93,0,.31-.13h.42v.13h.09v.22h-.64l-.24-.07Zm-.06.57.25-.27h.35l-.45.63L186,23Zm-.33-1.51.25.06-.09.34-.27.09-.17-.35Zm-1.27-1.61v0h.24l0-.08h.38v.17l-.11.15h-.53Zm.37.52.25,0s0,.23,0,.23l-.53,0-.1-.12Z"/></g><path class="cls-1" d="M226.89,35.1V26.23h-7V35.1s-9.64,13.05-6,13.05h18.9C236.52,48.15,226.89,35.1,226.89,35.1Z"/><path class="cls-1" d="M226.79,24.46H220a.91.91,0,1,0,0,1.82h6.79a.91.91,0,1,0,0-1.82Z"/><path class="cls-1" d="M179.61,37.73V30.66H174v7.07s-7.69,10.42-4.76,10.42h15.08C187.3,48.15,179.61,37.73,179.61,37.73Z"/><path class="cls-1" d="M179.53,29.24h-5.42a.73.73,0,1,0,0,1.45h5.42a.73.73,0,1,0,0-1.45Z"/><path class="cls-1" d="M165.63,35.1H154.51V46.22a1.93,1.93,0,0,0,1.93,1.93h7.26a1.93,1.93,0,0,0,1.93-1.93Z"/><path class="cls-1" d="M165.61,33.74h-11a.7.7,0,1,0,0,1.39h11a.7.7,0,1,0,0-1.39Z"/><path class="cls-1" d="M278.59,40.13V34.69h-4.28v5.45s-5.92,8-3.66,8h11.61C284.52,48.15,278.59,40.13,278.59,40.13Z"/><path class="cls-1" d="M278.54,33.6h-4.17a.56.56,0,1,0,0,1.12h4.17a.56.56,0,1,0,0-1.12Z"/><path class="cls-1" d="M238.33,27.88h-2.51v17.6a2.67,2.67,0,0,0,2.51,2.68,2.7,2.7,0,0,0,2.54-2.68V27.88Z"/><path class="cls-1" d="M241.1,26.77h-5.5a.6.6,0,0,0,0,1.17h5.5a.6.6,0,0,0,0-1.17Z"/><path class="cls-1" d="M148.67,27.88h-2.51v17.6a2.67,2.67,0,0,0,2.51,2.68,2.7,2.7,0,0,0,2.54-2.68V27.88Z"/><path class="cls-1" d="M151.43,26.77h-5.5a.6.6,0,0,0,0,1.17h5.5a.6.6,0,0,0,0-1.17Z"/><path class="cls-1" d="M264.8,42.25v0H250s0,0,0,.05v3.55c0,1.29.74,2.33,1.65,2.33l11.5,0c.91,0,1.65-1,1.65-2.33Z"/><path class="cls-1" d="M268.25,46.93,265,30.55h-1.53l3.26,16.66a.75.75,0,1,0,1.48-.29Z"/><path class="cls-1" d="M249.75,30.55l-3.2,16.37a.75.75,0,1,0,1.48.29l3.26-16.66Z"/><path class="cls-1" d="M257.44,30.55h-.79V47.07a.75.75,0,0,0,.75.75h0a.75.75,0,0,0,.71-.74V30.55Z"/><path class="cls-1" d="M249.75,30.55l-3.2,16.37a.75.75,0,1,0,1.48.29l3.26-16.66Z"/><path class="cls-1" d="M267.31,29.66H247.49a.89.89,0,0,0,0,1.78h19.83a.89.89,0,1,0,0-1.78Z"/><text class="cls-116" transform="translate(482.47 36.86) rotate(-14.91)">蔗糖</text></g></g></svg>