<svg xmlns="http://www.w3.org/2000/svg" xmlns:xlink="http://www.w3.org/1999/xlink" viewBox="0 0 1024 80"><defs><style>.cls-1{fill:#0d3170;}.cls-2{isolation:isolate;}.cls-3{fill:#001b4d;stroke:#231815;}.cls-27,.cls-3,.cls-5,.cls-7{stroke-miterlimit:10;}.cls-4{fill:url(#linear-gradient);}.cls-5{fill:#001f4c;stroke:#002582;}.cls-100,.cls-101,.cls-102,.cls-5,.cls-64,.cls-65,.cls-66,.cls-67,.cls-68,.cls-74,.cls-75,.cls-76,.cls-77,.cls-78,.cls-79,.cls-80,.cls-81,.cls-82,.cls-83,.cls-84,.cls-85,.cls-86,.cls-87,.cls-88,.cls-89,.cls-90,.cls-91,.cls-92,.cls-93,.cls-94,.cls-95,.cls-96,.cls-97,.cls-98,.cls-99{fill-rule:evenodd;}.cls-10,.cls-11,.cls-6,.cls-73,.cls-9{opacity:0.3;}.cls-27,.cls-7{fill:none;}.cls-7{stroke:#fff;}.cls-30,.cls-7{mix-blend-mode:overlay;}.cls-8{fill:url(#linear-gradient-2);}.cls-9{fill:url(#linear-gradient-3);}.cls-10{fill:url(#linear-gradient-4);}.cls-11{fill:url(#linear-gradient-5);}.cls-12{clip-path:url(#clip-path);}.cls-13{fill:#f06f20;}.cls-14{fill:#f6991b;}.cls-15{fill:#43aadf;}.cls-16{fill:#499fcd;}.cls-17{fill:#009c4f;}.cls-18{fill:#35914d;}.cls-19{fill:#7b838b;}.cls-20{fill:#808990;}.cls-21{fill:#8a1c80;}.cls-22{fill:#86297b;}.cls-23{fill:#eb2f35;}.cls-24,.cls-55{fill:#071435;}.cls-25{fill:#7cb342;}.cls-26{fill:#c0ca33;}.cls-27{stroke:#7cb342;stroke-width:3px;}.cls-28{fill:#ab47bc;}.cls-29{fill:#f06292;}.cls-30,.cls-32,.cls-82{fill:#fff;}.cls-30{opacity:0.22;}.cls-31{fill:#ffeb3b;}.cls-33{fill:#f09b36;}.cls-34{fill:#933917;}.cls-35{fill:#ac4820;}.cls-36{fill:#ea9639;}.cls-37{fill:#53391e;}.cls-38{fill:#6b4c29;}.cls-39{fill:#8b6537;}.cls-40{fill:#3a2614;}.cls-41{fill:#a9834b;}.cls-42{fill:#e8e8e8;}.cls-43{fill:#e0e0e0;}.cls-44{fill:#898989;}.cls-45{fill:#a5a5a5;}.cls-46{fill:#c4c0c2;}.cls-47{fill:#dbdbdb;}.cls-48{fill:#fcaa27;}.cls-49{fill:#d8d4d6;}.cls-50{fill:#ffc55f;}.cls-51{fill:#70493a;}.cls-52{fill:#563526;}.cls-53{fill:#382016;}.cls-54{fill:#39f;}.cls-55{opacity:0.37;}.cls-56{fill:url(#linear-gradient-6);}.cls-57{fill:url(#linear-gradient-7);}.cls-58{fill:url(#linear-gradient-8);}.cls-59{fill:url(#linear-gradient-9);}.cls-60{fill:url(#linear-gradient-10);}.cls-61{fill:url(#linear-gradient-11);}.cls-62{fill:url(#linear-gradient-12);}.cls-63{fill:url(#linear-gradient-13);}.cls-64{fill:#c19785;}.cls-65{fill:#eeded4;}.cls-66{fill:#ccc;}.cls-67{fill:#004949;}.cls-68,.cls-69{fill:#c09684;}.cls-70,.cls-73{fill:#ed7c31;}.cls-71{fill:#f4663d;}.cls-72{fill:#b70804;}.cls-74{fill:#ad8071;}.cls-75{fill:#e2846e;}.cls-76{fill:#e9e9e9;}.cls-77{fill:#744f2f;}.cls-78{fill:#d6d3d7;}.cls-79{fill:#bbab9d;}.cls-80{fill:#2f3f5b;}.cls-81{fill:#efdfd5;}.cls-83{fill:#275883;}.cls-84{fill:#835934;}.cls-85{fill:#e6dfe7;}.cls-86{fill:#cbb8a8;}.cls-87{fill:#e9dfdf;}.cls-88{fill:#351504;}.cls-89{fill:#1c1313;}.cls-90{fill:#432a2a;}.cls-91{fill:#4f2006;}.cls-92{fill:#3c1905;}.cls-93{fill:#f08f31;}.cls-94{fill:#006ac1;}.cls-103,.cls-95{fill:#2c7dff;}.cls-96{fill:#2d6fa0;}.cls-97{fill:#0c90a5;}.cls-98{fill:#065d66;}.cls-99{fill:#f98e75;}.cls-100{fill:#14405b;}.cls-101{fill:#ff0037;}.cls-102{fill:#e1e1e1;}</style><linearGradient id="linear-gradient" x1="54.33" y1="9.37" x2="54.33" y2="54.19" gradientUnits="userSpaceOnUse"><stop offset="0" stop-color="#071636"/><stop offset="1" stop-color="#073b93"/></linearGradient><linearGradient id="linear-gradient-2" x1="962.33" y1="14.75" x2="962.33" y2="54.75" xlink:href="#linear-gradient"/><linearGradient id="linear-gradient-3" x1="508.21" y1="53.8" x2="508.21" y2="4.2" gradientUnits="userSpaceOnUse"><stop offset="0" stop-color="#000019"/><stop offset="1" stop-color="#071639"/></linearGradient><linearGradient id="linear-gradient-4" x1="709.79" y1="19.71" x2="745.27" y2="19.71" xlink:href="#linear-gradient-3"/><linearGradient id="linear-gradient-5" x1="791.31" y1="26.37" x2="941.33" y2="26.37" xlink:href="#linear-gradient-3"/><clipPath id="clip-path"><path class="cls-1" d="M863.83,25.38c0-.33,0-.62-.07-.91a11.47,11.47,0,0,0-5.11-8.31h0l-.06,0A11.5,11.5,0,0,0,849,14.78c-.28.08-.57.19-.86.3a11.47,11.47,0,0,0-7.27,11.11c0,.31,0,.61.07.91A11.48,11.48,0,0,0,846,35.37l.05,0a11.5,11.5,0,0,0,9.67,1.37c.28-.08.56-.18.86-.3a11.47,11.47,0,0,0,7.27-11.11Z"/></clipPath><linearGradient id="linear-gradient-6" x1="502.15" y1="29.49" x2="502.4" y2="34.61" gradientUnits="userSpaceOnUse"><stop offset="0" stop-color="#f06292"/><stop offset="1" stop-color="#fff"/></linearGradient><linearGradient id="linear-gradient-7" x1="495.54" y1="34.04" x2="502.26" y2="34.04" gradientUnits="userSpaceOnUse"><stop offset="0" stop-color="#ab47bc"/><stop offset="1" stop-color="#fff"/></linearGradient><linearGradient id="linear-gradient-8" x1="492.97" y1="37.21" x2="497.72" y2="37.46" xlink:href="#linear-gradient-6"/><linearGradient id="linear-gradient-9" x1="495.54" y1="40.75" x2="502.26" y2="40.75" xlink:href="#linear-gradient-7"/><linearGradient id="linear-gradient-10" x1="502.44" y1="45.53" x2="502.19" y2="42.28" xlink:href="#linear-gradient-6"/><linearGradient id="linear-gradient-11" x1="508.87" y1="43.23" x2="504.25" y2="39.98" xlink:href="#linear-gradient-7"/><linearGradient id="linear-gradient-12" x1="511.36" y1="37.4" x2="507.48" y2="37.4" xlink:href="#linear-gradient-6"/><linearGradient id="linear-gradient-13" x1="509.58" y1="31.19" x2="504.33" y2="34.69" xlink:href="#linear-gradient-7"/></defs><title>初化小故事-3</title><g class="cls-2"><g id="图层_1" data-name="图层 1"><rect class="cls-3" x="-18.24" y="0.4" width="1072.32" height="80"/><rect class="cls-4" x="53.83" y="0.28" width="1" height="54.11"/><polygon class="cls-5" points="54.5 54.4 961 54.4 1024 80 0 80 54.5 54.4"/><g class="cls-6"><line class="cls-7" x1="17.67" y1="70.39" x2="997.67" y2="70.39"/><line class="cls-7" x1="33.67" y1="61.98" x2="978.67" y2="61.35"/><line class="cls-7" x1="122.33" y1="55.25" x2="90" y2="80"/><line class="cls-7" x1="157" y1="55.25" x2="128.67" y2="80"/><line class="cls-7" x1="227.67" y1="55.25" x2="196.33" y2="80"/><line class="cls-7" x1="293" y1="55.25" x2="269.67" y2="80"/><line class="cls-7" x1="84.67" y1="55.25" x2="47.33" y2="80"/><line class="cls-7" x1="193.67" y1="55.25" x2="162.67" y2="80"/><line class="cls-7" x1="261.67" y1="55.25" x2="234.33" y2="80"/><line class="cls-7" x1="326" y1="55.25" x2="306" y2="80"/><line class="cls-7" x1="360" y1="55.25" x2="348" y2="80"/><line class="cls-7" x1="431.33" y1="55.25" x2="426.33" y2="80"/><line class="cls-7" x1="505.33" y1="55.25" x2="504.33" y2="80"/><line class="cls-7" x1="576" y1="55.25" x2="578" y2="80"/><line class="cls-7" x1="646.67" y1="55.25" x2="652.67" y2="80"/><line class="cls-7" x1="718.33" y1="55.25" x2="730.33" y2="80"/><line class="cls-7" x1="792" y1="55.25" x2="810" y2="80"/><line class="cls-7" x1="933" y1="55.25" x2="985" y2="80"/><line class="cls-7" x1="866.67" y1="55.25" x2="896.67" y2="80"/><line class="cls-7" x1="397.67" y1="55.25" x2="389.67" y2="80"/><line class="cls-7" x1="469.33" y1="55.25" x2="464" y2="80"/><line class="cls-7" x1="542" y1="55.25" x2="543.67" y2="80"/><line class="cls-7" x1="612.67" y1="55.25" x2="616.67" y2="80"/><line class="cls-7" x1="682.33" y1="55.25" x2="689.67" y2="80"/><line class="cls-7" x1="753" y1="55.25" x2="768.67" y2="80"/><line class="cls-7" x1="853.67" y1="80" x2="827.67" y2="55.25"/><line class="cls-7" x1="899.33" y1="55.25" x2="946.33" y2="80"/></g><rect class="cls-8" x="961.83" y="6.63" width="1" height="48.3"/><rect class="cls-9" x="54.92" y="-0.31" width="906.58" height="56.12"/><circle class="cls-10" cx="727.53" cy="19.71" r="17.74"/><path class="cls-1" d="M727.53,39a19.33,19.33,0,1,1,19.33-19.33A19.35,19.35,0,0,1,727.53,39Zm0-35.48a16.15,16.15,0,1,0,16.15,16.15A16.17,16.17,0,0,0,727.53,3.57Z"/><path class="cls-1" d="M715,27.46c.33.54,1.29,0,1-.59A.57.57,0,1,0,715,27.46Z"/><path class="cls-1" d="M739.1,12.73c.33.54,1.29,0,1-.59A.57.57,0,1,0,739.1,12.73Z"/><path class="cls-1" d="M740.76,20.16c.33.54,1.29,0,1-.59A.57.57,0,1,0,740.76,20.16Z"/><path class="cls-1" d="M713.1,20.16c.33.54,1.29,0,1-.59A.57.57,0,1,0,713.1,20.16Z"/><path class="cls-1" d="M720.25,32.5c.55.32,1.11-.66.56-1A.57.57,0,1,0,720.25,32.5Z"/><path class="cls-1" d="M734.32,8c.55.32,1.11-.66.56-1A.57.57,0,1,0,734.32,8Z"/><path class="cls-1" d="M734.55,32.61c.56-.3,0-1.29-.54-1A.57.57,0,1,0,734.55,32.61Z"/><path class="cls-1" d="M721.12,7.77c.56-.3,0-1.29-.54-1A.57.57,0,1,0,721.12,7.77Z"/><path class="cls-1" d="M728.13,6.12c.56-.3,0-1.29-.54-1A.57.57,0,1,0,728.13,6.12Z"/><path class="cls-1" d="M728.13,33.77c.56-.3,0-1.29-.54-1A.57.57,0,1,0,728.13,33.77Z"/><path class="cls-1" d="M740.17,27.15c.32-.55-.64-1.12-1-.57A.57.57,0,1,0,740.17,27.15Z"/><path class="cls-1" d="M715.87,12.75c.32-.55-.64-1.12-1-.57A.57.57,0,1,0,715.87,12.75Z"/><polygon class="cls-1" points="734.51 29.27 725.83 20.85 726.14 11.11 727.34 11.11 727.85 20.6 735.34 28.49 734.51 29.27"/><path class="cls-1" d="M319.11,31.34c0,.2-1-.23-1.39-.23H227.41c-.4,0-.3.43-.3.23V29.61c0-.2-.1-1.5.3-1.5h90.31c.4,0,1.39,1.3,1.39,1.5Z"/><path class="cls-1" d="M319.11,31.52c0,.1-1-.41-1.39-.41H227.41c-.4,0-.3.51-.3.41v-.87c0-.1-.1.45.3.45h90.31c.4,0,1.39-.55,1.39-.45Z"/><rect class="cls-1" x="230.11" y="31.11" width="3" height="3" rx="0.72" ry="0.72"/><rect class="cls-1" x="310.11" y="31.11" width="3" height="3" rx="0.72" ry="0.72"/><path class="cls-1" d="M240.11,28.89c0,.2-.11-.78-.38-.78h-4.3c-.28,0-2.32,1-2.32.78V9.16a9.68,9.68,0,0,1,2.32-2.05h4.3c.28,0,.38,1.85.38,2.05Z"/><path class="cls-1" d="M243.11,29c0,.16,1-.86.79-.86h-3.32c-.21,0-.48,1-.48.86V13.54a.58.58,0,0,1,.48-.43h3.32c.21,0-.79.27-.79.43Z"/><path class="cls-1" d="M248.11,28.94v-.83h-3.48c-.21,0-1.52,1-1.52.83V11.86c0-.17,1.31,1.25,1.52,1.25h3.48V28.94Z"/><path class="cls-1" d="M256.4,28a.3.3,0,0,1-.25.37l-3.19.91a.35.35,0,0,1-.45-.17l-4.24-14.83c0-.15.1-.3.3-.35l3.19-.91c.2-.06.36,0,.4.15Z"/><rect class="cls-1" x="242.11" y="18.11" width="1" height="8"/><rect class="cls-1" x="243.11" y="13.11" width="5" height="2"/><rect class="cls-1" x="250.29" y="15.9" width="0.72" height="5.64" transform="translate(4.89 71.44) rotate(-16.38)"/><rect class="cls-1" x="250.9" y="15.73" width="0.29" height="3.03" transform="translate(5.33 71.51) rotate(-16.38)"/><rect class="cls-1" x="286.11" y="25.11" width="21" height="6" rx="0.36" ry="0.36"/><rect class="cls-1" x="285.11" y="20.11" width="23" height="4" rx="0.36" ry="0.36"/><rect class="cls-1" x="289.11" y="18.11" width="18" height="4" rx="0.36" ry="0.36"/><rect class="cls-1" x="291.11" y="15.11" width="18" height="1" rx="0.36" ry="0.36"/><rect class="cls-1" x="303.11" y="25.11" width="3" height="3"/><rect class="cls-1" x="286.11" y="25.11" width="4" height="3"/><rect class="cls-1" x="287.11" y="21.11" width="2" height="4"/><rect class="cls-1" x="300.11" y="17.11" width="5" height="1"/><rect class="cls-1" x="298.11" y="18.11" width="5" height="2"/><rect class="cls-1" x="305" y="16" width="1" height="2"/><rect class="cls-1" x="293" y="16" width="1" height="2"/><polygon class="cls-1" points="277.48 29.2 276.14 20.11 270.91 20.11 268.38 20.11 263.14 20.11 261.8 29.2 269.64 29.19 277.48 29.2"/><circle class="cls-1" cx="269.64" cy="21.2" r="6.04"/><path class="cls-1" d="M269.64,27.77a6.58,6.58,0,1,1,6.58-6.58A6.59,6.59,0,0,1,269.64,27.77Zm0-12.07a5.49,5.49,0,1,0,5.49,5.49A5.5,5.5,0,0,0,269.64,15.7Z"/><path class="cls-1" d="M269.11,16.23v.38C271.11,16.62,271.11,16.23,269.11,16.23Z"/><path class="cls-1" d="M269.11,25.84v.38C271.11,26.23,271.11,25.84,269.11,25.84Z"/><path class="cls-1" d="M265.38,23.83c.11.18.44,0,.33-.2A.19.19,0,1,0,265.38,23.83Z"/><path class="cls-1" d="M273.58,18.82c.11.18.44,0,.33-.2A.19.19,0,1,0,273.58,18.82Z"/><path class="cls-1" d="M267.17,25.55c.19.11.38-.22.19-.33A.19.19,0,1,0,267.17,25.55Z"/><path class="cls-1" d="M272,17.22c.19.11.38-.22.19-.33A.19.19,0,1,0,272,17.22Z"/><path class="cls-1" d="M272,25.58c.19-.1,0-.44-.18-.34A.19.19,0,1,0,272,25.58Z"/><path class="cls-1" d="M267.46,17.13c.19-.1,0-.44-.18-.34A.19.19,0,1,0,267.46,17.13Z"/><path class="cls-1" d="M273.94,23.73c.11-.19-.22-.38-.33-.2A.19.19,0,1,0,273.94,23.73Z"/><path class="cls-1" d="M265.68,18.83c.11-.19-.22-.38-.33-.2A.19.19,0,1,0,265.68,18.83Z"/><polygon class="cls-1" points="272.14 24.16 269.54 21.5 269.52 18.11 269.74 18.11 269.75 21.42 272.3 24.14 272.14 24.16"/><path class="cls-1" d="M269.11,20.83v.72C271.11,21.55,271.11,20.83,269.11,20.83Z"/><path class="cls-1" d="M209.11,41.11h-92V37.57c0-.2.15.54.55.54H208c.4,0,1.14-.74,1.14-.54Z"/><rect class="cls-1" x="121.11" y="40.11" width="3" height="3" rx="0.72" ry="0.72"/><rect class="cls-1" x="200.11" y="40.11" width="3" height="3" rx="0.72" ry="0.72"/><rect class="cls-1" x="169.11" y="20.11" width="7" height="18"/><rect class="cls-1" x="176.11" y="22.11" width="6" height="16" rx="0.36" ry="0.36"/><rect class="cls-1" x="182.11" y="20.11" width="4" height="18" rx="0.36" ry="0.36"/><rect class="cls-1" x="187.74" y="21.17" width="3.76" height="15.89" rx="0.36" ry="0.36" transform="translate(-1.11 49.79) rotate(-14.92)"/><rect class="cls-1" x="169.11" y="34.11" width="7" height="1"/><rect class="cls-1" x="176.11" y="24.11" width="1" height="5"/><rect class="cls-1" x="182.11" y="20.11" width="4" height="2"/><rect class="cls-1" x="182.11" y="22.11" width="4" height="2"/><rect class="cls-1" x="182.11" y="33.11" width="4" height="1"/><rect class="cls-1" x="182.11" y="35.11" width="4" height="1"/><rect class="cls-1" x="186.18" y="22.67" width="3.76" height="1.23" transform="matrix(0.97, -0.26, 0.26, 0.97, 0.34, 49.19)"/><rect class="cls-1" x="189.31" y="34.4" width="3.76" height="1.23" transform="translate(-2.57 50.39) rotate(-14.92)"/><polygon class="cls-1" points="184.59 21.97 184.2 21.95 183.96 22.26 183.86 21.88 183.49 21.75 183.82 21.53 183.82 21.14 184.13 21.39 184.51 21.27 184.37 21.64 184.59 21.97"/><polygon class="cls-1" points="184.59 34.75 184.2 34.73 183.96 35.05 183.86 34.67 183.49 34.53 183.82 34.32 183.82 33.93 184.13 34.17 184.51 34.06 184.37 34.43 184.59 34.75"/><rect class="cls-1" x="188.4" y="24.24" width="0.51" height="10.11" transform="translate(-1.19 49.54) rotate(-14.91)"/><rect class="cls-1" x="188.51" y="24.13" width="0.36" height="4.48" transform="translate(-0.43 49.42) rotate(-14.9)"/><rect class="cls-1" x="143.11" y="34.11" width="19" height="4" rx="0.36" ry="0.36"/><rect class="cls-1" x="146.11" y="33.11" width="18" height="4" rx="0.36" ry="0.36"/><rect class="cls-1" x="147.11" y="27.11" width="16" height="4" rx="0.36" ry="0.36"/><rect class="cls-1" x="148.11" y="24.11" width="16" height="4" rx="0.36" ry="0.36"/><rect class="cls-1" x="148.11" y="26.11" width="12" height="1"/><rect class="cls-1" x="148.11" y="26.11" width="12" height="1"/><polygon class="cls-1" points="150 29.91 149.54 29.19 149 29.91 149 28 150 28 150 29.91"/><rect class="cls-1" x="160.11" y="31.11" width="1" height="3"/><rect class="cls-1" x="146.11" y="31.11" width="2" height="3"/><rect class="cls-1" x="161.11" y="34.11" width="3" height="2"/><rect class="cls-1" x="147.11" y="35.11" width="13" height="3"/><path class="cls-1" d="M160.11,38.11h-13v-3h13Zm-13,0h13v-3h-13Z"/><path class="cls-1" d="M128.78,29.11s.07-11-5.94-10.79,4.35,10.79,4.69,10.79Z"/><path class="cls-1" d="M130.46,33.11s-.06-11,4.84-10.79-3.54,10.79-3.83,10.79Z"/><path class="cls-1" d="M129,29.82s-4.9-6.13-2.84-10S130,29,129.95,29.64,129,29.82,129,29.82Z"/><path class="cls-1" d="M130.32,30.45s4.64-6.32,2.43-10.11-3.43,9.33-3.33,10S130.32,30.45,130.32,30.45Z"/><path class="cls-1" d="M128.83,29.13c.28.59.91-.13.91-.13s2.6-7.4-.61-10.38"/><polygon class="cls-1" points="134.13 38.11 126.18 38.11 124.08 27.11 136.15 27.11 134.13 38.11"/><polygon class="cls-1" points="136.28 29.11 124.02 29.11 123.62 27.11 136.61 27.11 136.28 29.11"/><rect class="cls-11" x="791.31" y="3.27" width="150.02" height="46.2"/><circle class="cls-1" cx="932.71" cy="52.08" r="1.63"/><circle class="cls-1" cx="830.47" cy="52.08" r="1.63"/><rect class="cls-1" x="940.53" y="1.55" width="2.15" height="49.85"/><rect class="cls-1" x="791.49" y="48.76" width="149.61" height="0.41"/><rect class="cls-1" x="791.49" y="1.55" width="149.61" height="2.45"/><rect class="cls-1" x="789.91" y="1.55" width="2.35" height="49.85"/><rect class="cls-1" x="790.07" y="48.64" width="152.49" height="2.76"/><rect class="cls-1" x="849.19" y="40.48" width="6.92" height="4.08"/><polygon class="cls-1" points="846.51 39.87 844.06 38.64 858.49 11.73 860.87 13 846.51 39.87"/><path class="cls-1" d="M856.4,12.43A13.93,13.93,0,1,1,842.93,36l-1.13,1.89A16.09,16.09,0,1,0,857.46,10.5Z"/><path class="cls-1" d="M862.16,48c0-2.26-4.24-4.28-9.47-4.28s-9.46,2-9.46,4.28Z"/><path class="cls-1" d="M863.83,25.38c0-.33,0-.62-.07-.91a11.47,11.47,0,0,0-5.11-8.31h0l-.06,0A11.5,11.5,0,0,0,849,14.78c-.28.08-.57.19-.86.3a11.47,11.47,0,0,0-7.27,11.11c0,.31,0,.61.07.91A11.48,11.48,0,0,0,846,35.37l.05,0a11.5,11.5,0,0,0,9.67,1.37c.28-.08.56-.18.86-.3a11.47,11.47,0,0,0,7.27-11.11Z"/><path class="cls-1" d="M863.83,25.38c0-.33,0-.62-.07-.91a11.47,11.47,0,0,0-5.11-8.31h0l-.06,0A11.5,11.5,0,0,0,849,14.78c-.28.08-.57.19-.86.3a11.47,11.47,0,0,0-7.27,11.11c0,.31,0,.61.07.91A11.48,11.48,0,0,0,846,35.37l.05,0a11.5,11.5,0,0,0,9.67,1.37c.28-.08.56-.18.86-.3a11.47,11.47,0,0,0,7.27-11.11Z"/><g class="cls-12"><polygon class="cls-1" points="868.21 30.27 867.55 30.29 867.52 29.93 867.63 29.98 867.88 29.95 867.86 29.63 867.15 29.63 866.95 29.38 866.96 29.24 866.05 28.42 865.83 28.59 867.13 30.19 867.32 30.25 867.32 30.34 867.07 30.34 867.13 30.54 868.74 30.61 868.21 30.27"/><polygon class="cls-1" points="869.24 29.44 869.34 29.36 869.34 28.49 869.24 28.44 869.18 28.17 869.02 28.17 868.92 28.45 868.8 28.55 867.87 29.06 867.87 29.56 868.18 29.97 868.96 29.97 869.06 29.71 869.24 29.55 869.24 29.44"/><polygon class="cls-1" points="869.93 29.36 869.46 29.55 869.46 29.65 869.34 29.65 869.34 30.3 869.59 30.3 869.55 29.89 869.74 29.95 869.74 30.25 869.93 30.23 869.93 29.36"/><polygon class="cls-1" points="873.75 32.77 873.27 32.36 873.24 31.58 872.92 31.04 872.64 31.03 872.52 32.01 871.98 31.97 871.83 31.88 871.81 31.49 872.1 31.55 872.34 31.31 871.82 31 871.22 31 870.78 31.62 870.6 31.62 870.6 31.42 870.08 31.46 869.25 32.4 868.82 32.41 868.33 32.75 868.29 34.2 868 34.49 868 34.74 869.42 34.26 870.57 34.21 871 35.15 872.31 35.19 873.57 34.01 873.88 33.3 873.75 32.77"/><polygon class="cls-1" points="871.17 35.87 871.63 35.92 872.01 35.71 872.01 35.43 871.61 35.39 871.17 35.87"/><polygon class="cls-1" points="875.62 34.59 875.43 34.63 875.42 34.19 875.07 34.22 875.02 34.9 874.71 35.11 874.13 35.19 873.21 35.84 873.05 35.97 873.05 36.19 873.54 36.12 874.71 35.4 875.04 35.18 875.39 35.02 875.75 34.82 875.62 34.59"/><polygon class="cls-1" points="871.99 29.74 871.69 29.75 871.71 29.44 871.43 29.27 871.03 29.67 871.29 30.01 871.88 30.09 872.21 30.26 872.22 30.42 872.01 30.42 872.01 30.75 872.73 30.71 872.98 30.43 873.26 30.41 873.26 30.91 873.74 30.91 873.74 30.71 873.5 30.71 873.45 30.09 872.31 29.57 871.99 29.74"/><polygon class="cls-1" points="863.46 28.27 863.57 28.57 863.98 28.42 864.02 28 863.7 27.93 863.46 28.27"/><polygon class="cls-1" points="858.72 31.78 858.17 31.71 858.17 32.14 858.37 32.37 858.22 32.6 857.99 32.86 857.99 33.33 858.3 33.62 858.57 33.18 859.11 32.39 859.37 31.14 859.04 31.14 858.72 31.78"/><polygon class="cls-1" points="870.04 30.47 869.86 30.47 869.86 30.57 870 30.61 870.04 30.47"/><rect class="cls-1" x="869.02" y="30.61" width="0.21" height="0.12"/><polygon class="cls-1" points="869.54 30.73 869.67 30.73 869.67 30.63 869.77 30.61 869.77 30.51 869.56 30.51 869.47 30.61 869.34 30.73 869.34 30.83 869.54 30.81 869.54 30.73"/><polygon class="cls-1" points="870.09 30.82 870.3 30.82 870.3 30.71 870.45 30.73 870.43 30.54 870.19 30.58 870.16 30.7 869.89 30.73 869.88 30.73 869.88 30.91 870.09 30.91 870.09 30.82"/><path class="cls-1" d="M837.27,21.56l0-.28-.29,0a1.41,1.41,0,0,0,0,.32Z"/><polygon class="cls-1" points="851.77 21.29 851.79 21.46 851.53 21.52 851.5 21.89 851.81 21.89 852.22 21.85 852.43 21.59 852.21 21.5 852.09 21.36 851.9 21.06 851.81 20.63 851.46 20.7 851.36 20.86 851.36 21.02 851.53 21.14 851.77 21.29"/><polygon class="cls-1" points="851.47 21.43 851.49 21.2 851.29 21.11 851 21.18 850.78 21.52 850.78 21.74 851.03 21.74 851.47 21.43"/><path class="cls-1" d="M866.21,28.18l1.26,1.21.07-.21-1-1.46.11-.43.54.61.3,0,.4-.27-.06-.4-.66-.53,0-.48.19-.25.33.11,0,.23.19.29.17-.12-.09-.35.93-.33.41-.34-.06-.62-.81-.85v-.69h.36l1.12.85.32-.09-.21-.27-.6-.37,0-.54h.71l.06-.67-.27-.36.16-.17.35.35.11-.15-.44-.51-1.11-.13-.15-.29.32-.45.25.18.76.07,1-.64.16.2-.21.33V21l.88.72.28-.15-.11-.48-.62-.59.82-.05v-.24l.4-.08-.31-.21v-.16l.84.13.16-.13-1.13-.48-4.13-.21-.39-.19-.61-.09-.46,0-.42.42H866l-.55-.41h-1.64l-.76-.45-1.52.1-1.16.52v.6l-.36.11L860,19l-.13-.21-.4-.1-.09.36.12.29-1.42-.09-.68.32-.1-.3-.17,0-.12.33-.36.28-.87,0,0-.19.91,0,.19-.16L855.73,19l-1.33,0-.75.38-.28.5-.49.19-.21.22,0,.26.26,0,.15.38.44-.18.07.51h-.13l-.36-.05-.4.07-.39.55-.55.09-.08.47.23.05-.07.3-.55-.11-.5.11-.11.28.09.59.29.14h.49l.33,0,.1-.27.52-.68.34.07.34-.31.06.24.84.56-.1.14-.37,0,.14.2.23.05.27-.11v-.33l.12-.06-.1-.11-.56-.31-.15-.41h.46l.15.15.4.34,0,.41.41.44.15-.6.29-.16.05.49.28.31h.84l.25.19v.44l-.31.28h-.85l-.52-.39-.55.05v.33h-.17l-.19-.13-.95-.24v-.61l-1.2.09-.37.2h-.48l-.23,0-.58.32V25l-1.18.85.1.37h.24l-.06.35-.17.06v.91l1,1.16h.44l0-.07h.8l.23-.21h.45l.25.25.68.07-.09.9L854,31l-.39.76,0,.36.31.31v.86l.41.55v.71h1.21l.91-.93.28-.51.37-.08v-.43l.24-.28.51-.69-.11-1.06-.22-.39,1-1,1.1-1.57-.21-.1-1.14.24-.29-.15-1.2-2.26.08-.1,1.19,1.44,0,.45.28.28.56,0,1.17-.85.37-.24V26l-.39-.05s-1.37-.64-1.37-.67,0-.55,0-.55h.3l0,.38.63.36.72,0,1.57.26.37.23v.36l0,.49.8,1.33.26.06.26-.38.14-1.07.27-.58.43-.16.76.08,1,.85Zm-11-8.43-.53.32v.21l.3.14,0,.28-.42.63h-.73l0-.15.46-.23v-.87l.78-.54h.17Zm1.63,3.7-.69,0-.21,0V23l.15-.18.17-.05.37,0,.08-.13.15.07,0,.43.4.16,0,.2Zm2.65.34-.12.11-.28,0L859,23.8l-.44,0,0-.14.23-.2v-.17l-.45-.32,0-.41.09-.21.36,0,.31.13v.21l-.44,0,0,.2.55.36v.27l.24.17Z"/><path class="cls-1" d="M845.49,22.58h-.31v.16h.07s0,0,0,.08l.19,0,.12-.07,0-.15h.15l.06-.12-.14,0h-.12Z"/><polygon class="cls-1" points="844.76 22.86 844.98 22.84 845 22.68 844.87 22.57 844.77 22.7 844.76 22.86"/><path class="cls-1" d="M847.68,29.71h-.94l-.75-.29,0-.53-.25-.44H845l-.39-.61-.34-.17,0,.18-.63,0-.23-.32-.66-.13-.54.63-.85-.15-.06-1-.62-.1.25-.47-.07-.27-.82.55-.52-.06-.18-.4.11-.42.28-.52.65-.33h1.26v.38l.45.21,0-.66.32-.33.66-.43,0-.31.66-.68.7-.39-.06-.05.48-.44.17,0,.08.1.18-.2,0,0-.2,0-.2-.07v-.19l.1-.09h.24l.1,0,.09.18.11,0h0l.33,0,0-.16.19,0V22l-.17.12h0l0,.19.59.18h.14v-.26l-.47-.21,0-.13.39-.13,0-.37-.41-.25,0-.63-.56.27h-.2l.05-.48-.76-.18-.32.24v.73l-.57.18-.23.47-.25,0v-.61l-.53-.07-.27-.17-.11-.39,1-.56.47-.14,0,.31h.26l0-.16.27,0v-.05l-.12,0,0-.17.33,0,.2-.21v0h0l.06-.06.7-.09.31.26-.81.43,1,.24.13-.35h.45l.16-.3-.32-.08v-.38l-1-.44-.69.08-.39.2,0,.5-.41-.06-.06-.28.39-.36-.71,0-.2.06-.09.24.27,0-.05.27-.45,0-.07.18-.65,0a1.8,1.8,0,0,0,0-.37H843l.39-.38-.21-.11-.28.28-.47,0-.28-.39h-.6l-.63.47h.58l.05.17-.15.14.64,0,.1.23-.72,0,0-.18-.45-.1-.24-.13h-1.07l-.33.32-.22,0-.25-.14-.74-.22h-1.35l-.78.53-.52.08-.24.19.37.05v.15h-.8l-.31.22.4.34H836l.15-.16H837l.33.29,0,.45.28.26-.23.16.05.6-.83,1v.94l.44.21v.85l.43.73.35.05,0-.25-.41-.63-.08-.61h.24l.1.63.59.86-.15.28.37.57.93.23V27l.37.05,0,.27.29.05.45.13.64.73.82.06.08.66-.56.39,0,.59-.08.37.81,1,.06.34.33.08s.66.47.66.47V34l.22.06-.15.84.37.5-.07.84.49.87.63.55h.64l.06-.21-.47-.39,0-.2.08-.24,0-.24h-.31l-.16-.2.26-.25,0-.19-.29-.08,0-.18.42-.06.64-.31.21-.39.67-.85-.15-.67.21-.36.61,0,.41-.33.14-1.28.46-.58.08-.37-.42-.13Zm-4.83-6.56-.15.15h-.34l.05-.24h.16l0-.08.25,0Zm.08-.42-.16.1-.2,0v-.35h.36Zm.3-.25.16.1-.13.11-.13-.11Zm-.22.27h0l.41.12v.21h-.34l-.09-.13Zm-.27-.57.22.2-.22.05Zm-.93,0,.31-.13h.42v.13h.09v.22H842l-.24-.07Zm-.06.57.25-.27h.35l-.45.63-.19-.1Zm-.33-1.51.25.06-.09.34-.27.09-.17-.35Zm-1.27-1.61v0h.24l0-.08h.38v.17l-.11.15h-.53Zm.37.52.25,0s0,.23,0,.23l-.53,0-.1-.12Z"/></g><path class="cls-1" d="M882.57,35.1V26.23h-7V35.1s-9.64,13.05-6,13.05h18.9C892.21,48.15,882.57,35.1,882.57,35.1Z"/><path class="cls-1" d="M882.48,24.46h-6.79a.91.91,0,1,0,0,1.82h6.79a.91.91,0,1,0,0-1.82Z"/><path class="cls-1" d="M835.29,37.73V30.66h-5.56v7.07S822,48.15,825,48.15h15.08C843,48.15,835.29,37.73,835.29,37.73Z"/><path class="cls-1" d="M835.22,29.24H829.8a.73.73,0,1,0,0,1.45h5.42a.73.73,0,1,0,0-1.45Z"/><path class="cls-1" d="M821.32,35.1H810.19V46.22a1.93,1.93,0,0,0,1.93,1.93h7.26a1.93,1.93,0,0,0,1.93-1.93Z"/><path class="cls-1" d="M821.3,33.74h-11a.7.7,0,1,0,0,1.39h11a.7.7,0,1,0,0-1.39Z"/><path class="cls-1" d="M934.28,40.13V34.69H930v5.45s-5.92,8-3.66,8h11.61C940.2,48.15,934.28,40.13,934.28,40.13Z"/><path class="cls-1" d="M934.22,33.6h-4.17a.56.56,0,1,0,0,1.12h4.17a.56.56,0,1,0,0-1.12Z"/><path class="cls-1" d="M894,27.88h-2.51v17.6A2.67,2.67,0,0,0,894,48.15a2.7,2.7,0,0,0,2.54-2.68V27.88Z"/><path class="cls-1" d="M896.79,26.77h-5.5a.6.6,0,0,0,0,1.17h5.5a.6.6,0,0,0,0-1.17Z"/><path class="cls-1" d="M804.35,27.88h-2.51v17.6a2.67,2.67,0,0,0,2.51,2.68,2.7,2.7,0,0,0,2.54-2.68V27.88Z"/><path class="cls-1" d="M807.12,26.77h-5.5a.6.6,0,0,0,0,1.17h5.5a.6.6,0,0,0,0-1.17Z"/><path class="cls-1" d="M920.49,42.25v0h-14.8s0,0,0,.05v3.55c0,1.29.74,2.33,1.65,2.33l11.5,0c.91,0,1.65-1,1.65-2.33Z"/><path class="cls-1" d="M923.93,46.93l-3.2-16.37H919.2l3.26,16.66a.75.75,0,1,0,1.48-.29Z"/><path class="cls-1" d="M905.44,30.55l-3.2,16.37a.75.75,0,1,0,1.48.29L907,30.55Z"/><path class="cls-1" d="M913.13,30.55h-.79V47.07a.75.75,0,0,0,.75.75h0a.75.75,0,0,0,.71-.74V30.55Z"/><path class="cls-1" d="M905.44,30.55l-3.2,16.37a.75.75,0,1,0,1.48.29L907,30.55Z"/><path class="cls-1" d="M923,29.66H903.17a.89.89,0,0,0,0,1.78H923a.89.89,0,1,0,0-1.78Z"/><path class="cls-13" d="M626.68,32.7l-4.45-2.17a.41.41,0,0,0-.53.28l-1.62,4.56a.41.41,0,0,0,.15.45l4.16,2.88a.39.39,0,0,0,.6-.17l1.88-5.3a.42.42,0,0,0-.19-.54"/><path class="cls-14" d="M632.18,14.75,634.94,16h0l.38.18,1.91-5.37a.3.3,0,0,0-.23-.41l-9.77-2.31a.43.43,0,0,0-.47.27l-1.15,3.23.94.28a.32.32,0,0,1,.26.42l-.72,2-.24.68-.63,1.78,5.23,1.8,1.3-3.65a.33.33,0,0,1,.45-.2"/><path class="cls-15" d="M639.73,18.26l-4.41-2.06h0l-.2-.09.19.08-1.16,3.28a.36.36,0,0,1-.46.22l-3.24-1.09-1.33,3.76.26.09h0L633.6,24a.37.37,0,0,1,.21.46l-.61,1.72,3.45.8a.43.43,0,0,0,.47-.27l2.81-7.9a.42.42,0,0,0-.19-.52"/><polygon class="cls-16" points="634.94 16.02 635.12 16.11 635.32 16.2 635.32 16.19 634.94 16.02 634.94 16.02"/><path class="cls-17" d="M635.12,16.11l-.18-.08h0l-2.75-1.27a.33.33,0,0,0-.45.2l-1.3,3.65,3.24,1.09a.36.36,0,0,0,.46-.22l1.16-3.28Z"/><polygon class="cls-18" points="634.94 16.02 635.12 16.11 634.94 16.02 634.94 16.02"/><path class="cls-19" d="M628.31,24.59l.79-2.23h0l-2-.72a.38.38,0,0,0-.49.21l-2.78,7.82a.33.33,0,0,0,.23.42l7,1a.47.47,0,0,0,.47-.29l1.64-4.63-4.64-1.09a.38.38,0,0,1-.25-.47"/><polygon class="cls-20" points="629.37 22.45 629.37 22.45 629.11 22.36 629.11 22.36 629.37 22.45"/><path class="cls-21" d="M633.6,24l-4.23-1.52-.26-.1-.8,2.24a.37.37,0,0,0,.22.45l4.67,1.1.61-1.72a.37.37,0,0,0-.21-.46"/><polygon class="cls-22" points="629.37 22.45 629.37 22.45 629.11 22.36 629.37 22.45"/><path class="cls-23" d="M626.55,11.89l-.94-.28-4.8-1.44a.43.43,0,0,0-.5.25l-2.65,7.46a.43.43,0,0,0,.21.54l5.41,2.69a.29.29,0,0,0,.45-.13l1.51-4.24.61-1.71.24-.68.72-2a.32.32,0,0,0-.26-.42"/><ellipse class="cls-24" cx="398.98" cy="62.61" rx="8" ry="3.75"/><path class="cls-25" d="M401.34,50.38a8.75,8.75,0,0,1-3,1.92,8.28,8.28,0,0,1,4.94-4.94A8.75,8.75,0,0,1,401.34,50.38Z"/><path class="cls-26" d="M395.17,50.38a8.75,8.75,0,0,0,3,1.92,8.28,8.28,0,0,0-4.94-4.94A8.75,8.75,0,0,0,395.17,50.38Z"/><line class="cls-27" x1="398.26" y1="37.4" x2="398.26" y2="60.1"/><path class="cls-28" d="M400.8,31.65a9.33,9.33,0,0,1-2.54,5.75,9.33,9.33,0,0,1-2.54-5.75q0-.12,0-.24a2.54,2.54,0,0,1,5.07,0Q400.8,31.53,400.8,31.65Z"/><path class="cls-29" d="M396,31.54a9.33,9.33,0,0,1,2.27,5.86,9.33,9.33,0,0,1-5.86-2.27l-.16-.17a2.54,2.54,0,0,1,3.58-3.58Z"/><path class="cls-28" d="M392.51,34.86a9.33,9.33,0,0,1,5.75,2.54,9.33,9.33,0,0,1-5.75,2.54h-.24a2.54,2.54,0,0,1,0-5.07Z"/><path class="cls-29" d="M392.4,39.66a9.33,9.33,0,0,1,5.86-2.27A9.33,9.33,0,0,1,396,43.25l-.17.16a2.54,2.54,0,0,1-3.58-3.58Z"/><path class="cls-28" d="M395.72,43.14a9.33,9.33,0,0,1,2.54-5.75,9.33,9.33,0,0,1,2.54,5.75q0,.12,0,.24a2.54,2.54,0,0,1-5.07,0Q395.72,43.26,395.72,43.14Z"/><path class="cls-29" d="M400.53,43.25a9.33,9.33,0,0,1-2.27-5.86,9.33,9.33,0,0,1,5.86,2.27l.16.17a2.54,2.54,0,0,1-3.58,3.58Z"/><path class="cls-28" d="M404,39.94a9.33,9.33,0,0,1-5.75-2.54A9.33,9.33,0,0,1,404,34.86h.24a2.54,2.54,0,0,1,0,5.07Z"/><path class="cls-29" d="M400.78,31.3s0,.08,0,.12,0,.16,0,.24a9.33,9.33,0,0,1-2.54,5.75,9.33,9.33,0,0,0,5.86-2.27l.16-.17A2.54,2.54,0,0,0,400.78,31.3Z"/><path class="cls-30" d="M403.09,36a1.94,1.94,0,0,0-2.43-3s0,.06,0,.09,0,.12,0,.18,0-.12,0-.18a1.94,1.94,0,0,0-3.84-.48,1.94,1.94,0,0,0-3,2.43,1.94,1.94,0,0,0-.4,3.84,1.94,1.94,0,0,0,2.43,3,1.94,1.94,0,0,0,3.84.4,1.94,1.94,0,0,0,3-2.43A1.94,1.94,0,0,0,403.09,36Z"/><circle class="cls-31" cx="398.26" cy="37.4" r="1.65"/><path class="cls-32" d="M405.09,54.17c0,.1-.09.2-.26.3-.78.44-3.25.76-6.17.76s-5.38-.32-6.16-.76c-.17-.1-.26-.2-.26-.3a.46.46,0,0,1,.05-.22,3.14,3.14,0,0,0,1.6.58,32.6,32.6,0,0,0,9.54,0A3.26,3.26,0,0,0,405,54,.36.36,0,0,1,405.09,54.17Z"/><path class="cls-33" d="M398.66,53.1c-3.27,0-6,.07-6.37.85.4.52,3.1.93,6.37.93s5.92-.4,6.36-.91C404.58,53.3,401.9,53.1,398.66,53.1Zm0,1.51c-3.36,0-6.08-.33-6.08-.73s2.72-.73,6.08-.73,6.08.33,6.08.73S402,54.62,398.67,54.62Z"/><path class="cls-34" d="M400.18,54.59l-1.51,0c-3.36,0-6.08-.33-6.08-.73s2.72-.73,6.08-.73l1.51,0c-2.63.08-4.57.37-4.57.71S397.55,54.51,400.18,54.59Z"/><path class="cls-35" d="M404.75,53.89c0,.34-1.94.63-4.57.71-2.63-.08-4.57-.37-4.57-.71s1.94-.62,4.57-.71C402.81,53.26,404.75,53.55,404.75,53.89Z"/><path class="cls-33" d="M400.69,62.62l-.07-.05-.07-.05-.41-.35c-.36,0-.73,0-1.11,0-.08,0-.16-.06-.23-.06h-.1a8.87,8.87,0,0,1-4-.77c0,.05,0,.14,0,.2s0,.11,0,.16a2.41,2.41,0,0,0,.19.5,4.51,4.51,0,0,0,2.47.81,4.7,4.7,0,0,0,1.25.09A4.77,4.77,0,0,0,399.9,63H400a8.12,8.12,0,0,0,1-.18Z"/><path class="cls-33" d="M400,62.05h0l-.11-.11-.07-.07,0,0-.05-.05-.06-.06-.21-.22h0l-.06-.07-.12-.14,0,0,0,0,0,0-.08-.1,0,0-.05-.07-.06-.08a6.8,6.8,0,0,1-1.49-5.64c-.51,0-1,0-1.46-.08a10.51,10.51,0,0,1-3.49-.67h0l.27.81.05.16.13.4,0,.14.13.39,0,.14.12.38,0,.13,1.38,4.2s0,0,0,.08,0,0,0,.05a8.87,8.87,0,0,0,4,.77h.1c.08,0,.16.07.23.06.38,0,.76,0,1.11-.05C400.1,62.09,400.07,62.09,400,62.05Z"/><path class="cls-36" d="M402.6,61.46a2.3,2.3,0,0,1,0,.26,2.25,2.25,0,0,1-.18.47v0a3.36,3.36,0,0,1-1.4.62l-.28-.21-.07-.05-.07-.05-.41-.35A7.73,7.73,0,0,0,402.6,61.46Z"/><path class="cls-36" d="M404.83,54.46l-.35,1.05,0,.14-.12.37h0l0,.13-.12.37,0,.13L404,57l0,.13h0l-1.16,3.53-.12.37,0,.15s0,0,0,.13,0,.08,0,.12a7.73,7.73,0,0,1-2.46.7l-.11-.1h0l-.11-.11-.07-.07,0,0-.05-.05-.06-.06-.21-.22h0l-.06-.07-.12-.14,0,0,0,0,0,0-.08-.1,0,0-.05-.07-.06-.08a6.8,6.8,0,0,1-1.49-5.64l1.21,0c.57,0,1.12,0,1.64,0a13.24,13.24,0,0,0,4.52-.73Z"/><path class="cls-32" d="M402.62,61.34s0,.08,0,.12a7.73,7.73,0,0,1-2.46.7,11.13,11.13,0,0,1-1.11.09h-.33a8.81,8.81,0,0,1-4-.84s0-.09,0-.12a8.79,8.79,0,0,0,4,.84h.2c.39,0,.77,0,1.13-.08a9.15,9.15,0,0,0,1.66-.34h0A6,6,0,0,0,402.62,61.34Z"/><path class="cls-32" d="M398.79,62.25a8.68,8.68,0,0,1-4.08-.67c0-.06,0-.12,0-.17a8.81,8.81,0,0,0,4,.84Z"/><path class="cls-32" d="M401.69,61.71a10.18,10.18,0,0,1-2.8.53h-.19a8.81,8.81,0,0,1-4-.84s0-.09,0-.12a8.79,8.79,0,0,0,4,.84A10.14,10.14,0,0,0,401.69,61.71Z"/><path class="cls-32" d="M404.49,55.52l0,.14a14.86,14.86,0,0,1-5.63.9c-2.81,0-5.16-.52-6-1.12l-.05-.16c.81.62,3.21,1.17,6.08,1.17A14.57,14.57,0,0,0,404.49,55.52Z"/><path class="cls-32" d="M404.32,56l0,.13a15.53,15.53,0,0,1-5.46.82A13.79,13.79,0,0,1,393,56l0-.14a13.45,13.45,0,0,0,5.9,1A15.29,15.29,0,0,0,404.32,56Z"/><path class="cls-32" d="M404.16,56.53l0,.13a16.12,16.12,0,0,1-5.3.76,14.63,14.63,0,0,1-5.68-.92l0-.14a14.34,14.34,0,0,0,5.73.95A15.9,15.9,0,0,0,404.16,56.53Z"/><path class="cls-32" d="M404,57l0,.13h0a16.64,16.64,0,0,1-5.13.7A15.32,15.32,0,0,1,393.3,57l0-.13a15.08,15.08,0,0,0,5.56.87A16.45,16.45,0,0,0,404,57Z"/><path class="cls-37" d="M404.28,54.16h0a19.05,19.05,0,0,1-3.83.42h-.29l-1.51,0-1.26,0h-.32a.24.24,0,0,1-.13,0,.22.22,0,0,1-.1,0h0l-1,0-.76-.06c-.42,0-.8-.08-1.13-.13l-.7-.13A1.66,1.66,0,0,1,394,54a.25.25,0,0,1,.26-.33,1.28,1.28,0,0,1,0-.23c0-.1.07-.18.23-.12a.39.39,0,0,1,.33,0,.74.74,0,0,1,.52-.08.35.35,0,0,1,.35-.33c0-.2.3-.23.49-.19,0-.2.22-.48.41-.25,0-.16.1-.24.26-.16.1-.15.32-.22.37,0,.06-.27.49-.37.42,0,.11-.18.36-.17.38,0,.13-.08.29-.06.33.09,0-.23.32-.19.38,0,.19-.06.44,0,.46.16a.44.44,0,0,1,.35,0c0-.21.46-.45.52-.14.17-.16.36-.08.32.13a.39.39,0,0,1,.32,0c.1,0,0,.1,0,.14.34-.12.58-.1.56.23.19-.06.29.05.26.21.16-.06.32,0,.33.14.11-.14.4-.18.45,0a.32.32,0,0,1,.32-.11c.13,0,.09.13.11.2.18-.25.44-.07.55.13a.43.43,0,0,1,0,.12.37.37,0,0,1,.53.34c.36,0,.4,0,.43.28Z"/><path class="cls-38" d="M404.27,54.17a19.05,19.05,0,0,1-3.83.42v0h0v0l0,0v0h0l0,0h-.26c0-.2-.22-.18-.39-.14a.22.22,0,0,0,0,0h0v0h0l0,0,0,0,0,0,0,0h0l0,0,0,0h0l-.06,0H399l0,0h0v0h0v0a.2.2,0,0,0,0-.06v0h0v0h0l0,0,0,0h0l0,0h0l-.07,0h-.44a.34.34,0,0,1,.12-.14.62.62,0,0,1,.18-.08,1,1,0,0,1,.41,0,.41.41,0,0,1,0-.38.27.27,0,0,1,.29-.09c0-.3.67-.52.81-.23a.56.56,0,0,1,.67.11h0a.2.2,0,0,1,0,.13h.09a.27.27,0,0,1,.13,0,.21.21,0,0,1,.07.08.34.34,0,0,1,0,.13h0c.19,0,.47,0,.47.22.1-.19.38-.16.57-.1a.51.51,0,0,1,.19.16.19.19,0,0,0,.07.05.51.51,0,0,0,.25,0l.15,0a.36.36,0,0,1,.15,0,.46.46,0,0,1,.17.11,1.17,1.17,0,0,1,.14.18c.21-.1.51-.14.58.12Z"/><path class="cls-39" d="M394.14,55.13l.07,0h-.07Z"/><path class="cls-39" d="M400.44,54.58h-.29l-1.51,0-1.26,0h-.32a.24.24,0,0,1-.13,0,.22.22,0,0,1-.1,0h0l-1,0-.76-.06s0-.08,0-.12a.92.92,0,0,1,0-.24.55.55,0,0,1,.3-.37,1.5,1.5,0,0,1,.83-.13.45.45,0,0,1,.25.12.62.62,0,0,1,0-.11.76.76,0,0,1,.33-.34h0l0,0h0l.14,0,.14,0c.11,0,.2.07.19.18s.17,0,.16.09h.06c.08,0,.14.06.11.14s.14,0,.14.11a.16.16,0,0,1,0,0h.1a.1.1,0,0,1,.1.14.2.2,0,0,1,.09-.12l.08,0h.44l.07,0h0l0,0h0l0,0,0,0h0v0h0v0a.2.2,0,0,1,0,.06v0h0v0h0l0,0h.41l.06,0h0l0,0,0,0h0l0,0,0,0,0,0,0,0h0v0h0a.22.22,0,0,1,0,0c.17,0,.42-.06.39.14h.26l0,0h0v0l0,0v0h0v0Z"/><path class="cls-38" d="M397.6,53.53h-.06c0-.09-.06-.13-.16-.09s-.08-.16-.19-.18l-.14,0-.14,0h0l0,0h0a.76.76,0,0,0-.33.34.62.62,0,0,0,0,.11.45.45,0,0,0-.25-.12,1.5,1.5,0,0,0-.83.13.55.55,0,0,0-.3.37.92.92,0,0,0,0,.24s0,.08,0,.12c-.42,0-.8-.08-1.13-.13a.29.29,0,0,1,.2,0c0-.09,0-.29.18-.22,0-.14.11-.12.17-.21s0-.31,0-.45a.21.21,0,0,1,.15-.13.39.39,0,0,1,.17,0,.24.24,0,0,1,.21.14c0-.07.06-.13.15-.17a.32.32,0,0,1,.27,0,.13.13,0,0,1,.06.06.19.19,0,0,1,.26,0l0-.05a1.17,1.17,0,0,1,.38-.44c.09-.05.34-.16.35,0,0-.39.82-.32.56.06h0c.18,0,.24.09.22.21a.34.34,0,0,1,0,.1l0,0h0l0,0C397.45,53.32,397.59,53.41,397.6,53.53Z"/><path class="cls-38" d="M397.38,54.6h-.32a.24.24,0,0,1-.13,0,.22.22,0,0,1-.1,0h0l-1,0a.37.37,0,0,1,.2-.1c0-.15.14-.16.28-.07,0-.2.28-.09.39,0l.18.08a.46.46,0,0,1,.15.09.16.16,0,0,1,.09,0A.24.24,0,0,1,397.38,54.6Z"/><path class="cls-39" d="M397.41,53.12c.15-.1.31.06.32.17.2,0,.32.09.31.25a0,0,0,0,1,0,0c.27,0,.34.11.31.31a1.09,1.09,0,0,1,.57,0c.1,0,.19,0,.29,0a.83.83,0,0,1,.2.11c0-.18-.46-.24-.63-.17,0-.11-.21-.14-.27-.07.07-.13-.12-.25-.26-.23.06-.1-.08-.17-.16-.1s-.15-.16-.2-.2-.25-.17-.38-.09c0-.17-.54-.3-.52,0,0,0-.45.08-.2.25.09.06.07,0,.15-.05S397.3,53,397.41,53.12Z"/><path class="cls-37" d="M400,54c.1-.06.12-.15.25-.18a.38.38,0,0,1,.33.06c.1-.08.17,0,.25,0s.32-.09.39,0c.08,0,.23,0,.28,0,.2-.16-.22-.29-.27-.16,0-.14-.36-.2-.33,0l-.07,0c0-.06-.07-.14-.14-.1s-.14-.09-.24-.08v0c-.18-.1-.38,0-.38.17-.15-.13-.25-.06-.24.09s-.5,0-.46.24c.09,0,.18-.08.28-.1A1.29,1.29,0,0,0,400,54Z"/><path class="cls-39" d="M400.19,53c.13-.05.33-.1.38.06.15,0,.21,0,.28.13s.19.07.21.17.16-.1.14-.16-.22-.08-.32-.08-.2-.23-.35-.21c-.13-.23-.65-.13-.62.14s.42.14.26,0Z"/><path class="cls-39" d="M402.47,53.91c.11-.07.19,0,.29,0s.24-.07.33,0c0-.1.06-.22-.07-.29a.19.19,0,0,0-.28.1c-.06-.12-.51-.19-.5,0-.19-.12-.52,0-.39.22S402.36,53.63,402.47,53.91Z"/><path class="cls-40" d="M401.22,54.18c0-.2-.48-.31-.49-.08S401.19,54.43,401.22,54.18Z"/><path class="cls-40" d="M400.22,54.45c.05.05.28.09.24,0s-.21,0-.25,0Z"/><path class="cls-40" d="M397.44,53.79c-.11-.13-.5,0-.38.14S397.59,54,397.44,53.79Z"/><path class="cls-40" d="M398.2,53.92c0-.15-.37-.15-.36,0S398.23,54.1,398.2,53.92Z"/><path class="cls-40" d="M395.36,54.32c.11-.08,0-.18-.07-.21s-.41,0-.44.11S395.28,54.39,395.36,54.32Z"/><path class="cls-40" d="M396.33,54c-.09,0-.38.05-.29.16S396.56,54.12,396.33,54Z"/><path class="cls-40" d="M397.12,54.44h0a.24.24,0,0,1-.13,0,.22.22,0,0,1-.1,0h0c-.07,0,0-.13.07-.16l.09,0c.09,0,.14,0,.15.07S397.18,54.41,397.12,54.44Z"/><path class="cls-40" d="M397.54,54.39c.07.07.39.15.39,0s-.32-.11-.38,0Z"/><path class="cls-40" d="M400,53.61c.08,0,.4.14.36,0s-.31-.1-.33,0Z"/><path class="cls-40" d="M399.7,54.16c-.09,0-.34,0-.39.06S399.76,54.37,399.7,54.16Z"/><path class="cls-40" d="M399.29,53.89c0-.11-.39-.13-.35,0S399.38,54.07,399.29,53.89Z"/><path class="cls-41" d="M396.07,53.8c0-.2.48-.31.49-.08S396.1,54,396.07,53.8Z"/><path class="cls-41" d="M397.07,54.08c-.05.05-.28.09-.24,0s.21,0,.25,0Z"/><path class="cls-41" d="M399.85,53.41c.11-.13.5,0,.38.14S399.7,53.59,399.85,53.41Z"/><path class="cls-41" d="M399.08,53.54c0-.15.37-.15.36,0S399.05,53.72,399.08,53.54Z"/><path class="cls-41" d="M401.92,53.95c-.11-.08,0-.18.07-.21s.41,0,.44.11S402,54,401.92,53.95Z"/><path class="cls-41" d="M401,53.65c.09,0,.38.05.29.16S400.73,53.74,401,53.65Z"/><path class="cls-41" d="M400.3,54c.19,0,.29.19.06.21S400,54,400.3,54Z"/><path class="cls-41" d="M399.74,54c-.07.07-.39.15-.39,0s.32-.11.38,0Z"/><path class="cls-41" d="M397.28,53.23c-.08,0-.4.14-.36,0s.31-.1.33,0Z"/><path class="cls-41" d="M397.59,53.79c.09,0,.34,0,.39.06S397.52,54,397.59,53.79Z"/><path class="cls-41" d="M395.82,54.23c-.07,0-.45.1-.39,0s.34,0,.4,0Z"/><path class="cls-41" d="M398,53.51c0-.11.39-.13.35,0S397.91,53.7,398,53.51Z"/><ellipse class="cls-24" cx="584.98" cy="62.61" rx="8" ry="3.75"/><path class="cls-25" d="M587.34,50.38a8.75,8.75,0,0,1-3,1.92,8.28,8.28,0,0,1,4.94-4.94A8.75,8.75,0,0,1,587.34,50.38Z"/><path class="cls-26" d="M581.17,50.38a8.75,8.75,0,0,0,3,1.92,8.28,8.28,0,0,0-4.94-4.94A8.75,8.75,0,0,0,581.17,50.38Z"/><line class="cls-27" x1="584.26" y1="37.4" x2="584.26" y2="60.1"/><path class="cls-42" d="M586.8,31.65a9.33,9.33,0,0,1-2.54,5.75,9.33,9.33,0,0,1-2.54-5.75q0-.12,0-.24a2.54,2.54,0,0,1,5.07,0Q586.8,31.53,586.8,31.65Z"/><path class="cls-43" d="M582,31.54a9.33,9.33,0,0,1,2.27,5.86,9.33,9.33,0,0,1-5.86-2.27l-.16-.17a2.54,2.54,0,0,1,3.58-3.58Z"/><path class="cls-42" d="M578.51,34.86a9.33,9.33,0,0,1,5.75,2.54,9.33,9.33,0,0,1-5.75,2.54h-.24a2.54,2.54,0,0,1,0-5.07Z"/><path class="cls-43" d="M578.4,39.66a9.33,9.33,0,0,1,5.86-2.27A9.33,9.33,0,0,1,582,43.25l-.17.16a2.54,2.54,0,0,1-3.58-3.58Z"/><path class="cls-42" d="M581.72,43.14a9.33,9.33,0,0,1,2.54-5.75,9.33,9.33,0,0,1,2.54,5.75q0,.12,0,.24a2.54,2.54,0,0,1-5.07,0Q581.72,43.26,581.72,43.14Z"/><path class="cls-43" d="M586.53,43.25a9.33,9.33,0,0,1-2.27-5.86,9.33,9.33,0,0,1,5.86,2.27l.16.17a2.54,2.54,0,0,1-3.58,3.58Z"/><path class="cls-42" d="M590,39.94a9.33,9.33,0,0,1-5.75-2.54A9.33,9.33,0,0,1,590,34.86h.24a2.54,2.54,0,0,1,0,5.07Z"/><path class="cls-43" d="M586.78,31.3s0,.08,0,.12,0,.16,0,.24a9.33,9.33,0,0,1-2.54,5.75,9.33,9.33,0,0,0,5.86-2.27l.16-.17A2.54,2.54,0,0,0,586.78,31.3Z"/><path class="cls-30" d="M589.09,36a1.94,1.94,0,0,0-2.43-3s0,.06,0,.09,0,.12,0,.18,0-.12,0-.18a1.94,1.94,0,0,0-3.84-.48,1.94,1.94,0,0,0-3,2.43,1.94,1.94,0,0,0-.4,3.84,1.94,1.94,0,0,0,2.43,3,1.94,1.94,0,0,0,3.84.4,1.94,1.94,0,0,0,3-2.43A1.94,1.94,0,0,0,589.09,36Z"/><circle class="cls-14" cx="584.26" cy="37.4" r="1.65"/><path class="cls-32" d="M591.09,54.17c0,.1-.09.2-.26.3-.78.44-3.25.76-6.17.76s-5.38-.32-6.16-.76c-.17-.1-.26-.2-.26-.3a.46.46,0,0,1,.05-.22,3.14,3.14,0,0,0,1.6.58,32.6,32.6,0,0,0,9.54,0A3.26,3.26,0,0,0,591,54,.36.36,0,0,1,591.09,54.17Z"/><path class="cls-33" d="M584.66,53.1c-3.27,0-6,.07-6.37.85.4.52,3.1.93,6.37.93s5.92-.4,6.36-.91C590.58,53.3,587.9,53.1,584.66,53.1Zm0,1.51c-3.36,0-6.08-.33-6.08-.73s2.72-.73,6.08-.73,6.08.33,6.08.73S588,54.62,584.67,54.62Z"/><path class="cls-34" d="M586.18,54.59l-1.51,0c-3.36,0-6.08-.33-6.08-.73s2.72-.73,6.08-.73l1.51,0c-2.63.08-4.57.37-4.57.71S583.55,54.51,586.18,54.59Z"/><path class="cls-35" d="M590.75,53.89c0,.34-1.94.63-4.57.71-2.63-.08-4.57-.37-4.57-.71s1.94-.62,4.57-.71C588.81,53.26,590.75,53.55,590.75,53.89Z"/><path class="cls-33" d="M586.69,62.62l-.07-.05-.07-.05-.41-.35c-.36,0-.73,0-1.11,0-.08,0-.16-.06-.23-.06h-.1a8.87,8.87,0,0,1-4-.77c0,.05,0,.14,0,.2s0,.11,0,.16a2.41,2.41,0,0,0,.19.5,4.51,4.51,0,0,0,2.47.81,4.7,4.7,0,0,0,1.25.09A4.77,4.77,0,0,0,585.9,63H586a8.12,8.12,0,0,0,1-.18Z"/><path class="cls-33" d="M586,62.05h0l-.11-.11-.07-.07,0,0-.05-.05-.06-.06-.21-.22h0l-.06-.07-.12-.14,0,0,0,0,0,0-.08-.1,0,0-.05-.07-.06-.08a6.8,6.8,0,0,1-1.49-5.64c-.51,0-1,0-1.46-.08a10.51,10.51,0,0,1-3.49-.67h0l.27.81.05.16.13.4,0,.14.13.39,0,.14.12.38,0,.13,1.38,4.2s0,0,0,.08,0,0,0,.05a8.87,8.87,0,0,0,4,.77h.1c.08,0,.16.07.23.06.38,0,.76,0,1.11-.05C586.1,62.09,586.07,62.09,586,62.05Z"/><path class="cls-36" d="M588.6,61.46a2.3,2.3,0,0,1,0,.26,2.25,2.25,0,0,1-.18.47v0a3.36,3.36,0,0,1-1.4.62l-.28-.21-.07-.05-.07-.05-.41-.35A7.73,7.73,0,0,0,588.6,61.46Z"/><path class="cls-36" d="M590.83,54.46l-.35,1.05,0,.14-.12.37h0l0,.13-.12.37,0,.13L590,57l0,.13h0l-1.16,3.53-.12.37,0,.15s0,0,0,.13,0,.08,0,.12a7.73,7.73,0,0,1-2.46.7l-.11-.1h0l-.11-.11-.07-.07,0,0-.05-.05-.06-.06-.21-.22h0l-.06-.07-.12-.14,0,0,0,0,0,0-.08-.1,0,0-.05-.07-.06-.08a6.8,6.8,0,0,1-1.49-5.64l1.21,0c.57,0,1.12,0,1.64,0a13.24,13.24,0,0,0,4.52-.73Z"/><path class="cls-32" d="M588.62,61.34s0,.08,0,.12a7.73,7.73,0,0,1-2.46.7,11.13,11.13,0,0,1-1.11.09h-.33a8.81,8.81,0,0,1-4-.84s0-.09,0-.12a8.79,8.79,0,0,0,4,.84h.2c.39,0,.77,0,1.13-.08a9.15,9.15,0,0,0,1.66-.34h0A6,6,0,0,0,588.62,61.34Z"/><path class="cls-32" d="M584.79,62.25a8.68,8.68,0,0,1-4.08-.67c0-.06,0-.12,0-.17a8.81,8.81,0,0,0,4,.84Z"/><path class="cls-32" d="M587.69,61.71a10.18,10.18,0,0,1-2.8.53h-.19a8.81,8.81,0,0,1-4-.84s0-.09,0-.12a8.79,8.79,0,0,0,4,.84A10.14,10.14,0,0,0,587.69,61.71Z"/><path class="cls-32" d="M590.49,55.52l0,.14a14.86,14.86,0,0,1-5.63.9c-2.81,0-5.16-.52-6-1.12l-.05-.16c.81.62,3.21,1.17,6.08,1.17A14.57,14.57,0,0,0,590.49,55.52Z"/><path class="cls-32" d="M590.32,56l0,.13a15.53,15.53,0,0,1-5.46.82A13.79,13.79,0,0,1,579,56l0-.14a13.45,13.45,0,0,0,5.9,1A15.29,15.29,0,0,0,590.32,56Z"/><path class="cls-32" d="M590.16,56.53l0,.13a16.12,16.12,0,0,1-5.3.76,14.63,14.63,0,0,1-5.68-.92l0-.14a14.34,14.34,0,0,0,5.73.95A15.9,15.9,0,0,0,590.16,56.53Z"/><path class="cls-32" d="M590,57l0,.13h0a16.64,16.64,0,0,1-5.13.7A15.32,15.32,0,0,1,579.3,57l0-.13a15.08,15.08,0,0,0,5.56.87A16.45,16.45,0,0,0,590,57Z"/><path class="cls-37" d="M590.28,54.16h0a19.05,19.05,0,0,1-3.83.42h-.29l-1.51,0-1.26,0h-.32a.24.24,0,0,1-.13,0,.22.22,0,0,1-.1,0h0l-1,0-.76-.06c-.42,0-.8-.08-1.13-.13l-.7-.13A1.66,1.66,0,0,1,580,54a.25.25,0,0,1,.26-.33,1.28,1.28,0,0,1,0-.23c0-.1.07-.18.23-.12a.39.39,0,0,1,.33,0,.74.74,0,0,1,.52-.08.35.35,0,0,1,.35-.33c0-.2.3-.23.49-.19,0-.2.22-.48.41-.25,0-.16.1-.24.26-.16.1-.15.32-.22.37,0,.06-.27.49-.37.42,0,.11-.18.36-.17.38,0,.13-.08.29-.06.33.09,0-.23.32-.19.38,0,.19-.06.44,0,.46.16a.44.44,0,0,1,.35,0c0-.21.46-.45.52-.14.17-.16.36-.08.32.13a.39.39,0,0,1,.32,0c.1,0,0,.1,0,.14.34-.12.58-.1.56.23.19-.06.29.05.26.21.16-.06.32,0,.33.14.11-.14.4-.18.45,0a.32.32,0,0,1,.32-.11c.13,0,.09.13.11.2.18-.25.44-.07.55.13a.43.43,0,0,1,0,.12.37.37,0,0,1,.53.34c.36,0,.4,0,.43.28Z"/><path class="cls-38" d="M590.27,54.17a19.05,19.05,0,0,1-3.83.42v0h0v0l0,0v0h0l0,0h-.26c0-.2-.22-.18-.39-.14a.22.22,0,0,0,0,0h0v0h0l0,0,0,0,0,0,0,0h0l0,0,0,0h0l-.06,0H585l0,0h0v0h0v0a.2.2,0,0,0,0-.06v0h0v0h0l0,0,0,0h0l0,0h0l-.07,0h-.44a.34.34,0,0,1,.12-.14.62.62,0,0,1,.18-.08,1,1,0,0,1,.41,0,.41.41,0,0,1,0-.38.27.27,0,0,1,.29-.09c0-.3.67-.52.81-.23a.56.56,0,0,1,.67.11h0a.2.2,0,0,1,0,.13h.09a.27.27,0,0,1,.13,0,.21.21,0,0,1,.07.08.34.34,0,0,1,0,.13h0c.19,0,.47,0,.47.22.1-.19.38-.16.57-.1a.51.51,0,0,1,.19.16.19.19,0,0,0,.07.05.51.51,0,0,0,.25,0l.15,0a.36.36,0,0,1,.15,0,.46.46,0,0,1,.17.11,1.17,1.17,0,0,1,.14.18c.21-.1.51-.14.58.12Z"/><path class="cls-39" d="M580.14,55.13l.07,0h-.07Z"/><path class="cls-39" d="M586.44,54.58h-.29l-1.51,0-1.26,0h-.32a.24.24,0,0,1-.13,0,.22.22,0,0,1-.1,0h0l-1,0-.76-.06s0-.08,0-.12a.92.92,0,0,1,0-.24.55.55,0,0,1,.3-.37,1.5,1.5,0,0,1,.83-.13.45.45,0,0,1,.25.12.62.62,0,0,1,0-.11.76.76,0,0,1,.33-.34h0l0,0h0l.14,0,.14,0c.11,0,.2.07.19.18s.17,0,.16.09h.06c.08,0,.14.06.11.14s.14,0,.14.11a.16.16,0,0,1,0,0h.1a.1.1,0,0,1,.1.14.2.2,0,0,1,.09-.12l.08,0h.44l.07,0h0l0,0h0l0,0,0,0h0v0h0v0a.2.2,0,0,1,0,.06v0h0v0h0l0,0h.41l.06,0h0l0,0,0,0h0l0,0,0,0,0,0,0,0h0v0h0a.22.22,0,0,1,0,0c.17,0,.42-.06.39.14h.26l0,0h0v0l0,0v0h0v0Z"/><path class="cls-38" d="M583.6,53.53h-.06c0-.09-.06-.13-.16-.09s-.08-.16-.19-.18l-.14,0-.14,0h0l0,0h0a.76.76,0,0,0-.33.34.62.62,0,0,0,0,.11.45.45,0,0,0-.25-.12,1.5,1.5,0,0,0-.83.13.55.55,0,0,0-.3.37.92.92,0,0,0,0,.24s0,.08,0,.12c-.42,0-.8-.08-1.13-.13a.29.29,0,0,1,.2,0c0-.09,0-.29.18-.22,0-.14.11-.12.17-.21s0-.31,0-.45a.21.21,0,0,1,.15-.13.39.39,0,0,1,.17,0,.24.24,0,0,1,.21.14c0-.07.06-.13.15-.17a.32.32,0,0,1,.27,0,.13.13,0,0,1,.06.06.19.19,0,0,1,.26,0l0-.05a1.17,1.17,0,0,1,.38-.44c.09-.05.34-.16.35,0,0-.39.82-.32.56.06h0c.18,0,.24.09.22.21a.34.34,0,0,1,0,.1l0,0h0l0,0C583.45,53.32,583.59,53.41,583.6,53.53Z"/><path class="cls-38" d="M583.38,54.6h-.32a.24.24,0,0,1-.13,0,.22.22,0,0,1-.1,0h0l-1,0a.37.37,0,0,1,.2-.1c0-.15.14-.16.28-.07,0-.2.28-.09.39,0l.18.08a.46.46,0,0,1,.15.09.16.16,0,0,1,.09,0A.24.24,0,0,1,583.38,54.6Z"/><path class="cls-39" d="M583.41,53.12c.15-.1.31.06.32.17.2,0,.32.09.31.25a0,0,0,0,1,0,0c.27,0,.34.11.31.31a1.09,1.09,0,0,1,.57,0c.1,0,.19,0,.29,0a.83.83,0,0,1,.2.11c0-.18-.46-.24-.63-.17,0-.11-.21-.14-.27-.07.07-.13-.12-.25-.26-.23.06-.1-.08-.17-.16-.1s-.15-.16-.2-.2-.25-.17-.38-.09c0-.17-.54-.3-.52,0,0,0-.45.08-.2.25.09.06.07,0,.15-.05S583.3,53,583.41,53.12Z"/><path class="cls-37" d="M586,54c.1-.06.12-.15.25-.18a.38.38,0,0,1,.33.06c.1-.08.17,0,.25,0s.32-.09.39,0c.08,0,.23,0,.28,0,.2-.16-.22-.29-.27-.16,0-.14-.36-.2-.33,0l-.07,0c0-.06-.07-.14-.14-.1s-.14-.09-.24-.08v0c-.18-.1-.38,0-.38.17-.15-.13-.25-.06-.24.09s-.5,0-.46.24c.09,0,.18-.08.28-.1A1.29,1.29,0,0,0,586,54Z"/><path class="cls-39" d="M586.19,53c.13-.05.33-.1.38.06.15,0,.21,0,.28.13s.19.07.21.17.16-.1.14-.16-.22-.08-.32-.08-.2-.23-.35-.21c-.13-.23-.65-.13-.62.14s.42.14.26,0Z"/><path class="cls-39" d="M588.47,53.91c.11-.07.19,0,.29,0s.24-.07.33,0c0-.1.06-.22-.07-.29a.19.19,0,0,0-.28.1c-.06-.12-.51-.19-.5,0-.19-.12-.52,0-.39.22S588.36,53.63,588.47,53.91Z"/><path class="cls-40" d="M587.22,54.18c0-.2-.48-.31-.49-.08S587.19,54.43,587.22,54.18Z"/><path class="cls-40" d="M586.22,54.45c.05.05.28.09.24,0s-.21,0-.25,0Z"/><path class="cls-40" d="M583.44,53.79c-.11-.13-.5,0-.38.14S583.59,54,583.44,53.79Z"/><path class="cls-40" d="M584.2,53.92c0-.15-.37-.15-.36,0S584.23,54.1,584.2,53.92Z"/><path class="cls-40" d="M581.36,54.32c.11-.08,0-.18-.07-.21s-.41,0-.44.11S581.28,54.39,581.36,54.32Z"/><path class="cls-40" d="M582.33,54c-.09,0-.38.05-.29.16S582.56,54.12,582.33,54Z"/><path class="cls-40" d="M583.12,54.44h0a.24.24,0,0,1-.13,0,.22.22,0,0,1-.1,0h0c-.07,0,0-.13.07-.16l.09,0c.09,0,.14,0,.15.07S583.18,54.41,583.12,54.44Z"/><path class="cls-40" d="M583.54,54.39c.07.07.39.15.39,0s-.32-.11-.38,0Z"/><path class="cls-40" d="M586,53.61c.08,0,.4.14.36,0s-.31-.1-.33,0Z"/><path class="cls-40" d="M585.7,54.16c-.09,0-.34,0-.39.06S585.76,54.37,585.7,54.16Z"/><path class="cls-40" d="M585.29,53.89c0-.11-.39-.13-.35,0S585.38,54.07,585.29,53.89Z"/><path class="cls-41" d="M582.07,53.8c0-.2.48-.31.49-.08S582.1,54,582.07,53.8Z"/><path class="cls-41" d="M583.07,54.08c-.05.05-.28.09-.24,0s.21,0,.25,0Z"/><path class="cls-41" d="M585.85,53.41c.11-.13.5,0,.38.14S585.7,53.59,585.85,53.41Z"/><path class="cls-41" d="M585.08,53.54c0-.15.37-.15.36,0S585.05,53.72,585.08,53.54Z"/><path class="cls-41" d="M587.92,53.95c-.11-.08,0-.18.07-.21s.41,0,.44.11S588,54,587.92,53.95Z"/><path class="cls-41" d="M587,53.65c.09,0,.38.05.29.16S586.73,53.74,587,53.65Z"/><path class="cls-41" d="M586.3,54c.19,0,.29.19.06.21S586,54,586.3,54Z"/><path class="cls-41" d="M585.74,54c-.07.07-.39.15-.39,0s.32-.11.38,0Z"/><path class="cls-41" d="M583.28,53.23c-.08,0-.4.14-.36,0s.31-.1.33,0Z"/><path class="cls-41" d="M583.59,53.79c.09,0,.34,0,.39.06S583.52,54,583.59,53.79Z"/><path class="cls-41" d="M581.82,54.23c-.07,0-.45.1-.39,0s.34,0,.4,0Z"/><path class="cls-41" d="M584,53.51c0-.11.39-.13.35,0S583.91,53.7,584,53.51Z"/><ellipse class="cls-24" cx="81.25" cy="58.68" rx="12.39" ry="3.54"/><path class="cls-44" d="M87.85,52.52H73.48s0,0,0,0V56c0,1.25.72,2.26,1.61,2.26l11.16,0c.88,0,1.6-1,1.6-2.26V52.52Z"/><path class="cls-45" d="M87.85,52.52H80.78v5.75h5.47c.88,0,1.6-1,1.6-2.26V52.52Z"/><path class="cls-46" d="M77.52,34.74s-8.69,11.77-5.38,11.77h8.52V26.75H77.52Z"/><path class="cls-47" d="M76.76,26a.84.84,0,0,0,.85.82h3.06V25.15H77.61A.84.84,0,0,0,76.76,26Z"/><path class="cls-48" d="M73.65,44.77h7V36.63h-3S71.69,44.77,73.65,44.77Z"/><path class="cls-49" d="M83.81,26.75H80.67V46.52h8.52c3.31,0-5.38-11.77-5.38-11.77Z"/><path class="cls-47" d="M83.73,25.15H80.67v1.64h3.06a.82.82,0,1,0,0-1.64Z"/><path class="cls-50" d="M80.67,36.63v8.14h7c2,0-4-8.14-4-8.14Z"/><path class="cls-51" d="M79.94,41.21v16a.73.73,0,0,0,1.46,0v-16Z"/><path class="cls-51" d="M91.19,57.09,88.09,41.21H86.6l3.16,16.17a.73.73,0,1,0,1.43-.28Z"/><path class="cls-52" d="M73.25,41.21,70.14,57.09a.73.73,0,1,0,1.43.28l3.16-16.17Z"/><path class="cls-51" d="M91.15,41.21a.86.86,0,0,1-.86.86H71a.86.86,0,0,1-.86-.86h0a.86.86,0,0,1,.86-.86H90.28a.86.86,0,0,1,.86.86Z"/><path class="cls-53" d="M80.7,41.21h-.77v16a.73.73,0,0,0,.73.73h0Z"/><path class="cls-53" d="M73.25,41.21,70.14,57.09a.73.73,0,1,0,1.43.28l3.16-16.17Z"/><path class="cls-53" d="M80.7,40.34H71a.86.86,0,0,0,0,1.73H80.7Z"/><path class="cls-54" d="M495.7,63.91c1.34-.25,2.8,0,6.16.25s5.13,1.29,4.93,1.93c-.45,1.43-3,2.41-4.25,2.1-2.35-.59-3.1.6-4.48.17-2.91-.92-5.71-.08-6.72-1.17s-.45-2.6.9-2.68A26.87,26.87,0,0,0,495.7,63.91Z"/><path class="cls-54" d="M485.55,59.12a17.25,17.25,0,0,1,3.75.15c2,.15,3.12.79,3,1.17a2.58,2.58,0,0,1-2.59,1.28c-1.43-.36-1.89.37-2.72.1-1.77-.56-3.47-.05-4.09-.71a.91.91,0,0,1,.54-1.63A16.35,16.35,0,0,0,485.55,59.12Z"/><path class="cls-54" d="M503.93,59.14c2.24-.42,4.66,0,10.26.42s8.54,2.15,8.2,3.21c-.75,2.37-5,4-7.09,3.49-3.92-1-5.17,1-7.46.28-4.85-1.54-9.51-.14-11.19-2-1.85-2-.75-4.33,1.49-4.47A44.76,44.76,0,0,0,503.93,59.14Z"/><ellipse class="cls-55" cx="502.98" cy="62.61" rx="8" ry="3.75"/><path class="cls-25" d="M505.34,50.38a8.75,8.75,0,0,1-3,1.92,8.28,8.28,0,0,1,4.94-4.94A8.75,8.75,0,0,1,505.34,50.38Z"/><path class="cls-26" d="M499.17,50.38a8.75,8.75,0,0,0,3,1.92,8.28,8.28,0,0,0-4.94-4.94A8.75,8.75,0,0,0,499.17,50.38Z"/><line class="cls-27" x1="502.26" y1="37.4" x2="502.26" y2="60.1"/><path class="cls-56" d="M504.8,31.65a9.33,9.33,0,0,1-2.54,5.75,9.33,9.33,0,0,1-2.54-5.75q0-.12,0-.24a2.54,2.54,0,0,1,5.07,0Q504.8,31.53,504.8,31.65Z"/><path class="cls-57" d="M500,31.54a9.33,9.33,0,0,1,2.27,5.86,9.33,9.33,0,0,1-5.86-2.27l-.16-.17a2.54,2.54,0,0,1,3.58-3.58Z"/><path class="cls-58" d="M496.51,34.86a9.33,9.33,0,0,1,5.75,2.54,9.33,9.33,0,0,1-5.75,2.54h-.24a2.54,2.54,0,0,1,0-5.07Z"/><path class="cls-59" d="M496.4,39.66a9.33,9.33,0,0,1,5.86-2.27A9.33,9.33,0,0,1,500,43.25l-.17.16a2.54,2.54,0,0,1-3.58-3.58Z"/><path class="cls-60" d="M499.72,43.14a9.33,9.33,0,0,1,2.54-5.75,9.33,9.33,0,0,1,2.54,5.75q0,.12,0,.24a2.54,2.54,0,0,1-5.07,0Q499.72,43.26,499.72,43.14Z"/><path class="cls-61" d="M504.53,43.25a9.33,9.33,0,0,1-2.27-5.86,9.33,9.33,0,0,1,5.86,2.27l.16.17a2.54,2.54,0,0,1-3.58,3.58Z"/><path class="cls-62" d="M508,39.94a9.33,9.33,0,0,1-5.75-2.54A9.33,9.33,0,0,1,508,34.86h.24a2.54,2.54,0,0,1,0,5.07Z"/><path class="cls-63" d="M504.78,31.3s0,.08,0,.12,0,.16,0,.24a9.33,9.33,0,0,1-2.54,5.75,9.33,9.33,0,0,0,5.86-2.27l.16-.17A2.54,2.54,0,0,0,504.78,31.3Z"/><path class="cls-30" d="M507.09,36a1.94,1.94,0,0,0-2.43-3s0,.06,0,.09,0,.12,0,.18,0-.12,0-.18a1.94,1.94,0,0,0-3.84-.48,1.94,1.94,0,0,0-3,2.43,1.94,1.94,0,0,0-.4,3.84,1.94,1.94,0,0,0,2.43,3,1.94,1.94,0,0,0,3.84.4,1.94,1.94,0,0,0,3-2.43A1.94,1.94,0,0,0,507.09,36Z"/><circle class="cls-14" cx="502.26" cy="37.4" r="1.65"/><path class="cls-32" d="M509.09,54.17c0,.1-.09.2-.26.3-.78.44-3.25.76-6.17.76s-5.38-.32-6.16-.76c-.17-.1-.26-.2-.26-.3a.46.46,0,0,1,.05-.22,3.14,3.14,0,0,0,1.6.58,32.6,32.6,0,0,0,9.54,0A3.26,3.26,0,0,0,509,54,.36.36,0,0,1,509.09,54.17Z"/><path class="cls-33" d="M502.66,53.1c-3.27,0-6,.07-6.37.85.4.52,3.1.93,6.37.93s5.92-.4,6.36-.91C508.58,53.3,505.9,53.1,502.66,53.1Zm0,1.51c-3.36,0-6.08-.33-6.08-.73s2.72-.73,6.08-.73,6.08.33,6.08.73S506,54.62,502.67,54.62Z"/><path class="cls-34" d="M504.18,54.59l-1.51,0c-3.36,0-6.08-.33-6.08-.73s2.72-.73,6.08-.73l1.51,0c-2.63.08-4.57.37-4.57.71S501.55,54.51,504.18,54.59Z"/><path class="cls-35" d="M508.75,53.89c0,.34-1.94.63-4.57.71-2.63-.08-4.57-.37-4.57-.71s1.94-.62,4.57-.71C506.81,53.26,508.75,53.55,508.75,53.89Z"/><path class="cls-33" d="M504.69,62.62l-.07-.05-.07-.05-.41-.35c-.36,0-.73,0-1.11,0-.08,0-.16-.06-.23-.06h-.1a8.87,8.87,0,0,1-4-.77c0,.05,0,.14,0,.2s0,.11,0,.16a2.41,2.41,0,0,0,.19.5,4.51,4.51,0,0,0,2.47.81,4.7,4.7,0,0,0,1.25.09A4.77,4.77,0,0,0,503.9,63H504a8.12,8.12,0,0,0,1-.18Z"/><path class="cls-33" d="M504,62.05h0l-.11-.11-.07-.07,0,0-.05-.05-.06-.06-.21-.22h0l-.06-.07-.12-.14,0,0,0,0,0,0-.08-.1,0,0-.05-.07-.06-.08a6.8,6.8,0,0,1-1.49-5.64c-.51,0-1,0-1.46-.08a10.51,10.51,0,0,1-3.49-.67h0l.27.81.05.16.13.4,0,.14.13.39,0,.14.12.38,0,.13,1.38,4.2s0,0,0,.08,0,0,0,.05a8.87,8.87,0,0,0,4,.77h.1c.08,0,.16.07.23.06.38,0,.76,0,1.11-.05C504.1,62.09,504.07,62.09,504,62.05Z"/><path class="cls-36" d="M506.6,61.46a2.3,2.3,0,0,1,0,.26,2.25,2.25,0,0,1-.18.47v0a3.36,3.36,0,0,1-1.4.62l-.28-.21-.07-.05-.07-.05-.41-.35A7.73,7.73,0,0,0,506.6,61.46Z"/><path class="cls-36" d="M508.83,54.46l-.35,1.05,0,.14-.12.37h0l0,.13-.12.37,0,.13L508,57l0,.13h0l-1.16,3.53-.12.37,0,.15s0,0,0,.13,0,.08,0,.12a7.73,7.73,0,0,1-2.46.7l-.11-.1h0l-.11-.11-.07-.07,0,0-.05-.05-.06-.06-.21-.22h0l-.06-.07-.12-.14,0,0,0,0,0,0-.08-.1,0,0-.05-.07-.06-.08a6.8,6.8,0,0,1-1.49-5.64l1.21,0c.57,0,1.12,0,1.64,0a13.24,13.24,0,0,0,4.52-.73Z"/><path class="cls-32" d="M506.62,61.34s0,.08,0,.12a7.73,7.73,0,0,1-2.46.7,11.13,11.13,0,0,1-1.11.09h-.33a8.81,8.81,0,0,1-4-.84s0-.09,0-.12a8.79,8.79,0,0,0,4,.84h.2c.39,0,.77,0,1.13-.08a9.15,9.15,0,0,0,1.66-.34h0A6,6,0,0,0,506.62,61.34Z"/><path class="cls-32" d="M502.79,62.25a8.68,8.68,0,0,1-4.08-.67c0-.06,0-.12,0-.17a8.81,8.81,0,0,0,4,.84Z"/><path class="cls-32" d="M505.69,61.71a10.18,10.18,0,0,1-2.8.53h-.19a8.81,8.81,0,0,1-4-.84s0-.09,0-.12a8.79,8.79,0,0,0,4,.84A10.14,10.14,0,0,0,505.69,61.71Z"/><path class="cls-32" d="M508.49,55.52l0,.14a14.86,14.86,0,0,1-5.63.9c-2.81,0-5.16-.52-6-1.12l-.05-.16c.81.62,3.21,1.17,6.08,1.17A14.57,14.57,0,0,0,508.49,55.52Z"/><path class="cls-32" d="M508.32,56l0,.13a15.53,15.53,0,0,1-5.46.82A13.79,13.79,0,0,1,497,56l0-.14a13.45,13.45,0,0,0,5.9,1A15.29,15.29,0,0,0,508.32,56Z"/><path class="cls-32" d="M508.16,56.53l0,.13a16.12,16.12,0,0,1-5.3.76,14.63,14.63,0,0,1-5.68-.92l0-.14a14.34,14.34,0,0,0,5.73.95A15.9,15.9,0,0,0,508.16,56.53Z"/><path class="cls-32" d="M508,57l0,.13h0a16.64,16.64,0,0,1-5.13.7A15.32,15.32,0,0,1,497.3,57l0-.13a15.08,15.08,0,0,0,5.56.87A16.45,16.45,0,0,0,508,57Z"/><path class="cls-37" d="M508.28,54.16h0a19.05,19.05,0,0,1-3.83.42h-.29l-1.51,0-1.26,0h-.32a.24.24,0,0,1-.13,0,.22.22,0,0,1-.1,0h0l-1,0-.76-.06c-.42,0-.8-.08-1.13-.13l-.7-.13A1.66,1.66,0,0,1,498,54a.25.25,0,0,1,.26-.33,1.28,1.28,0,0,1,0-.23c0-.1.07-.18.23-.12a.39.39,0,0,1,.33,0,.74.74,0,0,1,.52-.08.35.35,0,0,1,.35-.33c0-.2.3-.23.49-.19,0-.2.22-.48.41-.25,0-.16.1-.24.26-.16.1-.15.32-.22.37,0,.06-.27.49-.37.42,0,.11-.18.36-.17.38,0,.13-.08.29-.06.33.09,0-.23.32-.19.38,0,.19-.06.44,0,.46.16a.44.44,0,0,1,.35,0c0-.21.46-.45.52-.14.17-.16.36-.08.32.13a.39.39,0,0,1,.32,0c.1,0,0,.1,0,.14.34-.12.58-.1.56.23.19-.06.29.05.26.21.16-.06.32,0,.33.14.11-.14.4-.18.45,0a.32.32,0,0,1,.32-.11c.13,0,.09.13.11.2.18-.25.44-.07.55.13a.43.43,0,0,1,0,.12.37.37,0,0,1,.53.34c.36,0,.4,0,.43.28Z"/><path class="cls-38" d="M508.27,54.17a19.05,19.05,0,0,1-3.83.42v0h0v0l0,0v0h0l0,0h-.26c0-.2-.22-.18-.39-.14a.22.22,0,0,0,0,0h0v0h0l0,0,0,0,0,0,0,0h0l0,0,0,0h0l-.06,0H503l0,0h0v0h0v0a.2.2,0,0,0,0-.06v0h0v0h0l0,0,0,0h0l0,0h0l-.07,0h-.44a.34.34,0,0,1,.12-.14.62.62,0,0,1,.18-.08,1,1,0,0,1,.41,0,.41.41,0,0,1,0-.38.27.27,0,0,1,.29-.09c0-.3.67-.52.81-.23a.56.56,0,0,1,.67.11h0a.2.2,0,0,1,0,.13h.09a.27.27,0,0,1,.13,0,.21.21,0,0,1,.07.08.34.34,0,0,1,0,.13h0c.19,0,.47,0,.47.22.1-.19.38-.16.57-.1a.51.51,0,0,1,.19.16.19.19,0,0,0,.07.05.51.51,0,0,0,.25,0l.15,0a.36.36,0,0,1,.15,0,.46.46,0,0,1,.17.11,1.17,1.17,0,0,1,.14.18c.21-.1.51-.14.58.12Z"/><path class="cls-39" d="M498.14,55.13l.07,0h-.07Z"/><path class="cls-39" d="M504.44,54.58h-.29l-1.51,0-1.26,0h-.32a.24.24,0,0,1-.13,0,.22.22,0,0,1-.1,0h0l-1,0-.76-.06s0-.08,0-.12a.92.92,0,0,1,0-.24.55.55,0,0,1,.3-.37,1.5,1.5,0,0,1,.83-.13.45.45,0,0,1,.25.12.62.62,0,0,1,0-.11.76.76,0,0,1,.33-.34h0l0,0h0l.14,0,.14,0c.11,0,.2.07.19.18s.17,0,.16.09h.06c.08,0,.14.06.11.14s.14,0,.14.11a.16.16,0,0,1,0,0h.1a.1.1,0,0,1,.1.14.2.2,0,0,1,.09-.12l.08,0h.44l.07,0h0l0,0h0l0,0,0,0h0v0h0v0a.2.2,0,0,1,0,.06v0h0v0h0l0,0h.41l.06,0h0l0,0,0,0h0l0,0,0,0,0,0,0,0h0v0h0a.22.22,0,0,1,0,0c.17,0,.42-.06.39.14h.26l0,0h0v0l0,0v0h0v0Z"/><path class="cls-38" d="M501.6,53.53h-.06c0-.09-.06-.13-.16-.09s-.08-.16-.19-.18l-.14,0-.14,0h0l0,0h0a.76.76,0,0,0-.33.34.62.62,0,0,0,0,.11.45.45,0,0,0-.25-.12,1.5,1.5,0,0,0-.83.13.55.55,0,0,0-.3.37.92.92,0,0,0,0,.24s0,.08,0,.12c-.42,0-.8-.08-1.13-.13a.29.29,0,0,1,.2,0c0-.09,0-.29.18-.22,0-.14.11-.12.17-.21s0-.31,0-.45a.21.21,0,0,1,.15-.13.39.39,0,0,1,.17,0,.24.24,0,0,1,.21.14c0-.07.06-.13.15-.17a.32.32,0,0,1,.27,0,.13.13,0,0,1,.06.06.19.19,0,0,1,.26,0l0-.05a1.17,1.17,0,0,1,.38-.44c.09-.05.34-.16.35,0,0-.39.82-.32.56.06h0c.18,0,.24.09.22.21a.34.34,0,0,1,0,.1l0,0h0l0,0C501.45,53.32,501.59,53.41,501.6,53.53Z"/><path class="cls-38" d="M501.38,54.6h-.32a.24.24,0,0,1-.13,0,.22.22,0,0,1-.1,0h0l-1,0a.37.37,0,0,1,.2-.1c0-.15.14-.16.28-.07,0-.2.28-.09.39,0l.18.08a.46.46,0,0,1,.15.09.16.16,0,0,1,.09,0A.24.24,0,0,1,501.38,54.6Z"/><path class="cls-39" d="M501.41,53.12c.15-.1.31.06.32.17.2,0,.32.09.31.25a0,0,0,0,1,0,0c.27,0,.34.11.31.31a1.09,1.09,0,0,1,.57,0c.1,0,.19,0,.29,0a.83.83,0,0,1,.2.11c0-.18-.46-.24-.63-.17,0-.11-.21-.14-.27-.07.07-.13-.12-.25-.26-.23.06-.1-.08-.17-.16-.1s-.15-.16-.2-.2-.25-.17-.38-.09c0-.17-.54-.3-.52,0,0,0-.45.08-.2.25.09.06.07,0,.15-.05S501.3,53,501.41,53.12Z"/><path class="cls-37" d="M504,54c.1-.06.12-.15.25-.18a.38.38,0,0,1,.33.06c.1-.08.17,0,.25,0s.32-.09.39,0c.08,0,.23,0,.28,0,.2-.16-.22-.29-.27-.16,0-.14-.36-.2-.33,0l-.07,0c0-.06-.07-.14-.14-.1s-.14-.09-.24-.08v0c-.18-.1-.38,0-.38.17-.15-.13-.25-.06-.24.09s-.5,0-.46.24c.09,0,.18-.08.28-.1A1.29,1.29,0,0,0,504,54Z"/><path class="cls-39" d="M504.19,53c.13-.05.33-.1.38.06.15,0,.21,0,.28.13s.19.07.21.17.16-.1.14-.16-.22-.08-.32-.08-.2-.23-.35-.21c-.13-.23-.65-.13-.62.14s.42.14.26,0Z"/><path class="cls-39" d="M506.47,53.91c.11-.07.19,0,.29,0s.24-.07.33,0c0-.1.06-.22-.07-.29a.19.19,0,0,0-.28.1c-.06-.12-.51-.19-.5,0-.19-.12-.52,0-.39.22S506.36,53.63,506.47,53.91Z"/><path class="cls-40" d="M505.22,54.18c0-.2-.48-.31-.49-.08S505.19,54.43,505.22,54.18Z"/><path class="cls-40" d="M504.22,54.45c.05.05.28.09.24,0s-.21,0-.25,0Z"/><path class="cls-40" d="M501.44,53.79c-.11-.13-.5,0-.38.14S501.59,54,501.44,53.79Z"/><path class="cls-40" d="M502.2,53.92c0-.15-.37-.15-.36,0S502.23,54.1,502.2,53.92Z"/><path class="cls-40" d="M499.36,54.32c.11-.08,0-.18-.07-.21s-.41,0-.44.11S499.28,54.39,499.36,54.32Z"/><path class="cls-40" d="M500.33,54c-.09,0-.38.05-.29.16S500.56,54.12,500.33,54Z"/><path class="cls-40" d="M501.12,54.44h0a.24.24,0,0,1-.13,0,.22.22,0,0,1-.1,0h0c-.07,0,0-.13.07-.16l.09,0c.09,0,.14,0,.15.07S501.18,54.41,501.12,54.44Z"/><path class="cls-40" d="M501.54,54.39c.07.07.39.15.39,0s-.32-.11-.38,0Z"/><path class="cls-40" d="M504,53.61c.08,0,.4.14.36,0s-.31-.1-.33,0Z"/><path class="cls-40" d="M503.7,54.16c-.09,0-.34,0-.39.06S503.76,54.37,503.7,54.16Z"/><path class="cls-40" d="M503.29,53.89c0-.11-.39-.13-.35,0S503.38,54.07,503.29,53.89Z"/><path class="cls-41" d="M500.07,53.8c0-.2.48-.31.49-.08S500.1,54,500.07,53.8Z"/><path class="cls-41" d="M501.07,54.08c-.05.05-.28.09-.24,0s.21,0,.25,0Z"/><path class="cls-41" d="M503.85,53.41c.11-.13.5,0,.38.14S503.7,53.59,503.85,53.41Z"/><path class="cls-41" d="M503.08,53.54c0-.15.37-.15.36,0S503.05,53.72,503.08,53.54Z"/><path class="cls-41" d="M505.92,53.95c-.11-.08,0-.18.07-.21s.41,0,.44.11S506,54,505.92,53.95Z"/><path class="cls-41" d="M505,53.65c.09,0,.38.05.29.16S504.73,53.74,505,53.65Z"/><path class="cls-41" d="M504.3,54c.19,0,.29.19.06.21S504,54,504.3,54Z"/><path class="cls-41" d="M503.74,54c-.07.07-.39.15-.39,0s.32-.11.38,0Z"/><path class="cls-41" d="M501.28,53.23c-.08,0-.4.14-.36,0s.31-.1.33,0Z"/><path class="cls-41" d="M501.59,53.79c.09,0,.34,0,.39.06S501.52,54,501.59,53.79Z"/><path class="cls-41" d="M499.82,54.23c-.07,0-.45.1-.39,0s.34,0,.4,0Z"/><path class="cls-41" d="M502,53.51c0-.11.39-.13.35,0S501.91,53.7,502,53.51Z"/><ellipse class="cls-24" cx="449.36" cy="58.22" rx="5.89" ry="2.76"/><ellipse class="cls-24" cx="459.76" cy="58.42" rx="5.32" ry="2.19"/><path class="cls-64" d="M451.09,39.36l.85-.54-.48-1.11a.65.65,0,0,0-.86.32Q450.83,38.7,451.09,39.36Z"/><path class="cls-65" d="M451.94,38.82l-.85.54q.29.77.61,1.51a1.42,1.42,0,0,0,.89-.54Z"/><path class="cls-66" d="M450,38.6h0a5.54,5.54,0,0,0,2.21-.64l-1.13-2.14a1.14,1.14,0,0,0-1.28-.58,1.11,1.11,0,0,0-.53,1.15Z"/><path class="cls-67" d="M450,38.6l.16.49a4.78,4.78,0,0,0,2.25-.72l-.2-.4a5.54,5.54,0,0,1-2.21.64Z"/><path class="cls-65" d="M451.42,40.79a24.48,24.48,0,0,0,3.89.49,1.25,1.25,0,0,0-.1-1.41,26.74,26.74,0,0,0-3.52,0A.71.71,0,0,0,451.42,40.79Z"/><path class="cls-65" d="M454.94,40.72a1.4,1.4,0,0,1,.54-1.4,2.31,2.31,0,0,1,.44-.3,2.25,2.25,0,0,1,1.45-.24.9.9,0,0,1,.21.18h0a.65.65,0,0,1,.38.13q.38.58.14.88l0,0q.26.23,0,.55h0v0h0q.09.26-.21.41a.58.58,0,0,1-.16.35,1.22,1.22,0,0,1-.42.13l-.13,0-.17,0a2.91,2.91,0,0,1-.83.07,1.6,1.6,0,0,1-1.12-.6A2.05,2.05,0,0,1,454.94,40.72Zm2.68.42a1.19,1.19,0,0,1-.61.11.24.24,0,0,1-.07-.08.24.24,0,0,1,0-.16.24.24,0,0,0,0,.16.24.24,0,0,0,.07.08,1.19,1.19,0,0,0,.61-.11l.24-.12Zm-.67-.26.09.06a2.1,2.1,0,0,0,1-.31,2.1,2.1,0,0,1-1,.31l-.09-.06a.3.3,0,0,1,0-.43l0-.06.07,0a2,2,0,0,0,.64-.23,1.37,1.37,0,0,0,.4-.27.24.24,0,0,1-.27.08.69.69,0,0,1-.31-.23l-.2-.26-.16.08a1.22,1.22,0,0,1-.14.43.64.64,0,0,1,.5-.25.69.69,0,0,0,.31.23.24.24,0,0,0,.27-.08,1.37,1.37,0,0,1-.4.27,2,2,0,0,1-.64.23l-.07,0,0,0q-.07-.09,0-.3a2.85,2.85,0,0,1-.4.49l-.14.1a1.09,1.09,0,0,1-.7.2,1.09,1.09,0,0,0,.7-.2l.56.34A.56.56,0,0,1,457,40.88Zm0,.34a.21.21,0,0,0,.06.3.21.21,0,0,1-.06-.3l0,0ZM458,39.64q.12.23.05.29s0-.14-.05-.29a5.88,5.88,0,0,0-.38-.62A5.88,5.88,0,0,1,458,39.64Z"/><path class="cls-68" d="M456.5,40.57a2.85,2.85,0,0,0,.4-.49q-.07.21,0,.3l0,0,0,.06a.3.3,0,0,0,0,.43.56.56,0,0,0,0,.13l-.56-.34Zm.44-.54a1.22,1.22,0,0,0,.14-.43l.16-.08.2.26A.64.64,0,0,0,456.93,40Z"/><path class="cls-69" d="M456.94,41.56a.26.26,0,0,1-.07-.36l0,0a.31.31,0,0,1,0-.16.57.57,0,0,1,0-.11.34.34,0,0,1,0-.43l0-.05a.22.22,0,0,1,0-.12,3.32,3.32,0,0,1-.28.32l-.15.11a1.14,1.14,0,0,1-.73.21,0,0,0,1,1,0-.1,1,1,0,0,0,.67-.2l.13-.1a2.8,2.8,0,0,0,.39-.48l0,0a0,0,0,0,1,0,0,1.17,1.17,0,0,0,.13-.41,0,0,0,0,1,0,0l.16-.08a0,0,0,0,1,.06,0l.2.26h0a.64.64,0,0,0,.29.22.19.19,0,0,0,.22-.07h0s0,0-.06-.23a5.84,5.84,0,0,0-.38-.61,0,0,0,0,1,.08-.06,6,6,0,0,1,.38.62c.06.11.12.27,0,.35s-.1.11-.42.28a2.09,2.09,0,0,1-.63.23h0c-.13.19-.07.3,0,.36l.07,0a2.11,2.11,0,0,0,.92-.31,0,0,0,0,1,0,.09,2.13,2.13,0,0,1-1,.32h0l0,0V41a.19.19,0,0,0,0,.13h0l0,.05a1.16,1.16,0,0,0,.57-.11l.23-.12a0,0,0,0,1,.05.09l-.24.13a1.25,1.25,0,0,1-.64.11h0l0,0a.16.16,0,0,0,.06.22,0,0,0,0,1,0,.07l0,0Zm.78-1.5a.74.74,0,0,1-.32-.23.59.59,0,0,0-.44.23h0a0,0,0,0,1,0,0c0,.12,0,.21,0,.25v0l0,0a2,2,0,0,0,.61-.23l.15-.09Zm-.51-.48-.1,0a1.19,1.19,0,0,1-.05.21.64.64,0,0,1,.27-.1Z"/><path class="cls-70" d="M462,39.88l-.12,0a.89.89,0,0,0-.26,0v0l0-.07v0h0l0-.06v0l0-.13,0-.06,0-.05,0,0,0,0,0,0h0l0,0,0,0,0,0-.12-.18,0,0,0,0,0,0,0,0,0,0,0-.05,0,0,0,0,0,0h0l0,0h0l0,0h0l0,0-.05,0-.07,0,0,0,0,0-.16-.09a2,2,0,0,1,.45.08,2.78,2.78,0,0,1,1.52,1.52A2,2,0,0,1,462,39.88Z"/><path class="cls-33" d="M467.66,42.86h0l-.11,0-.1,0h-.07l-.64-.15-.08,0-.12,0-.06,0-.1,0-.08,0-.1,0h0l-.11,0-.12,0-.12,0-.39-.15-.1,0h0l-.17-.07h0l-.14-.06-.16-.07-.11,0-.16-.08-.13-.07-.24-.12-.11-.06-.09,0-.06,0-.05,0-.06,0-.06,0-.07,0,0,0-.09-.06,0,0-.06,0h0l-.06,0-.12-.07-.06,0-.3-.2-.07,0h0l-.09-.06-.06,0-.07-.05,0,0-.07,0-.07-.05-.07-.05h0l-.06,0-.1-.08-.09-.08,0,0,0,0-.06-.05-.07-.06,0,0,0,0,0,0,0,0,0,0h0l0,0,0,0h0l0-.05h0l1.28,0H463c.59,0,2-.27,2.11-.27a1.25,1.25,0,0,1,.53.26c.09.11.87,1.51,1.16,1.92a5.26,5.26,0,0,1,.46.79l.11.07a1.24,1.24,0,0,1,.25.23.29.29,0,0,1,.06.08Z"/><path class="cls-32" d="M467.61,43s-.16,0-.16,0h0l-.12,0-.1,0h0l-.11,0-.11,0-.34-.09a13.4,13.4,0,0,1-1.35-.46c-.34-.14-.69-.29-1-.46s-.63-.32-.92-.49l-.09-.05-.09-.05-.12-.07-.12-.07-.35-.22h0l0,0-.11-.07-.19-.13-.11-.08-.21-.15h0l-.1-.08h0l-.09-.07,0,0h0l0,0,0,0h0l-.07-.06h0l-.09-.08h0s-.08-.07-.09-.13a.13.13,0,0,1,0-.09.23.23,0,0,1,.12-.07h0l.05.05h0l0,0,0,0h0l0,0,0,0,0,0,0,0,0,0,.07.06.06.05,0,0,0,0,.09.08.1.08.06,0h0l.07.05.07.05.07,0,0,0,.07.05.06,0,.09.06h0l.07,0,.3.2.06,0,.12.07.06,0h0l.06,0,0,0,.09.06,0,0,.07,0,.06,0,.06,0,.05,0,.06,0,.09,0,.11.06.24.12.13.07.16.08.11,0,.16.07.14.06h0l.17.07h0l.1,0,.39.15.12,0,.12,0,.11,0h0l.1,0,.08,0,.1,0,.06,0,.12,0,.08,0,.64.15h.07l.1,0,.11,0h0v0A.14.14,0,0,1,467.61,43Z"/><path class="cls-71" d="M454.72,51.26a2.23,2.23,0,0,1-.35.52A3.16,3.16,0,0,1,454,51l.78-1.16A1.58,1.58,0,0,1,454.72,51.26Z"/><path class="cls-33" d="M463.8,54.36l.36-1.13L467.45,43l-.12,0-.1,0h0l-.11,0-.11,0c-.36-.09-.73-.2-1.12-.33l-.37-.14-.43-.17-.82-.37c-.32-.16-.63-.32-.92-.49l-.15-.09-.15-.09-.12-.07-.35-.22h0l-.33-.23-.11-.08-.21-.15h0l-.1-.08-.1-.08-.09-.07,0,0-.08-.06h0l-.09-.08-4.7,7-.78,1.16-.52.77-.6.89L454,51l0,.07,0,0,.06.16,0,0h0l0,0,.09.19.05.1,0,0,0,0,0,.06,0,.06,0,.06,0,.06,0,.06,0,.06,0,.06,0,.06,0,.06,0,0,0,0,.08.1.09.1h0l.11.12h0l.1.1.14.14.13.12.27.24.07.06.07.06.07.06,0,0,0,0,.06,0,.08.06.06,0,.09.06.15.1,0,0,.06,0,.06,0,.08.05a11.54,11.54,0,0,0,1.27.72,11.32,11.32,0,0,0,1.74.68,7,7,0,0,0,3,.3h.33s0,.21,0,.2,0,.21,0,.21h0v-.22s0-.12.05-.12.08-.08.12-.1l.05,0v0l0,0Z"/><path class="cls-33" d="M472.35,49.39s-2.61,1.39-5.11,2.64c-1.53.76-3,1.47-3.81,1.77-.33.12-.55.18-.61.14a1.07,1.07,0,0,1-.31-1,3.19,3.19,0,0,1,0-.32l0-.13a2.38,2.38,0,0,1,.14-.41,3.44,3.44,0,0,1,1.17-1.33l.11,0,.75-.27,3.13-1.12L471.62,48l0,0a1.42,1.42,0,0,0,.24.93l0,0L472,49a1.55,1.55,0,0,0,.32.3Z"/><path class="cls-70" d="M474.7,50.17,473,49.6l-.55-.18-.08,0-.07-.07,0,0A1.54,1.54,0,0,1,472,49l0,0,0,0,0,0,0,0,0,0h0a1.43,1.43,0,0,1-.19-.57,1.37,1.37,0,0,1,0-.29v-.09l.32-.65.7-1.43a4.43,4.43,0,0,0,.48,2.4A4.3,4.3,0,0,0,474.7,50.17Z"/><path class="cls-70" d="M475.4,50.15l0,0a.64.64,0,0,1-.56-.07,4.3,4.3,0,0,1-1.54-2,4.43,4.43,0,0,1-.48-2.4.82.82,0,0,1,.2-.43l0,0c.54-.25,1.48.66,2.1,2S475.79,49.76,475.4,50.15Z"/><path class="cls-33" d="M475.06,50l-.08,0-.15-.06h0a4.15,4.15,0,0,1-1.44-1.86,4.25,4.25,0,0,1-.47-2.27.5.5,0,0,1,.21-.37l.08,0,.15.06a4,4,0,0,1,1.47,1.88C475.45,48.81,475.39,49.89,475.06,50Z"/><ellipse class="cls-72" cx="473.71" cy="46.08" rx="0.07" ry="0.14" transform="translate(20.76 192.24) rotate(-23.44)"/><ellipse class="cls-72" cx="473.08" cy="46.22" rx="0.07" ry="0.14" transform="translate(20.67 192.06) rotate(-23.45)"/><ellipse class="cls-72" cx="473.43" cy="47.19" rx="0.07" ry="0.14" transform="translate(20.26 192.08) rotate(-23.42)"/><ellipse class="cls-72" cx="473.8" cy="46.8" rx="0.07" ry="0.14" transform="translate(20.48 192.32) rotate(-23.44)"/><ellipse class="cls-72" cx="474.44" cy="46.95" rx="0.07" ry="0.14" transform="translate(20.39 192.32) rotate(-23.4)"/><ellipse class="cls-72" cx="474.84" cy="47.77" rx="0.07" ry="0.14" transform="translate(20.17 192.79) rotate(-23.43)"/><ellipse class="cls-72" cx="474.71" cy="48.46" rx="0.07" ry="0.14" transform="translate(19.95 193) rotate(-23.46)"/><ellipse class="cls-72" cx="474.24" cy="47.71" rx="0.07" ry="0.14" transform="translate(20.18 192.65) rotate(-23.45)"/><ellipse class="cls-72" cx="473.77" cy="48.15" rx="0.07" ry="0.14" transform="translate(19.91 192.33) rotate(-23.43)"/><ellipse class="cls-72" cx="474.36" cy="48.75" rx="0.07" ry="0.14" transform="translate(19.84 192.98) rotate(-23.47)"/><ellipse class="cls-72" cx="474.78" cy="49.66" rx="0.07" ry="0.14" transform="translate(19.45 193.05) rotate(-23.45)"/><ellipse class="cls-72" cx="474.14" cy="49.18" rx="0.07" ry="0.14" transform="translate(19.58 192.73) rotate(-23.45)"/><ellipse class="cls-72" cx="475.09" cy="49.24" rx="0.07" ry="0.14" transform="translate(19.45 192.51) rotate(-23.37)"/><path class="cls-33" d="M457.75,40.2a3.74,3.74,0,0,0-.16.4l0-.15a2.91,2.91,0,0,1,2.74-2.24l.16.09A3,3,0,0,0,457.75,40.2Z"/><path class="cls-33" d="M461.54,39.78h0l0-.06,0-.06,0-.06,0-.07,0,0-.05-.12-.06-.11,0-.05,0,0a2.66,2.66,0,0,0-.16-.25l0,0,0-.06,0,0,0,0,0,0-.09-.09,0,0,0,0h0l0,0,0,0,0,0,0,0,0,0,0,0-.05,0,0,0,0,0h.16l0,0,0,0,.07,0,.05,0,0,0h0l0,0h0l0,0h0l0,0,0,0,0,0,0,.05,0,0,0,0,0,0,0,0,0,0,.12.18,0,0,0,0,0,0h0l0,0,0,0,0,0,0,.05,0,.06,0,.13v0l0,.06h0v0l0,.07v0Z"/><path class="cls-33" d="M456.08,48l-.13.19a38.42,38.42,0,0,1,.34-4.53c.14-1.06.32-2.08.52-3l0-.1q0-.14.07-.27a3.4,3.4,0,0,1,1.25-1.79l0,0a2.21,2.21,0,0,1,1.92-.36l.23.09-.1,0a2.21,2.21,0,0,0-1.92.36l0,0A3.4,3.4,0,0,0,457,40.3q0,.14-.07.27l0,.1c-.2,1-.38,2-.52,3A38.78,38.78,0,0,0,456.08,48Z"/><path class="cls-70" d="M456.73,47l-.23.34-.42.63a38.78,38.78,0,0,1,.33-4.29c.14-1.06.32-2.08.52-3l0-.1q0-.14.07-.27a3.4,3.4,0,0,1,1.25-1.79l0,0a2.21,2.21,0,0,1,1.92-.36l.1,0,.06,0a2.87,2.87,0,0,0-2.69,2.1l0,.2-.11.5-.13.62q-.12.62-.22,1.27T457,44C456.88,45.07,456.78,46.08,456.73,47Z"/><path class="cls-70" d="M472,49,471.9,49l0,0a1.47,1.47,0,0,1-.2-.45l-9.14,4.31s0,.09,0,.14a1.07,1.07,0,0,0,.31,1c.06,0,.28,0,.61-.14.81-.3,2.29-1,3.81-1.77,2.49-1.25,5.11-2.64,5.11-2.64l-.07-.07A1.55,1.55,0,0,1,472,49Z"/><path class="cls-73" d="M456.12,53.64l.08.06.06,0,.09.06.15.1,0,0,.06,0,.06,0,.08.05.62.38,6.86-12.56c-.3-.15-.59-.3-.86-.46l-.15-.09-.15-.09-.12-.07-.35-.22h0l-.33-.23-.11-.08-.21-.15h0l-.1-.08-.1-.08-.09-.07,0,0-.08-.06h0l-.09-.08-4.7,7-.78,1.16-.52.77-.6.89L454,51l0,.07,0,0,.06.16,0,0h0l0,0,.09.19.05.1,0,0,0,0,0,.06,0,.06,0,.06,0,.06,0,.06,0,.06,0,.06,0,.06,0,.06,0,0,0,0,.08.1.09.1h0l.11.12h0l.1.1.14.14.13.12.27.24.07.06.07.06.07.06,0,0,0,0Z"/><path class="cls-64" d="M449.61,47.89a3,3,0,0,1-1.62.44q-.07,1.17-.05,2.27a.77.77,0,0,0,1.19.11Z"/><path class="cls-74" d="M449.61,47.89l.13-.73a1.46,1.46,0,0,0-1.66-.09q-.06.64-.09,1.25A3,3,0,0,0,449.61,47.89Z"/><path class="cls-64" d="M447.62,55.45a4.34,4.34,0,0,0,1.37,0c0-1.75,0-2.37.1-4.21v-.06l-.09,0q-.3,0-.38-.57a.92.92,0,0,0,.48.33h0l0-.42a1.16,1.16,0,0,0-1.2-.08,5.89,5.89,0,0,0-.52,1.94A15.75,15.75,0,0,0,447.62,55.45Z"/><path class="cls-75" d="M449.11,51a.92.92,0,0,1-.48-.33q.08.55.38.57l.09,0Z"/><path class="cls-76" d="M449,55.45a4.34,4.34,0,0,1-1.37,0v1.83a2.06,2.06,0,0,0,1.57-.07L449,56Q449,55.67,449,55.45Z"/><path class="cls-77" d="M447.06,58l3.62.63a8.12,8.12,0,0,0,1.86-.11l.41-.42a1.53,1.53,0,0,0-.53-.54,4.28,4.28,0,0,1-1.4-.06,1.88,1.88,0,0,1-.44-.17,1.23,1.23,0,0,0-.19.43.31.31,0,0,1-.32-.07,1.21,1.21,0,0,1,.2-.51l-.11-.06a1.55,1.55,0,0,0-.25.52.26.26,0,0,1-.3-.12,2.22,2.22,0,0,1,.33-.54l-.12-.09a2,2,0,0,0-.37.54q-.24,0-.26-.17a2.82,2.82,0,0,1,.43-.55l-.11-.12a1.52,1.52,0,0,0-.46.56q-.15,0-.18-.15a1.35,1.35,0,0,1,.5-.61,2,2,0,0,1-.16-.31.91.91,0,0,0-.57.67l0,.06q-.16.37-.41.4a.41.41,0,0,1-.35-.22,1.4,1.4,0,0,1-.15-.58.24.24,0,0,0-.13-.26A4,4,0,0,0,447.06,58Z"/><path class="cls-78" d="M449.81,56.92a2,2,0,0,0-.37.54q-.24,0-.26-.17a2.82,2.82,0,0,1,.43-.55A.4.4,0,0,1,449.81,56.92Zm-.77.25q-.15,0-.18-.15a1.35,1.35,0,0,1,.5-.61.22.22,0,0,1,.14.2A1.52,1.52,0,0,0,449,57.18Zm1.53.17a1.23,1.23,0,0,0-.19.43.31.31,0,0,1-.32-.07,1.21,1.21,0,0,1,.2-.51A.34.34,0,0,1,450.57,57.35Zm-.67.32a.26.26,0,0,1-.3-.12,2.22,2.22,0,0,1,.33-.54.21.21,0,0,1,.22.14A1.55,1.55,0,0,0,449.9,57.67Z"/><path class="cls-79" d="M447.06,58l-.12.69,3.78.15a10.3,10.3,0,0,0,1.9-.19l.39-.43-.06-.12-.41.42a8.12,8.12,0,0,1-1.86.11Z"/><path class="cls-80" d="M447.06,44.75l-.55,1.84a6.83,6.83,0,0,0,.68.47,6,6,0,0,0,1.25.57q.32.06.76.11a15.07,15.07,0,0,0,1.57,0l.38-2.38a7.42,7.42,0,0,0-3.45-.74q-.32,0-.65,0Z"/><path class="cls-81" d="M450,48.06a3,3,0,0,1-1.62.44q-.07,1.17-.05,2.27a.77.77,0,0,0,1.19.11Z"/><path class="cls-64" d="M450,48.06l.13-.73a1.46,1.46,0,0,0-1.66-.09q-.06.64-.09,1.25A3,3,0,0,0,450,48.06Z"/><path class="cls-81" d="M448,55.62a4.34,4.34,0,0,0,1.37,0c0-1.75,0-2.37.1-4.21v-.06l-.09,0q-.3,0-.38-.57a.92.92,0,0,0,.48.33h0l0-.42a1.16,1.16,0,0,0-1.2-.08,5.89,5.89,0,0,0-.52,1.94A15.75,15.75,0,0,0,448,55.62Z"/><path class="cls-82" d="M449.37,55.61a4.34,4.34,0,0,1-1.37,0v1.83a2.06,2.06,0,0,0,1.57-.07l-.14-1.21Q449.37,55.84,449.37,55.61Z"/><path class="cls-64" d="M449.48,51.12a.92.92,0,0,1-.48-.33q.08.55.38.57l.09,0Z"/><path class="cls-83" d="M450.05,47.64l.4,0h0l.61-.06.33-5q-.4,0-.78.06-.35,1.71-1.69,1.63l-.3,3.07a3.62,3.62,0,0,0,1.39.3Z"/><path class="cls-80" d="M447.49,42.61a.8.8,0,0,1,.35.22,5.12,5.12,0,0,0-.29,1.63.62.62,0,0,1-.44.36v.06l-.37,1.89a6.92,6.92,0,0,0,.72.4,5.86,5.86,0,0,0,1.3.45q.32,0,.77,0l.52,0v0a3.62,3.62,0,0,1-1.39-.3l.3-3.07q1.34.08,1.69-1.63.39,0,.78-.06l0-.65q-1.82,0-3.65.09l-.11.2Q447.58,42.39,447.49,42.61Z"/><path class="cls-83" d="M447.49,42.61a4.54,4.54,0,0,0-.38,1.58.1.1,0,0,1,0,0v.6a.62.62,0,0,0,.44-.36,5.12,5.12,0,0,1,.29-1.63A.8.8,0,0,0,447.49,42.61Z"/><path class="cls-81" d="M449.56,33.55a1,1,0,0,1-.39-.26L449,33a.19.19,0,0,0-.34,0l-.21.77a1,1,0,0,0,1.05.32A4.14,4.14,0,0,1,449.56,33.55Z"/><path class="cls-64" d="M449.56,33.55l.08-.26a1.4,1.4,0,0,1,.54-.6q-.44-1-1.24-.83L448.61,33a.19.19,0,0,1,.34,0l.22.25A1,1,0,0,0,449.56,33.55Z"/><path class="cls-67" d="M450.28,34.95l-.33.71a4.48,4.48,0,0,0-1-.88,3.32,3.32,0,0,0-1.09-.49l.26-.71.2,0a4.15,4.15,0,0,1,1.11.42,4.92,4.92,0,0,1,.92.69Zm1,1.83v0l-.27,0-.25-1.11H451Z"/><path class="cls-83" d="M451.28,36.8l-.27,0-.25-1.11-.48-.77-.33.71a4.48,4.48,0,0,0-1-.88,3.32,3.32,0,0,0-1.09-.49l-.17.23a4.91,4.91,0,0,0-.36.6,1.07,1.07,0,0,0-.13.54l.92,4.88-.44,1.37a6.12,6.12,0,0,0,1.6.36,22,22,0,0,0,2.23.12Z"/><polygon class="cls-67" points="451 35.71 450.4 34.73 450.28 34.95 450.76 35.71 451 35.71"/><path class="cls-84" d="M447.44,58.18l3.62.63a8.12,8.12,0,0,0,1.86-.11l.41-.42a1.53,1.53,0,0,0-.53-.54,4.29,4.29,0,0,1-1.4-.06,1.88,1.88,0,0,1-.44-.17,1.23,1.23,0,0,0-.19.43.31.31,0,0,1-.32-.07,1.21,1.21,0,0,1,.2-.51l-.11-.06a1.55,1.55,0,0,0-.25.52.26.26,0,0,1-.3-.12,2.22,2.22,0,0,1,.33-.54l-.12-.09a2,2,0,0,0-.37.54q-.24,0-.26-.17a2.83,2.83,0,0,1,.43-.55l-.11-.12a1.52,1.52,0,0,0-.46.56q-.15,0-.18-.15a1.35,1.35,0,0,1,.5-.61,2,2,0,0,1-.16-.31.91.91,0,0,0-.57.67l0,.06q-.16.37-.41.4a.41.41,0,0,1-.35-.22,1.4,1.4,0,0,1-.15-.58.24.24,0,0,0-.13-.26A4,4,0,0,0,447.44,58.18Z"/><path class="cls-85" d="M449.88,56.78a1.52,1.52,0,0,0-.46.56q-.15,0-.18-.15a1.35,1.35,0,0,1,.5-.61A.22.22,0,0,1,449.88,56.78Zm-.06.85q-.24,0-.26-.17a2.83,2.83,0,0,1,.43-.55.4.4,0,0,1,.2.18A2,2,0,0,0,449.81,57.63Zm1.14-.12a1.23,1.23,0,0,0-.19.43.31.31,0,0,1-.32-.07,1.21,1.21,0,0,1,.2-.51A.34.34,0,0,1,450.95,57.51Zm-.67.32a.26.26,0,0,1-.3-.12,2.22,2.22,0,0,1,.33-.54.21.21,0,0,1,.22.14A1.55,1.55,0,0,0,450.27,57.83Z"/><path class="cls-86" d="M447.44,58.18l-.12.69,3.78.15a10.3,10.3,0,0,0,1.9-.19l.39-.43-.06-.12-.41.42a8.12,8.12,0,0,1-1.86.11Z"/><path class="cls-81" d="M446.6,22.8l.07-.05a16.53,16.53,0,0,1,4.18-2.14q.57-.19,1.17-.35a5.64,5.64,0,0,0,2.26,2.05V20.64l.26.42.5,2.47a3.43,3.43,0,0,0,.1,1.86,3.33,3.33,0,0,0,1.29,1.39l-1.17.59a.48.48,0,0,0,.45.3l-.31,1.41a11.17,11.17,0,0,1-1.32,3q-.94,1.51-1.83,1.39a4.17,4.17,0,0,1-1.06-.31l-.12-.05-.1-.05q-.57-.28-1.34-.71l-.26-.17a6.06,6.06,0,0,1-1.85-4.74q-.38-.66-.84-1.36Zm8.22-3.19-.82-2,.21-.07a11.44,11.44,0,0,1,1.22,4.28q0,.16-.09.33Z"/><path class="cls-64" d="M454.54,21.06l-.26-.42v1.67A5.64,5.64,0,0,1,452,20.26q-.59.16-1.17.35a16.53,16.53,0,0,0-4.18,2.14l-.07.05,0-.68A17.17,17.17,0,0,1,454,17.58l.82,2,.52,2.51,0,.14a11.12,11.12,0,0,0-.27,1.27Zm1.17,6.62a.48.48,0,0,1-.45-.3l1.17-.59A2.77,2.77,0,0,1,455.7,27.68Zm-8.2-.24a6.06,6.06,0,0,0,1.85,4.74,6.2,6.2,0,0,1-2.63-4.53l-.05-1.57Q447.12,26.77,447.5,27.43Z"/><path class="cls-82" d="M452.31,24.43a10.58,10.58,0,0,0,0,1.56,3.45,3.45,0,0,0,1.93.43,17.75,17.75,0,0,0,.13-3.71A3.05,3.05,0,0,0,452.31,24.43Z"/><path class="cls-87" d="M454.41,22.71q0-.27,0-.55a1.68,1.68,0,0,0-1.85.95,5.88,5.88,0,0,0-.21,1.32A3.05,3.05,0,0,1,454.41,22.71Z"/><path class="cls-88" d="M452.85,23a1.61,1.61,0,0,1,1.57-.63l.24-.4a2.16,2.16,0,0,0-2.11.82,2.63,2.63,0,0,0-.49,1.34l.24.3A2.77,2.77,0,0,1,452.85,23Z"/><path class="cls-89" d="M453.36,25.55q.15.54.39.55t.41-.53a4.37,4.37,0,0,0,.18-1.28,4.55,4.55,0,0,0-.14-1.3q-.16-.53-.4-.53t-.41.52a4.34,4.34,0,0,0-.19,1.29A4.19,4.19,0,0,0,453.36,25.55Z"/><path class="cls-90" d="M453.54,25.57a.27.27,0,0,0,.26.11q.13,0,.19-.23a1,1,0,0,0-.2-.81.3.3,0,0,0-.28-.11q-.13,0-.18.22a.87.87,0,0,0,.2.81Z"/><path class="cls-82" d="M453.93,23.61q.1.13.18.1t.12-.18a1,1,0,0,0-.17-.66q-.1-.12-.19-.1c-.06,0-.1.07-.11.18a.85.85,0,0,0,.17.66Z"/><path class="cls-91" d="M454.38,21l.06.08.68,1.46q-.41-.17-.79-.29l-.05-1.31Zm-2.33-.7a5.89,5.89,0,0,0,1.86,1.81,9.66,9.66,0,0,0-2.21-.37,2.75,2.75,0,0,0-.45,0,4.52,4.52,0,0,1,.59-1.38l.07-.1.19,0Z"/><path class="cls-92" d="M452.27,20.28a8.44,8.44,0,0,1,1.67.47l0,0,.3.14.05,1.31-.42-.14A5.89,5.89,0,0,1,452,20.28l.05,0A.47.47,0,0,1,452.27,20.28Zm2.17.77-.06-.08h0a6.35,6.35,0,0,1,.84.44l.26.16.14.12-.5.82h0Z"/><path class="cls-93" d="M442.43,29.45a2,2,0,0,0,1,.75,0,0,0,0,0,0,0,.06.06,0,0,0,.05,0l.14,0,.66-.09-1-.73q-.47-.31-.94-.57l.07.42.07.16A.05.05,0,0,1,442.43,29.45Z"/><path class="cls-94" d="M442.28,29.49q0,3.48-3.17,4.2a.05.05,0,0,1,0,0,.56.56,0,0,1,0,.14,8.16,8.16,0,0,0,3.59-1.74,6.11,6.11,0,0,0,.73-1.92,2,2,0,0,1-1-.75Z"/><path class="cls-95" d="M439.11,33.69q3.13-.71,3.17-4.2a4.6,4.6,0,0,0-2,1.17A9.82,9.82,0,0,0,439.11,33.69Z"/><path class="cls-94" d="M436.93,13.82v0a16.59,16.59,0,0,1-.25-4.74q.12-1,.3-2.28h0a23.28,23.28,0,0,0,.73,8.27l-.77-1.22Zm-.8,4.11-.68-.92h0a7.3,7.3,0,0,1-.37-4.46h.05A16.62,16.62,0,0,0,436.13,17.93Zm-.42,4.93v0a8.76,8.76,0,0,0,6,3.36,0,0,0,0,0,0,0,21.17,21.17,0,0,1,4.06-5.14l-.45.24.54-1a3.69,3.69,0,0,1-.75-1.62,2.66,2.66,0,0,0,1.29,1.11l1.74-1.15a6.28,6.28,0,0,1-1.36-2.56,6.65,6.65,0,0,0,2.44,1.9l.09,0,.05,0a30.48,30.48,0,0,1,4-1.9,4,4,0,0,1,1-1.25,5,5,0,0,1,.42.3q.4.28.44.52a3,3,0,0,1,0,.33l-2.11,1.11,1-.23.66,1.67a10.19,10.19,0,0,0-3.66,1.55,17,17,0,0,0-4,2.61l-.26.21a16.87,16.87,0,0,1,.24,4.18c-.22,1.39.18,2.33,1.43,4.14a1.2,1.2,0,0,0-.09.17L445.67,31l-1.93-1-.54-.31-.92-.52-.63-.38-.16-.09a.61.61,0,0,0-.19-.12l-.59-.38-.07-.05a31.43,31.43,0,0,1-2.66-2l-.23-.21a10,10,0,0,1-2.18-3,3.4,3.4,0,0,0-.12-.37l0,0A2.57,2.57,0,0,0,435.71,22.86Zm1.34.44a12.65,12.65,0,0,1-1.85-2,15.64,15.64,0,0,1-.85-5.14h0a16.16,16.16,0,0,0,1.29,4.67l0,0A11,11,0,0,0,438.1,24l0,0-.94-.63Zm15.88-10.55h0l-.56-2,.07.07.3.31a6,6,0,0,1,.8,3Zm-5.76-4.53.07,0,0,0a12,12,0,0,1,1.6,4.09l-1.08-1.65a0,0,0,0,0,0,0Z"/><path class="cls-95" d="M437,6.78h0v0h0Zm-1.92,5.76a.05.05,0,0,0,0,0l0,0,2.56,2.54h0v0A23.28,23.28,0,0,1,437,6.78a21.05,21.05,0,0,1,11.84,5.57,12,12,0,0,0-1.6-4.09A19.27,19.27,0,0,1,453.54,14a6,6,0,0,0-.8-3l-.3-.31.33.28,0,0a9.4,9.4,0,0,1,2.11,4.11,5,5,0,0,0-.42-.3,4,4,0,0,0-1,1.25,30.48,30.48,0,0,0-4,1.9l-.05,0-.09,0a6.65,6.65,0,0,1-2.44-1.9,6.28,6.28,0,0,0,1.36,2.56l-1.74,1.15a2.66,2.66,0,0,1-1.29-1.11,3.69,3.69,0,0,0,.75,1.62l-.54,1,.45-.24a21.17,21.17,0,0,0-4.06,5.14,0,0,0,0,1,0,0,8.76,8.76,0,0,1-6-3.36L438.08,24l0,0a11,11,0,0,1-2.4-3.17l0,0a16.16,16.16,0,0,1-1.29-4.67h0v0l0,0,.05.05,1.69,1.76a16.62,16.62,0,0,1-1-5.38Zm1.86,1.29v0l0,0Zm-1.48,8.65,0,0,0,0Zm13.72.63L449,25.9l-1.85-3.13a17,17,0,0,1,4-2.61Zm6.32-4.67-.64.16-.66-1.67-1,.23L455.3,16Q455.41,17.32,455.49,18.45Z"/><path class="cls-96" d="M437,6.77q8.36.94,10.74,3.92a0,0,0,0,1,0,0l1.08,1.65A21.05,21.05,0,0,0,437,6.78Zm-.05,7.07h0l.77,1.22v0h0l-2.56-2.54ZM435.44,17h0l.68.92-1.69-1.76Zm2.65,7-2.37-1.11v0a2.57,2.57,0,0,1-.23-.35l1.65.85Zm9.14-15.72,0,0a12.41,12.41,0,0,1,5.68,4.47h0l.61,1.31A19.27,19.27,0,0,0,447.22,8.26Zm5.55,2.79a7.83,7.83,0,0,1,2.45,4.21h0l0,.45q0-.24-.44-.52a9.4,9.4,0,0,0-2.11-4.11Z"/><path class="cls-97" d="M440.82,28.41A18.13,18.13,0,0,1,451.59,19a4.69,4.69,0,0,1,.62-2.12,29.07,29.07,0,0,0-3.5,1.44,19.53,19.53,0,0,0-2,1.16q-.77.53-2.19,1.67l0,0A18.28,18.28,0,0,0,440,27.9,3.64,3.64,0,0,0,440.82,28.41Z"/><path class="cls-98" d="M440.82,28.41l.14.05.4.16a14.36,14.36,0,0,1,5.71-6.69,27.91,27.91,0,0,1,8.37-3.33,2.29,2.29,0,0,0,.05-.63,4.26,4.26,0,0,0-.5-2q-1.37.38-2.79.91a4.69,4.69,0,0,0-.62,2.12A18.13,18.13,0,0,0,440.82,28.41Z"/><path class="cls-99" d="M447.49,26.17a3.1,3.1,0,0,1-.35-1.37,3.65,3.65,0,0,1,.1-.62,1.93,1.93,0,0,0,0-.59,1.32,1.32,0,0,0-1.26-.5,1.09,1.09,0,0,0-.69,1.3,1,1,0,0,1,1-.69,1,1,0,0,1,.77.41.9.9,0,0,0-1,.43,1.08,1.08,0,0,0,.23,1.18A1.53,1.53,0,0,0,447.49,26.17Z"/><path class="cls-81" d="M447.49,26.17a1.53,1.53,0,0,1-1.24-.46,1.08,1.08,0,0,1-.23-1.18.9.9,0,0,1,1-.43,1,1,0,0,0-.77-.41,1,1,0,0,0-1,.69,1.09,1.09,0,0,1,.69-1.3,1.32,1.32,0,0,1,1.26.5q0-.33,0-.65a1.18,1.18,0,0,0-1.82-.07A2.11,2.11,0,0,0,445,24.8a2.17,2.17,0,0,0,.11.44q.9,2.23,2.6,2.12Q447.58,26.76,447.49,26.17Z"/><path class="cls-96" d="M459,19a5.22,5.22,0,0,0-.1-1,3.48,3.48,0,0,0-1.25-2.17,4.69,4.69,0,0,0-2.91-.76,5.39,5.39,0,0,0-1.1,1.68,12.26,12.26,0,0,1,1.23-1.31Q457.85,15.26,459,19Z"/><path class="cls-95" d="M452.19,18.59l0-.31a10.9,10.9,0,0,0,1.42,3.47l.4.36-.2-2,.06.08-.14-1.12a6.69,6.69,0,0,1,2.29,4.63,4.05,4.05,0,0,0,1.49-2.92,4.29,4.29,0,0,0-.45-1.94l-.08-.12,0,0h0l-.69-1.14q2.28,1.36,2.48,2.85A7.47,7.47,0,0,0,459,19q-1.1-3.71-4.14-3.5a12.26,12.26,0,0,0-1.23,1.31l-.93,0A3,3,0,0,0,452.19,18.59Z"/><path class="cls-100" d="M457,18.68l-.69-1.14q2.28,1.36,2.48,2.85A3.79,3.79,0,0,0,457,18.68Zm-1,5.08a15.4,15.4,0,0,0-2.07-3.58l-.14-1.12a6.69,6.69,0,0,1,2.29,4.63Zm-3.76-5.48a10.9,10.9,0,0,0,1.42,3.47,4.57,4.57,0,0,1-1.39-2.39q-.06-.42-.08-.77Z"/><path class="cls-101" d="M455.07,30.13s-1.94-.84-2.52-1-.2,2.82,1.22,3.34C454.09,32.54,455.07,30.13,455.07,30.13Z"/><path class="cls-65" d="M445.38,38.22q-.56.6-1.09,1.22a1.42,1.42,0,0,0,.87.56l1.07-1.25Z"/><path class="cls-68" d="M446.24,38.75l.79-.92a.65.65,0,0,0-.66-.63q-.5.5-1,1Z"/><path class="cls-102" d="M445.67,37h0a5.54,5.54,0,0,0,1.55,1.7l1.42-2a1.14,1.14,0,0,0,0-1.41,1.11,1.11,0,0,0-1.27,0Z"/><path class="cls-67" d="M445.67,37l-.36.36a4.78,4.78,0,0,0,1.64,1.7l.27-.35a5.54,5.54,0,0,1-1.55-1.7Z"/><path class="cls-65" d="M444.29,39.64a23.9,23.9,0,0,0,2.88,2.65,1.27,1.27,0,0,0,.74-1.21A27,27,0,0,0,445.08,39Q444.37,39,444.29,39.64Z"/><path class="cls-65" d="M449.74,42.38l.05,0,.58,0-.58,0-.05,0-.39-.2Zm0-.3.09.24Zm-2.64.17a1.68,1.68,0,0,1,.83-1.19,4.79,4.79,0,0,1,2.31.42,1.6,1.6,0,0,1,.23,1s0,0,0,0l.14,0q.35.36-.08.57.08.25-.27.41,0,.19-.36.31l-.08,0h-.09a3.12,3.12,0,0,1-1.17,0l-.12,0h-.07A13.63,13.63,0,0,1,447.07,42.25Zm3,.91a3.32,3.32,0,0,1-.83-.07,3.32,3.32,0,0,0,.83.07l.36,0Zm.05.39a2.57,2.57,0,0,1-1.3,0A2.57,2.57,0,0,0,450.16,43.54Z"/><path class="cls-68" d="M448.34,43.85l0,0,.06.05a2.93,2.93,0,0,0,1,.11q.3,0,.35-.19h0a3.12,3.12,0,0,1-1.17,0l-.12,0Z"/><path class="cls-69" d="M448.85,43.62a0,0,0,0,1,0-.1,2.54,2.54,0,0,0,1.28,0,0,0,0,0,1,0,.09,1.64,1.64,0,0,1-.62.1A4.57,4.57,0,0,1,448.85,43.62Zm.42-.49a0,0,0,0,1,0-.06.05.05,0,0,1,.06,0,3.26,3.26,0,0,0,.82.07l.35,0a0,0,0,0,1,0,.1l-.36,0H450A4,4,0,0,1,449.27,43.13Zm1.11-.63-.58,0h0l-.44-.23a0,0,0,0,1,0-.09l.37.19-.09-.23a0,0,0,1,1,.09,0l.09.24a0,0,0,0,1,0,.06l.55,0a0,0,0,0,1,0,.1Z"/><path class="cls-103" d="M475,46.28a.5.5,0,0,1-.37-.84,11.65,11.65,0,0,1,2.52-1.88.5.5,0,0,1,.51.86,11,11,0,0,0-2.29,1.7A.5.5,0,0,1,475,46.28Zm5.1-3.1a.5.5,0,0,1-.19-1,24.88,24.88,0,0,1,2.91-1,.5.5,0,0,1,.25,1,24,24,0,0,0-2.79.91A.5.5,0,0,1,480.07,43.17Zm5.78-1.54a.5.5,0,0,1-.07-1c1-.15,2-.26,3-.32a.48.48,0,0,1,.53.47.5.5,0,0,1-.47.53c-1,.06-2,.17-2.94.31Zm9-.22h0c-1-.09-2-.14-3-.15a.5.5,0,0,1-.49-.51.52.52,0,0,1,.51-.49c1,0,2,.07,3,.16a.5.5,0,0,1,0,1Z"/><path class="cls-103" d="M476.31,48.28a.5.5,0,0,1-.22-.95,27.07,27.07,0,0,1,2.84-1.15.5.5,0,1,1,.33.94,27.18,27.18,0,0,0-2.73,1.1A.49.49,0,0,1,476.31,48.28Zm20.25-.88a.5.5,0,0,1-.25-.07,13.31,13.31,0,0,0-2.64-1.16.5.5,0,0,1,.3-1,14.34,14.34,0,0,1,2.84,1.25.5.5,0,0,1-.25.93ZM482,46.29a.5.5,0,0,1-.12-1,30.48,30.48,0,0,1,3-.6.51.51,0,0,1,.57.42.5.5,0,0,1-.42.57c-.94.14-1.91.33-2.89.58Zm8.92-.73h-.06a19.63,19.63,0,0,0-2.92-.13.48.48,0,0,1-.51-.49.5.5,0,0,1,.49-.51,20.86,20.86,0,0,1,3.07.14.5.5,0,0,1-.06,1Z"/><path class="cls-103" d="M500.64,58.78a.5.5,0,0,1-.39-.19,24.8,24.8,0,0,0-1.62-1.88.5.5,0,0,1,.72-.69c.59.61,1.15,1.27,1.69,2a.5.5,0,0,1-.39.81Zm-3.86-4a.5.5,0,0,1-.31-.11A22,22,0,0,0,494.08,53a.5.5,0,1,1,.52-.85,23.09,23.09,0,0,1,2.5,1.76.5.5,0,0,1-.31.89Zm-5.11-3.11a.5.5,0,0,1-.2,0,22.34,22.34,0,0,0-2.76-1,.5.5,0,0,1,.28-1,23.29,23.29,0,0,1,2.88,1,.5.5,0,0,1-.2,1ZM477,50.28a.5.5,0,0,1-.12-1,19.43,19.43,0,0,1,3.05-.45.52.52,0,0,1,.54.46.5.5,0,0,1-.46.54,18.74,18.74,0,0,0-2.88.42Zm9-.22h-.08a25.43,25.43,0,0,0-2.93-.28.5.5,0,0,1-.48-.52.5.5,0,0,1,.52-.48,26.54,26.54,0,0,1,3,.29.5.5,0,0,1-.08,1Z"/></g></g></svg>