<svg xmlns="http://www.w3.org/2000/svg" xmlns:xlink="http://www.w3.org/1999/xlink" preserveAspectRatio="xMidYMid" width="32" height="32" viewBox="0 0 32 32">
  <defs>
    <style>
      .cls-1, .cls-2 {
        fill: #00f6ff;
      }

      .cls-1 {
        stroke: #00c1f9;
        stroke-linejoin: round;
        stroke-width: 2px;
        filter: url(#color-overlay-1);
        fill-opacity: 0.2;
      }

      .cls-2 {
        fill-rule: evenodd;
      }
    </style>

    <filter id="color-overlay-1" filterUnits="userSpaceOnUse">
      <feFlood flood-color="#007eff" flood-opacity="0.2"/>
      <feComposite operator="in" in2="SourceGraphic"/>
      <feBlend in2="SourceGraphic" result="solidFill"/>
    </filter>
  </defs>
  <g style="fill: #00f6ff; filter: url(#color-overlay-1)">
    <circle cx="16" cy="16" r="15" id="circle-1" style="stroke: inherit; filter: none; fill: inherit" class="cls-1"/>
  </g>
  <use xlink:href="#circle-1" style="stroke: #00c1f9; filter: none; fill: none"/>
  <path d="M16.360,18.904 C16.360,18.228 16.493,17.703 16.760,17.327 C17.026,16.952 17.546,16.445 18.322,15.807 C19.287,15.019 19.975,14.268 20.386,13.555 C20.796,12.842 21.001,12.050 21.001,11.179 C21.001,9.933 20.562,8.925 19.684,8.156 C18.806,7.387 17.626,7.002 16.144,7.002 C14.654,7.002 13.270,7.396 11.993,8.184 L11.993,10.481 C13.095,9.393 14.373,8.848 15.825,8.848 C16.744,8.848 17.472,9.089 18.008,9.569 C18.544,10.050 18.812,10.661 18.812,11.404 C18.812,12.103 18.639,12.720 18.293,13.257 C17.947,13.794 17.371,14.370 16.566,14.985 C15.745,15.616 15.175,16.214 14.855,16.781 C14.536,17.348 14.376,18.025 14.376,18.814 L14.376,19.782 L16.360,19.782 L16.360,18.904 ZM14.337,22.546 C14.051,22.821 13.909,23.160 13.909,23.565 C13.909,23.978 14.053,24.320 14.342,24.590 C14.631,24.860 14.969,24.996 15.357,24.996 C15.760,24.996 16.106,24.858 16.395,24.585 C16.683,24.311 16.828,23.971 16.828,23.565 C16.828,23.168 16.683,22.830 16.395,22.552 C16.106,22.274 15.760,22.135 15.357,22.135 C14.962,22.135 14.622,22.272 14.337,22.546 Z" class="cls-2"/>
</svg>
