<svg xmlns="http://www.w3.org/2000/svg" xmlns:xlink="http://www.w3.org/1999/xlink" preserveAspectRatio="xMidYMid" width="25" height="20" viewBox="0 0.5 25 20">
  <defs>
    <style>
      .cls-1 {
        fill: #00f6ff;
        fill-rule: evenodd;
      }
    </style>
  </defs>
  <g>
    <path d="M23.613,11.105 L15.904,18.819 C15.407,19.317 14.601,19.317 14.104,18.819 C13.606,18.322 13.606,17.515 14.104,17.018 L20.930,10.186 L14.104,3.355 C13.606,2.858 13.606,2.051 14.104,1.554 C14.601,1.056 15.407,1.056 15.904,1.554 L23.613,9.268 C23.866,9.521 23.987,9.854 23.983,10.186 C23.987,10.518 23.866,10.852 23.613,11.105 Z" class="cls-1"/>
    <path d="M10.871,11.105 L3.162,18.819 C2.665,19.317 1.859,19.317 1.362,18.819 C0.864,18.322 0.864,17.515 1.362,17.018 L8.188,10.186 L1.362,3.355 C0.864,2.858 0.864,2.051 1.362,1.554 C1.859,1.056 2.665,1.056 3.162,1.554 L10.871,9.268 C11.124,9.521 11.245,9.854 11.240,10.186 C11.245,10.518 11.124,10.852 10.871,11.105 Z" class="cls-1"/>
  </g>
</svg>
